<svg xmlns="http://www.w3.org/2000/svg" xmlns:xlink="http://www.w3.org/1999/xlink" viewBox="0 0 902 521">
  <defs>
    <ellipse id="partners-1" fill="#009EDB" stroke="#FFF" stroke-width="2" rx="7.699" ry="7.698"/>
    <g id="partners-2">
      <path id="Fill-1" fill="#FFF" stroke="#FFF" stroke-width="4" d="M23.196 11.598c0 6.405-5.192 11.598-11.598 11.598C5.193 23.196 0 18.003 0 11.598 0 5.193 5.193 0 11.598 0c6.406 0 11.598 5.193 11.598 11.598"/>
      <path id="Fill-2" fill="#0173A3" d="M14.572 12.073H12.99l-1.203-.045.076 1.141v1.751h-1.599v-1.75l.046-1.142-1.4.045H7.555V10.49H8.91l1.4.076-.046-1.172V7.735h1.599v1.66l-.076 1.171 1.203-.076h1.582v1.583Zm.868 4.08-.365-.929c1.39-.842 2.509-1.732 3.356-2.671.847-.939 1.272-1.87 1.272-2.793 0-.457-.15-.822-.45-1.096-.299-.274-.702-.411-1.21-.411-.345 0-.657.05-.936.152a2.94 2.94 0 0 0-.67.327 9.317 9.317 0 0 0-.631.495l-.625-.929c.193-.253.487-.515.883-.784a5.99 5.99 0 0 1 1.363-.677 4.615 4.615 0 0 1 1.56-.274c.761 0 1.4.124 1.918.373s.9.581 1.15.997c.248.416.372.878.372 1.385 0 .954-.454 1.898-1.362 2.832-.908.933-2.093 1.811-3.555 2.633l4.232-.441.61-1.264.727.158c.076-.535.117-1.082.117-1.638C23.196 5.192 18.004 0 11.598 0 5.193 0 0 5.192 0 11.598c0 6.405 5.193 11.597 11.598 11.597 4.789 0 8.898-2.902 10.668-7.042H15.44Z" mask="url(#mask-16)"/>
    </g>
    <g id="partners-3">
      <circle cx="12" cy="12" r="12" fill="#fff" stroke="#fff" stroke-miterlimit="10" stroke-width="4"/>
      <path id="Fill-3" fill="#0173a3" fill-rule="evenodd" d="M15.4 12.7h-2.8l.1 1.2v1.8H11v-3H8.1v-1.6h1.4l1.4.1v-3h1.7v1.7l-.1 1.2 1.2-.1h1.6v1.7zm5.7 6.2c-.9.3-1.8.5-3 .5-.3 0-.7 0-1.1-.1-.4-.1-.7-.1-1-.2v-1.3c.5.1 1 .2 1.5.2.7 0 1.3-.1 1.8-.3.5-.2.9-.5 1.1-.9.3-.4.4-.8.4-1.3 0-1.3-.7-2-2.2-2.1l-.9.2-.3-1.1c.4-.1.8-.2 1.3-.4.6-.3 1-.6 1.3-1 .3-.4.4-.8.4-1.2 0-.5-.2-.8-.5-1-.3-.2-.7-.3-1.1-.3-.5 0-.9.1-1.3.2-.4.2-.7.3-1 .6L16 8.3c.2-.2.5-.4.9-.6.4-.2.8-.4 1.3-.5.5-.1 1-.2 1.5-.2 1 0 1.9.2 2.5.6.6.4 1 1.1 1 1.9 0 .8-.3 1.4-.9 2-.6.6-1.3 1-2.2 1.3h.5c.9 0 1.7.2 2.3.7.4.3.7.7.8 1.2.2-.8.3-1.7.3-2.7 0-6.6-5.4-12-12-12S0 5.4 0 12s5.4 12 12 12c4.3 0 8-2.2 10.1-5.6-.2.2-.6.4-1 .5z" clip-rule="evenodd"/>
    </g>
    <g id="partners-4">
      <circle cx="12" cy="12" r="12" fill="#fff" stroke="#fff" stroke-miterlimit="10" stroke-width="4"/>
      <path id="Fill-3" fill="#0173a3" d="M14 12.2h-2.8l.1 1.1V15H9.7v-2.8H7v-1.5h1.4l1.4.1V8h1.6v1.6l-.1 1.1 1.2-.1H14v1.6zm5.9 7.3V17h-5.2l-.5-1c.8-1.5 2.3-4.8 4.3-9.8h.5l2.1 1.1-3.9 7.3-.7 1.1 3.4-.2.2-2.9 1.9-.1v2.9l1.5-.1c.3-1 .4-2.1.4-3.2 0-6.6-5.4-12-12-12S0 5.4 0 12s5.4 12 12 12c3.8 0 7.2-1.8 9.4-4.5h-1.5z" class="st1"/>
      <path id="Fill-6" fill="#0173a3" d="M22.1 18.5c.3-.5.6-1 .8-1.5h-.8v1.5z" class="st1"/>
    </g>
    <g id="partners-5">
      <circle cx="17.5" cy="17.5" r="17.5" fill="#fff" fill-rule="evenodd" stroke="#fff" stroke-width="4" clip-rule="evenodd"/>
      <path id="Fill-3" fill="#066186" d="M22 18.6h-2.5l-1.9-.1.1 1.7V23h-2.5v-2.7l.1-1.7-2.2.1H11v-2.4h2.1l2.2.1-.1-1.8V12h2.5v2.5l-.1 1.8 1.9-.1H22v2.4zm8.4 8.9c-1.4.6-3 .9-4.8.9-.6 0-1.1-.1-1.6-.2v-1.7c.4 0 .9.1 1.3.1 1 0 1.9-.2 2.8-.6.8-.4 1.5-1 2-1.7s.7-1.5.7-2.4c0-1.1-.3-1.8-.8-2.3-.5-.5-1.3-.7-2.3-.7-.5 0-1 .1-1.6.2-.6.1-1.1.3-1.5.4l-.7-.5 1.1-8.6h7.4l.2-.4h.4C30.2 4.1 24.3 0 17.3 0 7.8 0 0 7.8 0 17.5S7.8 35 17.3 35c6.3 0 11.8-3.4 14.9-8.5-.5.4-1.1.7-1.8 1z"/>
      <path id="Fill-6" fill="#066186" d="M34.1 13.2h-6.4l-.9 4.4c1.2-.6 2.4-.9 3.6-.9 1.6 0 2.8.4 3.7 1.2.4.4.7.8.9 1.3.1-.6.1-1.1.1-1.7 0-1.8-.3-3.6-.8-5.2l-.2.9z"/>
    </g>
    <g id="partners-12">
      <circle cx="23" cy="23" r="21.6" fill="#fff" fill-rule="evenodd" stroke="#fff" stroke-width="4" clip-rule="evenodd"/>
      <path id="Fill-3" fill="#0b506f" fill-rule="evenodd" d="M28.2 31.9H16.9v-1.8l3.3-.3V18.4c-.3.1-.9.2-1.7.4-.8.2-1.4.3-1.9.3l-.3-2.2c1.1-.2 2.2-.6 3.4-1.2 1.2-.6 2.1-1.1 2.8-1.7l2.6.3v15.4l3.1.3v1.9zm-12.9-7.6h-3l-2.2-.1.1 2.1v3.3h-3v-3.3l.1-2.1-2.6.1H2.2v-3h2.5l2.6.1-.1-2.2v-3.1h3v3.1l-.1 2.2 2.2-.1h3v3zm15 7.6-.7-1.7c2.6-1.6 4.7-3.2 6.3-5 1.6-1.8 2.4-3.5 2.4-5.2 0-.9-.3-1.5-.8-2-.6-.5-1.3-.8-2.3-.8-.6 0-1.2.1-1.7.3-.5.2-.9.4-1.3.6-.3.2-.7.5-1.2.9l-1.2-1.7c.4-.5.9-1 1.6-1.5.7-.5 1.6-.9 2.5-1.3 1-.3 1.9-.5 2.9-.5 1.4 0 2.6.2 3.6.7 1 .5 1.7 1.1 2.1 1.9.5.8.7 1.6.7 2.6 0 1.8-.8 3.5-2.5 5.3s-3.9 3.4-6.6 4.9l7.9-.8 1.1-2.4 1.2.3c.2-1.1.3-2.3.3-3.4C44.6 11 35 1.4 23 1.4S1.4 11 1.4 23 11 44.6 23 44.6c8.8 0 16.3-5.2 19.7-12.7H30.3z" clip-rule="evenodd"/>
    </g>

    <path id="Adams" d="m107.4 1.2 7.9 3.6 3.4 4.7 1.7 1.1 4.8 1.1 1.6 1.1 4.2 8.3 4.4 8-1 1.9.9 2.1-2.7 3v1.1l1.6 3.8 3.5 4-4.5 2.3-1.9 2.7-1.1.5.4 22.6-73.1.4-.7-21-1.3-25.1 10.9-10.6 27.2-6.3 6.3-.9 3.4-4.2 4.1-4.2z" />
    <path id="Allegheny" d="m77.4.8 25.4.7 4.2.4h6.9l20.4.9 7.8.6 6.8.1-.8 2.6 1 3.4-1 2.5-4.8 5.9-5.9 2.4-1.4 2-.1 2.3 1 3.1 4.1.1 5.6 5.5-1 21.1-3.5 2.4-.9 2.9-4.2 2.9-.8-.6-.9 2.2-2.9 15.2 2.7 2.8-3.6 1.4.9 3.6-2.8 4.5 4.7 2.5-15.8 6.7-4.9.5-4.6-2.7-4.6-1.7-2.5-3.7 2-3.1 4.1-.5 1.7-1L82 76.9l-11.5-5.1-2.4-3.1-24.3-28 13.7-12.3 7.8-7.2 2.2-1.5 6.1-6.1 2 .9 2.2-1L77.4.8z" class="st0"/>
    <path id="Armstrong" d="m60.6 4.4 3.3 6.9-1 2.1.9 1.4-.4 6.3.6 3.9 2.5 2.3.5 2.4-1.2 2.5 5.8 2.8 4.3-.5-1.9 5.9 4.4 2.3-1.7 2.8-3.2-.8-1.4.7-.4.9 2.4 1.4 1.2-.2 2.7-3.1 3.3 1.2 1.6-.9 3.1 1.9 3.5-1.8 1.2-2.3 4.8 1.4.6 1.3 3.9-.9.9-3.7 6.2 3.4h1.3l.9-2.3 3.7.8 3.6-.7 2.8-2.5 2.6.9 3.4-3.5 3.1-1.3 1.7-1.9 2.9-1.1 1.8.7-.7 18.3-.6 4.1v5.7l-.5 27.3-22.7 30.1-14.9 19.1-2.5-.9-4 1.6-3.7-3.5h-2.2l-5.7-4.7-1.6-4.6.7-3.3-1.9.6-1.3-3.3-3-1.9-.6-3.6-3.5-2.3-.3-2.2-3.7-2.4-4.8 2.5.3-16 .9-28.6.6-14.4.6-29.1.8-17.2z" class="st1"/>
    <path id="Beaver" d="m68 2 24.7.5 32.9.4.1 11.9.5 25.3.2 12.7-4.2 1.8-1.6-.7-5.4 5.1-2.3 1.5-7.8 7-13.5 11.7-25.9-.7L68 2z"/>
    <path id="Bedford" d="m73.9 1.4 14.7 7.3 3.9 1.2 7.7 7.4.7-4.7 1.6-6.3 10.5 5.8 12.2 6.4L131 5.6l3.8 17.3 16 12.2-4.1 9.5-4.9 4.2-2.5 2.6.4 2.6 3.6 2.2-1.5 3.5-2.3.9-.1 5.9-2.5 3.6-2.8 7.1-4.7 10.6-3.7 11.9-1.4 3.7-4.8 8.9-8.5 12.1-25.1-.2-43.9-.5 7.3-15.7 1.5-5.4-.2-35.3-.2-11.4 2.4-4.8 1.8 1L64.3 25l2.4-3.9.5-2.4 2.1-2.9-1.3-5 1.8-.4 1.1-4.8 3-4.2z"/>
    <path id="Berks" d="m111.6 0 18 14.8 29.6 23.8 10.1 8-8.7 15L144 89.9l-7.2 5.4-16.8 14.1-3.5 3.1-13.8-11.3-30.4-24.8-8.4-8.8-4-1.1-34.8-27.8h6l7.4-2.9 4.9-1.3 5.6.1 6.9-.6 5.5-2.4 7.2-1.4 2.4-2.1 7.7-3.7 3.8-.8 2.4-3.1 2.2.9 1.3-1.9 3.6 2.2.5-.3 2.7-12.7L111.6 0z" class="st0"/>
    <path id="Blair" d="m131.4 1 4.2 1.4-4.9 4.2-4.8 2.4-4 3.2-1.3.2-2.1 3.4 3.4 5.1.2 1.7 5 4.5-2.9 4.9.9 2.3-2.9 5 1.4 2.4 2.2 1.8 1.5-1.2 2.6-6.3 3.1.7-3.3 8-1 7 .3.7 3.6-1.3-1 5.8-3.6 7.6-8.1 14-1.2 2.8-3 4-3.3 7.2-5.4 12.2-14-7.6-8.2-4.7-.9 3.7-1.2 8.6-10.1-10-3.6-1.1-15-7.5 3.5-6.5 6.1-3.1L65 64.2l-.9-1.5 2.8-7-.6-2.4.9-4.2 3.6-4.9 6-3.7 5.6-9.5-1-5.3 1.7-5.4 4.8.3 8.6-14.8L94 3l26.2-1.5 11.2-.5z" class="st0"/>
    <path id="Bradford" d="m152.9 1.5 5 58.7.9 12.7-12.6 1-3 21.6-38.4-3.5-48.6-4.7-3.3-.3-9.9-1.4-.8-5.5-3.3-34.9-2.6-24.1-2.2-18.5 27.6-.3h42.9l17.7-.2 30.6-.6z" class="st0"/>
    <path id="Bucks" d="m80.9 1.8 1.6 5-.5 2.5 2.2 1.6 2-.1 3.4-2.3 6.4 1.6 5.5 5.4.7 3.5.6 9.1-1 5.2 1.9 6.7 4.6 2.3 4.4-1.5 5.8 3.3 2.7 6.4.9 4.2 5.3 4.6 3.4 1.2 3.3 3.2 4.2 8.7 7.2 3.9 4 2.9 2.7 5.6 3.4 2.3 2.2 3.2-.3 3.6-2.9 2.8-2.9.4-3.7 2.9-5.4-1.2-.9.4-1.7 4.6-2.6 1.6-.8 1.8-8 3.4-3.5.4-6.7 4.6-2.7-2.4.7-2.9 3.3-3.4.3-1.9-1.5-2.5.2-1-4.8-2.1-2.8-2-18.2-13-13.4-9.9L68 66.4 35.6 42.6l11.8-15.1L59 17.4l11.4-9.3 10.5-6.3z"/>
    <path id="Butler" d="m85.6 1.3 11.3.3 16.1.1 19.7.5 1.5 1.2-.5 13.7-.6 29.2-.6 14.4-.9 28.6-.3 15.3h-6.5l-7.9-.6-20.4-.9h-6.9l-4.3-.4-25.4-.7-.5-26.2-.1-10.9-.4-29.5 11-14 8-9.7 7.7-10.4z"/>
    <path id="Cambria" d="m81.6 1.1 17.4.3 8.6.3 10.2-.4 25.6.3 10 .5L142.9 20l-4.5-.3-1.1 3.4 1 5.5-6.3 10.7-6.1 3.7-3.1 4.2-.7 3.3.6 2.6-2.7 6.7.7 1.2-1.5 14-6.5 3.3-2.7 5.1-2.3 3.4-1.3 5.8-1 .2 1 4-2.9 4-30-.7-3-.8-2.9.9-1.6-1.8-.5-3.7-.7-.8-4-1-.2-1-21-.3 3.9-5.9 2.9-6 1.6-1L53.6 68l8.3-17.8 8.7-21.9 2.5-6.8L80 2.2l1.6-1.1z"/>
    <path id="Cameron" d="m63.5 1 33.9.2 22.7 28.3 9.7.2v22.5l-16.2 30.6-23.1-3 .4-18.3H88l.2-16.1-24.8-.2-.1-14.6.3-14 .3-2.6-.2-8.8-.2-4.2z"/>
    <path id="Carbon" d="m105.9 1 3.3 2.7.8 1.7 4.4 1.5.6 2.3 5.5 5 1.1 3.2 1.1.2 11.2 13.2-11.8 7.5 12.3 19.8 3.7 7.4-6.4 1.6-5.1.6-5.2 1.6-4.7 2.5-10.3 2.7-2.4.9-1.1 1.6-4 1.8-2.4 2.7-2.7 1.4-20.5-16.2-18.3-20 23-11.2-.3-1 5.4-2.6 2.7-.2 9.4-4.8-1.1-3.1h-2.2l-2.4-4.3-.4-5.7.8-3.7 1.9-.5.5-2.3 2.6.4 2.8-3 3.8-2.9 4.4-.8z"/>
    <path id="Centre" d="m76 1 .5 16 13.9-.6 2 1.5.1 6.1 1.4-.4 3 5L99 31l1.8-.7 1.8 1 1-1.5 4.2 1.1 9.6 3.6 10.3 7.5-3.1 2.3 10 15.2 9.7-2.2 7-.8 8-1.8 33.3-12.9L181 55.1l-11.3 16.5-13.1 12.7-2.2.6-9.1 4-11 6-12.5 6.5-8.9 3.2-4.3 2.9-5.3 3.6-1.5-2.8-7.2 1.5-8.4-4.7-10.1 5.1-8 5.1-26.6-9.6-2.1-.7-10.7.5-24.5 1.4-3.2-5.6 4.3-3.2 1.3-2.4.7-3.5 3.8-2 1.8-2.5-.4-1.9 3.5-4.3 2.5.9 2.2-1.1.1-2.9 2-.6 2-3-1.2-1.8 2-3.2 5.9-1.9 2.6-3.4.8-4.7 5.5 2.3 1.1 1.4 1-1 3.9-1.4-.9-1.5.9-3.5 3.6-4.3-2.6-3.9 2.5-2.3-1.7-2.6h-2.1l-1.7-3.2-.4-3.1-2.2-6 1.8-1.9 4.5-.2.6-1.8 5-4.6 3.9.1 1 .8.5-2.4 3.9-1.9v-5.9l2.8-3.6 2.2 1.3.2-1.7 2.5-.8 1.4-2.6L76 1z"/>
    <path id="Chester" d="m107.4 1 3.6.6 5.2 2.5.5.6 2.7-3.3 2.1 6.1L123 10l2.5-2.8 3.3 7.6 2 1.5.3 2.4.9-.8 3.7.2-1.7 4.1 1.9 1.9 3.8-.8.7 5.3 1.7 3.1 1.9-.3 3.4-2 4.4 7.2 3.9-2.4 2 3-8.2 5 1.6 2.7-6.6 6.2 2.2 2.5-13.7 9 .8 2.1-4 1.7-.5 3.4-3.9 2.7.4 1.6-4.3 3-.3 2.5 1.5.7-.5 4.5-7.7 2.1-3.1 1.5-5.7 3.8-3.8 3.7-3.8 5.3-3.3 7.7-35.5.9-23.3.4 4.3-5.5 2.8 2.4-1.6-1.8L45 103l.4-3.1 2.5.3 1.1-3.6 1.4-.8 4.1-9.8.6-.1-.6-4.5 2.2-.1.3-3.2 2.4-3.7-1.7-3.4v-3.1l2.2-2.1-2-3.5 1.4-3.6 7.5-14.2-.2-8-1.3-6.8 11.2-6.1 2.8-2.5L96 7.2l7.6-5.7 1.7 1 2.1-1.5z"/>
    <path id="Clarion" d="m104.1 1 8.4.1v.8l22.8.7-.6 20.9-1.2 51-.8 6.3-2.7 1-1.6 1.9-3.1 1.4-4 4.2-2.7-.9-2.3 2.1-4.6.8-2.4-.5-.7 2-3.2.1-4.3-2.4-.6 2.3-6.7 1.6-.9-2-2.4-.7-.8 1.4-5 2.6-3.1-1.9-1.4.8-2.8-1.1L75 96l-2.6.4-4.5-2.6 1.3-3.2 2.7-1.4.5.1-2.2-1.5 1.5-4.7-1.8.2-8.2-3.9 1.8-3.7-.2-1.1-2.6-2.3-.7-4.7.4-5.9-1.2-1.8 1.1-2.3-1-2.2-1-.8-.5-3.9 4.3.1.2-2.3 3-3.7v-7.9l2.8.1.9-4.7 3.3.1.2-8.9 9.5.3.1-3 9.6.2.2-10.2 11.7.2.5-10z"/>
    <path id="Clearfield" d="m61.7 0 19.1 1.8 44.3 3.5 22.3 2.9 5.1 8.9 4 4.9-5.1 4.7-.9 2.6-5.1.3-.4.4 1.9 5.2.4 3 1 1.9h2l3.3 4.9-2.5 2.4 2.5 3.8-4.3 5.1-.6 2.3 1.8 2.9-5.9 2.1-2.4 2.3-2.1-2.8-2.7-1.2-.5 2.8-3.3 4.4-5.8 1.9-.9 1.5 1.3 1.9-3.2 4.8-1.3.4-.1 2.7-4 2.1-2-.7-2 2.5.4 1.9-2.6 3.7-3.5 1.8-.6 3-1.7 3.1-3.3 2.5 2 3.6 3.3 3.6-10.7-.5-25.5-.3-10.2.4-8.6-.3-17.5-.3-1.1-1.7.3-23.5.3-12.3.4-13.5.3-32.3 6.3-14.9 9.1.3 8.7-2.8.3-7.7z"/>
    <path id="Clinton" d="m100.5 1 .1 7.5h1.6l1.5 4.4 1.7 1.7 3.6 6.5.3 2.5 1.6 1.5 4 .9 4.2 3.7.6 4.8 2.1 1.6 2.2 3.7 4.8 3.9 1.8 2.6 4.1 3.8 3.6.9v1.6l3.8.2 5.3 5.4-.3 1.5 2 1 .9 1.8 16.1 20.1 3.6-.1v6.6l-30.4 11.8-8.3 1.8-7.1.8-11 2.5-11.8-18.1 2.4-1.9-7.9-5.8-9.2-3.5-2.8-.7-1.3 1.8-2.5-1.4-2.2.9-3.2-3.6-2.3-3.9-2.5.8-.1-7.8-.6-.4-14.6.7-.7-1.7-.4-11.8-.6.6-1.6 3-2.1.7-.4 3.5-3.4-1.9-1.3 1.5v6.5l-4.1 2-.9 4.8-3.1-2.5-3.3-.1-3.8-4.6-5.2-9 16.1-30.2V1.7l37.2-.5 23.8-.2z"/>
    <path id="Columbia" d="m114.4 1-1.1 16.3-.1 4.6 3.1 7.7 3.3 7.3 7.9-1.6.4 18.7-.4.6 1.7 9.8 2.3 10.7-6.7 7.4-5.1 6.4-3.3 16.9-12.6 6.2-5.1-12-6.4.7-7.6 1.3-1.6-6 1.2-.7-1-2.1.1-3H80l.5-8 .6-1.9-1.8-3.3 2.9-1.4-.2-1-2.1-3L74 66l.4-7.2-1-3.3-7.9-2 .6-3.9-.7-1.8-3.6-14.6 8.2-.6 10.5-11.3 3.3-4 7.9-8.6 6.3-7 16.4-.7z"/>
    <path id="Crawford" d="m28.9 1 56.6 1.8 7.6.1 49.8 1 12.3.1 11.2.5-1.1 46.1-.1 2.4-25.3-.7v-.7l-7.1-.3-.2 3.7-3 .8-.1 2-6.4 2.4-.1 2.7-2.4-.1-.2 2.4-2.2-.1.2 2.5-3.1-.1.1 2.5H113l.1 2.3-3.6.1-.2 2.6-2.5-.2-.2 2.1-18.8.3v1.3l-31.2-1.7-30-1.9L28.9 1z"/>
    <path id="Cumberland" d="m147.8 1 .3 3.5-1.5 5.6 2.8 5.3 3.9 3.2 3.5 4-.5 2.6-6.3 1.1-2 1.5-.3.9 1.2 3-1.4 1.3 3.3 2.7-5.7 1.5-3.4-.9-8.8 3.4-2.7.3-16.4 15.6-3.7 3.7-3.8 4.8-7 1-26.6 6.2-14 13.8L63.3 75l-2.7-3.4-3.3-2.7-3.6-6.7-2.4-2.4.3-2.2-1.7-2.1-.2-3.9-1.6-1.2-1.4-4.8-7-6.8-.9-3.7-2.4-4.3 3.5-3.5 1.4 2.7 3.3-3.4 3.6-2.8h3.1l9.4-6.9 7.2-6.6 5-3.5 5.7-2.7.4 4.5-6.2 4.8-2.3 2.9 3.9-1.1 10.3-7.1-.4 4.9 1.3 1 6.7-2.2 10.1-1.8 8.3-.9 8.3-1.9 8.5-.9 3 .1 6.7-1.2L147.8 1z"/>
    <path id="Dauphin" d="M102.9 1 130 22.6l-22.1 16.9 8.2 26.5 2.1 6.2 3.3 10.8 3.3 10.7 17-8.3-17.6 11-1-.1-.5.7-3.8.2-5.8 5.2-1.5-.2-2.4 1.4-.9 2.3-3-1.1-2.6 3.9-1.3 3.4-5-3.7-.9-7.5-7.4-5.6-4.6-1-1.7-3.4-2.9-.9-3.2-3.7-4.1-3.4-3.4-6.4 1.6-6-.2-1.6-3.1-5.1-9 .2-3.8-1.9-1.9-5.3 2.5-3.3-.6-5.1 2.6-.4 3.3-3.9 4-3 .5-1.6-.5-2.5-2.3-1.3-2.8-4.3.4-5.6-1.7-5.2 1.7-2.7 2.8-1.8 1.6-3.1.9-7.4 3.2 5.2 1.1.5 5.8-1.8 1.7.3 1.3-2.3 3.9.4 1.9-1.7 1.9.1 1.8-3.4 1.9 1.8 1.9-.9 3.2-.4L95.5 2l3.5.2 3.9-1.2z"/>
    <path id="Delaware" d="m102.1 1 1.4.9 5.5 8.5 1.4-.7 6.2 9 1.5 1.9 3.4.2-.6 3 1.8 1.9-1 6.3-2.6 5.1.2.9h6.4l2.4 2.9-4.7 2.8-6 1.7-9 .3-3.4 1.7-5.5 4.9-4.3 3.2-6.6-3.7-6.9-2.3-6.2-.8-6.2.1-3.3.3.1-3.5-1.6-.8.6-4.7 3.9-2.6-.4-1.6L73 33l.5-3.6 3.3-1.3-.7-1.8 13.2-8.2-2-2.1 6.9-6.3-1.8-3 9.7-5.7z"/>
    <path id="Elk" d="m125.2 1 .1 6.1 9.3.2.3 10.2-.3 2.7-.3 14.4.1 13.2 24.9.2-.2 16.7h3l-.5 21.2-44.8-3.7-16.8-1.6-.3 7.1-11.4 3.8.1-6.3-4.2-.1-.1-5.9.4-1.3-32.8-20.4-1.1-2-1.2 1.1-1.6-.2-1.6 1.9-5.6.4-1.9 1.2-4.1-.4-3.6 4.2.6-20.8 4.3.1.3-6.2 15 .6v3h.7l.1-17.3.7-21.2 22 .4 10-.4 10.8.1 29.7-1z"/>
    <path id="Erie" d="m144.4 1-1.1 50.9v2.9l22.5.5-.9 31.3-11.2-.5-12.2-.1-49.8-1H84l-56.7-1.7.8-26.8 4.4-2.1 5.5-1.8 3.2-1.6 5.2-1.3 5.9-2.7 4.9-1.4 9.4-4.5 4.2-3.1 3.8-1.2 7.3-4.2 1.6-1.5 2.9-6.7 3.1-3.3 5.6-1.7 3.6 5.4 10.5-5.9 8.3-5.3 4.5-1.9 4.3-3 4.3-.6 10-5.6 3.8-1.5z"/>
    <path id="Fayette" d="m126.2 1 2.6 2.7 1.4 3.4 3 2.1 2.4.5 1.3 2.6 5.9 3.5 1.8 5.9 8.4 1-10.7 17.8-4.4 6.7-2.3 4.7-2.8 8.6 5 3.3 2.7 3.7-.6 4 1.4 3.9-3.7-.5-.8 1 1.5.9-1.5 3.5-1.6.6.8 7.8-25.3-.4-9.6-.3-23.7-.4-25.4-.9 2.6-4.3-1.1-2.1-2.6-1.1-.8-6.2 3.8-2.3-1.5-3.3-.4-4.8-2.7-2.3 2.5-2-.7-2.3 2.4-2.6-2-5.3.8-3.1-3.8-5-2-.7-4.1 1.2-2.9-2.6-.1-3.9 2.4-2.2.6-.3-.6-3.6 2.3-2.2 3.1-.1 2.4 3.7 1.9-.5.7-2.2 2.9-2.2 3.5-.2 1.2-2.1-1.8-2.7 1.7-2.1-2.8-1.6 1.7-3.4 5 1.2 1.8-.7 1-1.7L64.8 7l-6-3.5 4.2-.6 19.4.4 5.9 4.2 2-1 3.9 1.8.5 1.6 3.7 2.7 2.5-1.7 4.2-.1 1-1.6 3.1-.8 1.7-1.4 2.4-.2 5.5-5.2 7.4-.6z"/>
    <path id="Forest" d="M52 1h18l17 .3 31.1.4 22 .9-.7 20.7-.3 18.8h-4.8v-3l-11.5-.4-.3 6-4.4-.1-.5 16.8-1.8-.2-1.3 3.9-4.6-3.6-1.1 1.6-5.8-1.2-1 3-4.1-2.6.6-19.6-23.4-.7v-.8l-4.6-.1-.3 10-14-.2.2-10.8-6.7-.2v-7h1.5l.3-7.3L52 1z"/>
    <path id="Franklin" d="m114.1 1 3.2 5.1 1.8 6.7-.6 2.3.6.6 3.6-2.9 2.7 2.4V20l-1.8 1.7-1.4 1.4 1.8 3.1.8 3.3 7 6.6 1.4 4.6L135 42l.2 4.1 1.8 2.2-.3 2 1.9 1.9 3.6 6.5 3.2 2.6 3.6 4.4-2.8 6 1.3 24.4.7 21.1-42.5-.1-23.6-.3-37.4-.1 6.1-6.7 1-2.2 5.5-8.1 4-5.3 4.3-8.9 3.1-9.4-.3-1.4 3-4.5.8-4.7 1.9-3.9-.2-1.6 2.7-4.8 4.5-6.5 2-1.4.6-.6 4.8-10.1 1.9-3.1 3-6.8 4.4-7.5 7-9.3 3.3-2.7 6-6.2z"/>
    <path id="Fulton" d="m94.8 0 9.5 7.2 23.4 6.5 10.5 9.2-2.7 2-4.2 6.3-2.3 4.2.2 1.6-2 4.2-.9 4.9-2.7 4.3.2 1.2-3.3 10.2-4.3 9.4-4 5.5-5.3 8.1-1 2.4-5 5.8-45.9-.2 9.1-13.4 4.6-8.9 1.3-3.6 3.6-12.3 4.6-11 2.9-7.4 2.2-3.4.1-6.8 2.7-1.1.5-1.3-2.9-1.8-.7-4.5 3.2-3.5 4.5-4L94.8 0z"/>
    <path id="Greene" d="m86.6 0 2.7 1.6.7 1.8 3.6-1.3 4.1 1.5 3.3.3 2.5-1.3 2.9 1.3 1.4 1.8 2.7 1.1 1.6-.5 4.7.3 4.3-3.9 3.3 1.5-.7 3.5.7 1.4 1.1-1.4 2.2 1.6 7.1-2.5-5.1 4.8.1 2.2 1.4 1.3 3.6-1 3.1 1.1 4.8 6.3-.9 3.4 2.2 5.9-2.4 2.6.9 2.5-1.7 1.3 1.4 1.2.5 5.2 2 4.7-4.2 2.5.4 3.7 2.2 1 2 3.7-2.6 4.3L64 61.3l-16.1-.6 1.1-35 .4-15.5 5.3 1.1 2.2 1.2 5-4.5 3.8.3 3.1-.5.7-1.6 3.9-2 7.2-1.4L82.4.4l4.2-.4z"/>
    <path id="Huntingdon" d="m118.5 1 8.8 4.9 8.1-1.7 1.1 2.2 4.7-3.2 1.3 4.7-4.2 2.5-.9 2.2.6 1.4 4 1-5.2 4.2-6.5 6-3.2 1.2-7.3 9-3 5.4 3.9 10-3.4 3.7-5.3 7.7-4.3 5.8-1.6.6-.4 1.3h2.7l3.9 1.7-.5 2.4 1.6 2.3 2.9-.5 2.7 1.5 1.1-1.3h7.6l2.3-3.1 8.5 25.4-3.7 3-6.8 9-4.3 7.3-3 6.9-1.9 3.1-5 10.4-1.6 1.4-10.1-8.5-23.8-6.3-9-6.5-16.1-12.2-3.4-15.3 3.6-7.6 3-3.9 1.1-2.6 8.2-13.8 3.5-7.2.4-2.1-2.3.8-1.2-3 1-7.3-2 1.6-3.7-3.1-2.2-3.6 3-5.1-.9-2.3 2.6-4.2-4.4-3.8-.2-1.9-3.9-5.7 3.3-5.2 1.7-.3 3.8-2.9L69.1 5 73 1.8l26.8 9.6 7.4-4.7L118.5 1z"/>
    <path id="Indiana" d="M83.3 1 124 2.2l13.6.7 10.3.1-.4 13.4-.3 23.1 1.1 1.6-1.7 1.1-6.4 18.8-2.5 6.8-8.7 22-9.1 19.6-2.8-4.5-3.9-1.7-1.1.2.5 1.7-2.7 3.6-2.9 2.4-2.5.1-1.4-1.3-1.8 3.2h-5.1l-1.5-4.2.9-.9-3.5-.6-1-2.7-2.2.1-2.5-.9-2.2.8-2.1-3-4-1.3-3.2 4-1.8-6-.7-.4-3.8 2-.2-5.6-3 1.1-4 .4-2.4-1.1-4.4.2-1.8-3.7-2.7.2-.9-2.7-2 1.3-2.1-1.4.1-4.7-.9-2.6 1.8-3.2 14.5-18.9 22.3-30.1.4-28.2z"/>
    <path id="Jefferson" d="m96.6 1 2.1 3.6 34.4 20.7-.8 2.4.1 3.6 4.3.1-.1 7.7-8.9-.3-5.7 13.3-.3 31.9-.4 14.4-10.4-.2-13.7-.7-40.8-1.2v-6.8l.6-4.2.6-17-.8-.3.8-6.4L58.9 9l2.9 1.8.8-2.3 6.1 1.3 1.6-2.3 3.9 3.2.9-2.7 1.8.2 2-2.2 4.6.4 1.8-1 5.4-.4 1.8-2 1.8.2L96.6 1z"/>
    <path id="Juniata" d="M105.2 1 126 4.2l1.4-1.2 5.5-2 2.5 3.2 3.6-.7 2.2.9 3.1-1.3.7 4.3 3-.5 1.7 4.8 3.4-.7 5.2-1.8 1.6 3.8-2 2.9-1.3.1-6.6 3.5-3.7 1.5h-2.9l-9.8 2.4-9 1.4-1.4.5 2.4 4.7-5.7 1.8-5 2.8-8.8 4.1-19.3 12-9.9 5.9-8.8 6.3 1.3 5-5.8 2-5 3.8-5 4.7-6 7.2-6 6.7-8.2-25.7 5.2-6.8 13.3-14 3-2.5v-4.8l7.4-6 5.2-3.6 4.9-4.2-.1-5.8 8.9-6 9-5.1 9.3-4.5 5.7-2.3z"/>
    <path id="Lackawanna" d="m122.6 0 1.3 20.2 1.1 14.2 1.4 22.8 1.5 21.6-4.9 3.6-3.9.3-1.1 1.7-2 3.4-3.6-1.1-1.9 3.1-2.1 1.7-1 4.4-3.3 1.3-.4 2.7-7-2.4-2.2-3.5-.8-13.8-4.2-1.2-.1-4.5-1.6.1-.1-10.7-7.6-1.5-4.2-3.5-8.2-4.4-2.3-2.8-.4-6.1 9-15.7-4.9-3.6 5.1-9.3-.8-1.1 7-13.3L82.1.8l40.5-.8z"/>
    <path id="Lancaster" d="m117.1 1 30.5 24.8 14.1 11.6-11.1 6.2 1.1 5.5.2 8.6-7.6 14.3-1 2.5 2.3 4-2.7 2.6v1.8l1.9 3.8-2.7 4.2-.4 4.4-1.8.1.6 4.3-1.4.2-3.8 9.3-1.3.8-1.3 4.4-2.2-.2-.3 2.1-1.9 1.3 1.2 1-2.6 3.5-2.8-2.4-2 2.6-17.4.4-.2-2.4-4.1-5.6-1.3-3.1-2.1-1.8-3.9-4.9-3.5-2.4-2.2-3.5-.1-1.7-4-3.6-.5-4.4-1.5-4.5-2.1-.8-2.7-2-4.1-1.6-4.1-2.7-3.6-6.1-.6-4.1-2-3.5-2.2-2.3-1.1-4.3-4.9 1.1-4-1.2-7.4-1.3-3.4-1.1-5.3-8-4.2-3.8 1.1-3 3.5-5.3 2.6.9.4-1.1 3.6-2.1 1.3.2 5.6-5 3.5-.2.6-.9 1.4.1.5-.3 20-8.7L93 14l24.1-13z"/>
    <path id="Lawrence" d="m64.2 1 41.2.6-.1 2.2 16.1 1.1 7.9 9.7-10.9 14.1.4 29.9-32.2-.4-24.1-.5L64.2 1z"/>
    <path id="Lebanon" d="m76.5 1 15.3 11.8L124 37.5l4.1 1.1 9.6 9.7-25.1 13L93 64.8l-19.9 8.3-1.5.7-4-12.5-3.3-10.5-2.1-6-8.6-27L76.5 1z"/>
    <path id="Lehigh" d="m96.6 1 1.5 8.4 1.1 2 2.4.1 2.7 2.5 5.7-2.8.3 3.8 1.5 3.3 2.8 4.3 2.2 1.6.5 2.2 8.1-4 .2 2.3 7.7 8.7-1.2 6.2-1.6 2.5L142 51l-12.6 10.8-11.9 14.9-8.1-6.1-9.7-7.3-30.4-23.2L50.2 25l7.2-4.2H59l5.3-2.8 1.8-2 6.1-3.9 1.9-1 2.5-2.8 4-1.7L81.8 5l3.1-1 11.7-3z"/>
    <path id="Luzerne" d="m114.6 1 .5 6.9 1.6 2 8 4.3 3.9 3.3 8.7 1.7.1 10.3 1.6-.1.1 5.1 4.1 1.3.8 14.7 1.7 2.6 6.4 2.1-2.7 4.6-1.9 1.5.1 2-4.4 1.8-2.9-2.4-3.2.5-3.4 2.5-3.4 3.7-1.8-.3-.4 1.7-1.9.5-.5 2.3.4 5.1 1.6 3h2.4l2.3 6.2-11.4 5.9-2.7.2-3.7 1.8.3 1.1-23.4 11.6-5 2.5-28.7-9.4-2.3-10.8-1.8-10.5.5-.8-.3-15.7-7 1.4-3.9-8.8-3.2-8.2.1-5.1 1-15.4 4.2-14.5 19.6-.9 23-1.3L93 9l19.5-6.6 2.1-1.4z"/>
    <path id="Lycoming" d="m116.6 1 10.7 1.5L137.6 40l8.4 6.9 15.4 13 6.5 2.1 17.1 3.7-9 9.8-3.3 4-11 11.9-7.8.5-6.1.4-8.4-3.5-8.5-.6-5.6 2-4.4.5-3.7 1.2-1.9 4-9.6-1.8-2.6 12.1-14.4.7-7 3.3-4.9.1-3.6.1-17-21.3-.7-1.4-2.8-1.4.4-2-4-4.1-5-.2v-2l-2.6-.6-4.5-4.6-1.8-2.6-4.8-4-2.2-3.7-2.5-1.9-.6-4.9-3.3-2.9-4.1-.9-2.5-2.4-.3-2.8-3.3-6-1.8-1.9-1.2-3.5-2.2.1-.2-8.6-.2-14 46.8-.6 16-.4 27.8-1 7-.4 1.1-2.6 3.9-1.2.7-2.2 2.6-.1 4-1.7.7-1.6z"/>
    <path id="McKean" d="m44.7 1 7.7.2 18.8.1 23-.1 43.4.4h16.3l-.1 23.8.2 29.6v24.6l-32.9-.1v3.1l-11.4-.2-.1-5.8-28.1 1-10.9-.1-10.1.4-22.4-.4 1.8-43.2h4.4l.5-1.2-.1-4 .5-18.1-.5-10z"/>
    <path id="Mercer" d="m57.4 1 29.8 1.9 28.9 1.6V3.4l20.8-.3-1.6 65-7.6 10.3-8.7 10.7-7.6-9.4-17.1-1.2.1-2.1-39.2-.6.8-25.7.5-18.4.9-30.7z"/>
    <path id="Mifflin" d="m129.5 1 2 .9.1 8.1.5 20.5 12.8 2-8.6 3.5-9.2 4.3-8.8 5-7.9 5.3.1 5.5-5.7 4.9-5.2 3.6-6.6 5.3v4.7l-3.6 3-13.1 13.6-4.8 6.2-1.8 2.4h-7.4l-1.5 1.9-3.4-2-3.4.7-2.7-4.1.3-1.7-2-.9h-4.9l1.4-4.8 1.9-.8 3.9-5.4 5.3-7.9 2.6-2.9-3.8-9.8 3.4-6.5L67 46l3.2-1.3 6.1-5.9 2.1-1.8-1.2-.3-1-3 1.3-3.6 3.4-2.1-.7-2.6 5-3.5 9-3.3 12.3-6.6 11-6.2 9.3-4.2 2.7-.6z"/>
    <path id="Monroe" d="m123.7 1-3.5 21.1 11.5 1.4 6.2 10.7 1 .7L144 33l4.7-1.2-.3 4.1L142 40l-2 5.5-7.4 5-5 2.8-2.8 2.4-.2 2.8 2.6.5-2.2 3.5-3.9 2.3-2.3.3-1.2 1.5-5.8 2.6-.5 1.6-2.4 1.8 1.4 2-5.8 4.1-.9 1.9-4.4 3.1-3.1.9-2.7 2-6.7 3.3-4.9 1.1-4 1.7-5.5 1-3.4-7-13.3-21.8 11.6-7.5-9.3-11.2-1.5-.3-1.3-3.9-5.5-5.2-.5-1.9-4.2-1.5-1.5-3.3 3.5-1.4-.1-1.6 2.3-1.9 1.8-3 .3-2.5 3.3-1.3.9-4.1 2.4-2 2.5-4.2 3.5 1.1 1.4-2.5 20.2-1.6 2.3-.4 36-3.7z"/>
    <path id="Montgomery" d="m67.4 1 8.1 6.3 31.4 23.3 11 7.9 13.3 10 19.1 13.8-7.2 7.4-5.1 6.7 1.5 1.1-4.6 5.2-10.5-7.4-1.8 2.4-5.6-3.9-5 6.5 4.5 4.4 5.2 4-12.7 8.5-5.7-8.5-1.4.8-6.2-9.9-.7-.5-.5-.7-4 2.4-4.5-7.2-2 1.2-3.7.6-2.5-4.7-.5-3.5-2.8.5-3.5-3.5 1.1-2.8-3.3 2.8-.6-5.3-1.7-1.3-2.2-5.2-2.2 2.4-3.1-5-1-2.8-1.9 2.4-1.8-2.2-4.6-2.1-2.5-.4-2.4 1.8-3.2-1.9 17-28.6 8.8-15z"/>
    <path id="Montour" d="m82.4 1 9.5 4.1 6.4-.4 3.4 14.2.9 2.2-.4 2.6 7.2 1.9 1.4 4.7-.3 6.7 5.3 5.1 2.4 3.6.5 3.1-2.3 1.1 1.2 2.2-.8 2.5-.4 7.6-4.8.1-1.5-1.8-1.9-5.9 1.3-3.9-5.9-.6-3.9-3.9-4.8-1.2-11 2.8-10.4 2 3-12.3-.2-1.5 2.9-8.9 3.1-8.2.5-12.5-.4-5.4z"/>
    <path id="Northampton" d="m127.4 1 .8 5.6 3.3 5.4 2.7 2.1.6 3.8 3.5 4.4.5 2.5-2.1 3.8-4.1.2-.4.7 2.2 3.3-2.7 3.9-1.2 3.7-2.3 1-1.8 2.9-5.4-.6-.6 2.2-2.4 2.3 2.1 4.1-1.9 3.6L117 60l.7 1.3 3.8.8-3.6 7 1.4 1.9.1 3.7-1 2.8-9.3 5.8-11.7 9.9-12.3-9.7 2.3-3.8.9-5-7.2-8.6-7.5 3.9-.8-4.1-1.8-1.4-3-4.6-1.7-3.8-.1-1.2-4 2.1-3-3.1-2.6-.1-1.8-3.3-1.5-8.5 5.4-2.9 5.5-1.7 5.1-.6 5-1.3 4.6-.8 3.9-1.7 5-1.1 6.3-3.1 2.9-2.1 3-.9 3.6-2.6.9-1.9L109 18l-1.3-1.9 3.4-2.5.5-1.8 6.1-2.8 1.3-1.7 2.7-.4 3.1-1.8 2.6-4.1z"/>
    <path id="Northumberland" d="m75.1 1 10.1.7.4 4.6-.5 12.8-3.3 8.3-2.8 8.2.3 1.6-2.4 9.4 7.4-1.4 11.6-2.9 5.9 1.4 3.9 3.7 7.9.7-2 5.5 1.6 4.8.6.7h3l4.4-.1-.2 4.6 1.7 3.4-1.5.8.7 2.7 5.9-1 8-.9 5.7 13.1-30.7 14.9-4.3 1.7-14.5 7-1.1 1-4 1.2-3.1-.2-1.5 1.2-3.6.5-2.9 1.3-1.1-.9-1.2 2.2-2.4-.1-2 1.7-3.6-.4-1.3 2.3-2.6-.3-6.2 1.9-2.4-1-2.5-3.9 1.9-2.7 1.9-1.5 2.4-4.4 5-4 2.1-3.3 1.2-3.4v-6.2l-.5-4.6L66 75l1.4-2.5 4.2-5.1 1.8-4.9v-.9l-3.1-1.3-5.2-5.3-3.6-7.3-1.1-4.7 2.3-5.6v-1.8l1.6-7.9-.2-4.4-4.1-4.2-2-5.6V9.3l2.1-4.2 4.7-1.5 4.4-.5L75.1 1z"/>
    <path id="Perry" d="m149.4 1-.7 6.2-2.1 4-2.8 1.8-1 1.5 1.6 4.7-.4 5.4 2.2 3.3 2.7 1.5.8 4.2-.8 2.8-4.4 3.3-3.6 4.4-1.4.2.5 4.1-2.4 3.1 1.3 3.5 2.7 1.3 9.7-.3 4.4 7.4-10.7 4.3-7.2 1.3-3.1-.1-8.3.9-8.3 1.9-8.4.9-10 1.7-7.6 2.5-3-2.3.2-1.8-7.1 4.9-7.2 2 .3-3.5 2.9-3.6 5.5-4.3-3 1.1-4.8 3.4-7.2 6.6-10.1 7.4h-3.1l-3 2.3-5.1 5.3-2.4-4.7 1.7-1.6v-3.1l-.7-.6-3.7 3.1-2.6-2.9.8-2.8-1.6-6-2.7-4.4 6.5-7.8 5.2-4.8 5.4-4 4.4-1.5-1.2-4.5 10.1-7.1 10-5.9 19-11.9 8.9-4.1 5.1-2.9 3.7-1.2-2.4-4.6 3.8-1.3 9.1-1.4L134 6h2.8l3.3-1.3 6.9-3.6 2.4-.1z"/>
    <path id="Philadelphia" d="m111.2 1 3.3 2.4 6 2.7-.3 1.9 1.5 2.5-.5 3.2-3.3 3.5-.3 1.2 2 1.8-6.6 6.6-3.4 1.2-2.5 2-1.5 3.7-2 2-4.2 1.3-3.8 2.6-.6 1.9.2 3.7 1.2 3.3-1.5 5.1-2.2 1.7-6.2.8-3.9 3.3-1.7-2.1H74l-.7-3.2 2.7-5.6.8-5.2-1.8-2 .4-1.8-2-.1-2.7-3.5 10.4-7.1-3.1-2.5-5.8-5.8 7.2-9.5 5.5 3.9 1.8-2.5L97.3 20l1.9-2.2-1.4-1 6.3-8.5 7.1-7.3z"/>
    <path id="Pike" d="m88.1 0 4.7 4.6 1 2.5 2 1.1 1.8 2.9-.8 2.2 3 2.8.6 2.8 2.4.1.6 5.4 2.4.4 1.8-1.4 2.6.1 4.3 2.2.4 2.1 1.8.5 1 3.5 4-1.2L125 33l5.1-2.4 1.8 3.8 3.1-.4 1.6.5 3.1-2 1.8 2.9-.9 2.4.6 1.8 3.5 1.6.9 2.3 3.5 3.4-2.4 2.8-3.4 1.7-4.6.4-2.6 4.2-2.7.5v2l-4.6 3.7-2.2 3.1-1.5 5.5-1.3.5-1.1 3.3L124 76l-3.5 8.7-2.6 3-.8 2.1-2.8 3.8-3.3 1.9-2.9 3.1-2.5 1.2-1.4 3.3-6.6 2.4-2.2-1.6-6-10-12.8-1.5 3.4-20L43.8 76l3.8-4.5-1.2-2.5 2.5-1.2 2.7-7.7.3-3.5-1-.9-4 1.3 1-3.8-2.3-4.1 3-2.9 2.5 2 2.7-1.8 1.4 1.5 3.9-.9 2.3-5.2-.9-2.2 3.4-3.2h2.4l4.1-3.3-.1-3 2.8-3.6L88.1 0z"/>
    <path id="Potter" d="m62.9 1 18.9.4 24.6.1 33.9-.2 1.8 94.1.2 14-23.7.2-35.9.5-9.7-.2-23.2-29.6V55.8l-.2-30.3.1-24.3L62.9 1z"/>
    <path id="Schuylkill" d="m98 1 27.8 9 4.9-2.4L148.6 27l21 16.4-6.9 4.5-1.8 2L155 53h-1.5l-5.3 3.1-15 7.6-2.7 12.3-2.2 1.3-3-1.8-1.2 1.6-2.3-.9-1.9 2.4-4.3.9-7.3 3.4-2.6 2.2-7.5 1.4-5.5 2.5-7.3.6-5.4-.1-4.6 1.2-7.7 2.9h-3.8L48.8 81.9 22.1 61.1l2-1.9 14.6-7 4.2-1.7 29.2-14.3L82.8 31l3.1-16 5.4-6.7L98 1z"/>
    <path id="Snyder" d="m128.8 0 5.4.2 2.4 1.7 2.1-1.3v3.7l-1.9 5.6-4.1 5.3-1.2 2.2-1.4 6.3.5 4.4v6.7l-1.4 3.9-2.3 3.8-4.8 4-2.3 4.4-3 2.5-1.2-2.8-3.4 1.2-5.2 1-1.7-4.7-3.3.5-.6-3.7-1.4.6-2.3-1-4.2.8-2.3-3-3.7 1.3-1.8 1.5-21.1-3.3-10.8-1.7-.5-22.8 6-2.3L88 7.5l8.4-3 3.8-.3 1.9 1.4 2.3.6 1.1-1.9 10.8-4 5.5.6 2.3-.8 1.9.8 2.8-.9z"/>
    <path id="Somerset" d="m93.5 1 21.1.3.3 1.3 3.3.8 1.6 1.8.4 3.7.4.4 2.2-.7 3.3.8 30.2.7-.8 3.8-2.5 4-10.4 29.5-2-1.2-1.2 2.4.2 11 .2 35.9-1.6 5.8-6.9 15.2-37.3-.3-54.6-.6-1-9.1 2.2-.8.4-1-2-1.1 2.9-3.8 1.7.2-.5-1.3.5-3.7-2-2.7-6-3.9L39 78.1l2.4-4.9 4.5-6.7L55.8 50l4-4.8v-1.7l2.2-3.3 4.4-1.8 1-3 4.9-1.4 1.3 1.4 1.9-2.6.9-2.8.3-4.3 3-.4-.4-3 2.5-.5.8-2.2 5.9-9.7 1.1-3.1L93.5 1z"/>
    <path id="Sullivan" d="m49.5 1 4.7.6 49.3 4.6 39.2 3.5-1.3 7.1-7.9 26.7-4.2 14-15.3.6-6.1 6.7-16.1-3.4-7-2.2-15.8-13-8.9-7.1L49.5 1z"/>
    <path id="Susquehanna" d="m143.5 1 1.7 26.1 3.3 47.2-39.4.8-11.5.2-28.1.2-15 .3-5 .4-.3-2.7-.9-11.7-5-58.6 41.8-.8 19-.2L143.5 1z"/>
    <path id="Tioga" d="m143.7 0 2.2 18.4 2.6 24.3 3.3 35.1.7 5-.8 1.9-5.1 2.1-1.6.1-.6 1.8-3.9 1.3-1.3 2.9-8.2.4-27.5 1-15.9.4-46.4.6L39.5 1 56.2.8l57-.1 30.5-.7z"/>
    <path id="Union" d="m113.4 1 11.8 2.2.1 4.4 1.7 4.8 4.3 4.4.3 5.4L130 30v2l-2.2 5.3.9 3.6 3.4 6.8 4.7 4.8 5.2 2.2-3.5 2-3.1-2-4.7-.2-3.3 1-2-.8-2.1.7-5.7-.6-10.2 3.5-1.5 2.6-4.3-1.1-1.7-1.2-3 .2-8.6 2.9-30 7.4-6.8 2.4-.1-8.1-1.9-.8 14.3-13.5 11.7-16.5 9.1-9.7-.1-5.7 5.5-.1 7.1-3.3 13.5-.6L113.4 1z"/>
    <path id="Venango" d="m83 1 11.1.5v.6l21.2.6V1.3l17.1.2-.4 24.7-.3 9.2h-1.4v3l6.5.2-.2 11.7-.3 11.2-9.5-.2-.1 3-9.4-.3-.2 8.9-3.6-.1-.9 4.7-2.5-.1v6.5l-3 3.7-.3 3.5-3.8-.1.3 2.4-20.4-.4-16-.1-11.7-.3 1.6-64.8.4-3.2 2.4.2.2-2.5 3.4-.1-.2-2.3 2.5.1-.1-2.5 2.9.1-.2-2.5 2.6.1.2-2.4 2.3.1v-2.1l6.5-2.5.1-2.2 3-.8L83 1z"/>
    <path id="Warren" d="m43.4 1 22 .6 33.8.5H110l29.7.5 10.5.4.4 10-.5 18.2.2 4.4-1.3 2.8h-3.8l-1.7 41.4-21.6-.9-30.6-.4-16.7-.3H57.8L41.4 78l1.2-46.2.8-30.8z"/>
    <path id="Washington" d="m44.6 1 26.1.7 24.6 27.6 2.2 2.7 11.3 4.9 32 13.3-5.6 3.2-3.7.4-.8 1.2 1.4 2.1 4.2 1.5 4.3 2.5 4.5-.4 3.2 1.5.9 3.7-2 3.9-4.9-.5-1.2.3-.2 1.8 1.9 3.1 1.3.8 4.2 2.5 2.3 5.6-1.8 3.2-3.1 1.1-4.1-1 3.1 2.1-2.2 2.8 1.8 2.5-2.4 4.2-4.1.2-2 1.5-.9 2.7-4.4 1.1-2.6-4-1.2.1-1 1 .7 4-1.8 1-3.7 1.3-1.5-1.1-1.9 2.4-2.5-4.9.5-2.7-.7-.3-4 3.6-5.2-.3-1.9.6-3.9-1.5-1.4-1.9-1.6-.7-2.2 1.1-4.6-.5-3.7-1.4-4.7 1.7-1.2-3-1.6-1-2.8.2-1.7 2.3-7.8 1.5-3.1 1.6-.8 1.9-4.5.8-3.3-.2-5.4 4.9-3.2-1.7-4.8-1 2.5-78.2.3-5.3.6-19.2-.2-3.9z"/>
    <path id="Wayne" d="m81.5 1 3.6 1.6-.1 3.8 1.7 1 2.6 3.3 2.8-1.3.9 3 1.7.8.5 3.7 1.5 3.1-.4 3.5 1.7.7-.5 3.1.3.6 1.8-.8 2.7 1.6 1-1.6 3.5-.5 2 1.5 2.9-1.7 1.2 3.8 2.9-.5 1.6 1.5 3 .3.3 4.4 4 2L127 42l-3.4.7-.9 1.2-.3 1.9.9.6 2.5-.7 3 1.7 1.4 2.9-.1 3.6 1 4.6-2.6 1.3 2.2 3.4-.7 2.8 1.3 2.2.5 6.6-.9 3-2.4 3.6-14.4 25.9-2.4 3.2.2 3.4-5.5 4.5h-2.3l-1.9 1.8.7 1.7-3.1 7-6 1.4-1-1.1-2.5 1.7-2.2-1.9-.6.6 1.9 3.5-.4.9 1.9-.6 2.5 2.4-.4 4.8-3.1 8.8-1.5.7.9 1.8-3.3 3.9-2.8.4-22.1 1.7 2.8-4.2 4.3-.3 3.5-2.6-1.4-20.4-1.3-22.6-1.1-14.2-1.3-19.1-3.3-46.6-1.8-26.3 20-.6z"/>
    <path id="Westmoreland" d="m62.3 1 5.5 3.6.2 2.2L71.5 9l.6 3.6 2.8 1.8.9 2.2 3.4-1.1-1.2 6.2 1.3 3.6 4.7 3.9h2.3l3.3 3.2 3.5-1.4 3.6 1.4-1.9 3.3.7 2-.1 3.9 3.1-1.9 1.2 3.7 2.5-.1L104 47h3.4l2.4 1 3.3-.3 5.4-1.9.2 5.1 1.9-1 2.4 1.2.9 3.1 1.7-2.1 6 1.9 1.6 2.2 1.4-.5 2.8 1 3.3-.2 1.1 3 6.3 1-2.8 2.8.6 1.6h2.6l2.5-4.3 2.6 2.4h1l2.2-1.8 1.9-2.5-.9-2.7 3.9-.8 5.1 2.2 2.5 3.9-6.3 11.2-1.6.9-2.7 5.5-3 4.4-3.6 5.2-1.1 3.1-5.9 9.6-1.1 3-1.8.4.4 3.1-3.3.4-.2 2.9-1 3.3-3.5 4.7-2.1-2.2-2.7.8-.9 2.8-4.7 1.9-1.5 2.3v1.8l-4.8 5.7-8.7-1-2-6.3-5.7-3.3-1.1-2.2-1.8-.4-3.8-2.6-1.5-3.6-1.7-1.7-6 .5-5.6 5.2-2.5.2L76 118l-2.8.7-1.1 1.8-4.7.1-3.1 2.1-5.4-3.9-.4-1.4-2.2-1-2.2 1.1-6.4-4.5-18.7-.4-1.6.2-2-1.2-2.5-4.1.5-3.8 2.9-.6 3.8.4 1-1.9-.5-2-4.1-1.9 14-5.8-2.8-1.4 3.5-5.5-1.1-4.4 2.4-.9-1.3-1.3 3.2-16.1 2-4.6 1.7 1.2 2.5-1.7.9-2.8 3.3-2.2.9-18.8-4.5-4.3-4.8-.2-1.6-4.7.2-3.2 2.2-2.9 6.1-2.4 4.3-5.2.7-1.6-1-3.2.7-2.3L62.3 1z"/>
    <path id="Wyoming" d="m78.6 1 .2 1.7 3-.3 15.1-.3 28-.2 13.8-.2-2.8 3-6.2 11.9.8 1.2-4.7 8.8 4.8 3.6-9.5 17-1 .7-19.3 6.6-5.5 2.1-23 1.4-19.8.9 8-28.4 1.1-6 3-22.3 14-1.2z"/>
    <path id="York" d="m69.1 1 4.5 1.4 1.6 3.2 4.1.9 8.3 6.3.9 7.4 3.2 2.4 3.9 3.6 5 7.6 2.5.8 7.4 1.2 3.6 1.1 6.3-1.4 1.4 5.7 2 2 2.5 3.9.6 4.2 3.2 5.3 3.5 2.4 4.1 1.6 2.6 2 2.6.8 1.9 5.6.5 3.9 4.1 3.7.1 2 1.7 2.7 3.4 2.3 4 5 2.3 1.9 1.4 3.3 4.3 5.9.3 3.1-28.4.5-45.4.6-44.4.7-.4-23.9 1.8-.8 1.8-2.7 2.7-1.4-2-2.3-1.9-4.4v-2.3l2.4-2.7-.8-1.8.9-1.8-3.9-7.1-3.9-7.9-1.1-.5-4.6-1.1-2.3-1.4-3.3-4.6-8-3.7 17.7-16.9 3.1-.3 9-3.5 3.4.9 1.4-.4-2.1-1.7 2.1-1.9-.9-2.4.8-2.2 2.9-2.1 5.3-.9.3-1.8z"/>
  </defs>   



  <!-- <use xlink:href="#Adams" class="fill-g-5 stroke-white stroke-2 hover:fill-blue-4" transform="translate(421, 445)"/>
  <use xlink:href="#Allegheny" class="fill-g-5 stroke-white stroke-2 hover:fill-blue-4" transform="translate(-13.50000, 318.00000)" />
  <use xlink:href="#Armstrong" class="fill-g-5 stroke-white stroke-2 hover:fill-blue-4" transform="translate(77, 217)"/>
  <use xlink:href="#Beaver" class="fill-g-5 stroke-white stroke-2 hover:fill-blue-4" transform="translate(-60.5000, 278)"/>
  <use xlink:href="#Bedford" class="fill-g-5 stroke-white stroke-2 hover:fill-blue-4" transform="translate(225, 393)"/>
  <use xlink:href="#Berks" class="fill-g-5 stroke-white stroke-2 hover:fill-blue-4" transform="translate(605 320)"/>
  <use xlink:href="#Blair" class="fill-g-5 stroke-white stroke-2 hover:fill-blue-4" transform="translate(242 310)"/>
  <use xlink:href="#Bradford" class="fill-g-5 stroke-white stroke-2 hover:fill-blue-4" transform="translate(521 55)"/>
  <use xlink:href="#Bucks" class="fill-g-5 stroke-white stroke-2 hover:fill-blue-4" transform="translate(745, 331)"/>
  <use xlink:href="#Butler" class="fill-g-5 stroke-white stroke-2 hover:fill-blue-4" transform="translate(4, 219)"/>
  <use xlink:href="#Cambria" class="fill-g-5 stroke-white stroke-2 hover:fill-blue-4" transform="translate(189, 313)"/>
  <use xlink:href="#Cameron" class="fill-g-5 stroke-white stroke-2 hover:fill-blue-4" transform="translate(266, 137)"/>
  <use xlink:href="#Carbon" class="fill-g-5 stroke-white stroke-2 hover:fill-blue-4" transform="translate(644, 229)"/>
  <use xlink:href="#Centre" class="fill-g-5 stroke-white stroke-2 hover:fill-blue-4" transform="translate(335, 208)"/>
  <use xlink:href="#Chester" class="fill-g-5 stroke-white stroke-2 hover:fill-blue-4" transform="translate(645, 406)"/>
  <use xlink:href="#Clarion" class="fill-g-5 stroke-white stroke-2 hover:fill-blue-4" transform="translate(78, 168)"/>
  <use xlink:href="#Clearfield" class="fill-g-5 stroke-white stroke-2 hover:fill-blue-4" transform="translate(233, 209)"/>
  <use xlink:href="#Clinton" class="fill-g-5 stroke-white stroke-2 hover:fill-blue-4" transform="translate(356, 164)"/>
  <use xlink:href="#Columbia" class="fill-g-5 stroke-white stroke-2 hover:fill-blue-4" transform="translate(537, 194)"/>
  <use xlink:href="#Crawford" class="fill-g-5 stroke-white stroke-2 hover:fill-blue-4" transform="translate(-14.5000, 82)"/>
  <use xlink:href="#Cumberland" class="fill-g-5 stroke-white stroke-2 hover:fill-blue-4" transform="translate(413.5, 393)"/>
  <use xlink:href="#Dauphin" class="fill-g-5 stroke-white stroke-2 hover:fill-blue-4" transform="translate(490, 326)"/>
  <use xlink:href="#Delaware" class="fill-g-5 stroke-white stroke-2 hover:fill-blue-4" transform="translate(700, 441)"/>
  <use xlink:href="#Elk" class="fill-g-5 stroke-white stroke-2 hover:fill-blue-4" transform="translate(196, 131)"/>
  <use xlink:href="#Erie" class="fill-g-5 stroke-white stroke-2 hover:fill-blue-4" transform="translate(-13, 2)"/>
  <use xlink:href="#Fayette" class="fill-g-5 stroke-white stroke-2 hover:fill-blue-4" transform="translate(43, 428)"/>
  <use xlink:href="#Forest" class="fill-g-5 stroke-white stroke-2 hover:fill-blue-4" transform="translate(112, 130)"/>
  <use xlink:href="#Franklin" class="fill-g-5 stroke-white stroke-2 hover:fill-blue-4" transform="translate(332, 402)"/>
  <use xlink:href="#Fulton" class="fill-g-5 stroke-white stroke-2 hover:fill-blue-4" transform="translate(278, 425)"/>
  <use xlink:href="#Greene" class="fill-g-5 stroke-white stroke-2 hover:fill-blue-4" transform="translate(-45, 451)"/>
  <use xlink:href="#Huntingdon" class="fill-g-5 stroke-white stroke-2 hover:fill-blue-4" transform="translate(302, 310)"/>
  <use xlink:href="#Indiana" class="fill-g-5 stroke-white stroke-2 hover:fill-blue-4" transform="translate(125, 275)"/>
  <use xlink:href="#Jefferson" class="fill-g-5 stroke-white stroke-2 hover:fill-blue-4" transform="translate(151, 182)"/>
  <use xlink:href="#Juniata" class="fill-g-5 stroke-white stroke-2 hover:fill-blue-4" transform="translate(397, 319)"/>
  <use xlink:href="#Lackawanna" class="fill-g-5 stroke-white stroke-2 hover:fill-blue-4" transform="translate(655, 127)"/>
  <use xlink:href="#Lancaster" class="fill-g-5 stroke-white stroke-2 hover:fill-blue-4" transform="translate(560, 393)"/>
  <use xlink:href="#Lawrence" class="fill-g-5 stroke-white stroke-2 hover:fill-blue-4" transform="translate(-55, 226)"/>
  <use xlink:href="#Lebanon" class="fill-g-5 stroke-white stroke-2 hover:fill-blue-4" transform="translate(542, 346.5)"/>
  <use xlink:href="#Lehigh" class="fill-g-5 stroke-white stroke-2 hover:fill-blue-4" transform="translate(664, 298)"/>
  <use xlink:href="#Luzerne" class="fill-g-5 stroke-white stroke-2 hover:fill-blue-4" transform="translate(608, 169)"/>
  <use xlink:href="#Lycoming" class="fill-g-5 stroke-white stroke-2 hover:fill-blue-4" transform="translate(447, 138)"/>
  <use xlink:href="#McKean" class="fill-g-5 stroke-white stroke-2 hover:fill-blue-4" transform="translate(211, 59)"/>
  <use xlink:href="#Mercer" class="fill-g-5 stroke-white stroke-2 hover:fill-blue-4" transform="translate(-45, 153)"/>
  <use xlink:href="#Mifflin" class="fill-g-5 stroke-white stroke-2 hover:fill-blue-4" transform="translate(361, 289)"/>
  <use xlink:href="#Monroe" class="fill-g-5 stroke-white stroke-2 hover:fill-blue-4" transform="translate(708, 202)"/>
  <use xlink:href="#Montgomery" class="fill-g-5 stroke-white stroke-2 hover:fill-blue-4" transform="translate(706, 365)"/>
  <use xlink:href="#Montour" class="fill-g-5 stroke-white stroke-2 hover:fill-blue-4" transform="translate(502, 223)"/>
  <use xlink:href="#Northampton" class="fill-g-5 stroke-white stroke-2 hover:fill-blue-4" transform="translate(707, 258)"/>
  <use xlink:href="#Northumberland" class="fill-g-5 stroke-white stroke-2 hover:fill-blue-4" transform="translate(503, 224)"/>
  <use xlink:href="#Perry" class="fill-g-5 stroke-white stroke-2 hover:fill-blue-4" transform="translate(407, 332)"/>
  <use xlink:href="#Philadelphia" class="fill-g-5 stroke-white stroke-2 hover:fill-blue-4" transform="translate(743, 425)"/>
  <use xlink:href="#Pike" class="fill-g-5 stroke-white stroke-2 hover:fill-blue-4" transform="translate(748, 132)"/>
  <use xlink:href="#Potter" class="fill-g-5 stroke-white stroke-2 hover:fill-blue-4" transform="translate(313, 58)"/>
  <use xlink:href="#Schuylkill" class="fill-g-5 stroke-white stroke-2 hover:fill-blue-4" transform="translate(570, 267)"/>
  <use xlink:href="#Snyder" class="fill-g-5 stroke-white stroke-2 hover:fill-blue-4" transform="translate(439, 281)"/>
  <use xlink:href="#Somerset" class="fill-g-5 stroke-white stroke-2 hover:fill-blue-4" transform="translate(137, 401)"/>
  <use xlink:href="#Sullivan" class="fill-g-5 stroke-white stroke-2 hover:fill-blue-4" transform="translate(522, 140)"/>
  <use xlink:href="#Susquehanna" class="fill-g-5 stroke-white stroke-2 hover:fill-blue-4" transform="translate(628, 52)"/>
  <use xlink:href="#Tioga" class="fill-g-5 stroke-white stroke-2 hover:fill-blue-4" transform="translate(412, 56)"/>
  <use xlink:href="#Union" class="fill-g-5 stroke-white stroke-2 hover:fill-blue-4" transform="translate(438, 229)"/>
  <use xlink:href="#Venango" class="fill-g-5 stroke-white stroke-2 hover:fill-blue-4" transform="translate(33, 131)"/>
  <use xlink:href="#Warren" class="fill-g-5 stroke-white stroke-2 hover:fill-blue-4" transform="translate(107, 56)"/>
  <use xlink:href="#washington" class="fill-g-5 stroke-white stroke-2 hover:fill-blue-4" transform="translate(-39, 355)"/>
  <use xlink:href="#Wayne" class="fill-g-5 stroke-white stroke-2 hover:fill-blue-4" transform="translate(709, 52)"/>
  <use xlink:href="#Westmoreland" class="fill-g-5 stroke-white stroke-2 hover:fill-blue-4" transform="translate(75, 320)"/>
  <use xlink:href="#Wyoming" class="fill-g-5 stroke-white stroke-2 hover:fill-blue-4" transform="translate(601, 125)"/>
  <use xlink:href="#York" class="fill-g-5 stroke-white stroke-2 hover:fill-blue-4" transform="translate(501, 413)"/> -->

  <g id="partners">
    <use xlink:href="#partners-12" transform="translate(61.1 341.335)" />
    <use id="Schuylkill-partners" xlink:href="#partners-2" transform="translate(601.143 318.14)"/>
    <use id="Lycoming-partners" xlink:href="#partners-2" transform="translate(530.103 194.189)"/>
    <use id="Dauphin-partners" transform="translate(561.999 393.525)" xlink:href="#partners-2"/>
    <use id="York-partners" transform="translate(573.597 455.138)" xlink:href="#partners-2"/>
    <use id="Adams-partners" transform="translate(497.483 483.408)" xlink:href="#partners-2"/>
    <use id="Franklin-partners" transform="translate(430.793 460.212)" xlink:href="#partners-2"/>
    <use id="Blair-partners" transform="translate(318.435 343.51)" xlink:href="#partners-2"/>
    <use id="Lehigh-partners-2" transform="translate(766.418 320.314)" xlink:href="#partners-2"/>
    <use id="Bucks-partners-2" transform="translate(852.68 405.123)" xlink:href="#partners-4"/>
    <use id="Lebanon-partners" transform="translate(612.74 370.33)" xlink:href="#partners-3"/>
    <use id="Philadelphia-partners" transform="translate(812.81 444.99)" xlink:href="#partners-5"/>
    <use id="Erie-partners" transform="translate(61.1 8.625)" xlink:href="#partners-5"/>
    <use id="Center--3" transform="translate(398.173 287.695)" xlink:href="#partners-3"/>
    <use id="Warren-partners" xlink:href="#partners-1" x="198.829" y="92.708"/>
    <use id="Crawford-partners" x="65.449" y="123.877" xlink:href="#partners-1"/>
    <use id="mckean-partners" x="268.418" y="123.877" xlink:href="#partners-1"/>
    <use id="Elk-partners" x="279.291" y="172.443" xlink:href="#partners-1"/>
    <use id="Elk-partners-2" x="305.387" y="170.268" xlink:href="#partners-1"/>
    <use id="clearfield-partners" x="322.785" y="252.177" xlink:href="#partners-1"/>
    <use id="Venango-partners" x="121.99" y="173.893" xlink:href="#partners-1"/>
    <use id="Mercer-partners" x="41.527" y="185.49" xlink:href="#partners-1"/>
    <use id="Mercer-partners-2" x="12.532" y="205.062" xlink:href="#partners-1"/>
    <use id="Clarion-partners" x="173.457" y="219.559" xlink:href="#partners-1"/>
    <use id="Jefferson-partners" x="235.798" y="234.056" xlink:href="#partners-1"/>
    <use id="Laurence-partners" x="32.829" y="252.902" xlink:href="#partners-1"/>
    <use id="Butler-partners" x="100.244" y="282.621" xlink:href="#partners-1"/>
    <use id="Butler-partners-2" x="67.623" y="312.341" xlink:href="#partners-1"/>
    <use id="Beaver-partners" x="26.305" y="314.515" xlink:href="#partners-1"/>
    <use id="Washington-partners" x="42.252" y="415.271" xlink:href="#partners-1"/>
    <use id="Washington-partners-2" x="98.794" y="426.144" xlink:href="#partners-1"/>
    <use id="Fayette-partners" x="124.165" y="476.884" xlink:href="#partners-1"/>
    <use id="Westmoreland-partners" x="177.082" y="394.25" xlink:href="#partners-1"/>
    <use id="Somerset-partners" x="229.274" y="458.762" xlink:href="#partners-1"/>
    <use id="Cambria-partners" x="248.121" y="394.25" xlink:href="#partners-1"/>
    <use id="Blair-partners-2" x="340.182" y="396.424" xlink:href="#partners-1"/>
    <use id="Huntingdon-partners" x="388.75" y="362.356" xlink:href="#partners-1"/>
    <use id="Clinton-partners" x="468.488" y="236.955" xlink:href="#partners-1"/>
    <use id="Franklin-2" x="431.518" y="502.254" xlink:href="#partners-1"/>
    <use id="Franklin-3" x="454.715" y="508.778" xlink:href="#partners-1"/>
    <use id="Adams-partners-2" x="546.776" y="498.63" xlink:href="#partners-1"/>
    <use id="Cumberland-partners" x="546.776" y="402.223" xlink:href="#partners-1"/>
    <use id="Lancaster-partners" x="651.16" y="450.789" xlink:href="#partners-1"/>
    <use id="Northumberland-partners-2" x="609.841" y="299.293" xlink:href="#partners-1"/>
    <use id="Carbon-partners" x="738.872" y="289.145" xlink:href="#partners-1"/>
    <use id="Montgomery-partners" x="793.963" y="411.646" xlink:href="#partners-1"/>
    <use id="Bucks-partners" x="830.933" y="391.35" xlink:href="#partners-1"/>
    <use id="Lehigh-partners" x="800.487" y="337.711" xlink:href="#partners-1"/>
    <use id="Northampton-partners" x="816.435" y="315.965" xlink:href="#partners-1"/>
    <use id="Berks-partners" x="708.426" y="389.901" xlink:href="#partners-1"/>
    <use id="Schuylkill-partners-2" x="665.658" y="320.314" xlink:href="#partners-1"/>
    <use id="Luzerne-partners-3" x="696.103" y="263.05" xlink:href="#partners-1"/>
    <use id="Monroe-partners" x="816.435" y="255.802" xlink:href="#partners-1"/>
    <use id="Luzerne-partners-2" x="711.326" y="205.786" xlink:href="#partners-1"/>
    <use id="Luzerne-partners" x="724.374" y="189.115" xlink:href="#partners-1"/>
    <use id="Lackawanna-partners" x="743.221" y="172.443" xlink:href="#partners-1"/>
    <use id="Bradford-partners" x="624.339" y="102.131" xlink:href="#partners-1"/>
    <use id="Northumberland-partners" x="573.597" y="285.521" xlink:href="#partners-1"/>
    <use id="Union-partners" x="564.173" y="254.352" xlink:href="#partners-1"/>
  </g>

</svg>
