<svg xmlns="http://www.w3.org/2000/svg" id="envelope-with-letter" viewBox="0 0 66 75"><g fill-rule="evenodd"><path d="m6 24-5 5.065L6 34zM0 72.874V73l20-20.499L0 32zM14.272 32h37.45c.626 0 1.252.625 1.252 1.25s-.626 1.25-1.253 1.25H14.272c-.626 0-1.252-.5-1.252-1.25S13.646 32 14.272 32Zm0-8.875h37.575c.626 0 1.252.625 1.252 1.25s-.626 1.25-1.252 1.25H14.272c-.626 0-1.252-.625-1.252-1.25s.626-1.25 1.252-1.25Zm0-8.875h37.575c.626 0 1.252.5 1.252 1.25s-.626 1.25-1.252 1.25H14.272c-.626 0-1.252-.5-1.252-1.25 0-.625.626-1.25 1.252-1.25Zm0-8.875h37.575c.626 0 1.252.625 1.252 1.25s-.626 1.25-1.252 1.25H14.272c-.626 0-1.252-.625-1.252-1.25s.626-1.25 1.252-1.25Zm28.306 38H23.541c-.626 0-1.252-.625-1.252-1.25s.5-1.25 1.252-1.25h19.037c.627 0 1.253.5 1.253 1.25 0 .625-.626 1.25-1.253 1.25ZM8.011 1.25v35.5l25.05 25 25.05-25V1.25C58.11.5 57.483 0 56.857 0H9.265c-.752 0-1.253.625-1.253 1.25h-.001Z"/><path d="M33.937 64.376c-.25.25-.626.375-.876.375-.376 0-.626-.125-.877-.375l-9.77-9.75L2 75h62.122L43.707 54.625l-9.77 9.75ZM60.615 34.25 65.5 29.5l-4.885-4.875zm5.385 39V32.5L45.585 52.875z"/></g></svg>