<svg id="outlines" xmlns="http://www.w3.org/2000/svg" viewBox="0 0 60 90"><defs><style>.cls-1{fill:none;}.cls-2{fill:#231f20;}.cls-3{fill:#221f1f;}.cls-4{fill:#00467a;}</style></defs><title>SpotlightPA_PN_5p</title><rect class="cls-1" width="60" height="90"/><path class="cls-2" d="M10.66,77.44c0,.09,0,.11.07.11h.35v.23H9.91v-.23h.34s.06,0,.06-.11V74.79c0-.1,0-.11-.06-.11H9.91v-.23h1.15c.93,0,1.36.31,1.36,1s-.4,1-1.36,1h-.4Zm.36-1.3c.76,0,1.07-.22,1.07-.74s-.31-.72-1.07-.72h-.36v1.46Z"/><path class="cls-2" d="M12.75,76.12a1.58,1.58,0,0,1,1.6-1.72,1.72,1.72,0,1,1-1.6,1.72Zm2.81,0v-.08c0-.87-.49-1.43-1.22-1.43a1.26,1.26,0,0,0-1.23,1.43v.08c0,.87.48,1.42,1.22,1.42A1.25,1.25,0,0,0,15.56,76.16Z"/><path class="cls-2" d="M16.33,74.79c0-.09-.06-.11-.11-.11h-.3v-.23h1.14v.23h-.32c-.07,0-.09,0-.06.1l.72,2.45.84-2.48s0-.07,0-.07h-.33v-.23H19v.23h-.33s-.06,0,0,.07l.84,2.48.71-2.45c0-.08,0-.1-.06-.1h-.36v-.23h1.11v.23H20.6c-.09,0-.13,0-.15.11l-.88,3h-.25l-.92-2.68-.92,2.68h-.26Z"/><path class="cls-2" d="M22.55,76c.08,0,.11,0,.11-.09v-.26h.2v.93h-.2v-.25c0-.07,0-.1-.11-.1h-.72v1.34h1.36c.12,0,.13,0,.16-.1l0-.38h.21v.71h-2.5v-.23h.34s.06,0,.06-.11V74.79c0-.1,0-.11-.06-.11h-.34v-.23h2.41v.71h-.21l0-.38c0-.07-.05-.1-.17-.1H21.83V76Z"/><path class="cls-2" d="M26.3,77.11c0,.37.08.44.31.44h0v.23h-.17c-.41,0-.53-.24-.55-.69s-.25-.83-1-.83h-.31v1.18c0,.09,0,.11.07.11h.34v.23H23.89v-.23h.34s.06,0,.06-.11V74.79c0-.09,0-.11-.06-.11h-.34v-.23h1.3c.79,0,1.19.3,1.19.88s-.26.72-.79.83A.89.89,0,0,1,26.3,77.11ZM25,76.05c.68,0,1-.24,1-.7s-.3-.67-.91-.67h-.48v1.37Z"/><path class="cls-2" d="M28.3,76c.08,0,.11,0,.11-.09v-.26h.2v.93h-.2v-.25c0-.07,0-.1-.11-.1h-.72v1.34h1.36c.12,0,.13,0,.16-.1l0-.38h.21v.71h-2.5v-.23h.34s.06,0,.06-.11V74.79c0-.1,0-.11-.06-.11h-.34v-.23h2.41v.71H29l0-.38c0-.07-.05-.1-.17-.1H27.58V76Z"/><path class="cls-2" d="M29.64,77.55H30s.06,0,.06-.11V74.79c0-.1,0-.11-.06-.11h-.34v-.23h1.2a1.56,1.56,0,0,1,1.77,1.68c0,1-.62,1.65-1.82,1.65H29.64Zm1.12,0a1.3,1.3,0,0,0,1.49-1.39v-.08a1.27,1.27,0,0,0-1.44-1.4H30.4v2.87Z"/><path class="cls-2" d="M36.6,76.9c0,.59-.41.88-1.28.88H34v-.23h.34s.07,0,.07-.11V74.79c0-.08,0-.11-.07-.11H34v-.23h1.25c.81,0,1.17.26,1.17.85,0,.4-.23.64-.69.75C36.32,76.14,36.6,76.41,36.6,76.9ZM35.07,76c.65,0,1-.23,1-.65s-.26-.65-.86-.65h-.46V76Zm-.31,1.57h.53c.64,0,1-.21,1-.67s-.33-.7-1-.7h-.48Z"/><path class="cls-2" d="M38.33,77.44c0,.09,0,.11.07.11h.35v.23H37.58v-.23h.34s.07,0,.07-.11V76.21l-.92-1.45c0-.06-.07-.08-.11-.08h-.31v-.23h1.19v.23h-.35c-.06,0-.08,0,0,.09L38.21,76,39,74.76c0-.06,0-.08,0-.08h-.33v-.23H39.7v.23h-.28a.14.14,0,0,0-.14.08l-1,1.47Z"/><path class="cls-2" d="M41.49,74.67c-.11,0-.14,0-.17.1v.39h-.2v-.71h2.63v.71h-.21v-.39c0-.08-.06-.1-.17-.1h-.76v2.77c0,.09,0,.11.07.11H43v.23H41.83v-.23h.35s.07,0,.07-.11V74.67Z"/><path class="cls-2" d="M44.75,76.2v1.24c0,.09,0,.11.07.11h.34v.23H44v-.23h.34s.06,0,.06-.11V74.79c0-.1,0-.11-.06-.11H44v-.23h1.16v.23h-.34s-.07,0-.07.11V76h1.78V74.79c0-.1,0-.11-.07-.11h-.34v-.23h1.17v.23H47c-.05,0-.07,0-.07.11v2.65c0,.09,0,.11.07.11h.34v.23H46.12v-.23h.34s.07,0,.07-.11V76.2Z"/><path class="cls-2" d="M49,76c.09,0,.11,0,.11-.09v-.26h.2v.93h-.2v-.25c0-.07,0-.1-.11-.1h-.71v1.34H49.6c.12,0,.14,0,.16-.1l0-.38H50v.71h-2.5v-.23h.34c.05,0,.07,0,.07-.11V74.79c0-.1,0-.11-.07-.11h-.34v-.23H49.9v.71h-.2l0-.38c0-.07,0-.1-.16-.1H48.25V76Z"/><path class="cls-3" d="M53.4,2.92V7.85c0,.24-.06.31-.2.31h-.56V9h3V8.16h-.56c-.15,0-.2-.07-.2-.31V2.92h.81c.43,0,.53.08.65.37l.05.61h.69V2.16H51.25V3.9h.69L52,3.29c.11-.29.22-.37.64-.37Zm-4.81,3v2c0,.24-.06.31-.2.31h-.5V9h2.93V8.16h-.51c-.14,0-.2-.07-.2-.31V3.27c0-.25.06-.3.2-.3h.51V2.16H47.89V3h.5c.14,0,.2,0,.2.3V5.13H46V3.27c0-.25,0-.3.19-.3h.51V2.16H43.71V3h.52c.14,0,.19,0,.19.3V7.85c0,.24-.05.31-.19.31h-.52V9h2.94V8.16h-.51c-.14,0-.19-.07-.19-.31v-2ZM42.23,8.08l.33.89h.61V5.59H40.4V6.4h1.43v.26A1.27,1.27,0,0,1,40.43,8c-1.18,0-1.78-.7-1.78-2.36V5.42c0-1.54.67-2.33,2-2.33A2.27,2.27,0,0,1,42,3.48V4.67h1.15v-2A4.86,4.86,0,0,0,40.5,2c-2.21,0-3.44,1.26-3.44,3.55S38.23,9.1,40.15,9.1a2.21,2.21,0,0,0,2.08-1M33.69,9h3V8.16h-.52c-.14,0-.19-.07-.19-.31V3.27c0-.25,0-.3.19-.3h.52V2.16h-3V3h.52c.14,0,.19,0,.19.3V7.85c0,.24,0,.31-.19.31h-.52ZM28,9h5.3V6.76h-.8l-.19,1.06c-.09.3-.21.34-.64.34H30.28V3.27c0-.25,0-.3.19-.3H31V2.16H28V3h.51c.15,0,.2,0,.2.3V7.85c0,.24-.05.31-.2.31H28Zm-4.1-6.05V7.85c0,.24-.05.31-.2.31h-.56V9h3V8.16h-.56c-.14,0-.19-.07-.19-.31V2.92h.81c.43,0,.52.08.64.37l.05.61h.69V2.16H21.79V3.9h.69l.05-.61c.12-.29.22-.37.64-.37ZM18.08,8.17c-1.17,0-1.85-.88-1.85-2.46V5.43c0-1.59.7-2.47,1.87-2.47s1.84.88,1.84,2.47v.28c0,1.59-.7,2.46-1.86,2.46m0,.93A3.27,3.27,0,0,0,21.5,5.57,3.24,3.24,0,0,0,18.12,2a3.31,3.31,0,0,0-3.48,3.55A3.25,3.25,0,0,0,18.06,9.1M10.73,5.44V3h.5c1.15,0,1.65.38,1.65,1.21s-.49,1.25-1.65,1.25Zm0,.79h.78c1.94,0,2.78-.63,2.78-2.05s-.89-2-2.77-2h-3V3H9c.15,0,.2,0,.2.3V7.85c0,.24,0,.31-.2.31H8.49V9h3V8.16h-.57c-.14,0-.19-.07-.19-.31ZM5.39,9.1c1.75,0,2.68-.85,2.68-2.21s-.92-1.75-2.13-2c-.93-.2-1.57-.35-1.57-1s.47-1,1.2-1a2.87,2.87,0,0,1,1.28.29V4h1V2.54A4.91,4.91,0,0,0,5.56,2c-1.68,0-2.62.86-2.62,2.19s.9,1.69,2.08,2,1.63.42,1.63,1.09-.49,1-1.25,1A3.32,3.32,0,0,1,4,7.94V7.06H2.93V8.59a6,6,0,0,0,2.46.51"/><path class="cls-4" d="M30.58,35.72c0-2.86-1.74-4.17-5.7-4.17H23.14V40h1.74c4,0,5.7-1.35,5.7-4.32m4.84,0c0,4.92-2.9,7.07-9.59,7.07H23.14v5.6c0,.84.18,1.06.68,1.06h1.94v2.79H15.43V49.42H17.2c.5,0,.67-.22.67-1.06V32.57c0-.88-.17-1.06-.67-1.06H15.43V28.72H25.87c6.51,0,9.55,2.26,9.55,7m21,13.68a27.87,27.87,0,1,0-1.1,2.84H48.06V49.42h1.52c.64,0,.88-.22.6-1l-1.56-4.14H40.84l-1.49,4.14c-.25.81,0,1,.6,1h1.42v2.79H33.19V49.42h1.38c.75,0,.92-.22,1.24-1.1l7.36-19.71h5.24l7.26,19.71c.21.66.44,1,.78,1M44.77,33l-3.08,8.67h6.15Z"/><path d="M31.32,85.84c-.26.23-.51.45-.79.72l-1-.71h0c.07,0,.11-.1.11-.32V82.69h-.54l.25-.46h.29v-.76l.94-.62v1.38h.76l-.24.45h-.52v2.7c0,.16,0,.21.22.33a.63.63,0,0,0,.34.13.26.26,0,0,0,.15-.07Z"/><path d="M25.45,81l-.66.55a7.89,7.89,0,0,0-.6-.59l.67-.55c.16.15.38.39.59.59"/><path d="M25.72,85.91l-.69.65-.75-.49h0c.07,0,.11-.13.11-.44v-2.3c0-.38-.16-.59-.32-.59a.14.14,0,0,0-.11,0l-.05-.06.67-.68a.94.94,0,0,1,.75,1.07v2.52c0,.11,0,.15.15.23a.17.17,0,0,0,.1,0,.14.14,0,0,0,.08,0Z"/><path d="M23.82,82.65l-.64.82-.06,0a.49.49,0,0,0,.05-.2.38.38,0,0,0-.37-.41h-.13l-.11.14v2.35c0,.25,0,.28.29.43a.41.41,0,0,0,.26.08.23.23,0,0,0,.15-.06l.07.07c-.28.24-.49.44-.79.72l-1-.71h0c.08,0,.11-.13.11-.3V83.26c0-.28-.13-.53-.32-.53a.14.14,0,0,0-.1,0l0-.07.66-.67a1,1,0,0,1,.69.82l.68-.82a.58.58,0,0,1,.63.61"/><path d="M21.25,85.84c-.26.23-.51.45-.79.72l-1-.71h0c.07,0,.11-.1.11-.32V82.69H19l.24-.46h.29v-.76l.94-.62v1.38h.76l-.24.45h-.52v2.7c0,.16,0,.21.22.33a.63.63,0,0,0,.34.13.22.22,0,0,0,.15-.06Z"/><path d="M27.89,85.87v-2.4c0-.35-.16-.52-.83-.8h0v2.45c0,.31.11.41.83.75Zm.94-.31a16.09,16.09,0,0,0-1.43,1c-1.19-.49-1.28-.63-1.28-1.31V82.91A15.88,15.88,0,0,0,27.49,82c1,.31,1.34.55,1.34,1.19Z"/><path d="M17.6,85.62v-1.7l-.4.2a1,1,0,0,0-.47.94,1,1,0,0,0,.45.9Zm1.46.23-.69.71a1.07,1.07,0,0,1-.75-.8l-1,.8h0a1.43,1.43,0,0,1-.77-1.19c0-.47.2-.94,1.1-1.34l.66-.29v-.61l-.54-.23a.93.93,0,0,0-.33-.08c-.1,0-.28.18-.33.25L16.28,83l.87-1,1.51.6v0c-.08.06-.13.13-.13.41v2.44a.26.26,0,0,0,.13.26.43.43,0,0,0,.22.09.21.21,0,0,0,.13,0Z"/><path d="M14.55,85.69V82.3a1.06,1.06,0,0,0-.89-1.21l-.59.46v3.72a2.88,2.88,0,0,1,1.48.42m1-.15c-.36.23-1,.68-1.36,1a2.2,2.2,0,0,0-1.14-.36V88l-.35-.28s-.44.43-.64.59V86.19a1.1,1.1,0,0,0-.84.35l-.07,0c.23-.46.42-.8.5-1a1.25,1.25,0,0,1,.41-.16V81.86c0-.42-.2-.62-.41-.62a.47.47,0,0,0-.36.19l-.09-.07c.21-.29.64-.88.77-1a1.06,1.06,0,0,1,1.08,1v.06c.46-.36.73-.58,1.24-1a1.55,1.55,0,0,1,1.26,1.72Z"/><path d="M48.83,85.83a5.74,5.74,0,0,0-1.31.73,1.06,1.06,0,0,0-.65-.22,1.15,1.15,0,0,0-.76.22l0,0c.2-.56.51-.93,1.09-.93a1,1,0,0,1,.72.29h0v-.62a.53.53,0,0,0-.37-.55L47,84.47c-.58-.26-.76-.45-.76-1v-.68A6.8,6.8,0,0,0,47.49,82a.83.83,0,0,0,.62.31.91.91,0,0,0,.6-.19l0,0c-.18.48-.45.85-.94.85a.88.88,0,0,1-.64-.29h0v.46c0,.28.06.39.29.49l.47.21c.65.28.91.4.91,1.07Z"/><path d="M45.86,82.54c-.07,0-.12.12-.12.4v2.65a11,11,0,0,0-1.37,1c-.53-.24-.72-.32-1.24-.52a6.12,6.12,0,0,0-.64.52c-.69-.33-1-.48-1.46-.66v0c.09,0,.14-.08.14-.4V83.34c0-.39-.16-.58-.33-.58a.14.14,0,0,0-.1,0l-.05-.07.67-.68a.94.94,0,0,1,.74,1.08v2.34a7.88,7.88,0,0,0,.87.38V83c0-.11,0-.14-.14-.21a.18.18,0,0,0-.12-.05.1.1,0,0,0-.07,0l0-.06.69-.63c.23.16.54.37.75.49h0c-.08,0-.12.12-.12.4v2.63a6.33,6.33,0,0,0,.85.32h0V83c0-.11,0-.15-.14-.23a.28.28,0,0,0-.13,0s0,0-.07,0l-.06-.07c.19-.17.54-.44.72-.61.23.16.56.37.76.49Z"/><path d="M38.47,80.52a1,1,0,0,1-.89.86v4.25a.32.32,0,0,0,.2.08c.07,0,.09,0,.13-.08l.08,0-.42.88a.62.62,0,0,1-.17,0c-.67,0-.94-.27-1.79-2.62s-.9-2.4-1-2.52h0v4.14a2.88,2.88,0,0,1,.74.2c.06,0,.11-.06.16-.12l.07,0-.57.89a1.48,1.48,0,0,0-.82-.24,1.64,1.64,0,0,0-.88.2l0,0a1.29,1.29,0,0,1,1.15-1V81.29a.63.63,0,0,0-.3-.08.56.56,0,0,0-.55.32l-.11-.07c.27-.44.48-.77.62-1a1.86,1.86,0,0,1,.42,0c.78,0,1,.16,1.8,2.41.86,2.46,1,2.6,1.11,2.72h0V81.38a3,3,0,0,1-.74-.16.21.21,0,0,0-.18.11l-.09-.07c.19-.26.35-.49.57-.85a1.56,1.56,0,0,0,.77.25,1.32,1.32,0,0,0,.72-.16Z"/><path d="M33.73,83.46c-.15.25-.35.69-.47.94-.58,0-.87-.18-1.29-.18a.41.41,0,0,0-.36.15l-.07,0c.14-.26.32-.64.44-.89.54,0,1,.18,1.3.18a.4.4,0,0,0,.38-.21Z"/><path d="M39.92,83.71c-.2-.34-.39-.65-.63-1h0v1.42Zm.84-.39-1.47,1V85.4c0,.16.05.27.29.37a1,1,0,0,0,.42.11.61.61,0,0,0,.4-.18l.07.07-.94.79c-.36-.17-.79-.38-1.29-.59h0c.08,0,.12-.12.12-.3V83.1A10.8,10.8,0,0,0,39.89,82c.33.5.59.89.87,1.29"/></svg>