<svg id="Layer_1" data-name="Layer 1" xmlns="http://www.w3.org/2000/svg" viewBox="0 0 1920 495.13"><defs><style>.cls-1,.cls-4{fill:#009edb;}.cls-1{opacity:0.4;}.cls-2{fill:#fff;}.cls-3{fill:#333;}</style></defs><title>Artboard 1</title><path class="cls-1" d="M328.84,60,491.62,393.14s181.71,51.1,412.64,0C904.26,395,328.84,60,328.84,60Z"/><path class="cls-2" d="M478.91,337.44q-22,0-40.05-8.94a98.78,98.78,0,0,1-30.95-23.77,107.83,107.83,0,0,1-20-33.88,111.73,111.73,0,0,1-7-39,108.28,108.28,0,0,1,7.48-39.9,110,110,0,0,1,20.68-33.74,99.61,99.61,0,0,1,31.25-23.32,89.37,89.37,0,0,1,39.17-8.66q22,0,39.9,9.25a102.4,102.4,0,0,1,30.8,24.2,112.37,112.37,0,0,1,27,72.47,108.21,108.21,0,0,1-7.49,39.9,109.42,109.42,0,0,1-20.53,33.59,98.92,98.92,0,0,1-31.1,23.18A89.39,89.39,0,0,1,478.91,337.44ZM410.82,231.82a88.8,88.8,0,0,0,4.91,29.29,80.78,80.78,0,0,0,13.87,25.08,67.32,67.32,0,0,0,21.57,17.37,60.65,60.65,0,0,0,28,6.44,58.78,58.78,0,0,0,28.58-6.86,69.73,69.73,0,0,0,21.43-17.94,79.81,79.81,0,0,0,13.45-25.07,89.91,89.91,0,0,0,4.63-28.31,88.83,88.83,0,0,0-4.91-29.28,77.84,77.84,0,0,0-14-24.94,70.44,70.44,0,0,0-21.57-17.23,63.27,63.27,0,0,0-56.19.28,69.11,69.11,0,0,0-21.43,17.65,80.43,80.43,0,0,0-13.59,24.94A88.17,88.17,0,0,0,410.82,231.82Z"/><path class="cls-3" d="M186.66,174.1a41.74,41.74,0,0,0-9-7.56A79.72,79.72,0,0,0,165.09,160a88.67,88.67,0,0,0-15.27-4.76,79.63,79.63,0,0,0-17.24-1.82q-23.25,0-34,8.68T87.75,185.87q0,8.13,3.08,13.45a25.5,25.5,0,0,0,9.67,9.11A73.42,73.42,0,0,0,116.89,215q9.81,2.81,23.26,5.89A242.58,242.58,0,0,1,168,228.6a81.38,81.38,0,0,1,21.3,10.79,43.38,43.38,0,0,1,13.45,15.69q4.62,9.25,4.62,22.7,0,14.3-5.6,24.8A49.78,49.78,0,0,1,186.52,320,66.06,66.06,0,0,1,163.69,330a120.59,120.59,0,0,1-28.58,3.22,131.86,131.86,0,0,1-43.58-7.15,121.64,121.64,0,0,1-37.4-20.87l12-21.3a66.62,66.62,0,0,0,11.63,9.53A95,95,0,0,0,94.06,302a119.66,119.66,0,0,0,19.61,6.16,99.1,99.1,0,0,0,22,2.38q21.29,0,33.06-7.56t11.77-22.7q0-8.4-3.78-14.15a32.13,32.13,0,0,0-11.07-9.95,85.62,85.62,0,0,0-18.07-7.42q-10.8-3.22-24.52-6.59a243.55,243.55,0,0,1-26.62-7.84,72.92,72.92,0,0,1-19.2-10.09A38.09,38.09,0,0,1,65.61,210q-3.91-8.41-3.92-20.18,0-14.28,5.33-25.22a52.73,52.73,0,0,1,14.85-18.49,64.7,64.7,0,0,1,22.69-11.35A103.26,103.26,0,0,1,133.14,131q20.18,0,36.43,6.16a102.29,102.29,0,0,1,28.86,16.54Z"/><path class="cls-3" d="M232.06,331.3v-199H315a54.07,54.07,0,0,1,24.24,5.46,61.15,61.15,0,0,1,19.05,14.58,69.55,69.55,0,0,1,12.47,20.45A62.41,62.41,0,0,1,375.24,196a68.75,68.75,0,0,1-4.2,23.81,65.57,65.57,0,0,1-11.91,20.46,57.9,57.9,0,0,1-18.49,14.29,53.41,53.41,0,0,1-24,5.32h-59.4V331.3Zm25.22-93.87h58a30.61,30.61,0,0,0,14.15-3.22,32.16,32.16,0,0,0,10.79-9,44.29,44.29,0,0,0,7-13.31,50.2,50.2,0,0,0,2.52-16,44.45,44.45,0,0,0-2.94-16.25A44,44,0,0,0,339,166.54a34.8,34.8,0,0,0-11.49-8.69,32.42,32.42,0,0,0-13.87-3.08H257.28Z"/><path class="cls-3" d="M478.92,332.7a84.87,84.87,0,0,1-38.25-8.55,94.33,94.33,0,0,1-29.57-22.69,103.13,103.13,0,0,1-19.05-32.37,106.84,106.84,0,0,1-6.72-37.27,103.45,103.45,0,0,1,7.14-38.1,104.86,104.86,0,0,1,19.76-32.23,94.9,94.9,0,0,1,29.84-22.27A85.39,85.39,0,0,1,479.48,131q21,0,38.1,8.83A97.72,97.72,0,0,1,547,162.89a107.33,107.33,0,0,1,25.78,69.21,103.47,103.47,0,0,1-7.15,38.11A104.65,104.65,0,0,1,546,302.3a94.56,94.56,0,0,1-29.71,22.13A85.34,85.34,0,0,1,478.92,332.7ZM410.83,231.82a88.84,88.84,0,0,0,4.9,29.29,80.61,80.61,0,0,0,13.87,25.07,67.22,67.22,0,0,0,21.57,17.38,60.65,60.65,0,0,0,28,6.44,58.78,58.78,0,0,0,28.58-6.86,69.73,69.73,0,0,0,21.43-17.94,79.75,79.75,0,0,0,13.45-25.08,89.29,89.29,0,0,0-.28-57.58,77.84,77.84,0,0,0-14-24.94,70.17,70.17,0,0,0-21.57-17.23,63.27,63.27,0,0,0-56.19.28,69,69,0,0,0-21.43,17.65,80.43,80.43,0,0,0-13.59,24.94A88.15,88.15,0,0,0,410.83,231.82Z"/><path class="cls-3" d="M736.71,154.77H668.06V331.3H642.84V154.77H574.19V132.35H736.71Z"/><path class="cls-3" d="M756.88,331.3v-199H782.1V308.88h111V331.3Z"/><path class="cls-3" d="M912.12,331.3v-199h25.21v199Z"/><path class="cls-3" d="M1117,304.4q-26.35,28.31-60.53,28.3a79.65,79.65,0,0,1-36.85-8.69,97.34,97.34,0,0,1-29.28-22.83,109.85,109.85,0,0,1-19.47-32.37,101.82,101.82,0,0,1-7.15-37.55A105.63,105.63,0,0,1,990,161.07a91.49,91.49,0,0,1,29.42-22,85,85,0,0,1,37-8.13q28.86,0,47.5,12.05a79.88,79.88,0,0,1,28.44,31.38L1113,187.83q-9-17.37-23.81-25.78a66.58,66.58,0,0,0-33.35-8.4,57.35,57.35,0,0,0-27.46,6.58,67.57,67.57,0,0,0-21,17.37,80.35,80.35,0,0,0-13.45,24.94,91.37,91.37,0,0,0-4.76,29.28A84.61,84.61,0,0,0,994.5,262a82.22,82.22,0,0,0,14.57,24.93,67.57,67.57,0,0,0,21.85,17,61.68,61.68,0,0,0,27.46,6.16q32.5,0,58.57-31.38V251.16h-42.88V232.1h64.17v99.2H1117Z"/><path class="cls-3" d="M1328.22,132.35v199H1303V240.79H1193.44V331.3h-25.22v-199h25.22v86H1303v-86Z"/><path class="cls-3" d="M1510.92,154.77h-68.66V331.3H1417V154.77h-68.65V132.35h162.53Z"/><path class="cls-4" d="M1528,331.3v-199h84.34a56.63,56.63,0,0,1,25.36,5.74,65.72,65.72,0,0,1,20,15.14,71.36,71.36,0,0,1,13.17,21.29,64,64,0,0,1,4.77,24,69,69,0,0,1-4.49,24.52,68,68,0,0,1-12.61,21.15A61.78,61.78,0,0,1,1639,259a56.71,56.71,0,0,1-25.22,5.61h-47.07V331.3Zm38.67-100.6h44.83q10.65,0,17.79-8.68t7.15-23.54a38.89,38.89,0,0,0-2.24-13.59,33.05,33.05,0,0,0-5.89-10.23,23.48,23.48,0,0,0-8.54-6.3,25.12,25.12,0,0,0-10-2.1h-43.15Z"/><path class="cls-4" d="M1738.16,132.35h34.18l75.66,199h-39.79l-18.49-49.6h-69.49L1702,331.3h-39.79Zm44.55,122.17-27.46-78.18-28.58,78.18Z"/></svg>