<svg viewBox="0 0 1920 495.13" xmlns="http://www.w3.org/2000/svg"><path d="m328.84 60 162.78 333.14s181.71 51.1 412.64 0c0 1.86-575.42-333.14-575.42-333.14z" fill="#009edb" opacity=".4"/><path d="m478.91 337.44q-22 0-40.05-8.94a98.78 98.78 0 0 1 -30.95-23.77 107.83 107.83 0 0 1 -20-33.88 111.73 111.73 0 0 1 -7-39 108.28 108.28 0 0 1 7.48-39.9 110 110 0 0 1 20.68-33.74 99.61 99.61 0 0 1 31.25-23.32 89.37 89.37 0 0 1 39.17-8.66q22 0 39.9 9.25a102.4 102.4 0 0 1 30.8 24.2 112.37 112.37 0 0 1 27 72.47 108.21 108.21 0 0 1 -7.49 39.9 109.42 109.42 0 0 1 -20.53 33.59 98.92 98.92 0 0 1 -31.1 23.18 89.39 89.39 0 0 1 -39.16 8.62zm-68.09-105.62a88.8 88.8 0 0 0 4.91 29.29 80.78 80.78 0 0 0 13.87 25.08 67.32 67.32 0 0 0 21.57 17.37 60.65 60.65 0 0 0 28 6.44 58.78 58.78 0 0 0 28.58-6.86 69.73 69.73 0 0 0 21.43-17.94 79.81 79.81 0 0 0 13.45-25.07 89.91 89.91 0 0 0 4.63-28.31 88.83 88.83 0 0 0 -4.91-29.28 77.84 77.84 0 0 0 -14-24.94 70.44 70.44 0 0 0 -21.57-17.23 63.27 63.27 0 0 0 -56.19.28 69.11 69.11 0 0 0 -21.43 17.65 80.43 80.43 0 0 0 -13.59 24.94 88.17 88.17 0 0 0 -4.75 28.58z" fill="#fff"/><g fill="#333"><path d="m186.66 174.1a41.74 41.74 0 0 0 -9-7.56 79.72 79.72 0 0 0 -12.57-6.54 88.67 88.67 0 0 0 -15.27-4.76 79.63 79.63 0 0 0 -17.24-1.82q-23.25 0-34 8.68t-10.83 23.77q0 8.13 3.08 13.45a25.5 25.5 0 0 0 9.67 9.11 73.42 73.42 0 0 0 16.39 6.57q9.81 2.81 23.26 5.89a242.58 242.58 0 0 1 27.85 7.71 81.38 81.38 0 0 1 21.3 10.79 43.38 43.38 0 0 1 13.45 15.69q4.62 9.25 4.62 22.7 0 14.3-5.6 24.8a49.78 49.78 0 0 1 -15.25 17.42 66.06 66.06 0 0 1 -22.83 10 120.59 120.59 0 0 1 -28.58 3.22 131.86 131.86 0 0 1 -43.58-7.15 121.64 121.64 0 0 1 -37.4-20.87l12-21.3a66.62 66.62 0 0 0 11.63 9.53 95 95 0 0 0 16.3 8.57 119.66 119.66 0 0 0 19.61 6.16 99.1 99.1 0 0 0 22 2.38q21.29 0 33.06-7.56t11.77-22.7q0-8.4-3.78-14.15a32.13 32.13 0 0 0 -11.07-9.95 85.62 85.62 0 0 0 -18.07-7.42q-10.8-3.22-24.52-6.59a243.55 243.55 0 0 1 -26.62-7.84 72.92 72.92 0 0 1 -19.2-10.09 38.09 38.09 0 0 1 -11.63-14.24q-3.91-8.41-3.92-20.18 0-14.28 5.33-25.22a52.73 52.73 0 0 1 14.85-18.49 64.7 64.7 0 0 1 22.69-11.35 103.26 103.26 0 0 1 28.58-3.76q20.18 0 36.43 6.16a102.29 102.29 0 0 1 28.86 16.54z"/><path d="m232.06 331.3v-199h82.94a54.07 54.07 0 0 1 24.24 5.46 61.15 61.15 0 0 1 19.05 14.58 69.55 69.55 0 0 1 12.47 20.45 62.41 62.41 0 0 1 4.48 23.21 68.75 68.75 0 0 1 -4.2 23.81 65.57 65.57 0 0 1 -11.91 20.46 57.9 57.9 0 0 1 -18.49 14.29 53.41 53.41 0 0 1 -24 5.32h-59.4v71.42zm25.22-93.87h58a30.61 30.61 0 0 0 14.15-3.22 32.16 32.16 0 0 0 10.79-9 44.29 44.29 0 0 0 7-13.31 50.2 50.2 0 0 0 2.52-16 44.45 44.45 0 0 0 -2.94-16.25 44 44 0 0 0 -7.8-13.11 34.8 34.8 0 0 0 -11.49-8.69 32.42 32.42 0 0 0 -13.87-3.08h-56.36z"/><path d="m478.92 332.7a84.87 84.87 0 0 1 -38.25-8.55 94.33 94.33 0 0 1 -29.57-22.69 103.13 103.13 0 0 1 -19.05-32.37 106.84 106.84 0 0 1 -6.72-37.27 103.45 103.45 0 0 1 7.14-38.1 104.86 104.86 0 0 1 19.76-32.23 94.9 94.9 0 0 1 29.84-22.27 85.39 85.39 0 0 1 37.41-8.22q21 0 38.1 8.83a97.72 97.72 0 0 1 29.42 23.06 107.33 107.33 0 0 1 25.78 69.21 103.47 103.47 0 0 1 -7.15 38.11 104.65 104.65 0 0 1 -19.63 32.09 94.56 94.56 0 0 1 -29.71 22.13 85.34 85.34 0 0 1 -37.37 8.27zm-68.09-100.88a88.84 88.84 0 0 0 4.9 29.29 80.61 80.61 0 0 0 13.87 25.07 67.22 67.22 0 0 0 21.57 17.38 60.65 60.65 0 0 0 28 6.44 58.78 58.78 0 0 0 28.58-6.86 69.73 69.73 0 0 0 21.43-17.94 79.75 79.75 0 0 0 13.45-25.08 89.29 89.29 0 0 0 -.28-57.58 77.84 77.84 0 0 0 -14-24.94 70.17 70.17 0 0 0 -21.57-17.23 63.27 63.27 0 0 0 -56.19.28 69 69 0 0 0 -21.43 17.65 80.43 80.43 0 0 0 -13.59 24.94 88.15 88.15 0 0 0 -4.74 28.58z"/><path d="m736.71 154.77h-68.65v176.53h-25.22v-176.53h-68.65v-22.42h162.52z"/><path d="m756.88 331.3v-199h25.22v176.58h111v22.42z"/><path d="m912.12 331.3v-199h25.21v199z"/><path d="m1117 304.4q-26.35 28.31-60.53 28.3a79.65 79.65 0 0 1 -36.85-8.69 97.34 97.34 0 0 1 -29.28-22.83 109.85 109.85 0 0 1 -19.47-32.37 101.82 101.82 0 0 1 -7.15-37.55 105.63 105.63 0 0 1 26.28-70.19 91.49 91.49 0 0 1 29.42-22 85 85 0 0 1 37-8.13q28.86 0 47.5 12.05a79.88 79.88 0 0 1 28.44 31.38l-19.36 13.46q-9-17.37-23.81-25.78a66.58 66.58 0 0 0 -33.35-8.4 57.35 57.35 0 0 0 -27.46 6.58 67.57 67.57 0 0 0 -21 17.37 80.35 80.35 0 0 0 -13.45 24.94 91.37 91.37 0 0 0 -4.76 29.28 84.61 84.61 0 0 0 5.33 30.18 82.22 82.22 0 0 0 14.57 24.93 67.57 67.57 0 0 0 21.85 17 61.68 61.68 0 0 0 27.46 6.16q32.5 0 58.57-31.38v-27.55h-42.88v-19.06h64.17v99.2h-21.24z"/><path d="m1328.22 132.35v199h-25.22v-90.56h-109.56v90.51h-25.22v-199h25.22v86h109.56v-86z"/><path d="m1510.92 154.77h-68.66v176.53h-25.26v-176.53h-68.65v-22.42h162.53z"/></g><path d="m1528 331.3v-199h84.34a56.63 56.63 0 0 1 25.36 5.74 65.72 65.72 0 0 1 20 15.14 71.36 71.36 0 0 1 13.17 21.29 64 64 0 0 1 4.77 24 69 69 0 0 1 -4.49 24.52 68 68 0 0 1 -12.61 21.15 61.78 61.78 0 0 1 -19.54 14.86 56.71 56.71 0 0 1 -25.22 5.61h-47.07v66.69zm38.67-100.6h44.83q10.65 0 17.79-8.68t7.15-23.54a38.89 38.89 0 0 0 -2.24-13.59 33.05 33.05 0 0 0 -5.89-10.23 23.48 23.48 0 0 0 -8.54-6.3 25.12 25.12 0 0 0 -10-2.1h-43.15z" fill="#009edb"/><path d="m1738.16 132.35h34.18l75.66 199h-39.79l-18.49-49.6h-69.49l-18.23 49.55h-39.79zm44.55 122.17-27.46-78.18-28.58 78.18z" fill="#009edb"/></svg>