<svg xmlns="http://www.w3.org/2000/svg" viewBox="0 0 1024 242"><path d="M402.743 241.78c10.2 0 15.66-4.98 15.66-12.9 0-7.44-5.4-10.26-12.48-11.88-5.4-1.2-9.18-2.04-9.18-5.82 0-3.36 2.76-5.76 7.02-5.76 2.82 0 5.4.6 7.5 1.68v4.68h5.88v-8.34c-3.12-1.68-7.5-3.06-13.44-3.06-9.84 0-15.3 5.04-15.3 12.78 0 7.2 5.28 9.9 12.18 11.46 6 1.32 9.48 2.46 9.48 6.42 0 3.36-2.82 5.7-7.26 5.7-3.18 0-5.94-.66-8.22-1.74v-5.16h-6.24v8.94c3.24 1.44 7.92 3 14.4 3Zm43.415-.78v-4.74h-3.3c-.84 0-1.14-.36-1.14-1.8v-28.8h4.74c2.52 0 3.06.42 3.78 2.16l.3 3.54h4.02v-10.2h-34.02v10.2h4.02l.3-3.54c.66-1.74 1.26-2.16 3.72-2.16h4.5v28.8c0 1.44-.3 1.8-1.14 1.8h-3.3V241h17.52Zm18.695 0v-4.74h-2.4c-1.08 0-1.44-.36-1.02-1.74l2.52-7.02h13.2l2.64 7.02c.48 1.38.06 1.74-1.02 1.74h-2.58V241h17.28v-4.74h-2.4c-.96 0-1.5-.36-1.98-1.86l-12.3-33.42h-8.88l-12.48 33.42c-.54 1.5-.84 1.86-2.1 1.86h-2.34V241h13.86Zm10.98-17.88h-10.44l5.22-14.7 5.22 14.7ZM515.587 241v-4.74h-3.3c-.84 0-1.14-.36-1.14-1.8v-28.8h4.74c2.52 0 3.06.42 3.78 2.16l.3 3.54h4.02v-10.2h-34.02v10.2h4.02l.3-3.54c.66-1.74 1.26-2.16 3.72-2.16h4.5v28.8c0 1.44-.3 1.8-1.14 1.8h-3.3V241h17.52Zm43.236 0v-10.2h-3.96l-.72 3.48c-.813 1.74-1.232 1.966-3.427 1.98h-11.573v-13.08h5.52c1.32 0 1.74.6 1.74 2.16v2.1h3.9v-12.96h-3.9v2.04c0 1.56-.42 1.98-1.74 1.98h-5.52v-12.6h10.56c2.34 0 2.88.36 3.66 1.98l.72 3.48h4.02v-10.2h-31.92v4.74h3c.84 0 1.14.3 1.14 1.8v26.76c0 1.5-.3 1.8-1.14 1.8h-3V241h32.64Zm36.37.78c7.38 0 12.18-1.8 15.36-3.72v-11.7h-6.78l-.06 6.96c-1.68 1.2-3.84 2.22-7.74 2.22-7.14 0-11.04-4.26-11.04-13.56l.06-1.62c0-9.66 3.54-13.74 11.04-13.74 3.9 0 6.06 1.08 7.74 2.22l.06 6.96h6.72v-11.64c-3-1.92-7.8-3.78-15.36-3.78-12.72 0-19.56 7.38-19.56 20.94 0 12.96 7.26 20.46 19.56 20.46Zm38.075 0c12.24 0 20.1-8.16 20.1-20.64 0-12.6-7.62-20.76-19.74-20.76-12.36 0-20.4 8.28-20.4 20.76 0 12.48 7.74 20.64 20.04 20.64Zm.12-5.46c-6.84 0-10.86-5.1-10.86-14.34v-1.68c0-9.3 4.14-14.46 10.98-14.46 6.72 0 10.74 5.16 10.74 14.46v1.68c0 9.3-4.08 14.34-10.86 14.34Zm53.014 4.68v-12.9h-4.68l-1.14 6.18c-.522 1.742-1.157 1.967-3.481 1.98h-8.639V207.7c0-1.5.3-1.8 1.14-1.8h3.3v-4.74h-17.52v4.74h3c.84 0 1.14.3 1.14 1.8v26.76c0 1.44-.3 1.8-1.14 1.8h-3V241h31.02Zm32.555 0v-12.9h-4.68l-1.14 6.18c-.522 1.742-1.157 1.967-3.481 1.98h-8.638V207.7c0-1.5.3-1.8 1.14-1.8h3.3v-4.74h-17.52v4.74h3c.84 0 1.14.3 1.14 1.8v26.76c0 1.44-.3 1.8-1.14 1.8h-3V241h31.02Zm34.176 0v-10.2h-3.96l-.72 3.48c-.813 1.74-1.232 1.966-3.427 1.98h-11.573v-13.08h5.52c1.32 0 1.74.6 1.74 2.16v2.1h3.9v-12.96h-3.9v2.04c0 1.56-.42 1.98-1.74 1.98h-5.52v-12.6h10.56c2.34 0 2.88.36 3.66 1.98l.72 3.48h4.02v-10.2h-31.92v4.74h3c.84 0 1.14.3 1.14 1.8v26.76c0 1.5-.3 1.8-1.14 1.8h-3V241h32.64Zm19.954.78c5.82 0 9.96-2.1 12.12-5.94l1.98 5.16h3.54v-19.74h-16.2V226h8.34v1.5c0 5.04-3 8.04-8.16 8.04-6.9 0-10.44-4.08-10.44-13.8v-1.5c0-9 3.96-13.62 11.52-13.62 4.08 0 6.42 1.14 8.1 2.28l.06 6.96h6.72v-11.64c-3-1.92-8.04-3.84-15.54-3.84-12.96 0-20.16 7.38-20.16 20.76 0 13.08 6.84 20.64 18.12 20.64Zm53.135-.78v-10.2h-3.96l-.72 3.48c-.812 1.74-1.231 1.966-3.426 1.98h-11.573v-13.08h5.52c1.32 0 1.74.6 1.74 2.16v2.1h3.9v-12.96h-3.9v2.04c0 1.56-.42 1.98-1.74 1.98h-5.52v-12.6h10.56c2.34 0 2.88.36 3.66 1.98l.72 3.48h4.02v-10.2h-31.92v4.74h3c.84 0 1.14.3 1.14 1.8v26.76c0 1.5-.3 1.8-1.14 1.8h-3V241h32.64ZM926.39 77.06c0-9.6-5.81-14-19.08-14h-5.8v28.45h5.8c13.39 0 19.08-4.5 19.08-14.45m16.23-.12c0 16.47-9.72 23.69-32.11 23.69h-9v18.72c0 2.84.59 3.55 2.25 3.55h6.52v9.36h-34.59v-9.36h5.92c1.66 0 2.25-.71 2.25-3.55V66.51c0-3-.59-3.55-2.25-3.55h-5.92V53.6h34.94c21.8 0 32 7.58 32 23.34m70.37 45.81c15.556-47.977-9.912-99.618-57.445-116.481-47.533-16.864-99.852 7.18-118.01 54.234-18.16 47.054 4.444 100.011 50.983 119.451 46.539 19.44 100.095-1.705 120.802-47.694h-24.42v-9.36H990c2.13 0 3-.71 2-3.43l-5.21-13.86h-26.05l-5 13.86c-.83 2.72-.12 3.43 2 3.43h4.74v9.36h-27.33v-9.36h4.62c2.49 0 3.08-.71 4.15-3.67l24.64-66h17.53l24.29 66c.71 2.22 1.49 3.18 2.63 3.52m-39.12-54.81L963.58 97h20.62l-10.31-29.06ZM766.88 84.86V158c0 3.66-.77 4.57-2.9 4.57h-8.38v12h44.48v-12h-8.38c-2.13 0-2.89-.91-2.89-4.57V84.86h12c6.4 0 7.77 1.06 9.6 5.48l.76 9h10.2v-25.9H735v25.89h10.21l.76-9c1.68-4.42 3.2-5.48 9.44-5.48l11.47.01Zm-71.43 44V158c0 3.66-.77 4.57-2.9 4.57h-7.46v12h43.56v-12H721c-2.13 0-2.89-.91-2.89-4.57V90c0-3.81.76-4.57 2.89-4.57h7.62v-12h-43.53v12h7.46c2.13 0 2.9.76 2.9 4.57v27.6H656.3V90c0-3.81.76-4.57 2.9-4.57h7.46v-12H623.1v12h7.62c2.13 0 2.89.76 2.89 4.57v68c0 3.66-.76 4.57-2.89 4.57h-7.62v12h43.56v-12h-7.46c-2.14 0-2.9-.91-2.9-4.57v-29.13l39.15-.01ZM601 161.47l5 13.1h9v-50.11h-41.09v12h21.17v3.81c0 12.79-7.62 20.41-20.72 20.41-17.51 0-26.5-10.36-26.5-35v-3.81c0-22.85 10-34.57 29.25-34.57 10.35 0 16.29 2.89 20.56 5.78l.15 17.67h17.06V81.2c-7.62-4.87-20.41-9.74-39.45-9.74-32.9 0-51.17 18.73-51.17 52.69 0 33.21 17.36 52.4 46 52.4 14.77 0 25.28-5.33 30.77-15.08m-126.73 13.1H518v-12h-7.6c-2.14 0-2.9-.91-2.9-4.57V90c0-3.81.76-4.57 2.9-4.57h7.6v-12h-43.7v12h7.61c2.14 0 2.9.76 2.9 4.57v68c0 3.66-.76 4.57-2.9 4.57h-7.61v12Zm-83.92 0h78.74v-32.75h-11.88l-2.89 15.69c-1.37 4.57-3.05 5-9.45 5h-21.32V90c0-3.81.76-4.57 2.9-4.57h8.37v-12h-44.47v12H398c2.14 0 2.9.76 2.9 4.57v68c0 3.66-.76 4.57-2.9 4.57h-7.61l-.01 12Zm-60.92-89.71V158c0 3.66-.76 4.57-2.89 4.57h-8.38v12h44.47v-12h-8.38c-2.13 0-2.89-.91-2.89-4.57V84.86h12c6.4 0 7.77 1.06 9.6 5.48l.76 9H384v-25.9h-86.37v25.89h10.2l.76-9c1.68-4.42 3.2-5.48 9.45-5.48l11.42.01Zm-87 77.83c-17.36 0-27.56-12.95-27.56-36.4V122c0-23.61 10.5-36.7 27.87-36.7 17.06 0 27.26 13.09 27.26 36.7v4.27c0 23.6-10.36 36.4-27.57 36.4m-.3 13.86c31.07 0 51-20.72 51-52.4 0-32-19.34-52.69-50.11-52.69-31.37 0-51.78 21-51.78 52.69 0 31.69 19.65 52.4 50.87 52.4m-108.9-54.38V85.62h7.46c17.06 0 24.52 5.64 24.52 18 0 12.8-7.31 18.58-24.52 18.58l-7.46-.05Zm0 11.73h11.57c28.79 0 41.28-9.29 41.28-30.46 0-20.26-13.1-30-41.12-30h-44.88v12h7.61c2.13 0 2.9.76 2.9 4.57V158c0 3.66-.77 4.57-2.9 4.57h-7.61v12h44.47v-12h-8.38c-2.13 0-2.89-.91-2.89-4.57l-.05-24.12Zm-79.2 42.65c25.89 0 39.75-12.64 39.75-32.75 0-18.89-13.7-26-31.68-30.16-13.7-3-23.3-5.17-23.3-14.77 0-8.53 7-14.62 17.82-14.62a41.78 41.78 0 0 1 19 4.26v11.9h15.01V79.22c-7.92-4.26-19-7.76-34.11-7.76-25 0-38.84 12.79-38.84 32.44 0 18.27 13.4 25.13 30.92 29.09 15.23 3.35 24.06 6.24 24.06 16.29 0 8.53-7.16 14.47-18.43 14.47a48.5 48.5 0 0 1-20.86-4.41v-13.1H17.54v22.69a87.42 87.42 0 0 0 36.55 7.62"/></svg>
