<?xml version="1.0" standalone="no"?>
<!DOCTYPE svg PUBLIC "-//W3C//DTD SVG 20010904//EN"
 "http://www.w3.org/TR/2001/REC-SVG-20010904/DTD/svg10.dtd">
<svg version="1.0" xmlns="http://www.w3.org/2000/svg"
 width="313.000000pt" height="313.000000pt" viewBox="0 0 313.000000 313.000000"
 preserveAspectRatio="xMidYMid meet">
<metadata>
Created by potrace 1.16, written by Peter Selinger 2001-2019
</metadata>
<g transform="translate(0.000000,313.000000) scale(0.100000,-0.100000)"
fill="#000000" stroke="none">
<path d="M1392 3049 c-113 -15 -292 -63 -389 -105 -183 -78 -335 -177 -472
-308 -84 -82 -179 -200 -241 -301 -55 -90 -121 -238 -154 -346 -50 -163 -60
-241 -60 -439 0 -151 4 -203 22 -286 12 -56 33 -137 48 -180 33 -103 120 -280
181 -371 56 -84 196 -249 224 -264 19 -10 20 -7 17 50 -2 34 1 62 6 64 19 6
-4 37 -28 37 -17 0 -26 7 -30 25 -4 16 -13 25 -26 25 -11 0 -20 4 -20 9 0 5
-3 16 -6 24 -4 12 5 17 40 22 35 6 46 11 44 24 -3 13 9 16 72 19 41 1 201 11
355 23 498 36 772 49 1168 56 l387 6 0 -26 c0 -22 5 -27 25 -27 18 0 25 -5 25
-20 0 -11 6 -20 14 -20 20 0 26 -12 19 -38 -5 -19 -12 -22 -59 -22 -95 0 -154
-40 -140 -96 8 -30 40 -47 77 -42 16 3 29 1 29 -3 0 -15 -29 -29 -56 -27 -41
4 -45 -14 -6 -26 43 -12 80 5 94 44 9 28 13 30 65 30 54 0 55 -1 50 -26 l-4
-25 24 23 c49 46 166 210 215 303 l50 95 -196 0 -196 0 0 80 0 80 55 0 c36 0
57 5 61 13 4 10 -38 134 -81 240 -6 15 -27 17 -220 17 l-212 0 -43 -120 c-23
-66 -39 -127 -36 -135 4 -11 20 -15 56 -15 l50 0 0 -80 0 -80 -220 0 -221 0 3
78 3 77 60 5 60 5 32 85 c17 47 108 290 201 540 94 250 173 463 177 473 6 15
23 17 151 17 79 0 144 -1 144 -3 0 -14 403 -1093 412 -1104 6 -8 14 -10 18 -6
12 13 38 111 55 208 10 57 16 148 16 250 -1 212 -26 355 -96 536 -43 112 -76
176 -143 279 -154 238 -362 420 -616 540 -207 98 -381 139 -611 145 -82 2
-183 -1 -223 -6z m186 -863 c76 -19 149 -56 196 -97 19 -17 48 -56 63 -87 26
-53 28 -66 28 -177 0 -101 -4 -127 -21 -166 -69 -149 -210 -209 -489 -209
l-145 0 2 -177 3 -178 65 -5 65 -5 3 -77 3 -78 -281 0 -280 0 0 80 0 79 63 3
62 3 3 470 c3 532 9 495 -80 495 l-48 0 0 76 0 76 363 -5 c289 -4 375 -8 425
-21z m942 -1526 c0 -5 -2 -10 -4 -10 -3 0 -8 5 -11 10 -3 6 -1 10 4 10 6 0 11
-4 11 -10z m110 -25 c0 -14 -7 -28 -15 -31 -8 -4 -15 -12 -15 -20 0 -8 -9 -14
-20 -14 -17 0 -20 7 -20 45 0 45 0 45 35 45 31 0 35 -3 35 -25z m-114 -20 c8
-20 -13 -45 -38 -45 -21 0 -33 22 -24 45 7 20 55 19 62 0z"/>
<path d="M1210 1821 l0 -231 58 0 c87 0 188 18 231 40 72 36 111 105 111 195
0 95 -42 163 -120 198 -34 16 -73 22 -162 25 l-118 4 0 -231z"/>
<path d="M2297 1742 c-43 -119 -77 -223 -77 -230 0 -9 39 -12 160 -12 88 0
160 3 160 8 1 15 -155 452 -161 452 -3 0 -40 -98 -82 -218z"/>
<path d="M1254 709 c-9 -15 12 -33 30 -26 9 4 16 13 16 22 0 17 -35 21 -46 4z"/>
<path d="M1182 623 c3 -74 6 -88 21 -91 15 -3 17 6 17 87 0 85 -1 91 -20 91
-20 0 -21 -5 -18 -87z"/>
<path d="M1500 620 c0 -82 2 -90 19 -90 17 0 20 8 23 48 3 43 5 47 28 47 23 0
25 -4 28 -47 2 -32 8 -48 16 -48 16 0 26 54 19 93 -6 29 -37 44 -73 34 -17 -4
-20 0 -20 24 0 22 -5 29 -20 29 -19 0 -20 -7 -20 -90z"/>
<path d="M1080 675 c0 -8 -4 -15 -10 -15 -5 0 -10 -7 -10 -15 0 -8 5 -15 10
-15 6 0 10 -15 10 -33 0 -38 28 -71 56 -65 25 5 28 25 4 31 -15 4 -20 13 -20
36 0 21 5 31 15 31 8 0 15 7 15 15 0 8 -7 15 -15 15 -8 0 -15 7 -15 15 0 8 -9
15 -20 15 -11 0 -20 -7 -20 -15z"/>
<path d="M1668 666 c-15 -21 -16 -26 -3 -36 8 -7 15 -29 15 -50 0 -39 11 -50
51 -50 25 0 25 26 -1 33 -15 4 -20 14 -20 36 0 21 5 31 15 31 8 0 15 7 15 15
0 8 -7 15 -15 15 -8 0 -15 7 -15 15 0 23 -23 17 -42 -9z"/>
<path d="M619 644 c-18 -21 -1 -46 39 -59 18 -5 32 -13 32 -18 0 -5 -16 -7
-34 -6 -19 2 -38 0 -43 -4 -11 -12 18 -27 54 -27 30 0 63 21 63 40 0 15 -31
40 -50 40 -21 0 -38 19 -18 21 7 1 22 2 32 3 11 0 21 7 23 14 7 19 -81 16 -98
-4z"/>
<path d="M752 571 c2 -68 6 -86 18 -86 9 0 16 11 18 28 3 23 7 26 28 21 15 -4
34 0 49 10 19 12 25 25 25 51 0 49 -21 64 -86 64 l-55 -1 3 -87z m102 43 c7
-17 -9 -54 -24 -54 -23 0 -40 14 -40 34 0 13 3 26 7 29 12 13 51 7 57 -9z"/>
<path d="M927 642 c-39 -43 -5 -112 53 -112 17 0 39 9 50 20 25 25 26 72 2 93
-25 23 -85 22 -105 -1z m81 -41 c5 -30 -10 -45 -37 -36 -13 4 -21 15 -21 29 0
29 9 38 35 34 12 -2 21 -12 23 -27z"/>
<path d="M1260 594 c0 -57 2 -65 18 -62 31 6 29 128 -3 128 -12 0 -15 -14 -15
-66z"/>
<path d="M1335 638 c-21 -30 -19 -54 6 -79 15 -15 30 -20 55 -17 37 4 43 -2
18 -23 -12 -10 -22 -10 -44 -2 -23 9 -30 8 -34 -3 -4 -9 4 -18 20 -24 37 -15
59 -12 85 9 19 15 24 30 27 89 l4 70 -61 1 c-51 0 -62 -3 -76 -21z m90 -18 c3
-6 3 -19 0 -30 -4 -13 -15 -20 -31 -20 -26 0 -40 20 -30 45 6 17 51 20 61 5z"/>
<path d="M1780 569 c0 -71 3 -89 14 -89 9 0 16 12 18 28 3 24 7 27 35 24 22
-2 38 3 52 17 25 25 27 58 5 89 -13 18 -24 22 -70 21 l-54 -2 0 -88z m97 45
c8 -20 -8 -48 -30 -52 -19 -4 -39 30 -31 52 8 21 53 21 61 0z"/>
<path d="M1947 654 c-13 -13 5 -24 39 -24 19 0 34 -4 34 -10 0 -5 -13 -10 -28
-10 -34 0 -52 -16 -52 -46 0 -26 16 -33 78 -33 l42 0 0 45 c0 68 -13 84 -64
84 -23 0 -46 -3 -49 -6z m71 -76 c-5 -15 -48 -24 -48 -10 0 14 12 22 33 22 10
0 17 -5 15 -12z"/>
<path d="M2167 642 c-20 -22 -22 -61 -4 -85 6 -10 28 -20 48 -23 29 -5 41 -2
58 15 26 26 27 72 3 94 -25 23 -85 22 -105 -1z m78 -47 c0 -25 -4 -30 -25 -30
-16 0 -26 6 -28 18 -6 30 6 49 30 45 18 -2 23 -9 23 -33z"/>
<path d="M2320 595 c0 -51 3 -65 15 -65 10 0 15 10 15 31 0 38 16 69 35 69 8
0 15 7 15 15 0 11 -11 15 -40 15 l-40 0 0 -65z"/>
<path d="M2093 564 c-3 -8 -1 -20 6 -27 8 -8 14 -8 22 0 13 13 5 43 -11 43 -6
0 -13 -7 -17 -16z"/>
<path d="M2615 482 c-5 -17 -21 -20 -142 -25 -75 -4 -188 -8 -252 -9 -102 -1
-108 -2 -46 -7 l70 -6 -1 -32 c-2 -31 0 -33 35 -34 20 -1 50 -5 66 -9 17 -4
-10 -6 -60 -3 -49 3 -87 3 -84 -1 4 -4 19 -8 35 -10 84 -11 124 -19 124 -25 0
-4 -57 -1 -127 6 -71 7 -239 15 -375 19 -240 7 -247 8 -250 28 -3 20 -8 21
-166 20 -89 0 -249 -7 -354 -14 -131 -9 -193 -10 -195 -3 -2 6 -9 17 -16 26
-10 13 -32 14 -147 9 l-134 -7 69 -51 c223 -164 452 -259 712 -294 117 -16
400 -8 503 15 194 42 392 128 553 237 103 71 230 187 205 188 -9 0 -19 -8 -23
-18z"/>
<path d="M2003 373 c4 -3 10 -3 14 0 3 4 0 7 -7 7 -7 0 -10 -3 -7 -7z"/>
<path d="M2030 370 c0 -5 5 -10 11 -10 5 0 7 5 4 10 -3 6 -8 10 -11 10 -2 0
-4 -4 -4 -10z"/>
<path d="M2080 370 c0 -5 9 -10 21 -10 11 0 17 5 14 10 -3 6 -13 10 -21 10 -8
0 -14 -4 -14 -10z"/>
<path d="M2060 365 c0 -3 2 -5 5 -5 3 0 5 2 5 5 0 3 -2 5 -5 5 -3 0 -5 -2 -5
-5z"/>
<path d="M2143 363 c9 -2 23 -2 30 0 6 3 -1 5 -18 5 -16 0 -22 -2 -12 -5z"/>
</g>
</svg>
