<svg class="inline-block fill-current" width="40px" height="40px" viewBox="0 0 100 100" xmlns="http://www.w3.org/2000/svg"><path d="M58.297 60.82a2.56 2.56 0 0 0 2.836 0c.871-.582 21.402-14.379 28.965-28.234a17.82 17.82 0 0 0 2.86-9.688C92.952 13.028 84.925 5 75.054 5c-7.257 0-12.633 6.02-15.34 9.168C57.005 11.02 51.633 5 44.375 5c-9.87 0-17.898 8.028-17.898 17.898 0 3.442.989 6.79 2.86 9.688 7.558 13.855 28.086 27.652 28.96 28.234zM44.375 10.113c5.113 0 9.387 4.977 11.688 7.648 1.43 1.66 2.215 2.578 3.652 2.578s2.227-.917 3.656-2.578c2.297-2.675 6.575-7.648 11.688-7.648 7.051 0 12.786 5.734 12.786 12.785 0 2.48-.723 4.894-2.083 6.98-.039.06-.074.122-.109.184-5.84 10.785-21.188 22.168-25.934 25.523-4.746-3.355-20.094-14.734-25.934-25.523a4.53 4.53 0 0 0-.11-.184 12.71 12.71 0 0 1-2.081-6.98c-.004-7.05 5.73-12.785 12.78-12.785z"/><path d="M90.461 60.199c-4.676-2.738-8.598 1.324-10.074 2.852-3.113 3.226-6.863 6.414-8.762 7.98a6.578 6.578 0 0 0-2.633-.574c-5.78-.313-14.898-1.356-17.18-2.711-2.449-1.457-4.414-2.879-6.144-4.133-4.977-3.605-8.902-6.453-18.688-6.453-2.836 0-5.32.785-7.727 1.547-2.468.781-4.8 1.52-7.613 1.52a5.631 5.631 0 0 0-5.625 5.624l.004 14.32a5.631 5.631 0 0 0 5.625 5.625c5.348 0 13.711.274 15.555.891 3.324 1.11 11.117 5.73 13.84 7.414l.105.063a6.668 6.668 0 0 0 3.231.836h26c2.754 0 5.812-2.547 6.871-4.309 3.41-5.656 15.633-21.051 15.758-21.203.11-.14.203-.289.285-.45 1.582-3.167.367-6.968-2.828-8.839zM70.375 89.887h-26c-.246 0-.488-.059-.707-.172-.961-.594-10.422-6.402-14.852-7.879-3.293-1.097-14.883-1.152-17.172-1.152a.513.513 0 0 1-.512-.512v-14.32c0-.285.23-.512.512-.512 3.602 0 6.555-.933 9.156-1.757 2.223-.703 4.14-1.309 6.184-1.309 8.125 0 10.969 2.063 15.688 5.48 1.82 1.317 3.883 2.813 6.531 4.391 1.328.79 3.531 1.41 6.004 1.895 5.308 1.039 11.848 1.437 13.578 1.53.043.005.09.005.137.005.843 0 1.535.687 1.535 1.535s-.688 1.531-1.535 1.531c-.047 0-.09.004-.137.004l-19.348 1.02c-1.54-.055-5.176-2.633-7.594-4.34-.625-.446-1.234-.871-1.836-1.285-1.308-.903-2.555-1.715-3.695-2.286a2.55 2.55 0 0 0-3.43 1.145 2.553 2.553 0 0 0 1.145 3.43c1.316.656 3.039 1.878 4.863 3.171 3.836 2.715 7.46 5.282 10.598 5.282.047 0 .09-.004.137-.004l19.37-1.02c3.633-.039 6.575-3.008 6.575-6.644 0-.824-.149-1.61-.426-2.34 2.05-1.7 5.746-4.867 8.926-8.156 2.18-2.258 3.047-2.442 3.812-1.992.68.398 1.176 1.175.914 1.953-1.699 2.144-12.559 15.898-15.926 21.484-.449.734-1.949 1.765-2.496 1.824z"/></svg>