<svg xmlns="http://www.w3.org/2000/svg" xml:space="preserve" id="leaders-in-action" x="0" y="0" style="enable-background:new 0 0 280 218" version="1.1" viewBox="0 0 280 218"><style>.st1{fill:#fcd672}.st2{fill:#1a428a}</style><path d="M251.5 181.5c-1.5-.4-3-.4-4.5-.5h-7.9c-1.4 0-1.4 0-1.4 1.4 0 1.3 0 1.3 1.3 1.3.9 0 .9.1 1 1v14.6c0 .6-.1.7-.7.7h-1.5v2.2c0 .2.2.4.4.4.2.1.4 0 .7 0h8c.3 0 .5-.1.5-.5v-2.2h-1.6c-.6 0-.8-.2-.8-.8v-4.6c0-.4.2-.6.6-.6h1.5c1.7 0 3.4-.1 5-.6s3-1.4 3.6-3.1c.5-1.2.6-2.4.5-3.7-.3-2.5-1.7-4.2-4.7-5zm-.1 7.8c-.4 1.1-1.2 1.7-2.3 1.8-1.1.2-2.3.2-3.4.3-.4 0-.7-.1-.7-.5v-7c1.7-.1 3.4-.2 4.9.5.9.4 1.4 1.1 1.6 2.1.3 1 .2 1.9-.1 2.8zm-193 17.8c2 4.3 6.8 4.6 9.8 3.2 2.1-1 3.1-2.9 3.7-5 .4-1.6.5-3.2.5-4.2 0-2.7-.1-4.6-.8-6.6-1-2.6-2.7-4.3-5.5-4.7-2.5-.4-4.7.2-6.4 2.1-1.4 1.5-2.1 3.4-2.3 5.4-.2 1.5-.1 3-.1 4.5 0 1.9.4 3.6 1.1 5.3zm-23.5-8c0 .7.1.9.9.9 1.3 0 2.7-.1 4-.2 1.3-.2 2.5-.7 3.2-1.8 1.2-1.8 1.2-3.8.2-5.7-.7-1.4-2-1.9-3.4-2.1-1.3-.2-2.6-.2-3.9-.3-.8 0-.9.1-.9.9v4.2c-.1 1.3-.1 2.7-.1 4.1z" style="fill:none"/><path d="M268.3 181.6c.2.7.5 1.4.8 2.1 1.1 2.9 2.1 5.8 3.2 8.7.8 2.3 1.7 4.5 2.5 6.8.1.3.2.6.6.6 3.8-10.8-1-26.1-15.3-31.4-13.7-5.1-29 2.3-33.2 16.8-4 13.9 4.1 28.5 18.8 31.8 13.4 3.1 25-5.1 28.6-14.2h-5c-1.6 0-1.4.1-1.4-1.4 0-1.2-.1-1.3 1.2-1.2.8 0 .9-.2.7-.9 0-.1 0-.2-.1-.3l-1-2.7c-.2-.6-.3-.7-1-.7H261.4c-.5 1.3-1 2.7-1.4 4-.1.3.1.6.5.6h.6c.8 0 .8.1.8.8v1c0 .8-.1.9-.9.9h-5.3c-1.6 0-1.5.1-1.5-1.4 0-1.1-.3-1.3 1.2-1.3.6 0 .9-.2 1.1-.8.2-.7.5-1.4.8-2 .9-2.4 1.8-4.9 2.8-7.3 1-2.8 2-5.5 3.1-8.3.2-.4.5-.7.9-.6h3.5c.3-.2.5 0 .7.4zm-12.6 8.8c-.7 1.7-2 2.6-3.6 3.1s-3.3.6-5 .6h-1.5c-.4 0-.6.2-.6.6v4.6c0 .6.2.8.8.8h1.6v2.2c0 .3-.2.4-.5.5h-8.7c-.2-.1-.4-.3-.4-.4v-2.2h1.5c.6 0 .7-.1.7-.7v-14.6c0-.9-.1-.9-1-1-1.3 0-1.3 0-1.3-1.3 0-1.4 0-1.4 1.4-1.4h7.9c1.5 0 3 .1 4.5.5 2.9.8 4.4 2.4 4.7 5.2.2 1.1 0 2.3-.5 3.5zm-75.1-3.7h-11.2c-.1.1-.4.2-.4.4 0 .9-.1 1.8 0 2.7h1c1.7 0 1.8.1 1.8 1.9V210c-.1.8-.3 1.1-1.2 1.1h-1.7c-.1 1.1-.1 2.1 0 3 .1.1.2.1.3.1h10.5c.2 0 .5 0 .7-.1h.1l.1-.1v-2.4c0-.1-.1-.3-.1-.5h-1.6c-.7 0-.9-.2-1.1-.9v-7.9c0-.4.2-.6.6-.6H188.2c.2.1.3.2.4.4.1.2 0 .4 0 .6V210.3c-.1.6-.3.8-.9.8h-1.3c-.3 0-.5.1-.5.4 0 .9-.1 1.8 0 2.6 1.1.2 11.1.2 11.7-.1v-1.6c0-1.4.1-1.3-1.3-1.3-1.5 0-1.6-.1-1.6-1.6v-18.6c0-.7.3-1 1-1h1.2c.2 0 .4-.1.7-.1v-2.4c0-.4-.2-.6-.6-.6h-10.6c-.3 0-.5.2-.5.5v1.1c0 1.6-.2 1.5 1.4 1.5 1.1 0 1.3.2 1.3 1.3v6.9c0 .6-.1.7-.7.7h-9.4c-.7 0-.7-.1-.7-.8v-6.7c0-1.4.6-1.5 1.5-1.5.4 0 .9 0 1.3-.1 0-1.1.2-2 0-3zm-18.6 9.1c0 .3 0 .5.1.9h4.4c0-.2.1-.3.1-.4v-7c0-.4-.2-.6-.5-.8l-1.8-.9c-1.9-.8-3.9-1.2-5.9-1.4-2.8-.3-5.5-.2-8.2.7-4.4 1.5-6.9 4.7-7.8 9.2-.4 2-.5 4-.4 6 .1 2.1.6 4.1 1.4 6.1 1.7 3.6 4.5 5.7 8.3 6.3 1.7.3 3.4.3 5.2 0 2.2-.4 4.1-1.3 5.4-3.2.1-.2.3-.3.5-.6.2.5.4.8.5 1.1.3.6.5 1.3.8 1.9.1.1.2.4.4.4h2c.2-1.2.1-13-.1-13.5h-10.5c-.3 0-.4.2-.4.4v2.7h4.9c.7 0 .8.1.8.8 0 .5 0 1.1-.1 1.6-.3 1.7-1.1 2.9-2.7 3.7-1.2.6-2.5.7-3.8.6-2.6-.2-4.5-1.5-5.5-3.9-.5-1.2-.7-2.5-.8-3.7-.2-2.6-.2-5.1.6-7.6.5-1.4 1.2-2.6 2.5-3.5 1.2-.8 2.5-1.2 3.9-1.3 2.1-.2 4.2.1 6.1 1.1.5.3.7.6.7 1.1-.2 1.1-.2 2.1-.1 3.2zM61.7 214.4c2.9.5 5.8.4 8.6-.7 2.5-.9 4.5-2.5 6-4.7 1.7-2.6 2.3-5.5 2.3-8.7 0-2.2-.3-4.4-1.2-6.5-1.6-3.9-4.6-6.4-8.7-7.3-2.8-.7-5.6-.6-8.3.2-3.2.9-5.7 2.8-7.4 5.7-1.1 1.9-1.7 4-1.9 6.2-.3 2.8 0 5.5 1 8 1.7 4.5 5 7 9.6 7.8zm-4.3-17.1c.2-2 .9-3.9 2.3-5.4 1.8-1.9 4-2.4 6.4-2.1 2.8.4 4.5 2.2 5.5 4.7.7 1.9.8 3.9.8 6.6 0 1 0 2.6-.5 4.2-.6 2.1-1.6 4-3.7 5-2.9 1.4-7.8 1.1-9.8-3.2-.8-1.7-1.1-3.4-1.2-5.3.1-1.5.1-3 .2-4.5zM27.8 211h-1.7c-.1 1.1-.1 2 0 3 .8.2 11.2.2 12 0v-2.4c0-.4-.2-.6-.6-.6h-1.6c-.6 0-.8-.2-.9-.8v-6.3c0-.8.1-.9.9-.9h3.9c1.9-.1 3.7-.3 5.5-1.1 1.9-.8 3.2-2.2 3.8-4.2.5-1.7.5-3.4.2-5-.4-2-1.4-3.5-3.2-4.5-1.5-.8-3.1-1.2-4.7-1.4-1.3-.1-2.6-.2-3.9-.2H26.6c-.3 0-.5.1-.5.4v2.7h1.8c.6 0 .9.3 1 .9v19.3c-.1.9-.4 1.1-1.1 1.1zm7.1-20.2c0-.8.1-1 .9-.9 1.3 0 2.6.1 3.9.3 1.4.2 2.7.8 3.4 2.1 1 1.9 1 3.9-.2 5.7-.7 1.1-1.9 1.6-3.2 1.8-1.3.2-2.7.2-4 .2-.7 0-.9-.1-.9-.9v-4.2c.1-1.4.1-2.8.1-4.1zM7.7 207.3c0-.2-.1-.5-.1-.8-1.4-.1-2.7 0-4.1 0v5.3c0 .8 0 .9.8 1.2 2.6 1 5.3 1.6 8 1.7 2.3.1 4.5 0 6.6-.9 2-.8 3.6-2.1 4.5-4.1.6-1.4.8-2.9.7-4.4-.1-2.3-1.1-4.2-3-5.5-1.7-1.2-3.7-1.7-5.7-2.2-1.3-.3-2.7-.7-4-1.1-1-.3-1.8-1-2.1-2.1-.4-1.6.3-3.1 1.7-4 1.3-.8 2.7-1 4.1-.8 1 .1 2.1.3 3 .6 1.5.5 1.3.3 1.3 1.7v1.9h4v-5.2c0-.4-.2-.5-.5-.7-2-1-4.2-1.5-6.5-1.7-2.3-.2-4.6-.1-6.8.6-3.4 1.1-5.6 3.6-6 7.4-.1 1.2 0 2.3.5 3.4.6 1.6 1.8 2.7 3.3 3.5 1.8 1 3.8 1.4 5.8 1.9 1.3.3 2.6.7 3.8 1.3 2.1 1.2 2.2 4 .6 5.6-.8.8-1.9 1.2-3 1.3-1 .1-2 .1-2.9 0-1.1-.2-2.1-.5-3.1-.8-.5-.1-.7-.4-.7-1-.2-.7-.2-1.4-.2-2.1zm87.6-17.6h3.1c1.4 0 2 .6 2.2 2 .1.5.1.9.1 1.4 0 .3.2.5.5.5h1.5c.5 0 .6-.1.6-.7v-5.4c0-.8-.1-.8-.8-.8H81c-1 0-1 0-1 1v5.3c0 .4.2.6.6.6H82c.4 0 .6-.2.6-.6.1-.6.1-1.2.2-1.8.2-.9.7-1.4 1.6-1.5h3.8c.1 0 .2.1.4.2v20.2c0 .8-.3 1-1 1h-1.4c-.3 0-.5.1-.5.5v2.5c.9.2 11.2.2 12 0v-2.4c0-.5-.1-.6-.7-.6h-1.3c-.8 0-1-.3-1.1-1v-19.4c-.1-1 0-1 .7-1zm119.4 0h3.7c1 0 1.6.7 1.7 1.6.1.5.1 1 .2 1.5.1.7.1.7.8.8h1c.8 0 .9 0 .9-.9v-5.1c0-.9 0-.9-.9-.9H200.3c-.5 0-.7.1-.7.6v5.7c0 .5.1.6.7.6h1.3c.6 0 .6-.1.7-.6.1-.6.1-1.2.2-1.7.2-1 .8-1.5 1.8-1.5h3.3c.5 0 .6.1.6.7v19.8c0 .7-.3.9-1 1h-1.5c-.3 0-.5.2-.5.5v2.5c.2 0 .3.1.4.1h10.9c.5 0 .6-.1.6-.7v-1c0-1.7 0-1.5-1.5-1.5s-1.6-.1-1.6-1.6v-19c.1-.8.1-.9.7-.9zM106.5 211h-1c-.2.8-.2 2.5 0 3.1h20.7c.1 0 .2 0 .3-.1h.1v-.1c.1-1.2.1-8-.1-8.7h-2.1c-.8 0-.8 0-1 .9-.2 1.2-.4 2.4-.7 3.6-.2.7-.7 1.1-1.4 1.1h-6.2c-.8 0-.9-.1-.9-.9v-18.8c0-1.3.2-1.5 1.6-1.5.5 0 1 .1 1.5-.2 0-1 .1-1.9-.1-2.9H105.6c-.3 0-.4.2-.4.4v2.7h1.9c.6 0 .9.3 1 .9V209c.1 1.9 0 2-1.6 2zm23.5 0h-1.7c-.1 1.1-.1 2.1-.1 3 .2.1.3.1.3.1h10.7c.2 0 .4 0 .6-.1h.1c.1 0 0 0 0-.1v-1.8c0-1.5-.1-1.2-1.2-1.2-1.5 0-1.6-.1-1.6-1.6V191c0-1.1.3-1.3 1.3-1.3h1.4c.1-.2.1-.3.1-.3v-1.9c0-.8 0-.8-.8-.8H129c-.2 0-.5 0-.7.1v3h1.7c.9 0 1.1.3 1.2 1.2v19c-.1.7-.4 1-1.2 1z"/><path d="M264.6 185.5c-.8 2.5-1.8 4.9-2.5 7.3.9.2 4.6.2 5.3 0-.8-2.3-1.6-4.5-2.4-6.8-.1-.2-.2-.3-.4-.5zm-14.7-1.1c-1.5-.7-3.2-.6-4.9-.5v7c0 .5.3.5.7.5 1.1-.1 2.3-.1 3.4-.3 1-.2 1.9-.8 2.3-1.8.3-.9.4-1.8.2-2.8-.3-1-.8-1.6-1.7-2.1z"/><path d="M188.9 147.6c3.1-4.2 5.1-8.8 6.3-14.9.9-5.3.9-10-.1-13.2-.7-2-1.7-4.1-2.3-4.1-.7 0-4.8 4.6-7.5 8.5-4.7 6.5-8.1 14-10.1 22.4-1.3 5.2-1.6 7.7-.9 9.5.7 2.3.9 2.3 2.9 1.6 3.1-.9 8.2-5.4 11.7-9.8zm40.3-20.4c-4.9 8.9-11 21.2-14.9 33.1 4.2-.2 8.4-.4 12.5-.7 3.7-5.3 6.3-6.6 8.4-6.7-1.2-3.1-2.5-9.1-2.5-12 .1-4.3 1.2-10.6 3-15.9 1.4-4.3 2.8-9 3.1-10.7l.3-.8-.5.4c-1.6 1.2-6.5 8.1-9.4 13.3zM43.3 52c3.3-1.5 6.8-4.9 8.8-8.2.8-1.5 1.6-3.4 1.6-4v-.5l-.5.1c-3.5.7-7.6 5.6-10.6 12.4-.2.4-.3.9-.3.8.1-.1.5-.3 1-.6zm32.8-8.9c-.7.7-2.1 2.1-2.5 2.7-.1.1-.4.7-.8 1.1-1.8 2.5-4.3 7.9-5.9 12.4-.6 1.8-1.5 5.1-1.5 5.7 0 .3 0 .3.9-.7.2-.2.5-.6.6-.7.1-.2.7-1 1.2-1.5.5-.7 1-1.2 1-1.2 0-.1.3-.7.8-1.2s.9-1.2.9-1.2c0-.1.4-.7.9-1.4s1-1.3 1-1.3c0-.1.3-.6.8-1.2.5-.7.9-1.2.9-1.2s.3-.5.8-1.1c.4-.6.9-1.3 1-1.6.5-.7 1.6-2.3 2.7-3.7l1-1.3V44c-.1-1.2-.3-1.9-.6-2.3-.4-.3-2.2.6-3.2 1.4zM164 147.2v-.1c-2.7 3.6-5.3 6.9-7.4 9.2-2.1 2.2-3.3 3.4-4.3 4.1 5.2.1 10.4.2 15.7.4 2 .1 3.9.2 5.9.2-2.3-.8-4.9-2.1-6-3.3-2.4-2.1-3.9-6.2-3.9-10.5zm-60.4 7.4c-.9.7-1.8 1.5-2 1.6-2.3 2-5.2 3.8-7.7 4.6 7.1-.1 14.2-.3 21.3-.4-.2-4.8.7-16.9.9-18.5.1-.8.3-1.5.4-2.1-1.9 2.6-3.8 5.1-5.4 6.9-1.7 2-5.5 6-7.5 7.9zm-47.5 4.1c-.4-1.1-.8-2.8-1-3.3 0-.2 0-.7-.1-1 0-.4-.3-2.3-.3-4.3-.6-5.3-.3-11.2.7-17.4.1-.3 0-.3-2.9-.3-3.5.1-11.6.4-14.5.7-1.8.1-2 .1-2.4.8-.3.3-.4.8-.4.8 0 .1-1.4 2.6-4.7 8.1-1.1 2-2.1 3.7-2.1 3.8 0 0-1.8 3.2-2.2 3.8-.4.7-1.1 2.2-1.8 3.4l-1.8 3.3c-.3.6-1.3 2.3-2.1 3.6-.2.3-.3.6-.5.9 2.8 0 5.6.1 8.4.1 2.2 0 4.3 0 6.5-.2 5.9-.2 11.9-.3 17.8-.3h5.9c-1.3-.7-2.1-1.6-2.5-2.5zm8.7-66.2c-.1-.1-4.7 5.2-6.7 7.6-1.1 1.5-2.2 2.9-2.4 3.1-.1.1-.7.9-1.1 1.6-.4.7-1.5 2.3-2.4 3.4-2.1 2.9-5.2 7.6-7.1 10.6-1 1.5-2 2.9-2.1 3.2-.8 1-3.2 5.1-3.1 5.2.3.2-.1.2 4.7-.2 2.2-.2 6-.6 8.2-.6l3.9-.3.1-1c.1-.6.3-1.6.6-2.3.1-.7.4-1.7.6-2.2.1-.4.4-1.6.6-2.3.3-.8.7-2.2 1-3.2.8-3.3 1.1-4.5 1.3-4.9.1-.1.3-.9.6-1.7.1-.7.6-2.4 1-3.5.3-1.2.6-2.6.7-3.1 0-.4.3-1.8.6-3.1.4-2.1 1.1-6.2 1-6.3zm9.9 60.7c-1.2-2.5-1.3-3.1-1.7-4.6-1-3.8.2-10.7 2.9-17.2h-3.1c-1.1 0-2.5.1-2.9.1l-1 .1-.1 1.5c-.1.8-.1 1.5-.1 1.6 0 0-.1.8-.3 1.7 0 .9-.3 2.5-.4 3.5-.1 1-.6 2.7-.7 3.8-.3 1-.6 2.4-.7 2.9-.1.6-.1 1.2-.1 1.4-.1.3-.8 4-1 5.1-.6 3.6-.8 6.6-.7 8.1h5.9c5.3 0 10.6 0 16-.2-5.4-.9-10.3-4.2-12-7.8z" class="st1"/><path d="M263.4 116.1c-1.7-1.2-3.3-2.6-4.7-4.2 0-1.2.3-2.4.1-3.6-.3-2.7-3.7-2.5-4.7-4.5-.2-3-1.1-7.1 1.3-9.4 6.6-4.7-.3-6.9.3-11.6 1.3-3.8 4.7-6.7 6.3-10.4 2.5-4.2 2.1-9.6 6.4-12.6 7.2-9.2-6-9.2-10.4-14.1-2.6-2.7-2.8-6.7-3.2-10.3-.6-11.4-3.4-8-11.3-12.1-2-1.2-2.8-3.6-3.7-5.6-.9-.1-1.7-.2-2.6-.2-3 0-6.2.5-9.2.5h-.3c-17.5.4-35 1.4-52.4 2.2h-1.8c-6 0-12-.5-18-.5-2.5 0-4.9.1-7.4.3-4.3.1-8.5.1-12.8.1-19.4 0-38.8-.6-58.1-.9h-1.5c-7.7 0-15.4.6-23.1.6h-3.7c-.5-.1-1-.1-1.5-.1-1.2 0-2.4.1-3.6.1h-.6c-.5-.3-.2-1.1-.4-1.6-1.6-11.2-.4-15-1.8-15-1.1 0-3.8 2.2-10.5 5-6.6 2.8-13.3 5.6-19.4 9.4-1.8 1.5-6.6 2.9-6.4 5.4-.6 11.7.5 23.3 0 34.9-.3 6.8-.2 13.6-.3 20.3V119c0 6.8-.1 13.6-.3 20.4l-.3 10.1c-.1 2.7-.1 5.5-.2 8.2 0 .9-.3 2.2.2 3 .5.8 1.9.8 2.7.8h1.1c1.1 0 2.1 0 3.2-.1h1.9c.2-.9.6-2.2 1.3-3.5.3-.7 1.1-2.3 1.5-3.5.6-1.2 1.3-2.7 1.5-3.2.3-.4 2.2-4.1 2.8-5.2.4-.9 1.1-2.5 1.8-3.6.6-1.1 1.3-2.7 1.7-3.5.4-.8 1.3-2.3 1.8-3.3.4-.9.8-1.7.7-1.8-.1-.1-2.1.2-6.4 1-1.4.2-2.7.3-2.9.2-1-.1-1.4-1.1-1.5-2.8 0-2.4-.6-2.2 10.9-3.6 3.2-.4 3.2-.4 3.6-1 .3-.7 8.4-13.7 9.5-15.5.4-.7 1.5-2.4 2.5-3.7 1-1.5 2.2-3.2 2.7-4 .6-.7 1.4-1.8 1.7-2.4.8-1.1 3.6-5.1 3.8-5.2.1-.1 1.3-1.4 2.5-2.9s2.4-2.9 2.7-3.2c.3-.2 1.3-1.1 2.2-2.3 2.7-2.5 3.6-3.3 5.3-4.3 1.3-.6 1.5-.7 2.8-.7 1.5 0 2.2.2 4.3 1.5 1.7.9 2.5 1.7 3.3 3.1.6 1.4.8 4.8.3 8.9-.1 1.7-.6 4.2-.7 5.7-.4 5-1.7 14.9-2 17.5-.3 1.5-.4 3.4-.6 4.2l-.1 1.5 4 .1c1.1 0 3 .1 4.7.1 3.1-5.9 6.4-10.2 10.2-13.2 1.9-1.5 5.3-3.7 6.5-4.1 3.8-1.3 7.4-.6 11 1.9 1.6 1.3 2.7 2.6 3.1 4.6.4 2.5-.2 5.2-.9 7.6 0 .1-2.8 7.9-4.1 8.3-1.3.4-4.2-.2-4.4-1-.2-.6.5-1.5.8-2 .3-.7.6-1.4.9-2.2.5-1.4 1-2.9 1.5-4.4.6-1.8 1.3-3.7 1.5-5.7.1-1.6.1-1.9-.4-2.8l-.5-1-1.1.2c-1.4.4-3.4 1.5-4.8 2.9-3 2.9-7.3 10-8.9 14.5-3.7 10.3-4.6 23.2-2 26.4.3.3.3.3 1.9 0 1.7-.5 4.3-1.8 6.9-3.6.9-.7 1.8-1.3 1.9-1.3 0-.1.5-.5 1-.8.9-.8 4-3.4 4.2-3.6 0-.1.7-.8 1.7-1.7 2.9-2.6 6.2-6 8.5-8.8.8-.9 6-8 7.9-10.8v-.2c.3-.7.7-2.2.9-3.2.8-2.4 2.1-5.8 3.1-8.4.5-1.1 1.1-2.5 1.2-2.9.4-.8 1.3-2.9 1.8-4.2-4.6.4-9.2.9-13.8 1.3-1.9.2-3.1-2.2-2.4-4.5.4-1.5 2.1-1.6 3.2-1.7 5.2-.3 10.5-.7 15.8-.9v-.1c1.1-2.7 2.3-6 2.5-6.9.1-.5.5-1.6.8-2.5.7-1.6.7-1.6 1.6-1.6 2.5 0 6.5 3.8 6.1 5.7-.1.4-.7 2-1.2 3.5-.2.6-.3 1.2-.5 1.7h1.8c2 .1 5.3-.7 5.3 2.7 0 2.5.3 2.4-5.7 2.4-1.1 0-2.3 0-3.4.1v.2c-.1.3-.3 1.1-.5 1.8-.3.7-.8 2.4-1.2 3.7-.4 1.4-.9 3.2-1.2 3.8-.8 2.4-2 7.1-2.1 7.8-.1.4-.1.9-.3 1.2-.1.9-1.5 5.7-2.8 10.7-.8 2.7-1.5 5.7-1.7 6.5-.3 1.5-.8 2.9-1.9 6.2-.7 2.5-1.7 8.2-2.4 11.9 5-.1 10.1-.1 15.1-.1h6.2c-1-.5-1.9-1.2-2.3-1.6-.7-1-1.5-3-1.7-5.2-.4-2.7-.3-7.5.2-10.1.1-.9.3-2 .5-2.7.1-.7.3-1.7.5-2.3.2-.7.5-1.5.6-1.8.1-.8 1.5-4.7 2.8-7.8 2-5 5.8-13.3 6.5-14 .6-.6 1.3-.7 2.6-.4 1.7.4 2.8 1.1 4.1 2.5 1.2 1.1 1.2 1.2 1.1 2.3 0 1-2.3 9-3.6 12.7-1.3 3.6-3.2 9.8-3.4 10.9 0 .3-.7 2.4-1.4 4.5-1.4 4.4-2 6.6-2.2 8.2 0 .6-.1 1.1-.2 1.5-.2 1 3.1-1.9 6.9-6.3 3.1-3.4 5.8-6.9 9.6-12.3.2-.3.4-.5.5-.8 1.6-4.6 3.9-9.1 7.8-14.9 4.1-6.2 8.1-10.2 12-12 2.4-1.1 5.1-.7 7.3 1.1.5.4 1.5 1.1 2.1 1.6 2.8 1.7 6.1 6 6.9 8.7.9 3.5 1.1 9.4.1 12.9-1.9 7.2-6.5 15.5-11.4 20.1-1.9 1.9-3.1 2.8-4.1 3.4-.5.3-1.2.8-1.5.9-.1.2-1.3.7-2.7 1.2-.4.2-.7.4-1 .5h3.9c6.9 0 13.8-.2 20.7-.4-2-2.9-1.7-11 .8-22 1.5-6.3 3.5-12.5 6.6-19.6.8-2.2 1.8-4.6 2.2-5.6.3-1 .7-1.8.8-2.1.6-.8 3-.4 4.8.7 1.3.8 1.4.6-.1 7.8-.7 3-2.8 13.9-2.6 13.9 0 0 .4-.9.7-1.7 2.2-4.5 6-11.1 8.4-14.8 2.8-3.9 6.9-8.4 8.9-9.6 1.6-1 4.8-.7 7.1.7 1.5.8 2.1 1.5 2.4 2.6.4 1 .3 4 0 6.9-.3 2.4-.5 3.3-.5 4.8 0 .6-.2 1.4-.2 1.7-.1.4-.3 1.8-.4 3 0 1.3-.2 3.3-.4 4.9-.1 1.4-.2 3-.3 3.5-.5 6-.8 7.8-1.5 11.3-.8 3.5-1.1 5.5-.8 6.6 1.1-.2 2.3-.7 3.8-1.8.8-.6 1.7-.8 2.7-.8h1.6c.5 0 .9 0 1.4-.1 6.6-1.7 8.2-9.4 13.1-13.3 2.2-1.9 4.8-3.5 7.9-3.5 2.1-.2 2.9-2.6 3.8-4.1.2-.4.1-.8-.1-1.2-3.4-4.1-8.5-7.8-13-11.9zM49.1 82.4c-.2.2-.4.2-1 0-1.2-.5-2.9-.6-7.1-.4-4.2.2-12 1.2-13 1.6-.2.1-1.3.3-2.5.5-4 .8-6.9 1.5-9.9 2.4-1 .3-1.7.4-2.6-.2-.9-.5-1.6-1.4-2.2-2.5-.3-.7-.5-1.5-.4-2-.2-.8 3.2-19.5 4.8-27.2l.2-.6c.1-.1.4-1.4.7-2.7.7-2.4 1.5-5.5 1.8-6.5.3-.7.6-1.8 1-3.3.7-2.5 1.3-4.4 3.7-10.7.6-1.5 1.2-3.4 1.5-4.2.2-.8.6-1.8.7-2.2.3-.8 1.3-3.8 1.4-4.5.1-.2.3-.6.4-1 .3-.5.4-.5 1.1-.5 1.4 0 3.5 1.4 4.1 2.4.3.7.5 1.5.3 1.8-.1.1-.2.9-.5 1.8-.1.9-.6 2.4-.7 3.3-.2.9-.6 2.4-.8 3.3-.2.9-.5 2.1-.7 2.6-.1.5-.2.9-.2 1l-.2 1c-.3 1.6-1.5 7.3-1.7 8.7-.2.7-.5 2.3-.7 3.3-.2 1.2-.4 2.2-.5 2.3 0 .1-.1.3-.1.5-.1.1-.3.7-.3 1.3-.6 3.2-1.7 8.4-2.5 11-.6 2.2-2 7.8-2.7 10.9-.2.9-.5 2.8-.8 4-.1.6-.1 1.1-.2 1.6 1.3-.2 2.6-.5 3.9-.8.4 0 1-.1 1.7-.2 4.2-.8 6.2-.9 11.2-1.1 8.1-.3 10.4.3 12.2 2.6.7 1 1.1 2.3.6 2.7zm34.1-26.5c-1.1 3.1-1.4 4-1.7 5-.3.7-.7 2-1 2.9-.3 1-.8 2.1-1 2.5-.2.4-.4 1.2-.6 1.7-.2.8-.2.9.1 1 .2.1.4.3.5.5.3.3.3.4 0 .7-.6.7-1 .8-2.3.4-1.7-.6-2.5-1.4-3-3.4-.4-1.9-.4-4.3.1-6.1.2-.7.4-1.5.4-1.6.1-.1-.2.1-.6.7l-.6 1c0 .1-1.9 2.7-2.9 3.8-.4.6-1 1.2-1 1.5-.2.2-.6.7-1 1.2s-.9.9-1 1c-.3.4-2 1.7-2.3 1.8-.6.3-2 .4-2.7.2-.9-.3-2.4-1-3-1.4-.7-.6-1.7-2-1.9-2.9-.3-1-.2-2.9.4-4.9.2-.6.4-1.4.7-2.2l-.8.8c-6.7 6.3-10 8.5-13.4 9.1-1.1.2-1.6.2-2.3.1-1.6-.2-2.2-.4-3-.7-1.2-.4-2.7-1.4-3.5-2.2-.7-.7-1.7-2.1-2-3-1.6-5.1.3-12.4 5-18.9 2.9-4.1 6.3-6.8 10.1-7.8 2.5-.7 4.9-.2 7.1 1.5 1.9 1.4 2.2 2.9 1.1 5.4-1.6 3.9-4.8 7.7-8.8 10.4-1.9 1.3-4.5 1.8-6.2 1.3l-.6-.2-.2.4c-.1.2-.3.9-.3 1.5-.1.6-.3 1.2-.3 1.3-.1.6-.4 2.9-.6 3.7-.1 1.2-.1 3.1.2 3.7.2.6.2.7.6.7 1.5-.1 6.3-2.6 10.3-5.2 2.1-1.3 4.3-3.2 8.2-6.9 1.2-1.1 2.1-2 2.9-2.7.3-.4.5-1 .6-1.1.3-.9 2.8-4.3 4.3-6.1.3-.4 1-1.1 1.3-1.5.9-1 3.2-3.1 4.2-3.7 1-.7 2.4-1.2 3-1.2.2 0 .3-.1.3-.1 0-.1 1.3-.1 1.4 0 .1.1.3.1.6.2.6.1 1.9.7 2.9 1.4.3.3 1 .9 1.3 1.5l.7.9.7-.6c.3-.3.7-.5.9-.5.1 0 .3-.2.5-.5.3-.4.3-.4.9-.4.9.1 2.1 1 2.6 1.7s.5.7.3 1.5c-.1.4-.6 1.6-1.1 2.8-1.6 2.5-3.5 6.9-4.5 10zm30.5-1.3c-1.2 5.2-1.4 6.1-2.2 8.7-.9 2.7-1.5 7.7-1 8.2.3.3.2.8-.3.9-.5.1-.7.1-1.4 0-.8-.1-1.8-.7-2.3-1.1-.9-.9-1.2-2.1-1.2-7.1 0-3.3.2-5.5.6-7.8.2-.8.3-1.4.3-1.5 0 0-.9 1.4-2.4 3.9-.5.9-1.2 2-1.4 2.4-.8 1.2-1.4 2.3-2.7 4.5-2 3.3-3.5 5.1-5.1 5.9-1.6.7-5 0-6.4-1.4-.3-.4-.6-.7-.6-.8 0-.1-.1-.2-.2-.4-.3-.5-.6-1.5-.8-2.7-.3-1.6 0-3.3.8-6.3 1.8-6.1 4.1-11.1 7.2-15.4.5-.7.8-1.2.8-1.3 0-.2 3-3 4.2-3.9.8-.5 2.3-1.3 2.9-1.4.1 0 .3-.1.6-.1.6-.2 2.5-.1 3.5.1 1.4.5 2.9 1.2 3.4 1.7s.7.5.8.5c.4-.6 1.4-2.4 1.9-3.6 1.1-2.7 3.7-8.4 4.6-9.6.8-1.4 1.2-1.7 1.8-1.7 1.1-.1 3.6 1.3 3.6 2.1 0 .3-.7 1.9-2.7 6.6-1.2 2.7-3 7.7-3.7 10.3-.8 2.3-1.2 4.3-2.6 10.3zm39.3.4c-1.9 3.2-4.6 9.3-4.9 10.9-.3 1.4-1.6 5.7-1.9 5.9-.3.2-1.8.5-2 .4 0-.1-.3-.1-.7-.1-1.8-.2-2.6-.8-2.9-2.1-.2-.8-.1-4.3.3-5.7.1-.5.2-1.2.5-2l-.1.1c-6.6 6.5-9.8 8.8-13.2 9.4-1.1.2-1.6.2-2.2.1-1.6-.2-2.1-.4-3-.7-1.2-.5-2.6-1.4-3.4-2.3-.7-.7-1.7-2.2-2-3.1-1.5-5.2.3-12.8 4.9-19.5 2.8-4.3 6.2-7.1 9.9-8.1 2.5-.8 4.8-.2 7 1.5 1.9 1.4 2.1 3 1.1 5.5-1.5 4-4.7 8-8.7 10.8-1.9 1.4-4.4 1.9-6.1 1.4l-.6-.2-.2.5c-.1.2-.3.9-.3 1.5-.1.6-.3 1.2-.3 1.4-.1.6-.4 3-.6 3.9-.1 1.3-.1 3.2.2 3.9.2.6.2.7.6.7 1.4-.1 6.2-2.7 10.1-5.4 2-1.4 4.3-3.3 8-7.1l.9-.9c.2-.7.4-1.3.6-1.9.3-1.1 2-4.8 3.1-7.3.4-.8.7-1.5.7-1.6 0-.1.3-.8.7-1.5.3-.8 1-2.2 1.5-3.2.8-2.1 1.1-2.4 2-2.2.9.1 2.2.9 2.7 1.5.6.8.6.8-.8 5.2-.6 1.7-.8 2.7-.8 2.7l.3-.5c.9-1.7 3.9-5.2 5.4-6.5.3-.1.5-.4.5-.5 0 0 .5-.5 1-.8 2-1.2 3.3-1.4 5.4-.4 1.6.7 2.2 1.3 2.8 2.8.4 1 .4 1.2.4 2.9 0 2.7-.2 5.9-.4 6-.5.4-1.7 0-2.6-.8-.8-.6-.8-.9-1.1-3.9-.2-.9-.3-1.7-.3-1.8-.1-.1-.1-.8-.1-1.5 0-1.1-.1-1.4-.3-1.4-.6 0-3.6 2.7-4.7 4.2-.3.5-.9 1.1-1.3 1.7-1 1.3-3.6 5.4-5.1 8.1zm20.4 46.6c-1.9.6-3.7 1-5.9 1.5-.1 2.5-.3 4.9-1 7.2-.1.4-.9.4-1.2.1-1.8-1.9-3-3.9-4-6.1-.2.1-3.7 1.6-5.4 1.8-.7.1-1-.6-.8-1 1.3-2 2.6-3.9 4.1-5.7-.6-1.6-2.2-4.9-1.7-5.4.1-.1.3-.2.5-.1 1.6.3 3.1.8 4.6 1.4 1.1-1.1 2.2-2.3 3.4-3.3.4-.4 1.3-.1 1.3.5-.1 1.6-.1 3.3 0 4.9 2 1 3.9 2 5.7 3.2.5.4.7.9.4 1zm17.8-54.2c-.5 1.2-1.9 3.4-3 4.6-.5.5-.7.7-1 .7-.5 0-1.9-.7-2-1-.1-.1.1-.3.3-.5.5-.4 1.5-2.4 2-3.5.1-.5.3-.9.4-1.1.3-.5.6-2.2.7-3.4.1-.9 0-1.3-.2-1.7-.3-.7-.5-.8-2-.1-1.8.7-3.3 2.3-5.5 5.5-2.3 3.3-3 8.1-1.4 11.2.3.8.8 1.3 1.9 2.4 1.8 1.9 3.2 3.9 3.6 4.9.3.9.3 2.2 0 3.1-.3.8-1.2 2.1-1.4 2.1-.1 0-.3.2-.7.5-.3.3-.8.5-1.2.6-.3.1-.6.2-.7.3-.2.1-2.7.4-3.2.4-.2 0-.8-.1-1.3-.1-2-.1-5.4-1.1-6.6-1.9-1.1-.6-2-1.5-2.2-2.3-.2-.4-.3-.8-.3-.9.3-.5 1.8-.5 3.1.1.7.3.9.5 1.1.8.1.2.3.6.6.8.3.4.5.4 1.4.5 1.6.1 3.3-.5 4.6-1.9.8-.8 1.2-1.6 1.3-2.4 0-.7-.4-1.7-.7-1.9-.1-.1-.3-.4-.5-.6-.8-.9-1.6-1.8-2.6-2.7-.6-.7-1.3-1.4-1.9-2.2-1.4-2-1.7-2.7-2-4.6-.3-2.4.2-4.6 1.7-7.1 2-3.3 4.3-5.5 7.2-6.9 2.6-1.1 6-1.1 8.3.2l.6.4c.3 0 1.4.9 1.7 1.4 1 1.5 1 3.7-.1 6.3zm26-14.5.6-.9h.6c.7.1 1.7.7 2 1.4.2.4.2.4-.5 2.6-.9 2.8-1.1 3.3-1.7 3.5-.2.2-.4.2-.4.2l-.4-.2c-.5-.1-1.4-.7-1.8-1.1-.3-.4-.6-1-.6-1.5.1-.4 1.3-2.5 2.2-4zm30.8 14c-.4 1.7-.6 2.3-.7 3.3-.1.4-.2 1-.2 1.2-.1.2-.3 1.2-.5 2.1-.1.9-.4 2.3-.6 3.4-.6 2.6-1.2 5.3-1.8 8-.3 1.4-.6 2.9-.7 4.3-.1 1.3.3 2.7-.2 3.9-.1.3-.3.5-.5.7-.7.4-1.7-.1-2.3-.4-3-1.8-2.7-7.4-2.4-10.3.3-4.2 1.6-8.2 3.2-12.1 1.2-2.9 2.4-6.1 2.7-7.3V43l-.3.2c-1 .6-4.6 5.1-6.8 8.5-3.7 5.8-8.4 13.9-11.7 22-.6 1.5-.8 1.5-2.5 1.1-1-.2-1.7-.7-2.1-1.4-.9-1.5-.7-5.3.6-10.5-2.2 3.3-4.6 6.5-6.4 8.5-2.7 3-3.2 3.3-5 3.5-1 0-1.4 0-1.9-.2-.9-.3-2.1-1.1-2.5-1.6-.5-.7-1-2.2-1.1-3.7-.2-1.9-.2-5.3.2-7.2.1-.6.2-1.5.3-1.9.1-.5.2-1.2.3-1.6.2-.5.3-1 .4-1.3.1-.6 1-3.3 1.9-5.6 1.4-3.5 4-9.4 4.4-9.9.4-.4.9-.5 1.8-.2 1.1.3 1.9.8 2.7 1.8.8.8.8.9.7 1.6 0 .7-1.6 6.4-2.5 9-.9 2.6-2.2 6.9-2.3 7.7 0 .2-.5 1.7-1 3.2-1 3.2-1.4 4.7-1.5 5.8 0 .4-.1.8-.2 1-.2.7 2.1-1.4 4.7-4.4 2.1-2.4 4-4.9 6.5-8.7 2.1-3.3 2.9-4.5 3.7-5.9 1.1-2.7 2.3-5.4 3.8-8.3.6-1.5 1.5-3.1 1.8-3.7.2-.6.6-1.2.6-1.4.4-.5 1.9 0 2.8 1 .7.7.8.6-.7 5.5-.6 2-2.8 9.5-2.7 9.5 0 0 .3-.6.6-1.1 1.7-3 4.5-7.3 6.3-9.6 2-2.5 4.8-5.2 6.1-5.9 1-.6 2.9 0 4.2 1.2.8.7 1.1 1.3 1.2 2.1.3.7 0 2.8-.4 4.8z" class="st1"/><path d="M127 54c3.2-1.6 6.7-5.1 8.6-8.5.8-1.5 1.5-3.5 1.5-4.2v-.5l-.5.1c-3.4.8-7.5 5.8-10.4 12.8-.2.5-.3.9-.3.8.2.1.6-.2 1.1-.5zm-19.3-13.4c-.5 0-1.5.5-2.4 1.2-.8.7-2 2.2-2 2.4 0 .1-.3.3-.4.5-.2.2-.3.5-.3.5s-.3.5-.7.9c-.8 1.2-2.6 4.5-3.2 5.8-1.7 3.7-2.5 5.5-3.1 7.9-.6 1.9-1.4 5-1.4 5.2 0 .3 1.9-1.9 3.7-4.2.8-1.1 1.7-2.5 2-3 .3-.5 1.4-2.3 2.5-4.1 1.2-1.7 2.1-3.3 2.1-3.3 0-.1.8-1.5 1.9-3.2l2-3.1V43c-.1-1.3-.4-2.4-.7-2.4z" class="st1"/><path d="M279.2 127.2c-3-4.4-6.9-7.7-10.7-11-1-.8-2-1.7-3-2.6l-.1-.1-.1-.1c-1.3-1-2.4-1.9-3.3-2.8.1-.8.1-1.8 0-2.8-.4-3.3-2.9-4.5-4.3-5.2l-.5-.3-.1-.6c-.2-1.8-.4-4 .3-4.8 6.3-4.7 3.6-9.2 2.3-11.4-.5-.9-.9-1.6-.9-2.1.6-1.4 1.6-2.8 2.7-4.3 1.2-1.6 2.4-3.3 3.3-5.3 1.1-1.9 1.7-3.8 2.2-5.6.8-2.8 1.5-4.6 3.1-5.7l.4-.3.5-.2c2.4-3.1 3.2-5.8 2.6-8.4-1-3.9-4.8-5.6-8.2-7.2-2-.9-4-1.8-5-2.9-1.6-1.6-1.9-4.6-2.2-7.4l-.1-.8c-.3-4.8-.9-7.4-2.3-9.3-1.6-2.2-3.8-2.9-6-3.6-1.4-.4-2.9-.9-4.7-1.8-.7-.5-1.3-1.8-1.9-3.1-.2-.4-.3-.7-.5-1l-.8-1.7-1.8-.2c-.9-.1-1.9-.2-3.1-.2-1.6 0-3.3.1-4.9.3-1.5.1-3 .2-4.3.2h-.4c-11.8.3-23.8.9-35.4 1.4-5.6.3-11.4.5-17 .8h-1.7c-2.9 0-5.9-.1-8.9-.2s-6.1-.2-9.2-.2c-2.8 0-5.3.1-7.6.3-4 .1-8.1.1-12.6.1-12.3 0-24.8-.3-36.9-.5-6.9-.3-14.1-.5-21.1-.6h-1.5c-3.9 0-7.9.1-11.7.3-3.7.1-7.6.3-11.4.3H49c-.5-.1-1.1-.1-1.8-.1h-1.4c-.6-4.5-.7-7.6-.7-9.7 0-1.5-.1-2.4-.2-3.3-.5-2.6-2.5-3.5-4-3.5-1.4 0-2.5.6-4.3 1.6-1.7.9-3.9 2.2-7.4 3.6-6.2 2.6-13.3 5.6-19.8 9.6l-.3.2-.2.2c-.3.3-1.1.7-1.8 1-2.4 1.3-6 3.2-5.8 6.9-.3 5.7-.1 11.4 0 16.9.1 5.8.3 11.9 0 17.7-.2 5.3-.2 10.5-.2 15.6v45.8c0 7.6-.2 14.3-.3 20.4-.1 2.2-.1 4.4-.2 6.5 0 1.2-.1 2.4-.1 3.6 0 1.2-.1 2.4-.1 3.6 0 1.5 0 3.1-.1 4.6v.4c-.1 1.1-.2 3 .8 4.6 1.5 2.2 4 2.3 5.2 2.3H11c1.3 0 2.8-.1 4.4-.1 2.2 0 4.4 0 6.5.1 2.2 0 4.4.1 6.6.1 2.5 0 4.6-.1 6.6-.2 5.1-.2 10.5-.3 17.6-.3h18c5.8 0 13.4 0 21.1-.4l7.8-.1c12.8-.2 26.1-.5 39.1-.5 10.7 0 20.2.2 29.1.5 5.7.3 11.5.4 17.9.4 14.3 0 28.3-.7 41.3-1.5l1.6-.1.9-1.3c2.5-3.5 4.5-5.3 6-5.3.5 0 1.2.2 1.9.3 1 .3 2.3.6 3.7.6 2.3 0 4.6-.8 6.8-2.5h2.3c.5 0 1.3 0 2.2-.2 5.2-1.4 7.9-5.3 10.2-8.9 1.3-2 2.6-3.8 4.1-5h.2c2.2-1.9 4-2.7 5.7-2.7H272.9c3.4-.3 5-3.1 5.9-4.8.2-.3.3-.6.5-.8.9-1.8.9-3.6-.1-5.2zM52.6 161.3c-5.9 0-11.9.1-17.8.3-2.2.1-4.3.2-6.5.2-2.8 0-5.6-.1-8.4-.1.2-.3.3-.6.5-.9.8-1.4 1.8-3.1 2.1-3.6.4-.7 1.3-2.2 1.8-3.3.7-1.2 1.4-2.7 1.8-3.4.4-.6 2.2-3.8 2.2-3.8 0-.1 1-1.8 2.1-3.8 3.3-5.5 4.7-8 4.7-8.1 0 0 .1-.4.4-.8.4-.7.6-.7 2.4-.8 2.9-.2 11-.6 14.5-.7 2.9 0 3.1 0 2.9.3-1 6.2-1.3 12.1-.7 17.4 0 2 .3 3.8.3 4.3.1.3.1.8.1 1 .1.4.6 2.2 1 3.3.4.9 1.2 1.8 2.4 2.6-1.9-.1-3.8-.1-5.8-.1zM63.1 102c-.1.4-.4 1.8-.7 3.1-.4 1.1-.8 2.8-1 3.5-.3.8-.4 1.6-.6 1.7-.1.3-.4 1.6-1.3 4.9-.3 1-.7 2.4-1 3.2-.1.7-.4 1.8-.6 2.3-.1.4-.4 1.5-.6 2.2-.3.7-.4 1.7-.6 2.3l-.1 1-3.9.3c-2.2 0-6 .3-8.2.6-4.9.4-4.5.4-4.7.2-.1-.1 2.2-4.2 3.1-5.2.1-.2 1.1-1.7 2.1-3.2 2-3.1 5-7.7 7.1-10.6.8-1.1 2-2.7 2.4-3.4.4-.7 1-1.5 1.1-1.6.1-.1 1.3-1.6 2.4-3.1 2-2.4 6.6-7.7 6.7-7.6.1.1-.6 4.2-1.1 6.5-.2 1.1-.5 2.4-.5 2.9zm7.5 59.3h-5.9c-.1-1.5.1-4.5.7-8.1.1-1.1.8-4.8 1-5.1 0-.1 0-.8.1-1.4.1-.6.4-1.9.7-2.9.1-1.1.6-2.8.7-3.8.1-1 .4-2.6.4-3.5.1-.9.3-1.7.3-1.7 0-.1 0-.8.1-1.6l.1-1.5 1-.1c.4 0 1.8-.1 2.9-.1h3.1c-2.7 6.5-3.9 13.4-2.9 17.2.4 1.5.6 2.1 1.7 4.6 1.7 3.6 6.6 6.9 11.9 7.9-5.3.1-10.6.1-15.9.1zm45.6-19.4c-.2 1.5-1.1 13.7-.9 18.5-7.1.1-14.2.3-21.3.4 2.5-.8 5.4-2.6 7.7-4.6.3-.1 1.1-.9 2-1.6 2-1.8 5.8-5.8 7.6-7.9 1.5-1.8 3.4-4.3 5.4-6.9-.2.6-.3 1.4-.5 2.1zm51.8 18.8c-5.2-.2-10.4-.3-15.7-.4 1.1-.6 2.2-1.8 4.3-4.1 2.1-2.3 4.7-5.6 7.4-9.2v.1c0 4.3 1.5 8.4 3.9 10.5 1.1 1.1 3.6 2.5 6 3.3-2 0-4-.1-5.9-.2zm6.2-4.9c-.7-1.8-.4-4.3.9-9.5 2-8.4 5.5-16 10.1-22.4 2.7-3.8 6.8-8.5 7.5-8.5.5 0 1.6 2 2.3 4.1 1.1 3.3 1.1 7.9.1 13.2-1.2 6.1-3.2 10.7-6.3 14.9-3.5 4.4-8.5 8.8-11.8 9.7-1.9.8-2.2.8-2.8-1.5zm64.6-41.5c-.3 1.8-1.7 6.4-3.1 10.7-1.8 5.3-3 11.5-3 15.9 0 2.9 1.4 8.9 2.5 12-2.2.1-4.7 1.5-8.4 6.7-4.2.2-8.3.5-12.5.7 3.8-11.9 9.9-24.2 14.9-33.1 2.9-5.2 7.9-12.2 9.5-13.3l.5-.4-.4.8zm37.7 15.9c-1 1.5-1.8 3.9-3.8 4.1-3 0-5.7 1.6-7.9 3.5-5 3.9-6.5 11.5-13.1 13.3-.4.1-.9.1-1.4.1h-1.6c-1 0-1.9.1-2.7.8-1.4 1.1-2.7 1.6-3.8 1.8-.3-1.1 0-3.1.8-6.6.7-3.5 1-5.3 1.5-11.3.1-.5.2-2.1.3-3.5.2-1.5.4-3.6.4-4.9.1-1.3.3-2.7.4-3 0-.3.1-1.2.2-1.7.1-1.5.2-2.3.5-4.8.3-2.9.4-5.9 0-6.9-.3-1.1-.9-1.8-2.4-2.6-2.4-1.4-5.5-1.7-7.1-.7-2 1.2-6.1 5.7-8.9 9.6-2.5 3.7-6.3 10.2-8.4 14.8-.3.8-.7 1.7-.7 1.7-.1 0 2-10.9 2.6-13.9 1.6-7.2 1.5-6.9.1-7.8-1.8-1.1-4.2-1.5-4.8-.7-.1.2-.5 1.1-.8 2.1-.4 1-1.4 3.4-2.2 5.6-3.1 7.1-5 13.3-6.6 19.6-2.5 11.1-2.8 19.2-.8 22-6.9.3-13.8.4-20.7.4h-3.9c.3-.1.6-.3 1-.5 1.3-.6 2.5-1 2.7-1.2.3-.1.9-.6 1.5-.9 1.1-.6 2.3-1.5 4.1-3.4 4.8-4.6 9.5-12.9 11.4-20.1.9-3.5.8-9.4-.1-12.9-.8-2.7-4.1-7-6.9-8.7-.7-.4-1.6-1.1-2.1-1.6-2.3-1.8-4.9-2.3-7.3-1.1-3.9 1.8-7.9 5.8-12 12-3.9 5.8-6.3 10.2-7.8 14.9-.2.3-.3.5-.5.8-3.8 5.3-6.5 8.9-9.6 12.3-3.8 4.3-7.2 7.3-6.9 6.3.1-.3.2-.9.2-1.5.2-1.6.8-3.7 2.2-8.2.7-2.2 1.4-4.2 1.4-4.5.2-1.1 2.1-7.3 3.4-10.9 1.3-3.7 3.6-11.7 3.6-12.7.1-1 .1-1.1-1.1-2.3-1.3-1.3-2.4-2-4.1-2.5-1.3-.3-2-.2-2.6.4-.7.7-4.5 9-6.5 14-1.3 3.2-2.7 7-2.8 7.8-.1.3-.3 1.1-.6 1.8-.1.6-.3 1.6-.5 2.3-.1.7-.3 1.8-.5 2.7-.5 2.6-.5 7.4-.2 10.1.3 2.2 1 4.2 1.7 5.2.4.4 1.4 1.1 2.3 1.6h-6.2c-5 0-10.1 0-15.1.1.6-3.7 1.6-9.4 2.4-11.9 1.1-3.3 1.6-4.8 1.9-6.2.3-.8.9-3.7 1.7-6.5 1.3-5.1 2.7-9.9 2.8-10.7.1-.3.1-.8.3-1.2.1-.7 1.3-5.4 2.1-7.8.3-.7.8-2.5 1.2-3.8.4-1.4.9-3.1 1.2-3.7.3-.7.4-1.5.5-1.8v-.2c1.1 0 2.3-.1 3.4-.1 6 0 5.7.1 5.7-2.4 0-3.4-3.3-2.6-5.3-2.7h-1.8c.1-.5.3-1.1.5-1.7.5-1.6 1.1-3.1 1.2-3.5.4-2-3.6-5.7-6.1-5.7-.9 0-.9 0-1.6 1.6-.3.9-.7 2-.8 2.5-.3.9-1.5 4.2-2.5 6.9v.1c-5.3.2-10.5.5-15.8.9-1 .1-2.7.2-3.2 1.7-.6 2.2.5 4.6 2.4 4.5 4.6-.4 9.2-.9 13.8-1.3-.6 1.3-1.4 3.4-1.8 4.2-.1.4-.7 1.8-1.2 2.9-.9 2.6-2.3 6-3.1 8.4-.3 1-.7 2.5-.9 3.2v.2c-1.9 2.9-7.1 9.9-7.9 10.8-2.3 2.8-5.6 6.2-8.5 8.8-1 .9-1.7 1.6-1.7 1.7-.3.1-3.4 2.8-4.2 3.6-.5.3-1 .7-1 .8-.1 0-1 .7-1.9 1.3-2.7 1.8-5.2 3.1-6.9 3.6-1.6.4-1.6.4-1.9 0-2.6-3.2-1.7-16.2 2-26.4 1.6-4.5 6-11.6 8.9-14.5 1.5-1.4 3.4-2.5 4.8-2.9l1.1-.2.5 1c.5.9.5 1.3.4 2.8-.2 1.9-.9 3.8-1.5 5.7-.5 1.5-.9 2.9-1.5 4.4-.3.7-.6 1.5-.9 2.2-.3.5-1 1.4-.8 2 .3.8 3.2 1.4 4.4 1 1.3-.4 4.1-8.2 4.1-8.3.7-2.4 1.3-5.1.9-7.6-.3-2-1.5-3.4-3.1-4.6-3.6-2.5-7.2-3.2-11-1.9-1.2.5-4.6 2.7-6.5 4.1-3.8 3-7.1 7.3-10.2 13.2-1.7 0-3.6-.1-4.7-.1l-4-.1.1-1.5c.1-.8.3-2.7.6-4.2.3-2.6 1.5-12.6 2-17.5.1-1.5.6-4 .7-5.7.6-4.2.3-7.6-.3-8.9-.8-1.4-1.7-2.2-3.3-3.1-2.1-1.2-2.8-1.5-4.3-1.5-1.3 0-1.5.1-2.8.7-1.7 1-2.7 1.8-5.3 4.3-1 1.1-2 2-2.2 2.3-.3.2-1.4 1.6-2.7 3.2-1.3 1.6-2.4 2.8-2.5 2.9-.1.1-2.9 4.1-3.8 5.2-.3.6-1.1 1.7-1.7 2.4-.4.8-1.7 2.5-2.7 4-1 1.4-2.1 3.1-2.5 3.7-1.1 1.8-9.2 14.8-9.5 15.5-.4.6-.4.6-3.6 1-11.4 1.5-10.9 1.2-10.9 3.6.1 1.7.6 2.7 1.5 2.8.3.1 1.5 0 2.9-.2 4.3-.8 6.3-1.1 6.4-1 .1.1-.3.9-.7 1.8-.6 1-1.4 2.5-1.8 3.3-.4.8-1.1 2.4-1.7 3.5-.7 1.1-1.4 2.7-1.8 3.6-.6 1-2.5 4.7-2.8 5.2s-1 1.9-1.5 3.2c-.4 1.2-1.3 2.8-1.5 3.5-.6 1.1-1 2.3-1.3 3.5h-1.9c-1.1 0-2.1.1-3.2.1H6.5c-.8 0-2.2 0-2.7-.8s-.3-2.1-.2-3c.1-2.7.1-5.4.2-8.2.1-3.4.3-6.7.3-10.1.2-6.8.3-13.6.3-20.4V79.2c0-6.8-.1-13.6.3-20.3.6-12.7-.5-24.3 0-35.9-.2-2.5 4.6-3.8 6.4-5.4 6.1-3.8 12.8-6.6 19.4-9.4 6.7-2.8 9.4-5 10.5-5 1.5 0 .2 3.8 1.8 15 .2.5-.1 1.3.4 1.6h.6c1.2 0 2.4-.1 3.6-.1.5 0 1 0 1.5.1h3.7c7.7 0 15.4-.6 23.1-.6h1.5c19.4.3 38.8.9 58.1.9 4.3 0 8.5 0 12.8-.1 2.5-.2 4.9-.3 7.4-.3 6 0 12 .5 18 .5h1.8c17.5-.7 34.9-1.8 52.4-2.2h.3c3 0 6.2-.5 9.2-.5.9 0 1.8 0 2.6.2.9 2 1.7 4.4 3.7 5.6 8 4 10.7.7 11.3 12.1.4 3.5.6 7.6 3.2 10.3 4.4 4.9 17.6 4.9 10.4 14.1-4.3 3-3.9 8.4-6.4 12.6-1.6 3.8-5 6.6-6.3 10.4-.6 4.7 6.3 6.9-.3 11.6-2.4 2.3-1.4 6.4-1.3 9.4 1 2 4.3 1.8 4.7 4.5.2 1.2-.1 2.4-.1 3.6 1.4 1.5 3 2.9 4.7 4.2 4.6 4.1 9.6 7.8 13.1 12.9.1.4.2.8 0 1.2z" class="st2"/><path d="M36.3 77.1c-5 .1-7 .3-11.2 1.1-.7.1-1.3.2-1.7.2-1.3.4-2.6.6-3.9.8.1-.5.2-1 .2-1.6.2-1.2.5-3 .8-4 .7-3.1 2.1-8.7 2.7-10.9.7-2.6 1.9-7.8 2.5-11 .1-.5.2-1.2.3-1.3 0-.2.1-.4.1-.5.1-.1.2-1.2.5-2.3.2-1 .6-2.6.7-3.3.2-1.4 1.4-7.1 1.7-8.7.2-.5.2-1 .2-1 0-.1.2-.5.2-1 .2-.5.4-1.7.7-2.6.2-.8.6-2.3.8-3.3.1-.9.6-2.4.7-3.3.2-.8.4-1.7.5-1.8.2-.2 0-1-.3-1.8-.5-1-2.7-2.4-4.1-2.4-.8-.1-.9-.1-1.1.5-.2.3-.3.7-.4 1-.2.7-1.1 3.7-1.4 4.5-.1.4-.4 1.4-.7 2.2-.3.8-.9 2.7-1.5 4.2-2.3 6.3-3 8.2-3.7 10.7-.4 1.5-.8 2.5-1 3.3-.3 1.1-1.2 4.1-1.8 6.5-.3 1.4-.7 2.6-.7 2.7l-.2.6c-1.6 7.7-4.9 26.4-4.8 27.2-.1.4.1 1.3.4 2 .6 1.1 1.3 1.9 2.2 2.5.9.5 1.6.5 2.6.2 3.1-.9 5.9-1.6 9.9-2.4 1.2-.1 2.3-.4 2.5-.5.9-.4 8.7-1.4 13-1.6 4.1-.2 5.9-.1 7.1.4.6.3.8.2 1 0 .5-.4.1-1.7-.6-2.7-1.7-2.4-4.1-2.9-12.2-2.6z" class="st2"/><path d="M88.4 43.1c.3-.8.3-.8-.3-1.5-.5-.7-1.7-1.5-2.6-1.7-.5-.1-.6-.1-.9.4-.3.3-.4.5-.5.5-.2 0-.5.2-.9.5l-.7.6-.7-.9c-.3-.6-1-1.2-1.3-1.5-1-.7-2.3-1.3-2.9-1.4-.3-.1-.5-.1-.6-.2-.1-.1-1.4-.1-1.4 0s-.2.1-.3.1c-.5 0-1.9.6-3 1.2-1 .6-3.4 2.7-4.2 3.7-.3.4-1 1.1-1.3 1.5-1.6 1.8-4 5.2-4.3 6.1-.1.1-.3.7-.6 1.1-.8.7-1.7 1.6-2.9 2.7-3.8 3.7-6.1 5.6-8.2 6.9-4 2.7-8.8 5.1-10.3 5.2-.4 0-.4-.1-.6-.7-.3-.7-.3-2.5-.2-3.7.2-.9.5-3.2.6-3.7.1-.1.3-.7.3-1.3.1-.6.3-1.2.3-1.5l.2-.4.6.2c1.7.5 4.3 0 6.2-1.3 4.1-2.7 7.3-6.5 8.8-10.4 1-2.5.8-4-1.1-5.4-2.2-1.7-4.6-2.2-7.1-1.5-3.7 1-7.2 3.7-10.1 7.8-4.7 6.5-6.6 13.8-5 18.9.3.9 1.3 2.4 2 3 .8.8 2.3 1.8 3.5 2.2.9.3 1.4.4 3 .7.6.1 1.1.1 2.3-.1 3.5-.6 6.8-2.9 13.4-9.1l.8-.8c-.3.8-.5 1.5-.7 2.2-.6 2-.8 3.9-.4 4.9.2.9 1.2 2.3 1.9 2.9.5.4 2.1 1.1 3 1.4.7.1 2.1.1 2.7-.2.3-.1 2.1-1.5 2.3-1.8.1-.1.5-.6 1-1 .4-.4.9-1 1-1.2.1-.2.6-.9 1-1.5 1-1.2 2.9-3.7 2.9-3.8 0-.1.3-.5.6-1 .4-.5.7-.8.6-.7 0 .1-.3.9-.4 1.6-.5 1.8-.5 4.2-.1 6.1.5 2 1.3 2.8 3 3.4 1.3.4 1.7.4 2.3-.4.3-.2.3-.4 0-.7.2-.2-.1-.5-.2-.5-.3-.1-.3-.1-.1-1 .2-.5.4-1.2.6-1.7.3-.4.7-1.5 1-2.5.3-1 .8-2.3 1-2.9.3-1 .6-1.9 1.7-5 1-3.1 2.9-7.5 4.1-10 .6-1.2 1.1-2.5 1.2-2.8zm-45.8 8.6c3-6.8 7.1-11.6 10.6-12.4l.5-.1v.5c0 .7-.8 2.6-1.6 4-1.9 3.3-5.5 6.7-8.8 8.2-.5.3-1 .5-1 .5-.1.2.1-.3.3-.7zm37-6.4-1 1.3c-1 1.5-2.2 3-2.7 3.7-.2.3-.6 1-1 1.6-.4.6-.8 1.1-.8 1.1 0 .1-.3.6-.9 1.2-.4.7-.8 1.2-.8 1.2s-.4.7-1 1.3c-.4.7-.9 1.3-.9 1.4 0 0-.4.6-.9 1.2l-.8 1.2s-.4.6-1 1.2c-.5.6-1.1 1.3-1.2 1.5-.1.1-.4.5-.6.7-.9 1-.9 1-.9.7 0-.5.9-3.9 1.5-5.7 1.6-4.5 4.1-9.9 5.9-12.4.3-.4.7-1 .8-1.1.4-.5 1.8-2 2.5-2.7 1-.8 2.8-1.7 3-1.4.3.4.5 1.1.6 2.3l.2 1.7zm43.2-18.2c0-.8-2.5-2.2-3.6-2.1-.6.1-.9.4-1.8 1.7-.8 1.2-3.5 6.9-4.6 9.6-.4 1.3-1.4 3-1.9 3.6-.1.1-.3 0-.8-.5s-2-1.3-3.4-1.7c-1-.3-2.9-.4-3.5-.1-.3.1-.5.1-.6.1-.6.1-2 .9-2.9 1.4-1.2.9-4.2 3.7-4.2 3.9 0 .1-.3.6-.8 1.3-3.2 4.3-5.4 9.3-7.2 15.4-.8 3-1.1 4.7-.8 6.3.2 1.2.5 2.2.8 2.7.1.1.2.3.2.4 0 .1.3.5.6.8 1.4 1.4 4.8 2.1 6.4 1.4 1.6-.8 3.2-2.5 5.1-5.9 1.4-2.2 2-3.3 2.7-4.5.2-.4.8-1.4 1.4-2.4 1.4-2.5 2.4-3.9 2.4-3.9 0 .1-.1.8-.3 1.5-.4 2.4-.6 4.5-.6 7.8 0 4.9.3 6.2 1.2 7.1.5.5 1.4 1 2.3 1.1.7.1.8.1 1.4 0 .5-.1.7-.6.3-.9-.5-.5.1-5.5 1-8.2.8-2.7 1-3.5 2.2-8.7 1.4-6.1 1.8-8.1 2.6-10.6.8-2.6 2.6-7.6 3.7-10.3 2-4.4 2.7-6 2.7-6.3zm-14.5 17.2-2 3.1c-1 1.7-1.9 3.1-1.9 3.2 0 0-.9 1.5-2.1 3.3-1.1 1.8-2.2 3.6-2.5 4.1-.3.5-1.2 1.8-2 3-1.8 2.3-3.7 4.5-3.7 4.2 0-.2.8-3.3 1.4-5.2.6-2.4 1.4-4.2 3.1-7.9.6-1.3 2.5-4.6 3.2-5.8.3-.5.7-.9.7-.9 0-.1.2-.3.3-.5.2-.2.4-.5.4-.5 0-.2 1.3-1.7 2-2.4.8-.7 1.9-1.2 2.4-1.2.3 0 .6 1.1.6 2.6l.1.9zm51.2.8c1.1-1.5 4.1-4.2 4.7-4.2.2 0 .3.3.3 1.4 0 .8 0 1.4.1 1.5 0 .1.1.9.3 1.8.3 3 .3 3.3 1.1 3.9.9.8 2.1 1.2 2.6.8.3-.1.4-3.3.4-6 0-1.7 0-1.9-.4-2.9-.6-1.5-1.2-2.1-2.8-2.8-2.1-1-3.5-.8-5.4.4l-1 .8c0 .1-.3.4-.5.5-1.4 1.3-4.4 4.8-5.4 6.5l-.3.5c-.1-.1.2-1 .8-2.7 1.4-4.5 1.4-4.5.8-5.2-.5-.6-1.8-1.4-2.7-1.5-.8-.1-1.1.1-2 2.2-.5 1-1.2 2.4-1.5 3.2-.3.8-.7 1.4-.7 1.5 0 .1-.3.8-.7 1.6-1.1 2.5-2.7 6.2-3.1 7.3-.2.6-.4 1.2-.6 1.9l-.9.9c-3.7 3.8-6 5.8-8 7.1-3.9 2.7-8.7 5.2-10.1 5.4-.4 0-.4-.1-.6-.7-.3-.7-.3-2.6-.2-3.9.2-.9.5-3.3.6-3.9.1-.1.3-.8.3-1.4.1-.6.3-1.3.3-1.5l.2-.5.6.2c1.7.5 4.3 0 6.1-1.4 4-2.8 7.1-6.8 8.7-10.8 1-2.6.8-4.1-1.1-5.5-2.1-1.7-4.5-2.3-7-1.5-3.7 1-7.1 3.8-9.9 8.1-4.6 6.8-6.5 14.3-4.9 19.5.3.9 1.3 2.4 2 3.1.8.8 2.2 1.8 3.4 2.3.8.3 1.4.5 3 .7.6.1 1.1.1 2.2-.1 3.4-.6 6.6-3 13.2-9.4l.1-.1c-.2.8-.4 1.5-.5 2-.3 1.4-.4 4.9-.3 5.7.3 1.3 1.1 1.8 2.9 2.1.3.1.7.1.7.1.2.1 1.7-.1 2-.4.3-.1 1.5-4.4 1.9-5.9.3-1.7 3.1-7.7 4.9-10.9 1.5-2.7 4.2-6.8 5.3-8.3.2-.4.8-1.1 1.1-1.5zm-33.2 8.6c2.9-7 7-12 10.4-12.8l.5-.1v.5c0 .7-.8 2.7-1.5 4.2-1.9 3.4-5.4 6.9-8.6 8.5-.5.3-.9.5-1 .5-.2.1 0-.3.2-.8zm63.3-14.1s-.3-.1-.6-.4c-2.4-1.3-5.7-1.4-8.3-.2-3 1.4-5.3 3.6-7.2 6.9-1.5 2.5-2 4.7-1.7 7.1.3 2 .5 2.7 2 4.6.6.8 1.4 1.7 1.9 2.2 1 .9 2 2.1 2.6 2.7.2.2.4.5.5.6.3.1.7 1.2.7 1.9-.1.8-.4 1.6-1.3 2.4-1.2 1.3-2.9 2-4.6 1.9-.8-.1-1-.1-1.4-.5-.3-.2-.5-.5-.6-.8-.2-.4-.4-.5-1.1-.8-1.3-.5-2.8-.5-3.1-.1 0 .1.1.5.3.9.3.8 1.1 1.7 2.2 2.3 1.3.8 4.6 1.7 6.6 1.9.5.1 1.1.1 1.3.1.4 0 3-.2 3.2-.4.1-.1.4-.1.7-.3.3-.1.8-.3 1.2-.6.3-.2.6-.5.7-.5.3 0 1.1-1.2 1.4-2.1.3-.9.3-2.2 0-3.1-.3-1-1.8-3-3.6-4.9-1.1-1.1-1.5-1.7-1.9-2.4-1.5-3-.8-7.8 1.4-11.2 2.2-3.2 3.7-4.8 5.5-5.5 1.4-.7 1.6-.6 2 .1.2.5.3.8.2 1.7-.1 1.2-.4 3-.7 3.4-.1.1-.3.6-.4 1.1-.4 1.1-1.4 3.1-2 3.5-.2.2-.3.5-.3.5.1.3 1.4 1 2 1 .3 0 .5-.1 1-.7 1.1-1.2 2.5-3.4 3-4.6 1.1-2.6 1.2-4.9.2-6.5-.4-.3-1.5-1.2-1.8-1.2zm27.9 0 .4.2.4-.2c.6-.2.8-.7 1.7-3.5.7-2.2.7-2.2.5-2.6-.3-.6-1.3-1.3-2-1.4h-.6l-.6.9c-.9 1.5-2 3.6-2 4.1s.2 1 .6 1.5c.2.3 1.1.9 1.6 1zm29.8.3c-1.3-1.2-3.2-1.8-4.2-1.2-1.3.6-4.1 3.4-6.1 5.9-1.8 2.3-4.6 6.6-6.3 9.6-.2.6-.6 1.1-.6 1.1-.1 0 2.1-7.5 2.7-9.5 1.5-4.9 1.5-4.8.7-5.5-1-1-2.4-1.5-2.8-1-.1.2-.4.7-.6 1.4-.3.6-1.1 2.3-1.8 3.7-1.4 2.7-2.7 5.5-3.8 8.3-.8 1.4-1.6 2.6-3.7 5.9-2.6 3.8-4.4 6.3-6.5 8.7-2.6 3.1-4.8 5.2-4.7 4.4.1-.2.2-.6.2-1 .2-1.1.6-2.7 1.5-5.8.5-1.5 1-3 1-3.2.2-.8 1.5-5.2 2.3-7.7.9-2.7 2.5-8.3 2.5-9 .1-.7.1-.8-.7-1.6-.9-1-1.6-1.5-2.7-1.8-.9-.2-1.4-.2-1.8.2-.5.5-3.1 6.4-4.4 9.9-.9 2.3-1.9 5-1.9 5.6-.1.2-.2.8-.4 1.3-.1.4-.2 1.1-.3 1.6-.1.5-.2 1.3-.3 1.9-.3 1.9-.4 5.2-.2 7.2.2 1.5.6 3 1.1 3.7.4.5 1.6 1.3 2.5 1.6.6.2 1 .2 1.9.2 1.9-.2 2.3-.5 5-3.5 1.8-2 4.1-5.2 6.4-8.5-1.3 5.3-1.6 9-.6 10.5.4.6 1 1.1 2.1 1.4 1.7.4 1.9.4 2.5-1.1 3.3-8.1 8-16.1 11.7-22 2.2-3.4 5.7-7.8 6.8-8.5l.2-.1-.2.6c-.3 1.2-1.5 4.4-2.7 7.3-1.6 3.9-2.9 7.9-3.2 12.1-.2 3-.6 8.5 2.4 10.3.6.4 1.6.9 2.3.4.2-.1.4-.4.5-.7.5-1.2.1-2.6.2-3.9.1-1.4.4-2.9.7-4.3.6-2.7 1.2-5.4 1.8-8 .2-1 .6-2.5.6-3.4.2-.9.4-1.9.5-2.1 0-.2.2-.8.2-1.2.2-1 .3-1.6.7-3.3.4-2 .7-4.1.6-4.8.1-.8-.3-1.3-1.1-2.1zm-74.1 60.8c-1.8-1.2-3.7-2.3-5.7-3.2v-4.9c0-.6-.9-.9-1.3-.5-1.2 1.1-2.3 2.2-3.4 3.3-1.5-.6-3.1-1.1-4.6-1.4-.2 0-.4 0-.5.1-.5.5 1 3.8 1.7 5.4-1.5 1.8-2.8 3.7-4.1 5.7-.3.4.1 1.1.8 1 1.7-.2 5.2-1.7 5.4-1.8 1 2.2 2.2 4.2 4 6.1.3.4 1.1.4 1.2-.1.7-2.4.9-4.8 1-7.2 2.1-.5 4-.9 5.9-1.5.1-.2-.1-.7-.4-1z" class="st2"/></svg>