<svg xmlns="http://www.w3.org/2000/svg" xml:space="preserve" id="leaders-in-action_00000040574834693238234920000017308117052878725773_" x="0" y="0" style="enable-background:new 0 0 280 218" version="1.1" viewBox="0 0 280 218"><style>.st0{fill:#1a428a}.st1{fill:#fcd672}</style><path d="M262.1 167.9a25.74 25.74 0 0 0-33.8 17c-4.1 14.1 4.2 29 19.1 32.4 13.6 3.1 25.4-5.2 29-14.4H271.3c-1.6 0-1.5.1-1.5-1.5 0-1.2-.1-1.3 1.2-1.3.8 0 .9-.2.7-.9 0-.1 0-.2-.1-.3-.4-.9-.7-1.9-1.1-2.8-.2-.6-.3-.7-1-.7h-6.4c-.5 1.4-1 2.7-1.5 4.1-.1.4.1.6.5.6h.6c.8 0 .8.1.8.8v1c0 .8-.1.9-.9.9h-5.4c-1.6 0-1.5.1-1.5-1.4 0-1.1-.3-1.3 1.2-1.3.6 0 1-.2 1.2-.8.3-.7.5-1.4.8-2.1.9-2.5 1.9-5 2.8-7.5 1-2.8 2.1-5.6 3.1-8.4.2-.5.5-.7 1-.7h3.6c.5 0 .7.2.9.6.2.7.5 1.4.8 2.1 1.1 2.9 2.2 5.9 3.3 8.8.9 2.3 1.7 4.6 2.6 6.9.1.3.2.6.6.7 4-10.9-1-26.4-15.5-31.8zm-4.4 22.4c-.7 1.7-2 2.6-3.7 3.1-1.7.5-3.4.6-5.1.6h-1.5c-.4 0-.6.2-.6.6v4.7c0 .6.2.8.8.8h1.6v2.2c0 .3-.2.5-.5.5H239.8c-.2-.1-.4-.3-.4-.4v-2.2h1.5c.6 0 .7-.1.7-.7v-14.8c0-.9-.1-1-1-1-1.3 0-1.3 0-1.3-1.3 0-1.4 0-1.4 1.4-1.4h8.1c1.5 0 3 .1 4.5.5 3 .8 4.4 2.5 4.7 5.3.4 1 .2 2.3-.3 3.5zM198 186.5h-10.8c-.4 0-.5.2-.5.5v1.1c0 1.6-.2 1.5 1.5 1.5 1.1 0 1.3.2 1.3 1.3v7.1c0 .7-.1.7-.7.7h-9.5c-.7 0-.8-.1-.8-.8v-6.8c0-1.4.6-1.5 1.5-1.5.4 0 .9 0 1.4-.1 0-1.1.1-2.1-.1-3H169.8c-.1.1-.4.2-.4.4 0 .9-.1 1.8 0 2.8h1c1.8 0 1.9.1 1.9 1.9v18.7c-.1.8-.3 1.1-1.2 1.1h-1.7c-.1 1.1-.1 2.1 0 3.1.2.1.2.1.3.1h10.7c.2 0 .5 0 .8-.1h.1l.1-.1v-2.5c0-.1-.1-.3-.1-.5h-1.7c-.7 0-1-.2-1.1-.9v-8c0-.4.2-.6.6-.6h9.9c.2.1.4.2.4.4.1.2 0 .4 0 .6v7.7c-.1.6-.3.8-.9.8h-1.4c-.3 0-.5.1-.5.4 0 .9-.1 1.8 0 2.7 1.1.2 11.3.2 11.9-.1v-1.7c0-1.4.1-1.3-1.3-1.3-1.5 0-1.6-.1-1.6-1.6v-19c0-.8.3-1 1-1.1h1.2c.2 0 .4-.1.7-.1v-2.4c.2-.6 0-.7-.5-.7zM166.6 200.6h-10.3c-.3 0-.4.2-.4.4v2.8h5c.8 0 .8.1.8.8 0 .5 0 1.1-.1 1.6-.3 1.7-1.1 3-2.7 3.8-1.2.6-2.6.7-3.9.6-2.6-.3-4.6-1.5-5.6-4-.5-1.2-.7-2.5-.8-3.8-.2-2.6-.2-5.2.6-7.7.5-1.4 1.3-2.7 2.5-3.6 1.2-.9 2.5-1.3 4-1.4 2.2-.2 4.2.1 6.2 1.2.5.3.7.6.7 1.2v3.2c0 .3 0 .5.1.9h4.5c0-.2.1-.3.1-.4v-7.1c0-.4-.2-.6-.5-.8l-1.8-.9c-1.9-.8-4-1.2-6-1.4-2.8-.3-5.6-.2-8.3.7-4.5 1.5-7 4.8-8 9.3-.4 2-.5 4-.4 6.1.1 2.1.6 4.2 1.5 6.2 1.7 3.6 4.6 5.8 8.5 6.4 1.7.3 3.5.3 5.2 0 2.2-.4 4.1-1.3 5.5-3.2.1-.2.3-.4.5-.6.2.5.4.8.5 1.1.3.7.5 1.3.8 2 .1.2.2.4.4.4h2.1c.2-1.3.1-13.2-.1-13.8h-.6zM67.5 186.3c-2.8-.7-5.7-.6-8.5.2-3.3 1-5.8 2.8-7.6 5.8-1.2 2-1.7 4.1-2 6.4-.3 2.8 0 5.6 1 8.2 1.8 4.4 5.2 7 9.8 7.8 3 .5 5.9.4 8.8-.7 2.5-1 4.6-2.5 6.1-4.8 1.7-2.7 2.4-5.6 2.3-8.8 0-2.2-.3-4.4-1.2-6.6-1.5-4-4.5-6.5-8.7-7.5zm3.3 19.1c-.6 2.2-1.7 4-3.8 5.1-3 1.5-7.9 1.1-9.9-3.2-.8-1.7-1.2-3.5-1.2-5.3 0-1.5 0-3.1.1-4.6.2-2.1.9-4 2.3-5.5 1.8-1.9 4-2.5 6.5-2.1 2.8.4 4.6 2.2 5.6 4.8.7 2 .8 4 .8 6.7.1.9 0 2.5-.4 4.1zM44.3 188.1c-1.5-.8-3.1-1.2-4.8-1.4-1.3-.1-2.7-.2-4-.2h-11c-.3 0-.5.1-.5.4v2.7h1.9c.6 0 .9.3 1 .9v19.7c-.1.7-.4 1-1.1 1H24c-.1 1.1-.1 2.1 0 3.1.9.2 11.4.2 12.2 0v-2.5c0-.4-.2-.6-.6-.6H34c-.6 0-.8-.2-.9-.8V204c0-.8.1-.9.9-.9h4c1.9-.1 3.8-.3 5.5-1.1 1.9-.8 3.2-2.2 3.8-4.3.5-1.7.5-3.4.2-5.1-.3-2-1.3-3.5-3.2-4.5zm-3 9.8c-.7 1.1-1.9 1.7-3.2 1.8-1.3.2-2.7.2-4.1.2-.8 0-.9-.1-.9-.9v-8.4c0-.8.1-1 .9-.9 1.3 0 2.7.1 4 .3 1.4.2 2.8.8 3.5 2.1 1 2 1 4-.2 5.8zM19 199.8c-1.8-1.2-3.8-1.7-5.8-2.2-1.4-.3-2.7-.7-4.1-1.2-1-.3-1.9-1-2.1-2.1-.4-1.6.3-3.2 1.7-4.1 1.3-.8 2.7-1 4.2-.8 1 .1 2.1.3 3.1.7 1.5.5 1.3.3 1.3 1.8v2h4v-5.3c0-.4-.3-.5-.6-.7-2.1-1-4.3-1.5-6.6-1.8-2.3-.2-4.6-.1-6.9.6-3.5 1.1-5.7 3.6-6.1 7.6-.1 1.2 0 2.4.5 3.5.6 1.7 1.8 2.8 3.3 3.6 1.8 1 3.9 1.4 5.9 1.9 1.3.3 2.7.7 3.9 1.4 2.2 1.2 2.3 4 .6 5.7-.9.8-1.9 1.3-3 1.3-1 .1-2 .1-3 0-1.1-.2-2.1-.5-3.2-.8-.5-.1-.7-.5-.7-1v-2.1c0-.2-.1-.5-.1-.8-1.4-.1-2.8 0-4.2 0v5.3c0 .8 0 .9.8 1.2 2.6 1 5.4 1.6 8.2 1.7 2.3.1 4.6-.1 6.8-.9 2-.8 3.6-2.1 4.6-4.2.7-1.4.8-2.9.7-4.5-.2-2.6-1.2-4.5-3.2-5.8zM102.8 187.3c0-.8-.1-.8-.8-.9H80c-1 0-1 0-1 1v5.5c0 .4.2.6.6.6H81c.4 0 .6-.2.7-.6.1-.6.1-1.2.2-1.9.2-.9.8-1.5 1.6-1.5 1.3-.1 2.5 0 3.8 0 .1 0 .2.1.4.2V210.3c0 .8-.3 1-1.1 1h-1.4c-.3 0-.6.1-.6.5v2.6c.9.2 11.4.2 12.2 0V212c0-.5-.1-.6-.7-.6h-1.4c-.8 0-1.1-.3-1.1-1.1v-19.8c0-.8.1-.8.8-.9h3.1c1.4 0 2 .6 2.2 2 .1.5.1 1 .1 1.4 0 .3.2.5.5.5h1.5c.5 0 .6-.1.6-.7v-.9c.4-1.5.4-3.1.4-4.6zM223.5 186.5h-22.2c-.6 0-.7.1-.7.6v5.8c0 .5.1.6.7.6h1.4c.6 0 .6-.1.7-.6.1-.6.1-1.2.2-1.8.2-1 .8-1.5 1.8-1.6h3.4c.6 0 .6.1.6.7v20c0 .7-.3 1-1 1h-1.5c-.4 0-.5.2-.5.5v2.6c.2 0 .3.1.4.1h11.1c.6 0 .6-.1.6-.7v-1c0-1.8 0-1.5-1.5-1.5s-1.6-.1-1.6-1.7v-19.4c0-.6.1-.7.6-.7h3.7c1 0 1.6.7 1.8 1.7.1.5.1 1 .2 1.5.1.7.1.8.8.8h1c.9 0 .9 0 .9-.9v-5.2c0-.8 0-.8-.9-.8zM124.1 205.5c-.9 0-.9 0-1 .9-.2 1.2-.4 2.4-.7 3.7-.2.7-.7 1.1-1.4 1.1h-6.3c-.8 0-.9-.1-.9-.9v-19.1c0-1.4.2-1.5 1.6-1.6.5 0 1 .1 1.5-.2 0-1 .1-2-.1-2.9H105.1c-.3 0-.4.2-.4.4v2.7h1.9c.6 0 .9.3 1 .9v18.9c0 1.7-.1 1.8-1.8 1.8h-1c-.2.9-.2 2.5 0 3.1H125.9c.1 0 .2 0 .3-.1h.1v-.1c.2-1.2.1-8.1-.1-8.8-.6.2-1.3.2-2.1.2zM138.8 211.2c-1.5 0-1.6-.1-1.6-1.7v-18.6c0-1.1.3-1.3 1.4-1.3h1.4c.1-.2.1-.3.1-.3v-2c0-.8 0-.8-.8-.8h-10.4c-.2 0-.5 0-.8.1v3h1.7c.9 0 1.1.3 1.2 1.2V210.1c0 .9-.3 1.1-1.1 1.1h-1.7c-.1 1.1-.1 2.1-.1 3.1.2.1.3.1.3.1h10.9c.2 0 .4 0 .6-.1h.1l.1-.1s0-.1.1-.2v-1.6c-.1-1.4-.3-1.2-1.4-1.2z"/><path d="M266.8 185.3c-.9 2.5-1.8 4.9-2.6 7.4.9.2 4.7.2 5.4 0l-2.4-6.9c-.1-.2-.2-.3-.4-.5zM251.8 184.2c-1.6-.7-3.2-.6-5-.5v7.1c0 .5.3.6.7.5 1.1-.1 2.3-.1 3.4-.3 1.1-.2 2-.8 2.3-1.9.3-.9.4-1.9.2-2.8-.1-1-.7-1.7-1.6-2.1z"/><path d="M107.2 37.9c-.5 0-1.6.5-2.4 1.2-.8.7-2.1 2.2-2.1 2.5 0 .1-.3.3-.4.5-.2.2-.3.5-.3.5s-.3.5-.7.9c-.8 1.2-2.7 4.6-3.3 5.9-1.7 3.8-2.5 5.6-3.1 8-.6 1.9-1.4 5.1-1.4 5.3 0 .3 1.9-1.9 3.7-4.2.9-1.2 1.7-2.6 2.1-3 .3-.5 1.4-2.3 2.5-4.2L104 48c0-.1.9-1.5 1.9-3.2l2-3.2v-1.2c-.1-1.4-.4-2.5-.7-2.5zM115.8 141c.1-.8.3-1.6.4-2.2-2 2.6-3.9 5.2-5.4 7-1.9 2.1-5.7 6.2-7.8 8-.9.7-1.8 1.5-2 1.6-2.3 2.1-5.3 3.9-7.8 4.7 7.2-.1 14.5-.3 21.7-.4-.2-4.8.7-17.1.9-18.7zM56.7 98.4c-1.1 1.5-2.3 3-2.4 3.1-.1.1-.7.9-1.1 1.6-.4.7-1.6 2.3-2.4 3.5-2.1 3-5.3 7.7-7.2 10.8-1 1.5-2 3-2.1 3.2-.9 1-3.3 5.2-3.1 5.3.3.2-.1.2 4.8-.2 2.3-.2 6.1-.6 8.4-.6l4-.3.1-1c.1-.6.3-1.6.6-2.3.1-.7.4-1.7.6-2.2s.4-1.6.6-2.3c.3-.8.7-2.2 1-3.2.9-3.3 1.1-4.6 1.3-4.9.1-.1.3-.9.6-1.7.1-.7.6-2.4 1-3.6.3-1.3.6-2.7.7-3.1 0-.5.3-1.8.6-3.1.6-2.3 1.3-6.4 1.1-6.6-.4-.2-5.1 5.2-7.1 7.6zM75 40.5c-.7.7-2.1 2.2-2.6 2.7-.1.1-.4.7-.8 1.1-1.9 2.5-4.4 8-6 12.6-.6 1.8-1.5 5.2-1.5 5.8 0 .3 0 .3.9-.7.2-.2.5-.6.6-.8.1-.2.7-1 1.2-1.6.5-.7 1-1.3 1-1.3 0-.1.4-.7.8-1.3.4-.6.9-1.2.9-1.2 0-.1.4-.7.9-1.4s1-1.3 1-1.3c0-.1.4-.6.8-1.3.5-.7.9-1.2.9-1.3 0 0 .4-.5.8-1.1.4-.6.9-1.3 1.1-1.6.5-.8 1.7-2.3 2.7-3.8l1-1.3v-1.3c-.1-1.2-.3-1.9-.6-2.3-.3-.3-2 .6-3.1 1.4zM54.7 158c-.4-1.1-.9-2.9-1-3.3 0-.2 0-.7-.1-1 0-.5-.3-2.3-.3-4.4-.6-5.4-.3-11.4.7-17.7.1-.3 0-.3-3-.3-3.6.1-11.8.5-14.8.7-1.9.1-2 .1-2.4.8-.3.3-.4.8-.4.8 0 .1-1.4 2.6-4.8 8.3-1.1 2.1-2.1 3.8-2.1 3.9 0 0-1.8 3.3-2.2 3.9-.4.7-1.1 2.2-1.9 3.5-.6 1.1-1.4 2.6-1.9 3.3-.3.6-1.3 2.3-2.1 3.7-.2.3-.3.6-.5.9 5 .1 10.1.2 15.1 0 7.9-.3 15.8-.3 23.7-.3h.5c-1.3-.9-2.1-1.8-2.5-2.8zM168.4 157c-2.4-2.2-3.9-6.3-3.9-10.7v-.1c-2.7 3.7-5.4 7-7.5 9.4-2.1 2.3-3.3 3.5-4.4 4.1 5.3.1 10.6.2 15.9.4 2 .1 4 .2 6 .2-2.4-.7-5-2.1-6.1-3.3zM41.7 49.5c3.4-1.6 7-5 8.9-8.4.8-1.5 1.6-3.4 1.6-4.1v-.5l-.5.1c-3.5.8-7.8 5.7-10.8 12.6-.2.4-.4.9-.3.8.1 0 .6-.2 1.1-.5zM237.4 123.8c1.4-4.4 2.8-9.1 3.1-10.9l.3-.9-.5.4c-1.6 1.2-6.7 8.3-9.6 13.6-5 9.1-11.2 21.5-15.1 33.7 4.3-.2 8.5-.5 12.7-.7 3.8-5.4 6.4-6.8 8.6-6.9-1.2-3.2-2.5-9.3-2.6-12.2.1-4.4 1.2-10.7 3.1-16.1zM177.8 156.7c3.3-.9 8.4-5.4 12-9.9 3.1-4.3 5.2-9 6.4-15.2 1-5.4 1-10.1-.1-13.5-.7-2.1-1.8-4.1-2.3-4.1-.7 0-4.9 4.7-7.6 8.6-4.8 6.6-8.3 14.3-10.3 22.8-1.4 5.3-1.6 7.8-1 9.7.5 2.3.8 2.3 2.9 1.6zM73.6 152.4c-1.2-2.5-1.4-3.1-1.8-4.7-1-3.9.2-10.9 2.9-17.5h-3.1c-1.1 0-2.6.1-3 .1l-1 .1-.1 1.5c-.1.8-.1 1.5-.1 1.6 0 0-.1.8-.3 1.7 0 .9-.3 2.5-.4 3.6-.1 1-.6 2.8-.7 3.9-.3 1-.6 2.4-.7 3-.1.6-.1 1.3-.1 1.4-.1.3-.9 4-1 5.2-.6 3.7-.8 6.7-.7 8.3h3.1c6.4 0 12.7 0 19.1-.2-5.4-1-10.3-4.3-12.1-8z" class="st0"/><path d="M142.6 158c-.7-1-1.5-3.1-1.8-5.3-.4-2.8-.3-7.6.2-10.2.1-.9.4-2.1.5-2.8.1-.7.4-1.7.5-2.3.2-.7.5-1.5.6-1.9.1-.8 1.6-4.7 2.9-8 2-5.1 5.9-13.5 6.6-14.2.6-.6 1.3-.7 2.7-.4 1.7.4 2.8 1.1 4.2 2.5 1.2 1.1 1.2 1.3 1.1 2.3 0 1-2.4 9.1-3.7 12.9-1.3 3.7-3.2 9.9-3.5 11.1 0 .3-.7 2.4-1.4 4.6-1.4 4.5-2 6.7-2.3 8.3 0 .6-.1 1.1-.2 1.5-.2 1 3.2-2 7-6.4 3.1-3.5 5.9-7.1 9.8-12.5.2-.3.4-.5.6-.8 1.6-4.7 4-9.2 8-15.1 4.2-6.3 8.3-10.4 12.2-12.2 2.4-1.1 5.2-.7 7.5 1.1.5.5 1.5 1.1 2.2 1.6 2.9 1.7 6.2 6.1 7.1 8.9 1 3.6 1.1 9.6.1 13.1-1.9 7.4-6.7 15.8-11.5 20.5-1.9 2-3.1 2.9-4.2 3.5-.5.3-1.2.8-1.5.9-.1.2-1.4.7-2.7 1.3-.4.2-.7.4-1 .5 8.3.1 16.7-.1 25-.4-2-2.9-1.7-11.1.9-22.4 1.6-6.4 3.6-12.7 6.7-19.9.8-2.2 1.8-4.7 2.2-5.7.3-1 .7-1.8.8-2.1.6-.8 3.1-.4 4.9.7 1.4.9 1.5.6-.1 7.9-.7 3-2.8 14.1-2.7 14.1 0 0 .4-.9.7-1.7 2.2-4.6 6.1-11.3 8.6-15 2.9-4 7-8.5 9.1-9.8 1.6-1 4.8-.7 7.2.7 1.5.8 2.1 1.6 2.4 2.7.4 1 .3 4 0 7-.3 2.5-.5 3.3-.6 4.8-.1.6-.2 1.4-.2 1.8-.1.4-.3 1.8-.4 3.1 0 1.3-.2 3.4-.4 4.9-.1 1.4-.3 3.1-.3 3.5-.5 6.1-.8 7.9-1.5 11.5-.8 3.6-1.1 5.6-.8 6.7 1.1-.2 2.4-.7 3.8-1.8 1.6-1.3 3.9-.4 5.8-.9 6.8-1.8 8.3-9.6 13.4-13.5 2.3-2 4.9-3.6 8-3.6 2.1-.2 2.9-2.6 3.9-4.1.2-.4.1-.9-.1-1.2-3.5-5.2-8.7-9-13.3-13.1-1.7-1.3-3.4-2.7-4.8-4.2 0-1.2.3-2.4.1-3.6-.4-2.8-3.7-2.5-4.8-4.6-.2-3-1.2-7.2 1.3-9.5 6.7-4.8-.3-7 .3-11.8 1.3-3.9 4.8-6.8 6.4-10.6 2.5-4.2 2.1-9.7 6.5-12.8 7.3-9.4-6.1-9.4-10.6-14.4-2.6-2.7-2.9-6.9-3.3-10.5-.6-11.6-3.4-8.2-11.5-12.3-2-1.2-2.8-3.7-3.8-5.7-3.9-.5-8.3.4-12.4.3-17.8.4-35.6 1.5-53.3 2.2-9.2.2-18.4-1-27.6-.2-24 .4-48.1-.5-72.1-.8-9.6-.1-19.1.8-28.7.6-1.9-.3-3.8.1-5.7 0-.5-.3-.2-1.1-.4-1.6-3-20 3.1-16.7-12.6-10.1-6.7 2.8-13.5 5.7-19.7 9.5C7 16.1 2.1 17.5 2.3 20c-.5 11.9.6 23.7 0 35.5-.3 6.9-.2 13.8-.2 20.7C2 83.1 2 90.1 2 97v20.8c0 6.9-.1 13.9-.3 20.8-.1 3.4-.2 6.9-.4 10.3-.1 2.8-.1 5.5-.2 8.3 0 .9-.3 2.2.2 3 .6.8 1.9.8 2.8.8h6.4c.2-.9.6-2.2 1.3-3.5.3-.7 1.1-2.3 1.6-3.6.6-1.3 1.3-2.8 1.6-3.2.3-.5 2.2-4.2 2.8-5.3.4-.9 1.1-2.5 1.9-3.7.6-1.1 1.3-2.8 1.7-3.6.4-.8 1.3-2.3 1.9-3.3.4-.9.9-1.7.7-1.8-.1-.1-2.1.2-6.5 1-1.4.2-2.7.3-3 .2-1-.1-1.4-1.1-1.6-2.9 0-2.4-.6-2.2 11.1-3.7 3.3-.5 3.3-.5 3.7-1 .3-.7 8.5-13.9 9.7-15.8.4-.7 1.6-2.4 2.6-3.8 1-1.5 2.3-3.2 2.7-4 .6-.7 1.4-1.8 1.7-2.4.9-1.1 3.7-5.2 3.8-5.3.1-.1 1.3-1.4 2.6-3s2.4-3 2.7-3.2c.3-.2 1.3-1.1 2.3-2.3 2.7-2.5 3.7-3.3 5.4-4.4 1.3-.6 1.6-.7 2.8-.7 1.6 0 2.3.2 4.4 1.5 1.7.9 2.6 1.7 3.4 3.1.6 1.4.9 4.8.3 9.1-.1 1.7-.6 4.3-.7 5.8-.4 5.1-1.7 15.2-2 17.8-.3 1.5-.4 3.5-.6 4.3l-.1 1.5 4.1.1c1.2 0 3 .1 4.8.1 3.1-6 6.5-10.4 10.4-13.4 1.9-1.5 5.4-3.7 6.6-4.2 3.8-1.3 7.6-.7 11.2 1.9 1.6 1.3 2.8 2.6 3.1 4.7.4 2.6-.2 5.3-.9 7.8 0 .1-2.9 8-4.2 8.5-1.3.4-4.2-.2-4.5-1-.2-.6.5-1.5.8-2 .3-.7.6-1.5.9-2.2l1.5-4.5c.6-1.8 1.4-3.8 1.5-5.8.1-1.6.1-1.9-.4-2.9l-.5-1-1.1.2c-1.5.4-3.4 1.5-4.9 3-3 2.9-7.4 10.2-9.1 14.8-3.7 10.4-4.6 23.6-2 26.9.3.3.3.3 1.9 0 1.7-.5 4.3-1.8 7-3.6.9-.7 1.8-1.4 1.9-1.4 0-.1.5-.5 1-.8.9-.8 4.1-3.5 4.3-3.6 0-.1.8-.8 1.8-1.7 2.9-2.7 6.3-6.1 8.6-8.9.8-1 6.1-8.1 8-11v-.2c.3-.7.7-2.2 1-3.2.8-2.4 2.2-5.9 3.1-8.5.5-1.1 1.1-2.5 1.2-3 .4-.9 1.3-3 1.9-4.3-4.7.4-9.4 1-14 1.4-2 .2-3.1-2.3-2.5-4.6.4-1.5 2.1-1.6 3.2-1.7 5.3-.4 10.7-.7 16-.9v-.1c1.1-2.8 2.3-6.1 2.6-7 .1-.5.5-1.6.8-2.5.7-1.6.7-1.6 1.6-1.6 2.6 0 6.7 3.8 6.2 5.8-.1.4-.7 2-1.2 3.6-.2.6-.3 1.2-.5 1.7h1.9c2 .1 5.4-.7 5.4 2.7 0 2.6.3 2.4-5.8 2.4-1.1 0-2.3 0-3.4.1v.2c-.1.3-.3 1.1-.5 1.8-.3.7-.8 2.4-1.2 3.8-.4 1.4-1 3.2-1.2 3.9-.8 2.4-2 7.3-2.2 7.9-.1.5-.1.9-.3 1.3-.1.9-1.5 5.8-2.9 10.9-.8 2.8-1.5 5.8-1.8 6.6-.3 1.5-.8 3-1.9 6.3-.7 2.6-1.7 8.3-2.4 12.1 7.2-.1 14.5-.1 21.7-.1-1.3-.5-2.2-1.2-2.7-1.6zm75.9-127.9.7-.9h.7c.7.1 1.7.7 2 1.4.2.4.2.4-.5 2.6-.9 2.9-1.1 3.4-1.7 3.6-.2.2-.4.2-.4.2l-.4-.2c-.5-.1-1.4-.7-1.8-1.1-.3-.4-.6-1-.6-1.5 0-.4 1.1-2.6 2-4.1zm-12.9 29.7c.1-.7.2-1.5.3-2s.2-1.2.3-1.6c.2-.5.3-1.1.4-1.3.1-.6 1.1-3.4 2-5.7 1.4-3.6 4-9.6 4.5-10.1.4-.4.9-.5 1.8-.2 1.1.3 1.9.8 2.8 1.8.8.8.8.9.7 1.6 0 .7-1.6 6.5-2.5 9.2-.9 2.6-2.2 7.1-2.4 7.9 0 .2-.5 1.7-1 3.3-1 3.2-1.4 4.8-1.6 5.9 0 .4-.1.8-.2 1.1-.2.7 2.1-1.4 4.8-4.5 2.1-2.5 4-5 6.7-8.9 2.2-3.3 3-4.6 3.8-6 1.1-2.7 2.3-5.5 3.9-8.5.7-1.5 1.5-3.1 1.8-3.8.2-.7.6-1.2.7-1.4.4-.5 1.9 0 2.9 1 .7.7.8.6-.7 5.6-.7 2-2.9 9.7-2.8 9.7 0 0 .3-.6.6-1.1 1.7-3 4.6-7.4 6.4-9.8 2-2.5 4.9-5.3 6.2-6 1.1-.6 3 0 4.3 1.2.8.7 1.1 1.3 1.2 2.1.2.7-.2 2.9-.6 4.9-.4 1.7-.6 2.3-.7 3.4-.1.4-.2 1-.2 1.2-.1.2-.3 1.2-.5 2.1-.1.9-.4 2.4-.7 3.4-.2 1-.4 2.1-.5 2.5-.8 4.3-1.1 5.5-1.9 8-1.1 3.5.5 4.1-.7 6.6-1.1.8-3.8-.7-4.3-2.3-.6-1.9-1-7.4-.7-9.8.4-3.1 1.6-7.5 3.2-11.1 1.2-3 2.5-6.2 2.8-7.4l.2-.6-.3.2c-1.1.7-4.7 5.2-6.9 8.6-3.8 5.9-8.5 14.1-11.9 22.3-.6 1.6-.8 1.6-2.5 1.1-1.1-.2-1.7-.7-2.1-1.4-.9-1.5-.7-5.3.7-10.7-2.3 3.4-4.7 6.6-6.5 8.6-2.7 3-3.2 3.4-5.1 3.5-1 0-1.4 0-2-.2-.9-.3-2.1-1.1-2.5-1.6-.5-.7-1-2.2-1.1-3.8-.5-1.7-.4-5.1-.1-7zM174 100c-1.9.7-3.8 1.1-6 1.5-.1 2.5-.3 5-1 7.4-.1.5-.9.4-1.2.1-1.8-1.9-3-4-4.1-6.2-.2.1-3.7 1.6-5.5 1.8-.7.1-1-.6-.8-1 1.3-2 2.7-3.9 4.2-5.8-.6-1.6-2.2-5-1.7-5.5.1-.1.3-.2.6-.1 1.6.3 3.2.9 4.7 1.5 1.1-1.2 2.2-2.3 3.4-3.4.4-.4 1.4-.1 1.3.5-.1 1.7-.1 3.3 0 5 2 1 4 2.1 5.8 3.3.4.2.6.8.3.9zm-1.9-34.3c.1.2.3.6.6.9.3.4.5.4 1.4.5 1.6.1 3.4-.5 4.7-1.9.9-.9 1.2-1.6 1.3-2.5 0-.7-.4-1.8-.7-1.9-.1-.1-.3-.4-.5-.6-.5-.6-1.6-1.8-2.6-2.7-.4-.5-1.3-1.5-1.9-2.2-1.5-2-1.7-2.7-2-4.7-.3-2.4.2-4.6 1.7-7.2 2-3.3 4.3-5.6 7.4-7 2.7-1.2 6.1-1.1 8.5.2l.6.4c.3 0 1.4.9 1.7 1.4 1 1.6 1 3.9-.2 6.6-.5 1.2-1.9 3.5-3 4.7-.5.5-.7.7-1 .7-.5 0-1.9-.7-2-1-.1-.1.1-.3.3-.5.5-.4 1.6-2.5 2-3.6.1-.5.3-.9.4-1.1.3-.5.6-2.2.7-3.5.1-.9 0-1.3-.2-1.8-.3-.7-.5-.8-2-.1-1.8.7-3.4 2.3-5.6 5.6-2.3 3.4-3 8.3-1.5 11.4.3.8.8 1.3 1.9 2.5 1.8 1.9 3.3 3.9 3.6 4.9.3.9.3 2.2 0 3.2-.3.9-1.2 2.1-1.5 2.1-.1 0-.3.2-.7.5-.3.3-.9.5-1.2.6-.3.2-.6.2-.7.3-.2.2-2.8.4-3.2.4-.2 0-.8-.1-1.3-.2-2.1-.2-5.5-1.2-6.8-1.9-1.1-.6-2-1.5-2.2-2.3-.2-.4-.3-.9-.3-.9.3-.5 1.8-.5 3.1.1.7.1 1 .2 1.2.6zM47.6 80.4c-.2.2-.4.2-1 0-1.2-.5-3-.6-7.2-.5-4.3.2-12.2 1.2-13.2 1.7-.2.1-1.4.4-2.5.5-4.1.8-7 1.5-10.1 2.4-1.1.3-1.8.4-2.7-.2-.9-.5-1.6-1.4-2.3-2.5-.3-.7-.5-1.6-.4-2-.1-.8 3.3-19.8 4.9-27.7l.2-.6c.1-.1.4-1.4.8-2.8.7-2.5 1.5-5.6 1.9-6.6.3-.8.6-1.8 1-3.3.7-2.6 1.4-4.5 3.7-10.9.6-1.5 1.2-3.4 1.6-4.3.3-.9.6-1.8.7-2.2.4-.9 1.3-3.9 1.5-4.6.1-.2.3-.6.4-1 .3-.5.4-.5 1.2-.5 1.4 0 3.6 1.4 4.1 2.5.3.7.5 1.6.3 1.8-.1.1-.2 1-.5 1.8-.1 1-.6 2.5-.7 3.4-.2 1-.6 2.5-.8 3.3-.2 1-.5 2.1-.7 2.7-.1.5-.2 1-.2 1.1 0 0-.1.5-.2 1.1-.3 1.6-1.5 7.5-1.8 8.8-.2.7-.5 2.3-.7 3.4-.2 1.2-.4 2.2-.5 2.3 0 .1-.1.3-.1.5-.1.1-.3.8-.3 1.3-.6 3.3-1.8 8.5-2.5 11.2-.6 2.2-2 7.9-2.7 11.1-.2 1-.6 2.9-.8 4-.1.6-.1 1.1-.2 1.6 1.3-.2 2.6-.5 3.9-.9.4 0 1-.1 1.8-.2 4.3-.8 6.3-1 11.4-1.1 8.2-.3 10.6.3 12.4 2.6.4 1.1.8 2.4.3 2.8zm34.6-27c-1.1 3.1-1.4 4-1.8 5.1-.3.7-.7 2-1.1 3-.4 1-.8 2.1-1.1 2.5-.2.4-.4 1.2-.6 1.7-.2.8-.2.9.1 1 .2.1.4.3.5.5.3.3.3.4 0 .7-.6.8-1.1.8-2.4.4-1.8-.6-2.6-1.4-3.1-3.4-.4-1.9-.4-4.4.1-6.2.2-.8.4-1.5.4-1.6.1-.1-.2.1-.6.7-.4.5-.6 1-.6 1s-1.9 2.7-2.9 3.9c-.4.6-1 1.3-1.1 1.5-.2.2-.6.8-1.1 1.2l-1 1c-.3.4-2 1.7-2.4 1.9-.6.3-2 .4-2.7.2-.9-.3-2.5-1-3-1.4-.7-.6-1.8-2-1.9-2.9-.4-1-.2-3 .4-5 .2-.6.4-1.4.7-2.2-.2.2-.5.5-.9.8-6.8 6.4-10.1 8.7-13.7 9.3-1.1.2-1.7.2-2.3.1-1.7-.2-2.2-.4-3.1-.7-1.2-.4-2.7-1.4-3.5-2.2-.7-.7-1.8-2.2-2-3.1-1.6-5.2.4-12.6 5.1-19.2 2.9-4.2 6.4-7 10.2-7.9 2.6-.8 5-.2 7.2 1.5 1.9 1.4 2.2 2.9 1.1 5.5-1.6 4-4.9 7.8-9 10.6-1.9 1.3-4.6 1.9-6.4 1.3l-.6-.2-.2.4c-.1.2-.3.9-.4 1.5-.1.6-.3 1.2-.4 1.3-.1.6-.4 2.9-.6 3.8.5 1.2.5 3.1.8 3.7.2.6.2.7.6.7 1.5-.1 6.4-2.6 10.5-5.3 2.1-1.3 4.4-3.3 8.3-7 1.2-1.1 2.2-2 2.9-2.8.3-.4.5-1 .6-1.1.4-.9 2.8-4.4 4.4-6.2.4-.4 1-1.1 1.3-1.5.9-1 3.3-3.1 4.3-3.7 1.1-.7 2.5-1.3 3-1.3.2 0 .4-.1.4-.1 0-.1 1.3-.1 1.4 0 .1.1.4.1.6.2.6.1 1.9.8 2.9 1.4.4.3 1 .9 1.3 1.5l.7.9.7-.6c.4-.3.7-.5.9-.5.1 0 .3-.2.5-.5.3-.4.4-.4.9-.4.9.1 2.1 1 2.6 1.7.5.8.5.8.3 1.6-.1.4-.6 1.6-1.1 2.8-1.2 2.5-3 7-4.1 10.1zm31.1-1.2c-1.2 5.3-1.5 6.2-2.2 8.9-1 2.8-1.6 7.9-1 8.3.3.3.2.8-.3.9-.5.2-.7.2-1.4 0-.9-.2-1.8-.7-2.3-1.2-1-.9-1.2-2.2-1.2-7.2 0-3.4.2-5.6.6-8 .2-.8.3-1.5.3-1.5s-1 1.5-2.4 4c-.5.9-1.2 2-1.4 2.4-.8 1.2-1.4 2.3-2.8 4.6-2 3.4-3.5 5.2-5.2 5.9-1.6.7-5.1 0-6.5-1.5-.3-.4-.6-.7-.6-.9 0-.1-.1-.2-.2-.4-.3-.5-.6-1.5-.8-2.8-.3-1.6 0-3.3.9-6.4 1.8-6.2 4.2-11.3 7.4-15.6.5-.7.9-1.2.9-1.3 0-.2 3-3.1 4.2-4 .9-.5 2.3-1.3 2.9-1.5.1 0 .3-.1.6-.2.6-.2 2.5-.2 3.5.2 1.5.5 2.9 1.2 3.5 1.8.5.5.7.5.8.5.4-.6 1.5-2.4 1.9-3.7 1.1-2.7 3.8-8.5 4.7-9.7.9-1.4 1.2-1.7 1.8-1.8 1.1-.2 3.6 1.3 3.6 2.1 0 .3-.7 1.9-2.8 6.7-1.2 2.7-3 7.8-3.8 10.4-.9 2.8-1.3 4.8-2.7 11zm33 17.4c-.3.2-1.8.5-2 .4 0-.1-.3-.1-.7-.2-1.8-.2-2.6-.8-2.9-2.1-.2-.9-.1-4.3.3-5.8.1-.5.2-1.2.5-2 0 0-.1 0-.1.1-6.7 6.6-9.9 9-13.4 9.6-1.1.2-1.6.2-2.2.1-1.6-.2-2.2-.4-3-.7-1.2-.5-2.7-1.5-3.5-2.3-.7-.7-1.7-2.2-2-3.2-1.6-5.3.3-13 5-19.9 2.9-4.3 6.3-7.2 10-8.2 2.5-.8 4.9-.2 7.1 1.5 1.9 1.5 2.2 3 1.1 5.6-1.6 4.1-4.8 8.1-8.8 11-1.9 1.4-4.5 1.9-6.2 1.4l-.6-.2-.2.5c-.1.2-.3.9-.3 1.5-.1.6-.3 1.2-.3 1.4-.1.6-.4 3-.6 3.9-.1 1.3-.1 3.2.2 3.9.2.6.2.7.6.7 1.5-.2 6.3-2.7 10.3-5.5 2.1-1.4 4.3-3.4 8.1-7.3.3-.3.7-.6 1-.9.2-.7.4-1.3.7-1.9.3-1.1 2-4.9 3.1-7.4.4-.8.7-1.5.7-1.6 0-.1.3-.8.7-1.5.3-.8 1-2.2 1.6-3.2.9-2.1 1.1-2.4 2-2.2 1 .2 2.2.9 2.8 1.5.6.8.6.8-.9 5.3-.6 1.8-.9 2.7-.8 2.8 0 0 .2-.2.3-.5 1-1.8 4-5.3 5.5-6.6.3-.2.5-.4.5-.5 0 0 .5-.5 1-.9 2-1.2 3.4-1.4 5.5-.4 1.6.7 2.2 1.3 2.9 2.9.4 1 .4 1.2.4 2.9 0 2.7-.2 5.9-.4 6.1-.5.4-1.7 0-2.7-.9-.8-.6-.9-.9-1.1-3.9-.2-.9-.3-1.7-.3-1.9-.1-.1-.1-.8-.1-1.5 0-1.1-.1-1.4-.3-1.4-.6 0-3.6 2.7-4.8 4.2-.3.5-1 1.2-1.3 1.7-1.1 1.5-3.8 5.6-5.4 8.4-1.9 3.2-4.7 9.4-5 11.1-.5 1.7-1.8 6-2 6.1z" class="st0"/><path d="M126.8 51.6c3.3-1.6 6.8-5.2 8.7-8.7.8-1.5 1.6-3.6 1.6-4.2v-.5l-.5.2c-3.5.8-7.6 5.9-10.6 13-.2.5-.3.9-.3.9.2-.2.6-.4 1.1-.7z" class="st0"/><path d="M34.6 75c-5.1.1-7.2.3-11.4 1.1-.7.1-1.4.2-1.8.2-1.3.4-2.6.6-3.9.9.1-.5.2-1.1.2-1.6.2-1.2.5-3.1.8-4 .7-3.2 2.2-8.8 2.7-11.1.8-2.7 1.9-7.9 2.5-11.2.1-.5.2-1.2.3-1.3 0-.2.1-.4.1-.5.1-.1.2-1.2.5-2.3.2-1.1.6-2.7.7-3.4.2-1.4 1.4-7.2 1.8-8.8.2-.5.2-1.1.2-1.1 0-.1.2-.5.2-1.1.2-.5.4-1.7.7-2.7.3-.9.6-2.3.8-3.3.2-1 .6-2.5.7-3.4.3-.9.4-1.7.5-1.8.2-.2 0-1.1-.3-1.8-.5-1-2.8-2.4-4.1-2.5-.8-.1-.9-.1-1.2.5-.2.3-.4.8-.4 1-.2.7-1.1 3.7-1.5 4.6-.1.4-.4 1.4-.7 2.2-.4.9-1 2.8-1.6 4.3-2.4 6.4-3.1 8.4-3.7 10.9-.4 1.5-.8 2.6-1 3.3-.3 1.1-1.2 4.2-1.9 6.6-.3 1.4-.7 2.7-.8 2.8l-.2.6C11.2 60 7.8 79 8 79.8c-.1.4.1 1.3.4 2 .6 1.1 1.4 2 2.3 2.5.9.5 1.6.5 2.7.2 3.1-.9 6-1.6 10.1-2.4 1.2-.1 2.3-.4 2.5-.5 1-.4 8.9-1.5 13.2-1.7 4.2-.2 6-.1 7.2.5.6.3.8.3 1 0 .5-.4.1-1.8-.6-2.8-1.6-2.3-4-2.9-12.2-2.6z" class="st1"/><path d="M87.5 40.4c.3-.8.3-.8-.3-1.6-.5-.8-1.8-1.6-2.6-1.7-.5-.1-.6-.1-.9.4-.3.3-.4.5-.5.5-.2 0-.5.2-.9.5l-.7.6-.7-.9c-.4-.6-1-1.2-1.3-1.5-1-.7-2.3-1.3-2.9-1.4-.3-.1-.5-.1-.6-.2-.1-.1-1.4-.1-1.4 0s-.2.1-.4.1c-.5 0-1.9.6-3 1.3-1.1.6-3.4 2.7-4.3 3.7-.4.4-1 1.1-1.3 1.5-1.6 1.8-4.1 5.3-4.4 6.2-.1.1-.4.7-.6 1.1-.8.7-1.7 1.6-2.9 2.8-3.9 3.7-6.2 5.7-8.3 7-4.1 2.7-9 5.2-10.5 5.3-.4 0-.4-.1-.6-.7-.4-.6-.4-2.4-.3-3.7.2-.9.5-3.2.6-3.8.1-.1.3-.8.4-1.3.1-.6.3-1.3.4-1.5l.2-.4.6.2c1.8.5 4.4 0 6.4-1.3 4.1-2.8 7.4-6.7 9-10.6 1.1-2.5.8-4-1.1-5.5-2.2-1.7-4.7-2.2-7.2-1.5-3.8 1-7.3 3.7-10.2 7.9-4.8 6.7-6.7 14.1-5.1 19.2.3.9 1.3 2.4 2 3.1.8.8 2.3 1.8 3.5 2.2.9.3 1.4.4 3.1.7.6.1 1.1.1 2.3-.1 3.5-.6 6.9-2.9 13.7-9.3.3-.3.6-.6.9-.8-.3.8-.5 1.6-.7 2.2-.6 2-.8 4-.4 5 .2.9 1.2 2.3 1.9 2.9.5.4 2.1 1.1 3 1.4.7.1 2.1.1 2.7-.2.4-.1 2.1-1.5 2.4-1.9.1-.1.5-.6 1-1 .4-.4.9-1 1.1-1.2.1-.2.6-.9 1.1-1.5 1-1.2 2.9-3.8 2.9-3.9 0-.1.3-.5.6-1 .4-.5.7-.8.6-.7 0 .1-.3.9-.4 1.6-.5 1.8-.5 4.3-.1 6.2.5 2 1.3 2.8 3.1 3.4 1.3.4 1.8.4 2.4-.4.3-.2.3-.4 0-.7-.1-.2-.4-.4-.5-.5-.3-.1-.3-.1-.1-1 .2-.5.4-1.3.6-1.7.3-.4.7-1.6 1.1-2.5.4-1 .8-2.3 1.1-3 .4-1 .6-1.9 1.8-5.1 1.1-3.1 2.9-7.6 4.1-10.2 0-1 .5-2.3.6-2.7zm-46.6 8.8c3-6.9 7.2-11.8 10.8-12.6l.5-.1v.5c0 .7-.8 2.6-1.6 4.1-1.9 3.4-5.6 6.8-8.9 8.4-.5.3-1 .5-1.1.5 0 .1.1-.4.3-.8zm37.7-6.5-1 1.3c-1.1 1.5-2.2 3.1-2.7 3.8-.2.3-.6 1-1.1 1.6-.4.6-.8 1.1-.8 1.1 0 .1-.4.6-.9 1.3-.4.7-.8 1.2-.8 1.3 0 0-.4.7-1 1.3-.4.8-.9 1.3-.9 1.4 0 0-.4.6-.9 1.2-.4.6-.8 1.2-.8 1.3 0 0-.4.6-1 1.3-.5.6-1.1 1.3-1.2 1.6-.1.1-.4.5-.6.8-.9 1-.9 1-.9.7 0-.5.9-4 1.5-5.8 1.6-4.6 4.1-10 6-12.6.4-.4.7-1 .8-1.1.4-.5 1.9-2 2.6-2.7 1.1-.8 2.8-1.7 3-1.4.4.4.5 1.1.6 2.3l.1 1.3zM122.5 24.2c0-.8-2.5-2.2-3.6-2.1-.6.1-1 .4-1.8 1.8-.9 1.2-3.5 7-4.7 9.7-.4 1.3-1.5 3.1-1.9 3.7-.1.1-.3 0-.8-.5s-2-1.3-3.5-1.8c-1-.3-2.9-.4-3.5-.2-.3.1-.5.2-.6.2-.6.2-2.1.9-2.9 1.5-1.2.9-4.2 3.8-4.2 4 0 .1-.3.6-.9 1.3-3.2 4.3-5.5 9.4-7.4 15.6-.9 3.1-1.1 4.8-.9 6.4.2 1.2.5 2.2.8 2.8.1.2.2.3.2.4 0 .2.3.5.6.9 1.4 1.5 4.9 2.2 6.5 1.5 1.6-.8 3.2-2.6 5.2-5.9 1.4-2.2 2-3.3 2.8-4.6.2-.4.9-1.5 1.4-2.4 1.5-2.6 2.4-4 2.4-4 0 .1-.1.8-.3 1.5-.4 2.4-.6 4.6-.6 8 0 5 .3 6.3 1.2 7.2.5.5 1.5 1 2.3 1.2.7.2.9.2 1.4 0 .5-.2.7-.6.3-.9-.5-.5.1-5.6 1-8.3.8-2.7 1-3.6 2.2-8.9 1.4-6.2 1.8-8.2 2.6-10.8.8-2.6 2.6-7.7 3.8-10.4 2.2-5 2.9-6.6 2.9-6.9zm-14.7 17.5-2 3.2c-1 1.7-1.9 3.2-1.9 3.2l-2.2 3.3c-1.1 1.9-2.2 3.7-2.5 4.2-.3.5-1.2 1.9-2.1 3-1.8 2.3-3.7 4.6-3.7 4.2 0-.2.8-3.4 1.4-5.3.6-2.4 1.4-4.2 3.1-8 .6-1.3 2.5-4.6 3.3-5.9.3-.5.7-.9.7-.9 0-.1.2-.3.3-.5.2-.2.4-.5.4-.5 0-.2 1.3-1.8 2.1-2.5.9-.7 1.9-1.2 2.4-1.2.3 0 .6 1.2.6 2.6l.1 1.1zM153.2 52.6c1.6-2.8 4.2-7 5.4-8.4.3-.5 1-1.2 1.3-1.7 1.1-1.5 4.2-4.2 4.8-4.2.2 0 .3.3.3 1.4 0 .8 0 1.5.1 1.5 0 .2.1.9.3 1.9.3 3 .3 3.3 1.1 3.9 1 .9 2.2 1.2 2.7.9.3-.2.4-3.4.4-6.1 0-1.7 0-1.9-.4-2.9-.6-1.5-1.2-2.2-2.9-2.9-2.2-1-3.5-.9-5.5.4-.5.4-1 .9-1 .9 0 .2-.3.4-.5.5-1.5 1.3-4.5 4.9-5.5 6.6-.2.2-.3.5-.3.5-.1-.1.2-1 .8-2.8 1.5-4.6 1.5-4.6.9-5.3-.5-.6-1.8-1.4-2.8-1.5-.9-.2-1.1.2-2 2.2-.5 1-1.2 2.5-1.6 3.2-.3.8-.7 1.5-.7 1.5 0 .1-.3.9-.7 1.6-1.1 2.6-2.8 6.3-3.1 7.4-.2.6-.4 1.2-.7 1.9-.3.3-.6.6-1 .9-3.8 3.9-6.1 5.9-8.1 7.3-4 2.8-8.8 5.3-10.3 5.5-.4 0-.4-.1-.6-.7-.3-.7-.3-2.6-.2-3.9.2-.9.5-3.3.6-3.9.1-.2.3-.8.3-1.4.1-.6.3-1.3.3-1.5l.2-.5.6.2c1.7.5 4.3 0 6.2-1.4 4.1-2.9 7.3-6.9 8.8-11 1-2.6.8-4.2-1.1-5.6-2.2-1.8-4.6-2.3-7.1-1.5-3.7 1-7.2 3.9-10 8.2-4.7 6.9-6.6 14.5-5 19.9.3.9 1.3 2.5 2 3.2.8.9 2.2 1.9 3.5 2.3.9.3 1.4.5 3 .7.6.2 1.1.2 2.2-.1 3.5-.6 6.8-3 13.4-9.6 0 0 .1 0 .1-.1-.2.8-.4 1.5-.5 2-.3 1.5-.4 4.9-.3 5.8.3 1.3 1.1 1.9 2.9 2.1.3.1.7.1.7.2.2.2 1.7-.2 2-.4.3-.2 1.6-4.5 1.9-5.9.4-1.9 3.2-8.1 5.1-11.3zm-27.1-1.3c2.9-7.1 7.1-12.2 10.6-13l.5-.2v.5c0 .7-.8 2.7-1.6 4.2-1.9 3.5-5.5 7-8.7 8.7-.5.3-1 .5-1 .5-.2.2 0-.3.2-.7zM167.8 64.8c0 .1.1.5.3.9.3.8 1.1 1.7 2.2 2.3 1.3.8 4.7 1.8 6.8 1.9.5.1 1.1.2 1.3.2.4 0 3-.2 3.2-.4.1-.1.4-.2.7-.3.3-.1.9-.3 1.2-.6.3-.2.6-.5.7-.5.3 0 1.1-1.2 1.5-2.1.3-.9.3-2.2 0-3.2s-1.8-3-3.6-4.9c-1.1-1.2-1.6-1.7-1.9-2.5-1.6-3.1-.9-8 1.5-11.4 2.2-3.2 3.8-4.9 5.6-5.6 1.5-.7 1.6-.6 2 .1.2.5.3.9.2 1.8-.1 1.2-.4 3-.7 3.5-.1.2-.3.6-.4 1.1-.4 1.1-1.5 3.2-2 3.6-.2.2-.3.5-.3.5.1.3 1.5 1 2 1 .3 0 .5-.2 1-.7 1.1-1.2 2.5-3.5 3-4.7 1.1-2.6 1.2-4.9.2-6.6-.3-.5-1.5-1.4-1.7-1.4l-.6-.4c-2.4-1.3-5.8-1.4-8.5-.2-3 1.4-5.4 3.7-7.4 7-1.6 2.6-2.1 4.8-1.7 7.2.3 2 .5 2.7 2 4.7.6.8 1.5 1.8 1.9 2.2 1 .9 2.1 2.1 2.6 2.7.2.2.4.5.5.6.3.2.7 1.2.7 1.9-.1.9-.4 1.6-1.3 2.5-1.3 1.4-3 2-4.7 1.9-.9-.2-1-.2-1.4-.5-.3-.2-.5-.6-.6-.9-.2-.4-.4-.5-1.1-.9-1.4-.3-2.9-.3-3.2.2zM218.8 36.9l.4.2.4-.2c.6-.2.8-.7 1.7-3.6.7-2.2.7-2.2.5-2.6-.3-.7-1.3-1.3-2-1.4h-.7l-.7.9c-.9 1.5-2 3.7-2 4.2s.2 1.1.6 1.5c.4.3 1.3.9 1.8 1zM206.6 70.9c.4.5 1.6 1.3 2.5 1.6.6.2 1 .2 2 .2 1.9-.2 2.4-.5 5.1-3.5 1.8-2.1 4.2-5.3 6.5-8.6-1.3 5.3-1.6 9.2-.7 10.7.4.7 1.1 1.1 2.1 1.4 1.7.4 2 .4 2.5-1.1 3.4-8.2 8.1-16.4 11.9-22.3 2.2-3.4 5.8-8 6.9-8.6l.3-.2-.2.6c-.3 1.2-1.6 4.4-2.8 7.4-1.6 3.6-2.8 8-3.2 11.1-.2 2.4.2 7.9.7 9.8.5 1.6 3.1 3.1 4.3 2.3 1.3-2.4-.4-3 .7-6.6.7-2.5 1.1-3.7 1.9-8 .1-.3.3-1.5.5-2.5.2-1.1.6-2.5.7-3.4.2-.9.4-1.9.5-2.1 0-.2.2-.8.2-1.2.2-1.1.3-1.6.7-3.4.4-2 .7-4.2.6-4.9-.1-.8-.4-1.4-1.2-2.1-1.3-1.2-3.2-1.8-4.3-1.2-1.3.7-4.2 3.4-6.2 6-1.8 2.4-4.7 6.7-6.4 9.8-.2.6-.6 1.1-.6 1.1-.1 0 2.1-7.6 2.8-9.7 1.6-5 1.5-4.8.7-5.6-1-1-2.5-1.5-2.9-1-.1.2-.4.7-.7 1.4-.3.7-1.1 2.3-1.8 3.8-1.5 3-2.8 5.7-3.9 8.5-.8 1.4-1.6 2.7-3.8 6-2.6 3.9-4.5 6.4-6.7 8.9-2.6 3.1-4.9 5.3-4.8 4.5.1-.2.2-.7.2-1.1.2-1.1.6-2.7 1.6-5.9.5-1.6 1-3 1-3.3.2-.8 1.5-5.3 2.4-7.9.9-2.7 2.5-8.5 2.5-9.2.1-.7.1-.8-.7-1.6-.9-1-1.6-1.5-2.8-1.8-.9-.2-1.4-.2-1.8.2-.5.5-3.1 6.5-4.5 10.1-.9 2.3-1.9 5.1-2 5.7-.1.2-.2.8-.4 1.3-.1.4-.2 1.1-.3 1.6s-.2 1.3-.3 2c-.3 1.9-.4 5.3-.2 7.3.4 1.3.9 2.8 1.4 3.5zM127.6 141.2c.3-.8 1-3.8 1.8-6.6 1.4-5.2 2.7-10 2.9-10.9.1-.3.1-.8.3-1.3.1-.7 1.4-5.5 2.2-7.9.3-.7.8-2.5 1.2-3.9.4-1.4 1-3.1 1.2-3.8.3-.7.4-1.5.5-1.8v-.2c1.1 0 2.3-.1 3.4-.1 6.1 0 5.8.1 5.8-2.4 0-3.4-3.3-2.7-5.4-2.7h-1.9c.1-.5.3-1.1.5-1.7.5-1.6 1.1-3.2 1.2-3.6.4-2-3.7-5.8-6.2-5.8-1 0-1 0-1.6 1.6-.3.9-.7 2-.8 2.5-.3.9-1.5 4.2-2.6 7v.1c-5.3.2-10.7.5-16 .9-1.1.1-2.8.2-3.2 1.7-.7 2.3.5 4.7 2.5 4.6 4.7-.4 9.3-.9 14-1.4-.6 1.3-1.4 3.4-1.9 4.3-.1.5-.7 1.8-1.2 3-1 2.6-2.3 6.1-3.1 8.5-.3 1-.7 2.5-1 3.2v.2c-2 2.9-7.2 10.1-8 11-2.3 2.9-5.7 6.3-8.6 8.9-1 .9-1.8 1.6-1.8 1.7-.3.1-3.4 2.8-4.3 3.6-.5.3-1 .7-1 .8-.1 0-1 .7-1.9 1.4-2.7 1.8-5.3 3.1-7 3.6-1.6.4-1.6.4-1.9 0-2.6-3.3-1.7-16.5 2-26.9 1.6-4.6 6.1-11.8 9.1-14.8 1.5-1.5 3.5-2.6 4.9-3l1.1-.2.5 1c.5.9.5 1.3.4 2.9-.2 1.9-.9 3.9-1.5 5.8-.5 1.5-.9 3-1.5 4.5-.3.7-.6 1.5-.9 2.2-.3.6-1 1.4-.8 2 .3.8 3.2 1.4 4.5 1 1.3-.4 4.2-8.4 4.2-8.5.7-2.4 1.4-5.2.9-7.8-.3-2.1-1.5-3.4-3.1-4.7-3.6-2.6-7.4-3.2-11.2-1.9-1.2.5-4.7 2.7-6.6 4.2-3.9 3-7.3 7.4-10.4 13.4-1.8 0-3.6-.1-4.8-.1l-4.1-.1.1-1.5c.1-.8.3-2.8.6-4.3.3-2.6 1.6-12.8 2-17.8.1-1.5.6-4 .7-5.8.6-4.3.3-7.7-.3-9.1-.9-1.4-1.7-2.2-3.4-3.1-2.1-1.3-2.8-1.5-4.4-1.5-1.3 0-1.6.1-2.8.7-1.7 1-2.7 1.8-5.4 4.4-1 1.1-2 2.1-2.3 2.3-.3.2-1.4 1.6-2.7 3.2-1.3 1.6-2.4 2.9-2.6 3-.1.1-3 4.1-3.8 5.3-.3.6-1.1 1.7-1.7 2.4-.4.8-1.7 2.5-2.7 4-1 1.4-2.1 3.1-2.6 3.8-1.1 1.8-9.4 15.1-9.7 15.8-.4.6-.4.6-3.7 1-11.6 1.5-11.1 1.3-11.1 3.7.1 1.7.6 2.8 1.6 2.9.3.1 1.6 0 3-.2 4.4-.8 6.4-1.1 6.5-1 .1.1-.3.9-.7 1.8-.6 1-1.4 2.5-1.9 3.3-.4.8-1.1 2.4-1.7 3.6-.7 1.1-1.4 2.8-1.9 3.7-.6 1-2.5 4.8-2.8 5.3-.3.5-1 2-1.6 3.2-.4 1.3-1.3 2.9-1.6 3.6-.7 1.3-1.1 2.6-1.3 3.5h7.5c.2-.3.3-.6.5-.9.9-1.4 1.9-3.1 2.1-3.7.4-.7 1.3-2.2 1.9-3.3.7-1.3 1.4-2.8 1.9-3.5.4-.6 2.2-3.9 2.2-3.9 0-.1 1-1.8 2.1-3.9 3.4-5.6 4.8-8.2 4.8-8.3 0 0 .1-.5.4-.8.4-.7.6-.7 2.4-.8 3-.2 11.2-.6 14.8-.7 3 0 3.1 0 3 .3-1 6.3-1.3 12.3-.7 17.7 0 2.1.3 3.9.3 4.4.1.3.1.8.1 1 .1.5.6 2.2 1 3.3.4.9 1.2 1.9 2.4 2.6h6.3c-.1-1.6.1-4.6.7-8.3.1-1.1.9-4.8 1-5.2 0-.1 0-.8.1-1.4.1-.6.4-2 .7-3 .1-1.1.6-2.9.7-3.9.1-1 .4-2.6.4-3.6.1-.9.3-1.7.3-1.7 0-.1 0-.8.1-1.6l.1-1.5 1-.1c.4 0 1.9-.1 3-.1h3.1c-2.7 6.6-4 13.6-2.9 17.5.4 1.5.6 2.1 1.8 4.7 1.8 3.7 6.8 7 12.1 8 .7.1 1.3.2 2 .3 2.3.3 2.8.2 4.8-.3.2-.1.5-.1.8-.2 2.5-.9 5.5-2.7 7.8-4.7.3-.1 1.1-.9 2-1.6 2-1.9 5.9-5.9 7.8-8 1.6-1.9 3.5-4.4 5.4-7-.1.6-.3 1.4-.4 2.2-.2 1.6-1.1 13.9-.9 18.8l8.4-.1c.7-3.8 1.7-9.6 2.4-12.1 1.3-3.3 1.9-4.8 2.1-6.3zm-65.2-44c-.3 1.3-.6 2.6-.6 3.1-.1.5-.4 1.8-.7 3.1-.4 1.1-.9 2.9-1 3.6-.3.8-.4 1.6-.6 1.7-.1.3-.4 1.6-1.3 4.9-.3 1-.7 2.4-1 3.2-.1.7-.4 1.8-.6 2.3s-.4 1.5-.6 2.2c-.3.7-.4 1.7-.6 2.3l-.1 1-4 .3c-2.3 0-6.1.3-8.4.6-5 .5-4.5.5-4.8.2-.1-.1 2.3-4.3 3.1-5.3.1-.2 1.1-1.7 2.1-3.2 2-3.1 5.1-7.8 7.2-10.8.9-1.1 2-2.8 2.4-3.5.4-.7 1-1.5 1.1-1.6s1.3-1.6 2.4-3.1c2-2.4 6.7-7.8 6.8-7.7.5.3-.3 4.4-.8 6.7zM156.9 155.5c2.1-2.3 4.8-5.7 7.5-9.4v.1c0 4.4 1.5 8.5 3.9 10.7 1.1 1.1 3.7 2.5 6.1 3.3l8 .2c.3-.1.6-.3 1-.5 1.4-.6 2.6-1 2.7-1.3.3-.1 1-.6 1.5-.9 1.1-.6 2.3-1.5 4.2-3.5 4.9-4.7 9.6-13.1 11.5-20.5 1-3.6.8-9.6-.1-13.1-.8-2.8-4.2-7.1-7.1-8.9-.7-.5-1.6-1.1-2.2-1.6-2.3-1.8-5-2.3-7.5-1.1-3.9 1.8-8 5.9-12.2 12.2-4 5.9-6.4 10.4-8 15.1-.2.3-.4.5-.6.8-3.9 5.4-6.7 9-9.8 12.5-3.9 4.4-7.3 7.4-7 6.4.1-.3.2-.9.2-1.5.2-1.6.8-3.8 2.3-8.3.7-2.2 1.4-4.3 1.4-4.6.2-1.1 2.1-7.4 3.5-11.1 1.3-3.8 3.7-11.9 3.7-12.9.1-1 .1-1.1-1.1-2.3-1.4-1.4-2.5-2.1-4.2-2.5-1.3-.3-2.1-.2-2.7.4-.7.7-4.6 9.1-6.6 14.2-1.3 3.2-2.8 7.2-2.9 8-.1.3-.4 1.2-.6 1.9-.1.6-.4 1.6-.5 2.3-.1.7-.4 1.8-.5 2.8-.5 2.7-.6 7.5-.2 10.2.3 2.2 1 4.3 1.8 5.3.4.5 1.4 1.1 2.4 1.6l7.5.1c1.3-.6 2.5-1.8 4.6-4.1zm18.8-10.1c2-8.5 5.6-16.2 10.3-22.8 2.7-3.9 6.9-8.6 7.6-8.6.5 0 1.6 2.1 2.3 4.1 1.1 3.3 1.1 8.1.1 13.5-1.2 6.2-3.3 10.9-6.4 15.2-3.5 4.5-8.7 9-12 9.9-2 .7-2.3.7-3-1.6-.5-1.9-.2-4.4 1.1-9.7zM244.8 146.3c.7-3.6 1-5.4 1.5-11.5.1-.5.2-2.1.3-3.5.2-1.5.4-3.7.4-4.9.1-1.3.3-2.7.4-3.1 0-.3.1-1.2.2-1.8.1-1.5.2-2.4.6-4.8.3-2.9.4-6 0-7-.3-1.1-.9-1.8-2.4-2.7-2.4-1.4-5.6-1.8-7.2-.7-2 1.2-6.2 5.8-9.1 9.8-2.5 3.7-6.4 10.4-8.6 15-.3.9-.7 1.7-.7 1.7-.1 0 2-11.1 2.7-14.1 1.6-7.3 1.5-7.1.1-7.9-1.8-1.1-4.3-1.5-4.9-.7-.1.2-.5 1.1-.8 2.1-.4 1-1.4 3.5-2.2 5.7-3.1 7.2-5.1 13.5-6.7 19.9-2.6 11.3-2.9 19.5-.9 22.4l8.1-.4c3.9-12.2 10.1-24.6 15.1-33.7 3-5.3 8-12.4 9.6-13.6l.5-.4-.3.9c-.3 1.8-1.7 6.5-3.1 10.9-1.9 5.4-3 11.7-3.1 16.1 0 2.9 1.4 9 2.6 12.2 1.1 0 2.2 0 3.3.3 1.1.3 2.1.6 3.7.5-.2-1.2 0-3.2.9-6.7zM173.8 99.1c-1.8-1.2-3.8-2.3-5.8-3.3v-5c0-.7-.9-.9-1.3-.5-1.2 1.1-2.3 2.2-3.4 3.4-1.5-.6-3.1-1.1-4.7-1.5-.3 0-.4 0-.6.1-.6.5 1 3.8 1.7 5.5-1.5 1.9-2.9 3.8-4.2 5.8-.3.4.1 1.1.8 1 1.8-.2 5.3-1.8 5.5-1.8 1 2.2 2.3 4.3 4.1 6.2.3.4 1.1.4 1.2-.1.7-2.4.9-4.9 1-7.4 2.2-.5 4.1-.9 6-1.5.2-.1 0-.7-.3-.9z" class="st1"/></svg>