<svg viewBox="0 0 456.33 446.77" xmlns="http://www.w3.org/2000/svg"><path d="m-6.75-4.42h469.24v456.05h-469.24z" fill="#009edb"/><path d="m23.29 24.63 114.57 379.15s127.9 58.17 290.43 0c0 2.16-405-379.15-405-379.15z" fill="#fff"/><g fill="#009edb"><path d="m147 401.62v-116.19h49.26a33.05 33.05 0 0 1 14.81 3.35 38.39 38.39 0 0 1 11.7 8.84 41.73 41.73 0 0 1 7.7 12.44 37.51 37.51 0 0 1 2.78 14 40.46 40.46 0 0 1 -2.62 14.32 39.72 39.72 0 0 1 -7.37 12.36 36.11 36.11 0 0 1 -11.45 8.67 33.21 33.21 0 0 1 -14.73 3.27h-27.51v38.95zm22.59-58.75h26.18a12.92 12.92 0 0 0 10.39-5.07q4.19-5.07 4.18-13.75a22.72 22.72 0 0 0 -1.31-7.94 19.49 19.49 0 0 0 -3.44-6 13.65 13.65 0 0 0 -5-3.68 14.62 14.62 0 0 0 -5.81-1.23h-25.2z"/><path d="m269.72 285.43h20l44.18 116.19h-23.27l-10.8-29h-40.58l-10.64 29h-23.24zm26 71.35-16-45.66-16.72 45.66z"/></g></svg>