<svg id="Layer_1" data-name="Layer 1" xmlns="http://www.w3.org/2000/svg" viewBox="0 0 456.33 446.77"><defs><style>.cls-1{fill:#009edb;}.cls-2{fill:#fff;}</style></defs><title>PA dark</title><rect class="cls-1" x="-6.75" y="-4.42" width="469.24" height="456.05"/><path class="cls-2" d="M23.29,24.63,137.86,403.78s127.9,58.17,290.43,0C428.29,405.94,23.29,24.63,23.29,24.63Z"/><path class="cls-1" d="M147,401.62V285.43h49.26a33.05,33.05,0,0,1,14.81,3.35,38.39,38.39,0,0,1,11.7,8.84,41.73,41.73,0,0,1,7.7,12.44,37.51,37.51,0,0,1,2.78,14,40.46,40.46,0,0,1-2.62,14.32,39.72,39.72,0,0,1-7.37,12.36,36.11,36.11,0,0,1-11.45,8.67,33.21,33.21,0,0,1-14.73,3.27H169.57v38.95Zm22.59-58.75h26.18a12.92,12.92,0,0,0,10.39-5.07q4.19-5.07,4.18-13.75a22.72,22.72,0,0,0-1.31-7.94,19.49,19.49,0,0,0-3.44-6,13.65,13.65,0,0,0-5-3.68,14.62,14.62,0,0,0-5.81-1.23h-25.2Z"/><path class="cls-1" d="M269.72,285.43h20l44.18,116.19H310.63l-10.8-29H259.25l-10.64,29H225.37Zm26,71.35-16-45.66L263,356.78Z"/></svg>