<svg xmlns="http://www.w3.org/2000/svg" xml:space="preserve" style="enable-background:new 0 0 185 185" viewBox="0 0 185 185"><path d="M94.5 75.7c0-9.5-5.8-13.9-19-13.9h-5.8V90h5.8c13.3 0 19-4.4 19-14.3"/><path d="M121 4.5C72.4-11.2 20.3 15.4 4.5 64S15.4 164.7 64 180.5c44.9 14.5 93.4-7 112.8-49.9h-24.2v-9.3h5.1c2.1 0 3-.7 2-3.4l-5.2-13.8h-25.8l-5 13.8c-.8 2.7-.1 3.4 2 3.4h4.7v9.3h-27.1v-9.3h4.6c2.5 0 3.1-.7 4.2-3.7L136.4 52h17.4l24.1 65.5c.7 2.2 1.5 3.2 2.6 3.5C196.2 72.5 169.6 20.3 121 4.5zm-10.4 71c0 16.4-9.6 23.5-31.9 23.5h-8.9v18.6c0 2.8.6 3.6 2.2 3.6h6.5v9.3H44.1v-9.3H50c1.7 0 2.2-.7 2.2-3.5V65.2c0-3-.6-3.5-2.2-3.5h-5.9v-9.3h34.6c21.7 0 31.9 7.6 31.9 23.1zm69.9 45.6z"/><path d="m141.6 66.6-10.2 28.9h20.4l-10.2-28.9z"/></svg>