<svg xmlns="http://www.w3.org/2000/svg" xml:space="preserve" style="enable-background:new 0 0 798.2 185" viewBox="0 0 798.2 185"><path d="M744.1 83.5v72.6c0 3.7-.8 4.6-2.9 4.6h-8.3v11.9H777v-11.9h-8.3c-2.1 0-2.9-.9-2.9-4.6V83.5h11.9c6.4 0 7.7 1.1 9.5 5.5l.8 8.9h10.1V72.1h-85.8v25.7h10.1l.8-8.9c1.7-4.4 3.2-5.5 9.3-5.5l11.6.1zm-70.9 43.7v28.9c0 3.7-.8 4.6-2.9 4.6h-7.4v11.9h43.3v-11.9h-7.6c-2.1 0-2.9-.9-2.9-4.6V88.5c0-3.8.8-4.6 2.9-4.6h7.5V72.1h-43.2V84h7.4c2.1 0 2.9.8 2.9 4.6V116h-38.9V88.5c0-3.8.8-4.6 2.9-4.6h7.4V72.1h-43.3V84h7.5c2.1 0 2.9.8 2.9 4.6v67.5c0 3.7-.8 4.6-2.9 4.6h-7.5v11.9h43.3v-11.9h-7.4c-2.1 0-2.9-.9-2.9-4.6v-28.9h38.9zm-93.9 32.3 5 13h8.9v-49.7h-40.8v11.9h21v3.8c0 12.7-7.5 20.3-20.6 20.3-17.4 0-26.3-10.3-26.3-34.8v-3.8c0-22.6 9.9-34.4 29-34.4 10.2 0 16.2 2.9 20.5 5.8l.2 17.6h17V79.8c-7.5-4.9-20.3-9.6-39.2-9.6-32.7 0-50.8 18.6-50.8 52.3 0 33 17.3 52 45.7 52 14.6-.1 25-5.3 30.4-15m-125.7 13H497v-11.9h-7.5c-2.1 0-2.9-.9-2.9-4.6V88.5c0-3.8.8-4.6 2.9-4.6h7.5V72.1h-43.4V84h7.5c2.1 0 2.9.8 2.9 4.6v67.5c0 3.7-.8 4.6-2.9 4.6h-7.5v11.8zm-83.4 0h78.1V140h-11.8l-2.9 15.6c-1.4 4.6-3 5-9.4 5h-21.1v-72c0-3.8.8-4.6 2.9-4.6h8.3V72.1h-44.2V84h7.5c2.1 0 2.9.8 2.9 4.6v67.5c0 3.7-.8 4.6-2.9 4.6h-7.5l.1 11.8zm-60.4-89v72.6c0 3.7-.8 4.6-2.9 4.6h-8.3v11.9h44.2v-11.9h-8.3c-2.1 0-2.9-.9-2.9-4.6V83.5h11.9c6.4 0 7.7 1.1 9.5 5.5l.8 8.9h10.1V72.1h-85.8v25.7h10.1l.8-8.9c1.7-4.4 3.2-5.5 9.4-5.5l11.4.1zm-86.4 77.2c-17.3 0-27.4-12.8-27.4-36.1v-4.3c0-23.4 10.4-36.4 27.7-36.4 17 0 27.1 13 27.1 36.4v4.3c-.1 23.4-10.3 36.1-27.4 36.1m-.3 13.7c30.9 0 50.6-20.6 50.6-52 0-31.8-19.2-52.3-49.7-52.3-31.2 0-51.4 20.9-51.4 52.3s19.4 52 50.5 52m-108.2-54V84.2h7.4c17 0 24.3 5.6 24.3 17.9 0 12.7-7.2 18.5-24.3 18.5l-7.4-.2zm0 11.7h11.5c28.6 0 41-9.2 41-30.3 0-20.2-13-29.8-40.8-29.8H82v12h7.5c2.1 0 2.9.8 2.9 4.6v67.5c0 3.7-.8 4.6-2.9 4.6H82v11.9h44.2v-11.9h-8.3c-2.1 0-2.9-.9-2.9-4.6l-.1-24zm-78.7 42.3c25.7 0 39.5-12.5 39.5-32.6 0-18.8-13.6-25.8-31.5-30-13.6-3-23.1-5.2-23.1-14.7 0-8.4 7-14.5 17.7-14.5 6.6-.1 13 1.4 18.9 4.3v11.8h14.9V77.8c-7.8-4.3-18.9-7.7-33.9-7.7C13.9 70.1.2 82.8.2 102.3c0 18.2 13.3 24.9 30.7 28.9 15.1 3.4 23.9 6.2 23.9 16.2 0 8.4-7.1 14.4-18.3 14.4-7.1.1-14.2-1.4-20.8-4.4v-13H0v22.5c11.4 5.1 23.8 7.7 36.2 7.5"/></svg>