<svg height="45" viewBox="0 0 410 45" width="410" xmlns="http://www.w3.org/2000/svg" xmlns:xlink="http://www.w3.org/1999/xlink"><mask id="a" fill="#fff"><path d="m.107.273h108.63v40.042h-108.63z" fill="#fff" fill-rule="evenodd"/></mask><mask id="b" fill="#fff"><path d="m.017.036h339.073v44.064h-339.073z" fill="#fff" fill-rule="evenodd"/></mask><g fill="#0a0b09" fill-rule="evenodd"><path d="m100.484 27.446-2.317 2.103c-.463-.25-1.586-1.284-1.586-1.284l-.782-.734v-12.971l.307-.258 4.4 3.198-.02 9.946zm7.736.754c-.79.726-1.11.697-1.11.697-.624.062-1.73-.91-1.73-.91v-24.492c.02-1.1 1.57-2.236 1.57-2.236l-.48-.61-7.717 5.233.307.697 1.436-.74.046.087-.02 6.93-1.666-1.35h-.424l-8.266 5.207v.38c.616.204.826.41.826.41.117.106.107-.073.107-.073v10.52c-.026.295-.854.508-.854.508v.374l5.343 4.494h.245l3.796-3.842h.157l4.506 3.64h.262l4.182-4.354-.517-.57zm-82.55-10.774a5.82 5.82 0 0 1 -.327.89c-.142.298-.277.515-.277.515-.457.774-1.166 1.343-1.166 1.343a5.944 5.944 0 0 1 -.808.567c-.33.193-.608.32-.608.32-.39.166-1.03.347-1.03.347l-.002-14.09c.073.057.558.74.84 1.1.642.818 1.575 2.05 1.575 2.05.99 1.39 1.268 2.068 1.268 2.068.752 1.493.76 2.802.76 2.802.047 1.258-.224 2.09-.224 2.09zm-15.296 16.29v-28.726l2.71 1.137v24.038l-.005 1.356v2.973l-2.706-.777zm7.655-.26.048-10.876v-13.23c.012-2.996.125-3.256.148-3.406.11-.73.444-1.244.444-1.244.22-.317.597-.472.597-.472l.95 1.558c.3.47.557.814.557.814v14.983c-.59.192-.743.268-1.016.436-.255.156-.387.28-.387.28-.28.26-.43.502-.512.683-.085.19-.11.317-.11.317-.176.644.058 1.262.058 1.262.23.633.7 1.034.7 1.034.63.623 1.746 1.063 1.746 1.063l.316-.213c-.017-.06-.026-.12-.04-.18-.074-.358-.053-.584-.042-.898.016-.465.087-.897.146-1.203.086-.444.307-.935.307-.935.462-1.026 1.425-1.7 1.425-1.7l.895-.67.57-.434.277-.213a29.693 29.693 0 0 0 1.413-1.164c.45-.393.756-.697.756-.697a12.048 12.048 0 0 0 1.845-2.251 7.656 7.656 0 0 0 1-2.41 7.28 7.28 0 0 0 .122-2.566 6.53 6.53 0 0 0 -.365-1.388 9.8 9.8 0 0 0 -.61-1.31c-.106-.192-.17-.294-.17-.294a12.6 12.6 0 0 0 -.444-.702c-.713-1.054-1.896-2.403-2.81-3.383-.72-.77-1.227-1.337-1.227-1.337-1.554-1.72-1.558-2.33-1.558-2.33h-.362l-4.026 2.738c-2.045-.178-5.4-1.854-5.4-1.854-2.81-1.198-4.448-.974-4.448-.974s-4.99-.157-8.715 7.566l.83.567s1.83-5.76 8.733-3.69l.003 28.807c-5.402-.44-8.34 6.406-8.34 6.406s.503.258.696.37c1.275-2.25 4.916-4.203 7.937-.363l9.788-6.628-.34-.67-1.386.8z" mask="url(#a)" transform="translate(64.8)"/><path d="m52.934 14.586-.39.297v7.87l4.22-2.68zm-.39 9.144v3.36s2.435 2.042 3.392 2.637l3.654-2.977.61.68-6.787 5.87h-.348l-6.178-4.72v-.384s.827-.213.827-.468v-9.783c0-.297-.914-.637-.914-.637v-.383l8.7-6.125h.523l5.177 7.316v.34l-8.657 5.274zm67.216-14.57h-.36s-1.607-1.864-3.012-2.982v-.372s1.686-1.284 2.89-3.106h.362s1.485 1.822 3.01 3.064v.373s-1.685 1.366-2.89 3.023zm1.365 24.14h-.24l-4.176-3.313v-.372s.722-.207.722-.62v-11.845s-1.084-1.158-2.008-1.78l-.642.622-.482-.538 3.694-3.893h.24l3.534 3.273 1.485-1.533.522.58-1.887 1.905v12.67s.843.953 1.606.953c.32 0 .843-.54 1.204-.87l.402.54-3.975 4.222zm10.102 0h-.236l-4.047-3.294v-.37s.668-.206.668-.618v-23.136l-.038-.083-1.297.7-.275-.66c2.75-1.73 6.956-4.94 6.956-4.94l.433.576s-1.416 1.07-1.416 2.14v24.826s.943.865 1.493.865c.315 0 .708-.33 1.06-.66l.473.536-3.773 4.117m50.406-18.713-.39.297v7.87l4.22-2.68zm-.39 9.144v3.36s2.435 2.042 3.392 2.637l3.654-2.977.61.68-6.787 5.87h-.348l-6.178-4.72v-.384s.827-.213.827-.468v-9.783c0-.297-.914-.637-.914-.637v-.383l8.7-6.125h.523l5.177 7.316v.34l-8.657 5.274zm13.883 9.57h-.236l-4.047-3.294v-.37s.668-.206.668-.618v-23.136l-.038-.083-1.297.7-.275-.66c2.75-1.73 6.956-4.94 6.956-4.94l.433.576s-1.416 1.07-1.416 2.14v24.826s.943.865 1.493.865c.314 0 .708-.33 1.062-.66l.47.536-3.773 4.117m47.933-24.139h-.362s-1.605-1.864-3.01-2.982v-.372s1.686-1.284 2.89-3.106h.36s1.487 1.822 3.013 3.064v.373s-1.685 1.366-2.89 3.023zm1.365 24.14h-.24l-4.176-3.313v-.372s.72-.207.72-.62v-11.845s-1.083-1.158-2.006-1.78l-.642.622-.482-.538 3.693-3.893h.24l3.534 3.273 1.486-1.533.522.58-1.887 1.905v12.67s.843.953 1.606.953c.32 0 .843-.54 1.204-.87l.402.54-3.975 4.222zm66.375 0h-.26l-4.29-3.435v-.387s.565-.214.565-.644v-11.937s-1.647-1.588-2.73-2.19l-1.947 1.632v12.021s1.083.988 1.603.988c.345 0 .564-.086.736-.215l.26.473-3.42 3.692h-.26l-4.59-3.52v-.388s.864-.343.864-.643v-12.924s-.952-.945-1.56-.945c-.343 0-.647.257-1.038.6l-.432-.558 3.81-4.122h.26s3.42 2.32 4.2 3.994l4.332-3.994h.26l4.33 3.736 1.602-1.59.563.602-2.035 1.975v12.753s.865 1.03 1.644 1.03c.39 0 .867-.472 1.255-.815l.48.516-4.2 4.294m33.013-3.959-4.253 3.96h-.26l-4.27-3.778-1.464 1.33-.605-.644 1.942-1.717v-12.537s-1.21-1.03-1.555-1.03c-.346 0-.474.214-.863.557l-.387-.558 4.012-4.122h.258l3.88 3.263v.43s-.56.257-.56.687v12.11s1.552 1.673 2.546 2.232l1.983-1.675v-11.98s-1.466-1.073-1.77-1.073c-.257 0-.516.214-.69.343l-.343-.515 3.665-3.822h.26l3.75 3.135 1.205-1.074.605.645-1.898 1.804v12.665s1.424 1.332 1.94 1.332c.347 0 .993-.687 1.382-1.03l.474.514-4.398 4.51h-.26l-4.327-3.96m14.448-20.182h-.362s-1.606-1.864-3.01-2.982v-.372s1.686-1.284 2.89-3.106h.36s1.486 1.822 3.013 3.064v.373s-1.686 1.366-2.89 3.023zm1.364 24.14h-.24l-4.177-3.313v-.372s.722-.207.722-.62v-11.845s-1.083-1.158-2.006-1.78l-.644.622-.482-.538 3.695-3.893h.24l3.533 3.273 1.486-1.533.522.58-1.886 1.905v12.67s.842.953 1.605.953c.322 0 .844-.54 1.204-.87l.4.54-3.974 4.222zm16.136-16.79c-1.144 0-2.162-.43-3.183-1.502h-.614v13.225s1.55 1.203 2 1.203c.327 0 1.837-1.375 2.203-1.718l.53.558-5.304 5.024h-.244l-4.37-3.52v-.388s.656-.343.656-.643v-12.754s-1.062-.988-1.552-1.16c-.327 0-.53.258-.896.6l-.49-.514 3.672-4.122h.287l3.506 3.263 2.693-3.263h.368s1.224 1.59 2.734 1.59c.897 0 1.794-.216 2.448-1.29l.49.258c-.776 1.76-3.02 5.153-4.938 5.153"/><path d="m385.035 14.586-.393.297v7.87l4.22-2.68zm-.393 9.144v3.36s2.438 2.042 3.394 2.637l3.654-2.977.61.68-6.787 5.87h-.35l-6.175-4.72v-.384s.827-.213.827-.468v-9.783c0-.297-.915-.637-.915-.637v-.383l8.702-6.125h.522l5.176 7.316v.34zm19.923-7.22c-1.144 0-2.165-.43-3.183-1.502h-.613v13.225s1.55 1.203 2 1.203c.323 0 1.833-1.375 2.202-1.718l.53.558-5.306 5.024h-.244l-4.366-3.52v-.388s.652-.343.652-.643v-12.754s-1.06-.988-1.55-1.16c-.326 0-.53.258-.898.6l-.49-.514 3.672-4.122h.287l3.51 3.263 2.692-3.263h.366s1.224 1.59 2.734 1.59c.9 0 1.796-.216 2.448-1.29l.49.258c-.773 1.76-3.018 5.153-4.935 5.153m-193.799 1.497s-1.67-1.543-2.75-2.16l-1.4 1.367v10.92c1.444.398 2.436.62 4.105 2.03l.044-.044v-12.113zm5.006-1.455v10.613c0 .308.857.573.857.573v.31l-7.757 5.38h-.226s-1.218-.706-2.03-.926l-.045.044v6.702l.044.044 1.4-.662.315.53c-4.15 2.69-7.4 4.94-7.4 4.94l-.314-.44s.992-.795.992-1.545v-10.407c-1.083.088-2.12.22-2.66 1.853l-.452-.087c0-2.25.992-4.103 3.112-4.985v-11.629s-1.083-1.146-1.714-1.146c-.45 0-1.037.706-1.443 1.06l-.45-.443 4.42-4.63h.27s3.654 2.426 4.285 4.102l3.88-4.058h.27l4.51 3.926 1.67-1.632.495.53-2.03 1.984zm-182.366-11.592v11.033l.04.04 4.51-4.224h.25l4.137 3.568 1.532-1.518.538.492-1.945 1.97v12.179s.828.984 1.573.984c.414 0 .993-.615 1.365-.984l.497.492-4.386 4.306h-.248l-3.93-3.24v-.37s.536-.204.536-.614v-11.4s-1.365-1.394-2.482-2.09l-1.986 1.72v11.033c.082.206.87 1.23 2.234 1.23l.083.452-3.268 3.28h-.25l-4.178-3.28v-.37s.787-.328.787-.615v-22.146c0-.492-.91-.615-.91-.615v-.45c3.27-1.806 6.58-4.43 6.58-4.43h.29s3.727 3.437 6.367-.493l.662.328c-4.592 7.913-8.4 3.732-8.4 3.732m69.301 0v11.033l.042.04 4.51-4.224h.248l4.138 3.567 1.533-1.517.537.492-1.944 1.97v12.179s.827.984 1.572.984c.414 0 .993-.616 1.365-.985l.497.494-4.386 4.306h-.248l-3.932-3.24v-.37s.538-.204.538-.615v-11.4s-1.365-1.395-2.482-2.092l-1.987 1.722v11.032c.083.206.87 1.23 2.235 1.23l.083.452-3.268 3.28h-.25l-4.178-3.28v-.37s.786-.328.786-.616v-22.144c0-.492-.91-.615-.91-.615v-.453c3.27-1.803 6.58-4.428 6.58-4.428h.29s3.732 3.44 6.37-.492l.663.328c-4.59 7.913-8.4 3.732-8.4 3.732m122.399 0v11.033l.04.04 4.51-4.224h.25l4.137 3.568 1.532-1.518.538.492-1.945 1.97v12.179s.828.984 1.573.984c.414 0 .993-.615 1.366-.984l.496.492-4.386 4.306h-.248l-3.93-3.24v-.37s.536-.204.536-.614v-11.4s-1.365-1.394-2.482-2.09l-1.986 1.72v11.033c.082.206.87 1.23 2.234 1.23l.083.452-3.268 3.28h-.25l-4.178-3.28v-.37s.786-.328.786-.615v-22.146c0-.492-.91-.615-.91-.615v-.45c3.27-1.806 6.58-4.43 6.58-4.43h.29s3.728 3.437 6.368-.493l.663.328c-4.59 7.913-8.4 3.732-8.4 3.732"/><path d="m325.64 26.954-1.652 1.723c-.577-.272-2.412-2.132-2.412-2.132v-12.275l.18-.138c.775.423 3.885 3.04 3.885 3.04v9.782zm5.008 12.428-.048-24.522 1.878-1.862-.538-.59-1.875 1.724-4.914-3.675h-.268l-9.25 6.125v.273s.587.188.853.42c0 0 .098.078.123.167 0 0 .008.01.008.09v9.577s.012.097-.064.174c0 0-.162.218-.83.396v.272l5.63 4.81h.27l3.93-4.538h.09l.044.477-.06 9.956 6.182 4.9h.314s3.384-4.034 6.433.544l.535-.363s-4.38-8.25-8.442-4.355zm-312.608-32.385c.65.095 1.79.063 2.376-.086v22.3c-.843.28-1.652.35-2.037.4-.392.05-1.276.086-1.276.086-.45.03-1.304-.008-1.304-.008l3.2-2.95c-.9-.62-1.18-1.43-1.18-1.43-.052-.143-.07-.222-.07-.222a1.924 1.924 0 0 1 -.044-.298c-.007-.097-.006-.188-.005-.257v-.126l.006-1.287.003-15.867m-6.115 19.83.49.53.704-.523 3.007 2.6s-1.106-.007-2.397-.392c0 0-.563-.14-1.34-.53-.587-.297-1.333-.8-2.157-1.622 0 0-.525-.525-1.067-1.298a9.852 9.852 0 0 1 -1.034-1.907s-.287-.65-.523-1.577c-.11-.44-.217-.946-.286-1.47 0 0-.167-1.2-.134-2.253 0 0 .006-.78.092-1.687.06-.635.167-1.33.294-1.872 0 0 .21-1.11.804-2.548 0 0 .667-1.626 1.69-2.907 1.02-1.281 2.323-2.526 4.263-3.513 0 0 1.67.412 3.17.72l-5.585 4.245.49.53.986-.75s.024.024.058.082c.036.06.084.16.13.33 0 0 .015.055.035.138.04.173.085.458.103.657.02.192.045.45.058.723.01.22.012.146.026.665.002.082.012.304.012.603 0 .526-.01 1.288-.014 1.934-.004.686 0 .706 0 .706l.005 3.203-.014 5.257v.505l-1.865 1.418m9.52 1.9v-22.209c4.683-1.11 7.1-6.35 7.1-6.35l-.705-.383c-.55 1.18-1.316 1.743-1.316 1.743-1.816 1.42-3.522 1.33-6.314.885-.807-.13-1.382-.3-2.035-.48a60.24 60.24 0 0 1 -1.426-.406c-3-.886-4.342-1.003-4.342-1.003-1.519-.176-2.425-.176-2.947-.111-.454.057-.67.112-.67.112-2.26.534-3.97 1.78-5.258 3.027-2.332 2.258-3.202 4.82-3.202 4.82l.662.36c.185-.385.378-.73.577-1.05.513-.826 1.088-1.463 1.61-1.895.78-.644 1.422-.868 1.422-.868.382-.18.865-.296 1.407-.346 1.207-.112 3.153.12 4.728.41 1.43.263 2.555.582 2.555.582-14.594 5.661-11.083 18.303-11.083 18.303a13.013 13.013 0 0 0 5.528 7.766c.87.562 1.748.98 2.594 1.275.998.352 1.917.538 2.733.622 1.43.147 2.803-.034 2.803-.034 1.18-.125 2.246-.407 3.385-.865.6-.242 1.172-.544 1.72-.885 1.514-.938 2.81-2.197 3.774-3.432 1.51-1.936 2.365-3.68 2.365-3.68l-.682-.372c-2.06 3.64-4.983 4.465-4.983 4.465" mask="url(#b)" transform="translate(0 .9)"/><path d="m285.658 7.796v21.68c.034 2.292-.263 3.115-.263 3.115-2.458-.924-4.42-.97-4.42-.97l3.71-3.027-.846-.762c-.776-.772-.747-1.758-.747-1.758v-20.014l.724-.55 1.84.618v1.668m-7.378 19.908-1.68 1.22.555.583.712-.517 3.102 2.628s-1.52-.162-3.128.79c-.56.33-1.187.7-1.847 1.23-3.095 2.5-4.195 5.663-4.195 5.663l.557.3c1.263-2.477 2.67-3.307 2.67-3.307 1.982-1.703 8.148.583 8.148.583 1.615.68 3.315 1.165 3.315 1.165 3.422 1.052 5.88-.688 5.88-.688 2.823-1.634 4.63-5.223 4.63-5.223l-.645-.354c-.967 1.957-2.466 2.416-2.466 2.416-.632.288-1.56.35-2.417.27-1.207-.11-2.282-.458-2.282-.458.202-.253.408-.57.61-.958.33-.647.587-1.454.658-2.17.08-.843.093-1.557.093-1.557l.16-5.714.042-7.01v-10.093c.314-.11.62-.236.922-.386a9.752 9.752 0 0 0 2.155-1.464c.788-.712 1.255-1.33 1.894-2.183.87-1.16 1.214-1.992 1.214-1.992l-.586-.315s-.724 1.893-2.84 2.55c0 0-2.095.754-5.645-.77 0 0-3.176-1.5-5.923-1.856 0 0-.57-.103-1.386-.085-.605.013-1.35.14-2.152.523-.47.226-.952.46-1.514.84 0 0-3.143 1.857-5.092 6.32l.573.307s1.734-4.344 5.71-3.913c0 0 2.17.054 5.015 1.083l-6.494 4.747.553.58.85-.616s.54.232.497 4.8l-.018 12.89-.207.14m-132.194-7.843c-2.58.515-3.91 2.147-3.91 4.938 0 2.79 1.05 4.68 2.34 4.68 1.087 0 1.57-.558 1.57-.558zm1.048-9.06h.242l3.183 3.092 1.29-1.245.524.6-1.815 1.847v12.84s1.008 1.33 1.773 1.33c.363 0 .806-.43 1.17-.773l.402.56-4.11 4.25h-.242l-3.466-3.35h-.08l-3.466 3.35h-.322c-2.54-.816-4.514-3.092-4.514-6.484 0-4.852 3.95-7.514 8.382-7.858v-2.92l-2.015-1.63c-.765.815-1.894 2.704-3.264 2.704-1.652 0-2.377-1.16-2.82-2.018v-.172l2.7-4.122h.362s1.45 5 6.085 0zm110.552 9.06c-2.58.515-3.91 2.147-3.91 4.938 0 2.79 1.05 4.68 2.338 4.68 1.09 0 1.572-.558 1.572-.558zm1.048-9.06h.24l3.185 3.092 1.29-1.245.524.6-1.815 1.847v12.84s1.008 1.33 1.773 1.33c.363 0 .806-.43 1.17-.773l.402.56-4.11 4.25h-.242l-3.466-3.35h-.08l-3.467 3.35h-.322c-2.538-.816-4.513-3.092-4.513-6.484 0-4.852 3.95-7.514 8.382-7.858v-2.92l-2.015-1.63c-.765.815-1.894 2.704-3.264 2.704-1.652 0-2.378-1.16-2.82-2.018v-.172l2.7-4.122h.362s1.45 5 6.085 0z"/></g></svg>