<svg viewBox="0 0 600 300" xmlns="http://www.w3.org/2000/svg"><g fill="#414042"><path d="m243.81 90.87v18.66h-5.35v-18.66h-5.04v-4.51h15.43v4.51z"/><path d="m257.52 95.18h9.24v-8.82h5.36v23.17h-5.36v-9.83h-9.24v9.83h-5.35v-23.17h5.35z"/><path d="m291.05 90.87h-7.75v4.49h7.37v4.51h-7.37v5.15h7.75v4.51h-13.1v-23.17h13.1z"/><path d="m243.79 120.94v18.66h7.2v4.52h-12.55v-23.18z"/><path d="m267.51 125.45h-7.75v4.49h7.36v4.51h-7.36v5.15h7.75v4.52h-13.1v-23.18h13.1z"/><path d="m272.83 144.12v-23.18h4.65l12.58 14.94v-14.94h5.36v23.18h-4.66l-12.58-15.02v15.02z"/><path d="m314.12 125.45h-7.5v4.49h6.95v4.51h-6.95v9.67h-5.35v-23.18h12.85z"/><path d="m331.7 125.45h-7.75v4.49h7.36v4.51h-7.36v5.15h7.75v4.52h-13.1v-23.18h13.1z"/><path d="m348.6 126.6a5.65 5.65 0 0 0 -3.89-1.67 2.93 2.93 0 0 0 -2.26.8 2.07 2.07 0 0 0 -.59 1.46 1.66 1.66 0 0 0 .52 1.29 9.43 9.43 0 0 0 2.92 1.32l1.74.66a9.17 9.17 0 0 1 3.16 1.77 5.77 5.77 0 0 1 1.71 4.31 8.32 8.32 0 0 1 -2.05 5.73c-2.06 2.16-5 2.37-6.57 2.37a9.83 9.83 0 0 1 -4.59-1 14.75 14.75 0 0 1 -3.41-2.53l2.78-3.83a14.55 14.55 0 0 0 2.16 1.78 5.42 5.42 0 0 0 2.92.83 3.7 3.7 0 0 0 2.43-.8 2.4 2.4 0 0 0 .83-1.88 2 2 0 0 0 -.8-1.66 10.81 10.81 0 0 0 -2.71-1.29l-1.91-.66a7.82 7.82 0 0 1 -3.23-1.84 5.69 5.69 0 0 1 -1.39-4 7.15 7.15 0 0 1 2-5.22 7.49 7.49 0 0 1 5.73-2.12 11.18 11.18 0 0 1 6.88 2.3z"/><path d="m364.56 125.45v18.67h-5.35v-18.67h-5.04v-4.51h15.43v4.51z"/><path d="m238.44 155.52h5.35v23.18h-5.35z"/><path d="m249.62 178.7v-23.18h4.66l12.58 14.94v-14.94h5.35v23.18h-4.65l-12.59-15.02v15.02z"/><path d="m289.77 161.18a5.67 5.67 0 0 0 -3.89-1.67 2.93 2.93 0 0 0 -2.26.8 2.07 2.07 0 0 0 -.59 1.46 1.63 1.63 0 0 0 .52 1.29 9.43 9.43 0 0 0 2.92 1.32l1.74.66a9.17 9.17 0 0 1 3.16 1.77 5.76 5.76 0 0 1 1.7 4.31 8.27 8.27 0 0 1 -2.05 5.73c-2 2.16-5 2.37-6.57 2.37a9.82 9.82 0 0 1 -4.58-1 14.75 14.75 0 0 1 -3.41-2.53l2.78-3.83a14 14 0 0 0 2.16 1.78 5.42 5.42 0 0 0 2.92.83 3.71 3.71 0 0 0 2.43-.8 2.4 2.4 0 0 0 .83-1.87 2 2 0 0 0 -.8-1.67 11.17 11.17 0 0 0 -2.71-1.29l-1.91-.66a7.76 7.76 0 0 1 -3.23-1.84 5.69 5.69 0 0 1 -1.39-4 7.15 7.15 0 0 1 2-5.22 7.51 7.51 0 0 1 5.74-2.12 11.18 11.18 0 0 1 6.88 2.3z"/><path d="m305.73 160.03v18.67h-5.35v-18.67h-5.04v-4.51h15.43v4.51z"/><path d="m314.13 155.52h5.35v23.18h-5.35z"/><path d="m333.2 160.03v18.67h-5.35v-18.67h-5.04v-4.51h15.43v4.51z"/><path d="m361.16 169.24a9.86 9.86 0 0 1 -2.57 7.34c-2.22 2.29-4.8 2.64-7.23 2.64s-5-.35-7.23-2.64a9.86 9.86 0 0 1 -2.57-7.34v-13.72h5.35v13.58a5.47 5.47 0 0 0 1.22 3.9 4.92 4.92 0 0 0 6.46 0 5.47 5.47 0 0 0 1.22-3.9v-13.58h5.35z"/><path d="m374.89 160.03v18.67h-5.35v-18.67h-5.04v-4.51h15.43v4.51z"/><path d="m396.35 160.03h-7.75v4.49h7.36v4.51h-7.36v5.15h7.75v4.52h-13.11v-23.18h13.11z"/></g><path d="m415.1 204.2v-6.75h-195.51v-129.85h-6.74v136.6z" fill="#f95346"/><path d="m415.1 218.25v-6.75h-209.56v-125.15h-6.74v131.9z" fill="#f95346"/><path d="m415.1 232.3v-6.74h-223.61v-120.48h-6.74v127.22z" fill="#f95346"/></svg>
