<svg viewBox="0 0 1456.24 504" xmlns="http://www.w3.org/2000/svg"><path d="m252.91 26.54c-124.21 0-225.26 101-225.26 225.26s101 225.26 225.26 225.26 225.27-101.06 225.27-225.26-101.06-225.26-225.27-225.26" fill="#fede7f"/><path d="m252.91 50.56c-111 0-201.24 90.28-201.24 201.24v216.45l66.74-66.75a200.33 200.33 0 0 0 134.5 51.5c111 0 201.24-90.28 201.24-201.24s-90.28-201.2-201.24-201.2z" fill="#fff"/><path d="m252.91 67.86c-101.31 0-183.73 82.43-183.73 183.74v174.19l49.05-49 4.76 4.76a182.53 182.53 0 0 0 129.92 53.81c101.31 0 183.73-82.42 183.73-183.72s-82.42-183.78-183.73-183.78z" fill="#164883"/><path d="m517.7 212.92c-.27.48 0 11.81 0 17.06l899.62 19.91v-56.89z" fill="#fede7f"/><path d="m219.12 207.67h-47.26v36h47zm15.68 63.94h-62.74v50.72h-29.53v-114.66h-1.63l-8.15-28.12h102.05c7.53 0 13.85 5.91 13.85 13v66c0 7.33-6.32 13-13.85 13" fill="#fede7f"/><path d="m321.33 207.66h-2.85l-21.38 55.2h45.62zm22.21 114.67v-31.33h-47.06v31.36h-29.74v-60.52l.83-4.28 20.36-52.56-6.53-25.46h59.68l31.17 78 .82 4.28v60.49z" fill="#fede7f"/><g fill="#164883"><path d="m580.06 64.62h-39.5v30.13h39.33zm13.1 53.44h-52.43v42.39h-24.73v-95.83h-1.35l-6.81-23.5h85.28c6.29 0 11.58 4.94 11.58 10.89v55.15c0 6.13-5.29 10.9-11.58 10.9"/><path d="m626.88 160.45v-50.55h-4.24v-23.16h4.24v-22.12h-1.35l-6.82-23.5c34.91 0 59.42.16 96.87.16v23.34h-64.18v22.12h45.45v23.33h-45.45v26.93h39.32v-14.17h24.86v37.62z"/><path d="m784.2 160.45-21.79-83.93v83.93h-24.68v-95.83h-.67l-6-23.5h46.64l25.7 92.78c-1.69-16.85-1.86-92.78-1.86-92.78h24.85v119.33z"/><path d="m897.6 160.45-21.79-83.93v83.93h-24.7v-95.83h-.68l-5.95-23.5h46.64l25.72 92.78c-1.72-16.85-1.84-92.78-1.84-92.78h24.86v119.33z"/><path d="m992.1 161.42v-104.35h-2.42l-4.29-15.95 26.95.16v15.79h-4.81v88.4h49.09v-15.28h15.43v31.23z"/><path d="m1119.6 161.42v-15.79h4.81v-88.56h-2.39l-4.29-15.95 26.92.16v15.79h-4.79v88.4l4.79.16v15.79z"/><path d="m1281.57 93.98-24.03 67.44h-30.03l-24.89-67.44-.52-3.09v-49.77h15.46v48.58l19.89 55.77h9.27l19.92-55.77v-48.58h15.44v49.77z"/><path d="m1337.35 161.42v-55.08h-4.13v-15.62h4.13v-33.65h-2.41l-4.29-16c29.69 0 53.73.16 86.67.16v15.84h-64.53v33.65h45.66v15.78h-45.66v39h49.09v-15.31h15.44v31.23z"/><path d="m993.93 407.42c-6.34 5.41-12.29 10.87-19.14 17.36-9.1-6.49-16.87-11.59-24.94-17v-.31c1.74-.89 2.63-2.48 2.63-7.75v-68.5h-12.82l6-11.07h6.85v-18.45l22.83-14.95v33.35h18.41l-5.75 10.9h-12.69v65.35c0 3.68.88 5.08 5.27 7.88 3.72 2.33 6.32 3.19 8.27 3.19a5.51 5.51 0 0 0 3.7-1.78z"/><path d="m851.86 290.08-16 13.34a163.51 163.51 0 0 0 -14.39-14.24l16.12-13.47c3.88 3.68 9.33 9.49 14.23 14.37"/><path d="m858.54 409.14c-5.95 5.47-12.27 11.44-16.68 15.64-5.28-3.69-13.32-8.79-18.25-11.78v-.36c1.75-1 2.65-3 2.65-10.53v-55.65c0-9.27-3.71-14.22-7.75-14.22a3.4 3.4 0 0 0 -2.45 1.06l-1.23-1.43 16.17-16.49c13.52 4.91 18.07 10.88 18.07 26v60.92c0 2.65.72 3.7 3.55 5.63a4.24 4.24 0 0 0 2.62.7 3.28 3.28 0 0 0 1.92-1.05z"/><path d="m812.55 330.29-15.45 19.71-1.42-.85a11.67 11.67 0 0 0 1.07-4.78c0-5.05-3.36-10-8.79-10a19.27 19.27 0 0 0 -3.14.18l-2.66 3.36v56.89c0 6 .72 6.82 7 10.53a11.05 11.05 0 0 0 6.3 1.92 6 6 0 0 0 3.54-1.57l1.75 1.78c-6.89 5.77-12 10.5-19.17 17.36-9.79-6.86-16.66-11.59-24.93-17v-.31c1.95-1.08 2.63-3.19 2.63-7.4v-55.11c0-6.83-3.14-12.8-7.7-12.8a4 4 0 0 0 -2.48 1.06l-1-1.58c4.52-4.57 11.38-11.61 16-16.34 8.77 2.81 14.91 9.32 16.85 19.85l16.5-19.85c8.09 0 15.47 5.1 15.11 14.91"/><path d="m750.37 407.42c-6.3 5.41-12.27 10.87-19.09 17.36-9.18-6.49-16.92-11.59-24.95-17v-.31c1.74-.89 2.61-2.48 2.61-7.75v-68.5h-12.81l6-11.07h6.86v-18.45l22.85-14.95v33.35h18.42l-5.82 10.9h-12.65v65.35c0 3.68.86 5.08 5.25 7.88 3.69 2.33 6.32 3.19 8.25 3.19a5.91 5.91 0 0 0 3.71-1.42z"/><path d="m911 408.08v-58.08c0-8.41-4-12.46-20-19.33l-.35.37v59.21c0 7.53 2.64 10 20 18.05zm22.67-7.55c-9.87 6.18-24.76 16.51-34.62 24.25-28.8-11.95-30.89-15.28-30.89-31.58v-56.74a359 359 0 0 0 33.24-21.06c23.16 7.56 32.3 13.34 32.3 28.76z"/><path d="m662.06 401.94v-41.1l-9.65 5c-6.52 3.26-11.24 12.09-11.24 22.63 0 11 3.5 16.86 10.71 21.78zm35.45 5.63c-5.07 5.07-12.26 12.47-16.83 17.2-8.79-3.68-16.69-9.5-18.1-19.31l-24 19.31h-.36c-10.21-5.8-18.64-16.34-18.64-28.64 0-11.4 4.82-22.74 26.7-32.45l15.81-7v-14.78c-5.78-2.61-13-5.62-13-5.62a21 21 0 0 0 -8.07-1.94c-2.26 0-6.71 4.4-7.89 6.13l-2.79-2.08c6.13-6.67 15.25-17 20.89-23.37 12.8 5.27 24 9.68 36.52 14.41v.57c-2 1.4-3 3.16-3 10v59c0 3.88 1 4.92 3.15 6.34 2.44 1.62 4 2.16 5.27 2.14a5.38 5.38 0 0 0 3-1.26z"/><path d="m588.31 403.72v-81.84c0-17-6.65-26.51-21.42-29.5l-14.23 11.22v90.11c12.82.15 26.35 3.76 35.65 10m24.6-3.69c-8.63 5.78-23.18 16.64-32.69 24.23-7.2-4.75-18.25-8.63-27.56-8.63v44.25l-8.58-6.67s-10.74 10.19-15.48 14.22v-51.61c-8.4.71-15.06 2.11-20.39 8.45l-1.52-.87c5.4-11.28 10-19.32 12.07-23.92a31.09 31.09 0 0 1 9.84-4v-84.47c0-10-4.74-14.78-9.84-14.78-4 0-5.86 1.5-8.76 4.57l-2.29-1.74c5.1-7 15.63-21.24 18.62-25.11 14.92 1.23 26.33 10.38 26.33 24.6v1.37c11.06-8.61 17.56-13.86 29.87-24.39 22.29 6 30.38 19.67 30.38 41.76z"/><path d="m1417.37 407.21a143.77 143.77 0 0 0 -31.65 17.57c-3.49-3-9.79-5.27-15.62-5.27-9.3 0-13.64 1.92-18.45 5.27l-1-.88c4.9-13.7 12.45-22.48 26.32-22.48 8.07 0 12.64 2.66 17.56 6.84l.19-.18v-15.08c0-6.69-2.69-10.49-9-13.16-4.53-1.95-8.92-3.93-12.81-5.63-13.86-6.15-18.43-10.91-18.43-22.82v-16.53c9.86-4.9 22.13-12.61 30.55-19.84 3.59 4.05 8.76 7.4 15.11 7.4 7.2 0 11.23-2 14.41-4.42l1 .71c-4.39 11.43-10.89 20.4-22.68 20.4-6.13 0-10.68-2.31-15.58-6.89l-.18.18v11.22c0 6.68 1.42 9.3 7 11.8 4.12 1.83 6.5 3 11.42 5.09 15.62 6.71 21.79 9.68 21.79 25.8z"/><path d="m1345.64 327.67c-1.76 1.07-2.93 2.87-2.93 9.5v64.07c-10.55 6.19-23.71 16.18-33.15 23.71-12.67-5.61-17.41-7.74-29.87-12.48a192.23 192.23 0 0 0 -15.69 12.53c-16.5-7.91-24.2-11.41-35.12-16v-.36c2.12-1 3.18-2 3.18-9.65v-52.18c0-9.31-3.85-14-7.9-14a3 3 0 0 0 -2.29 1l-1.42-1.59 16.34-16.48c13.55 4.9 17.94 10.87 17.94 26v56.66a210.1 210.1 0 0 0 20.87 9.17l.35-.36v-69.21c0-2.67-.49-3.38-3.33-5.27a5.69 5.69 0 0 0 -3-1 2.54 2.54 0 0 0 -1.76.5l-1-1.59c4.55-4.2 12.29-11.05 16.64-15.06 5.46 3.84 13.09 8.95 18 11.74v.36c-1.75 1.07-2.88 2.85-2.88 9.5v63.72c6.84 3.34 12.1 4.75 20.53 7.71l.35-.17v-70.44c0-2.67-.67-3.73-3.5-5.64a5.8 5.8 0 0 0 -3-1 2.11 2.11 0 0 0 -1.78.52l-1.37-1.6c4.55-4.18 13-10.69 17.37-14.7 5.43 3.84 13.4 8.95 18.36 11.74z"/><path d="m1167 278.69c-2.11 9.48-8.41 19.68-21.6 20.86v102.74a8 8 0 0 0 4.75 1.94c1.73 0 2.36-.51 3.34-1.94l1.73 1.07c-2.8 6.31-10 21.23-10 21.23a24.49 24.49 0 0 1 -4.2.54c-16.07 0-22.78-6.67-43.21-63.58-19.6-54.43-21.89-57.95-24.79-60.91h-.33v100.1c9.14.35 15.46 4.9 17.75 4.9 1.58 0 2.79-1.41 3.84-2.82l1.79 1.25-13.89 21.42c-5.07-2.83-10.37-5.8-19.68-5.8-9.64 0-16 1.74-21.24 4.9l-.87-.69c5.42-13.53 13-22.14 27.91-23.37v-103.24a16.87 16.87 0 0 0 -7.39-1.92c-6 0-9.61 1.75-13.33 7.69l-2.64-1.55c6.7-10.72 11.6-18.63 15.1-24.59a58.18 58.18 0 0 1 10-1.06c18.94 0 24.46 3.87 43.54 58.13 21 59.72 23.54 63 27 65.85h.39v-100.29c-10.21 0-14.5-4-17.76-4-2.1 0-3.25 1.12-4.37 2.84l-2.31-1.78c4.74-6.34 8.45-11.74 13.88-20.53 3.67 2.95 12.66 6.14 18.6 6.14 8.82 0 12.83-1.59 17.39-3.89z"/><path d="m1052.23 349.81c-3.52 6.14-8.41 16.69-11.27 22.64-14 0-21-4.22-31.21-4.22-4.75 0-6 1-8.79 3.7l-1.58-.88c3.18-6.16 7.72-15.46 10.53-21.59 13 0 23.37 4.38 31.44 4.38 4.74 0 6.84-1.58 9.12-4.91z"/><path d="m1201.91 355.77c-4.78-8.1-9.49-15.64-15.28-24.24v34.47zm20.34-9.31-35.62 23.54v26.86c0 3.67 1.38 6.34 7 8.78 4.37 1.89 7.54 2.79 10.2 2.79 3.5 0 5.7-1.22 9.66-4.55l1.73 1.93c-7.89 6.66-15.08 12.65-22.63 19-8.78-4.19-19.16-9.14-31.27-14.23v-.35c1.92-1 2.83-2.77 2.83-7.19v-61.85c9.28-4.73 26.29-17 37.07-26 8 12.09 14.36 21.43 21 31.24"/></g></svg>