<svg viewBox="0 0 612 792" xmlns="http://www.w3.org/2000/svg"><path d="m444.09 354.91a5.29 5.29 0 0 0 -4.18-1.55 6.32 6.32 0 0 0 -4.09 1.49v.73a5.65 5.65 0 0 1 4.1-1.88 4.13 4.13 0 0 1 3.85 1.88l.36-.67z"/><path d="m62.47 323.83-2.62 1.8-.07 31-14.3 9.89s-2.15-2.15-3.53-1.59l-.07 4.42s-.2 2.9 3.39 2.63l-12.58 9.19v-18.17s-5.87 1.52-2.9 6.71c0 0-11.75-7.26 2.63-14.72v-11.94s-6 .07-2.7 3.8c0 0-4.49.48-3.94-5.67 0 0 .42-4.35 6.64-5v-12.18s-2.35-4.5-5.12.89c0 0-1-6.7 6.77-7 8.3-.29 7.81 8.92 7.81 8.92l9.61-8.64 8.25 7.07 2.55-1.72zm-10.81 4.17-4.59-4.64-5.19 4.35v27.55c4.08 1 9.71 6.29 9.71 6.29z"/><path d="m45.22 357.84v-40.78h-.3v40.78z"/><path d="m52 337.59a4 4 0 0 1 -3.45 1.86 4.59 4.59 0 0 1 -3.39-1.79l.14-.51a4.46 4.46 0 0 0 3.38 2 3.35 3.35 0 0 0 3.18-2z"/><path d="m51.77 343.27a4.08 4.08 0 0 0 -3.32-1.27 5.18 5.18 0 0 0 -3.24 1.19l.13.43a4.23 4.23 0 0 1 3.15-1.48 3.48 3.48 0 0 1 3.15 1.48l.13-.36z"/><path d="m72.15 323.91-6.01 5.66 4.97 5.39 6.02-5.32z"/><path d="m63.72 342.7 7.46-6.56 6 6.75 2.28-1.59.06.16s-2.77 1.87-2.77 3.94v13.41l3 3.77 2.14-1.65.08.22-7.53 6.43-5.54-6.16-2.28 1.86-.13-.26 1.51-1.31s1.17-.62 1.17-3.87v-12.51l-3.57-3.68-1.73 1.18-.16-.13z"/><path d="m93.92 324.67v12.33h4.29v4.63h-4.29v16.58l2.3 3.85 1.87-1.45.18.23-8.15 6.84-5.27-5.47-2.35 1.49-.19-.26 2.35-1.73s1.59-.49 1.66-3.66v-16.45h-2.77v-4.7h2.7v-2.7s-.07-2.9-2.14-2.55c0 0 6.08-5.74 9.81-7z"/><path d="m111.47 324.67v12.33h4.29v4.63h-4.29v16.58l2.41 3.75 1.86-1.45.09.33-8.16 6.84-5.27-5.47-2.35 1.52-.19-.26 2.35-1.73s1.59-.49 1.66-3.66v-16.48h-2.76v-4.7h2.69v-2.7s-.07-2.9-2.14-2.55c0 0 6.08-5.74 9.81-7z"/><path d="m138.22 342.08a12.8 12.8 0 0 1 -3.6 3.94 38.19 38.19 0 0 1 4.91 3.66v10.85l-12.37 7c-.62-1-3.45-3.52-5.32-1.86s.21 3.94.21 3.94-4.56-1.87-4.43-6.5 5.53-7.95 5.53-7.95l-4.28-3.94v-8.7a39 39 0 0 0 12-7.05 6.17 6.17 0 0 0 4.7 2.49c2.9-.07 2.83-3.81 2.83-3.81 1.25 1.66.78 5.85-.2 7.95zm-8 1.52c-2.28-.34-3.66-3.83-3.66-3.83l.24 7.94 2.4 2.58 6.36-6.36a41 41 0 0 1 -5.34-.33zm-.9 7.4-8.56 7.74a16.19 16.19 0 0 1 5-.69c2.07.2 5.32 2.86 6.22 5.35v-9.85a3.19 3.19 0 0 0 -2.7-2.55z"/><path d="m153.7 339.94c1.72-1 5.18-4.63 5.18-4.63l8.28 7 2.35-2.07.08.35-2.14 2.14v17.27c-4.56 1.17-13.2 8.15-13.2 8.15l-8-7.68-3 2.62-.26-.33 2.91-2.83v-30.2c0-1.73-2.14-2.42-2.14-2.42 2.28-3 10-7.05 10-7.05l-.07 19.7zm.07 17.35 6 5.52v-17.55l-5.18-4.35-.83.69v15.69z"/><path d="m177.61 336.48-6.77 6.36.14.29s1.38-1.32 1.94-.7c.32.37 2.41 2.35 2.41 2.35v15.22l-3.18 3.11.25.29 2.49-2 5.9 6.41 7.94-5.18 4.57 4.9 8.63-6.22-.22-.33-2.49 1.8-2.95-3.33v-16.5l3.15-2.78-.32-.49s-2 2.49-3.39 1.11l-4.07-4.36-5.64 5.17 2.63 3v17.4l-2.35 1.59-3.39-4.61v-17.38l-5.25-5.12z"/><path d="m208.43 336-8.22 7.88.22.42 1.17-1s.56-1 1.59-.07 2.61 2.48 2.61 2.48v14.38l-3.87 3.66.23.29 2.14-1.79 6.34 5.72s6.36-5.53 7.81-6.57l-.25-.32-2 1.52-2.85-2.58v-16.69s3.8 3.17 6.42 1.52 4.15-5.6 4.36-8.16a3.53 3.53 0 0 1 -3.18 1.59 3 3 0 0 1 -3-1.87l-4.95 5.49-4.56-5.9z"/><path d="m247.84 340.88.33.16-2.77 2.7v18.11c0 1.65 1.31 2.55 1.52 3.8a9.05 9.05 0 0 1 -.55 3.38l-14 10.37c-.62-1.18-2.42-2.63-5.39-2.83-1.87-.13-5.25 1.38-5.25 1.38-.21-1.73 3.18-7.74 8.64-7.81 4.35-.06 8 3.92 8 3.92l1.8-1.72c.35-1.18-.24-4.07-1-4.48s-1.17-4-1.17-4c-1.32.42-5.67 4.28-5.67 4.28l-8-6.68-2.21 1.79-.25-.29 2.28-2.07v-17.08a37.76 37.76 0 0 0 12.71-8.36l8.25 7.78 2.69-2.35zm-15.71-.47v18.53l5.46 4.55v-17.26z"/><path d="m261 320.45s-9.4 6.36-9.81 8.36c0 0 1.93 0 1.86 1.32v30.54l-3.66 3.25.32.36 1.8-1.59 5.34 5.24s7.26-6 8.57-6.5l-.42-.43-1.87 1.31-2.27-2.23.07-39.6"/><path d="m260.33 343 7.53-6.91 6 6.9 2.35-1.93.25.35-2.35 2.28v18.8s.28 4.77-2.35 7.95-6.77 4.69-11.26 4.63c0 0 4.07-2.56 4.76-4.63a19.62 19.62 0 0 0 1.18-6.78v-17.66l-3.66-3.59-2.22 1.93-.27-1.31z"/><path d="m376.71 341.81a12.6 12.6 0 0 1 -3.59 3.93 39.81 39.81 0 0 1 4.91 3.67v10.85l-12.37 7c-.63-1-3.46-3.53-5.33-1.87s.21 3.94.21 3.94-4.56-1.87-4.42-6.5 5.53-7.94 5.53-7.94l-4.29-3.94v-8.71a39 39 0 0 0 12-7.05 6.11 6.11 0 0 0 4.7 2.49c2.9-.07 2.83-3.8 2.83-3.8 1.25 1.66.78 5.84-.21 7.95zm-8 1.52c-2.28-.35-3.87-3.84-3.87-3.84v8l2.65 2.53 6.35-6.35a40.57 40.57 0 0 1 -5.13-.33zm-.9 7.39-8.66 7.65a18.18 18.18 0 0 1 5.13-.6c2.08.21 5.33 2.86 6.22 5.35v-9.84a3.19 3.19 0 0 0 -2.69-2.56z"/><path d="m391.16 324.39v12.3h4.28v4.63h-4.28v16.59l2.3 3.64 1.87-1.45.18.43-8.15 6.84-5.17-5.37-2.35 1.52-.29-.36 2.35-1.73s1.59-.48 1.65-3.66v-16.45h-2.76v-4.7h2.7v-2.69s-.07-2.91-2.15-2.56c0 0 6.08-5.74 9.82-7z"/><path d="m540.15 323.56v12.3h4.28v4.63h-4.28v16.59l2.3 3.75 1.87-1.46.18.33-8.15 6.85-5.17-5.38-2.35 1.52-.29-.36 2.35-1.73s1.59-.48 1.66-3.66v-16.45h-2.77v-4.7h2.7v-2.69s-.07-2.9-2.14-2.56c0 0 6.08-5.73 9.81-7z"/><path d="m557.56 323.84v12.3h4.29v4.63h-4.29v16.58l2.21 3.65 1.86-1.45.29.43-8.16 6.84-5.16-5.37-2.35 1.55-.3-.36 2.35-1.73s1.59-.48 1.66-3.66v-16.48h-2.76v-4.7h2.69v-2.7s-.07-2.9-2.14-2.55c0 0 6.08-5.74 9.81-7z"/><path d="m330.54 323.55-2.62 1.81-.06 31-14.31 9.88s-2.14-2.14-3.52-1.59l-.03 4.35s-.21 2.91 3.38 2.63l-12.57 9.19v-18.14s-5.88 1.52-2.91 6.7c0 0-11.75-7.26 2.63-14.72v-11.89s-5.94.07-2.7 3.8c0 0-4.49.49-3.94-5.66 0 0 .42-4.36 6.64-5.05v-12.16s-2.35-4.49-5.12.9c0 0-1-6.71 6.78-7 8.29-.3 7.81 8.91 7.81 8.91l9.6-8.64 8.25 7.08 2.56-1.73.17.31m-11.05 4.36-4.35-4.28-5.18 4.39v27c4.07 1 9.46 5.52 9.46 5.52l.07-32.55z"/><path d="m313.39 357.56v-40.77h-.39v40.77z"/><path d="m320.11 337.31a4 4 0 0 1 -3.45 1.66 4.77 4.77 0 0 1 -3.39-1.59v-.71a4.49 4.49 0 0 0 3.39 2 3.37 3.37 0 0 0 3.18-2l.23.64z"/><path d="m319.84 343a3.87 3.87 0 0 0 -3.31-1.56 4.59 4.59 0 0 0 -3.25 1.49v.74a4.29 4.29 0 0 1 3.25-1.88 3.22 3.22 0 0 1 3.05 1.88l.23-.67z"/><path d="m352.11 342.36a1.31 1.31 0 0 0 1.52.07l1.59-1.11.18.36-2.25 1.94v17.05l-13.55 7.6-7.69-6.9-2 1.52-.25-.35 2.14-2.08v-17.55a51.76 51.76 0 0 0 13-7.19s6.66 6 7.32 6.64zm-12.11-2.26v18.22l5.39 5.68v-18z"/><path d="m408.92 351.2v-7.53h-13.06v7.53z"/><path d="m449 316.79s-.21 3.32-2.08 4.15-5.25.89-8.36-2.15c0 0-7.67 7-14 9.4v27l8.84-6.29v-24.79s4.29 4.15 8.91 3.39 7.4-4.28 7.47-7.19-.76-3.52-.76-3.52z"/><path d="m435.96 363.3v-37.87h-.37v37.87z"/><path d="m426.61 324.53s-11.58 7.3-3.73 25.78a21.48 21.48 0 0 0 13.12 12.37s5.39 1.38 7.87-1v-16.9l-4.07-4.15-3.32 2.63-.21-1.25 9.47-7.46 6.66 6.07 2-1.72.19.35-1.94 1.93v16a53.77 53.77 0 0 0 -6.15 3.93c-1.8 1.53-7 6-12.37 6.29 0 0-11.47 1-17.55-9.19s-3-18.66-2.35-20.66 3.8-8.78 12.37-13.06z"/><path d="m444.34 349.24a5.45 5.45 0 0 1 -4.34 1.66 6.55 6.55 0 0 1 -4.27-1.59l.17-.72a5.86 5.86 0 0 0 4.27 2 4.3 4.3 0 0 0 4-2z"/><path d="m455.91 344.43s6.56-5.53 6.91-9.4c0 0 2.35 2.15 4.15 1.94s4-2.28 4-2.28l5.52 5.1 2.28-2 .15.39-2.21 2.21v17.14l3.65 3.72 2-2.14.29.22-6.91 7.95-5.53-5.53a1.66 1.66 0 0 0 -1.65.34c-.77.69-3.94 4.49-3.94 4.49s-4.84.07-6.78-2.83-2.07-7.74-.2-10.36 6.84-5.22 6.84-5.22a13.85 13.85 0 0 0 -8.57-3.77zm12.87 9.57v-8.78a12 12 0 0 0 -3.53-4.83 10.2 10.2 0 0 1 -5.49 4.38s6.6 1.32 9 9.23zm.67 6c.69-5.73-4.15-11.16-4.15-11.16-4.15 2.49-2.83 6.81-1.58 8.81s4.7 3.11 4.7 3.11l1-.76"/><path d="m484.24 344.78s5.05-8.92 5.05-9.47c0 0 4.7 2.28 7.32 2.14s7.26-.76 8.3-1.8a34.7 34.7 0 0 1 -2.7 5.46c-2.21 3.18-9.15 9.24-9.28 9.66s-3.52 3.82-5.18 7.14a11.39 11.39 0 0 1 7.83-2.49 18.52 18.52 0 0 1 8 3.17l1.52-2.14.25.21-5.87 9.95s-2.91-3.87-7.47-3.8-6.22 3.32-6.63 3.46 1-7.23 1.73-8.78c1.24-2.62 4.49-6.7 8.7-10.78l3.19-3.31s-3.52 2.07-6.15 1.58a46.69 46.69 0 0 1 -6.86-2.2l-1.42 2.22-.33-.21z"/><path d="m501.86 345.68s-2.55 1.93-4.07 2-4.56-.35-5.81-.07-6.22 2.76-6.77 6.29a7.06 7.06 0 0 1 3.25-1c1.45.07 3.32.62 4.56.62a8.29 8.29 0 0 0 5.32-2.21 31.24 31.24 0 0 0 3.52-5.59z"/><path d="m527.78 345.68-11.78 9.26v1.45l6.08 5.2 6.42-5.46.36.53-12.86 10.51-7.65-6.94-1.8 1.8-.22-.25 1.79-1.87-.12-16.31c2.22-.83 13.14-8.36 13.14-8.36l6.63 10.44zm-12-5.81.11 14.24 5.45-4.14z"/><path d="m585.55 345.88-11.81 9.26v1.45l6.07 5.21 6.43-5.46.35.53-12.79 10.5-7.55-6.83-1.8 1.8-.32-.36 1.8-1.86-.14-16.31c2.21-.83 13.13-8.36 13.13-8.36zm-12-5.8.1 14.24 5.46-4.14z"/></svg>