<?xml version="1.0" encoding="UTF-8" standalone="no"?>
<!-- Created with Inkscape (http://www.inkscape.org/) -->

<svg
   xmlns:dc="http://purl.org/dc/elements/1.1/"
   xmlns:cc="http://creativecommons.org/ns#"
   xmlns:rdf="http://www.w3.org/1999/02/22-rdf-syntax-ns#"
   xmlns:svg="http://www.w3.org/2000/svg"
   xmlns="http://www.w3.org/2000/svg"
   xmlns:sodipodi="http://sodipodi.sourceforge.net/DTD/sodipodi-0.dtd"
   xmlns:inkscape="http://www.inkscape.org/namespaces/inkscape"
   version="1.1"
   id="svg10"
   xml:space="preserve"
   width="2560"
   height="660.16803"
   viewBox="0 0 2560 660.16803"
   sodipodi:docname="spotlight_logo.svg"
   inkscape:version="0.92.2 5c3e80d, 2017-08-06"><metadata
     id="metadata16"><rdf:RDF><cc:Work
         rdf:about=""><dc:format>image/svg+xml</dc:format><dc:type
           rdf:resource="http://purl.org/dc/dcmitype/StillImage" /><dc:title></dc:title></cc:Work></rdf:RDF></metadata><defs
     id="defs14"><clipPath
       clipPathUnits="userSpaceOnUse"
       id="clipPath26"><path
         d="M 0,495.126 H 1920 V 0 H 0 Z"
         id="path24"
         inkscape:connector-curvature="0" /></clipPath><clipPath
       clipPathUnits="userSpaceOnUse"
       id="clipPath34"><path
         d="M 328.838,435.126 H 904.257 V 79.2749 H 328.838 Z"
         id="path32"
         inkscape:connector-curvature="0" /></clipPath></defs><sodipodi:namedview
     pagecolor="#ffffff"
     bordercolor="#666666"
     borderopacity="1"
     objecttolerance="10"
     gridtolerance="10"
     guidetolerance="10"
     inkscape:pageopacity="0"
     inkscape:pageshadow="2"
     inkscape:window-width="1487"
     inkscape:window-height="689"
     id="namedview12"
     showgrid="false"
     inkscape:zoom="0.6"
     inkscape:cx="1280"
     inkscape:cy="330.08401"
     inkscape:window-x="0"
     inkscape:window-y="0"
     inkscape:window-maximized="0"
     inkscape:current-layer="g18" /><g
     id="g18"
     inkscape:groupmode="layer"
     inkscape:label="spotlight_logo"
     transform="matrix(1.3333333,0,0,-1.3333333,0,660.168)"><g
       id="g20"><g
         id="g22"
         clip-path="url(#clipPath26)"><g
           id="g28"><g
             id="g30" /><g
             id="g42"><g
               clip-path="url(#clipPath34)"
               id="g40"
               style="opacity:0.39999402"><g
                 transform="translate(328.8379,435.126)"
                 id="g38"><path
                   d="m 0,0 162.783,-333.137 c 0,0 181.711,-51.107 412.636,0 C 575.419,-335.03 0,0 0,0"
                   style="fill:#009edb;fill-opacity:1;fill-rule:nonzero;stroke:none"
                   id="path36"
                   inkscape:connector-curvature="0" /></g></g></g></g><g
           id="g44"
           transform="translate(410.8242,263.3023)"><path
             d="m 0,0 c 0,-10.089 1.633,-19.852 4.903,-29.283 3.268,-9.435 7.89,-17.793 13.871,-25.078 5.977,-7.286 13.17,-13.078 21.575,-17.373 8.408,-4.3 17.748,-6.445 28.022,-6.445 10.649,0 20.174,2.285 28.582,6.865 8.405,4.576 15.552,10.552 21.435,17.933 5.883,7.378 10.369,15.736 13.451,25.079 3.081,9.34 4.622,18.775 4.622,28.302 0,10.087 -1.637,19.846 -4.902,29.281 -3.271,9.431 -7.942,17.744 -14.011,24.939 -6.072,7.188 -13.268,12.933 -21.575,17.232 -8.317,4.296 -17.514,6.445 -27.602,6.445 -10.646,0 -20.175,-2.242 -28.582,-6.725 C 31.384,66.688 24.24,60.805 18.354,53.519 12.47,46.233 7.939,37.919 4.763,28.581 1.584,19.237 0,9.71 0,0 m 68.084,-105.621 c -14.67,0 -28.017,2.98 -40.047,8.949 -12.03,5.964 -22.348,13.886 -30.953,23.763 -8.609,9.875 -15.257,21.17 -19.95,33.887 -4.694,12.712 -7.041,25.718 -7.041,39.022 0,13.884 2.494,27.184 7.481,39.9 4.987,12.713 11.883,23.957 20.683,33.74 8.804,9.778 19.217,17.553 31.247,23.324 12.03,5.768 25.083,8.655 39.167,8.655 14.67,0 27.969,-3.08 39.9,-9.242 11.929,-6.16 22.199,-14.229 30.807,-24.204 8.605,-9.975 15.256,-21.271 19.95,-33.886 4.693,-12.617 7.043,-25.479 7.043,-38.58 0,-13.891 -2.496,-27.19 -7.483,-39.902 -4.987,-12.717 -11.835,-23.912 -20.537,-33.594 -8.705,-9.681 -19.07,-17.41 -31.1,-23.176 -12.027,-5.773 -25.084,-8.656 -39.167,-8.656"
             style="fill:#ffffff;fill-opacity:1;fill-rule:nonzero;stroke:none"
             id="path46"
             inkscape:connector-curvature="0" /></g></g></g><g
       aria-label="SPOTLIGHT"
       transform="matrix(1,0,0,-1,46,163.8281)"
       style="font-variant:normal;font-weight:500;font-stretch:normal;font-size:280.20788574px;font-family:'Raleway Medium';-inkscape-font-specification:Raleway-Medium;writing-mode:lr-tb;fill:#333333;fill-opacity:1;fill-rule:nonzero;stroke:none"
       id="text50"><path
         d="m 140.66436,-157.19662 q -3.3625,-3.92291 -8.96665,-7.56562 -5.60416,-3.6427 -12.60936,-6.44478 -7.0052,-3.08228 -15.41143,-4.76353 -8.126031,-1.96146 -17.092683,-1.96146 -23.257255,0 -34.185362,8.68645 -10.6479,8.68644 -10.6479,23.81767 0,8.12603 3.082287,13.44998 3.082286,5.32395 9.527068,9.24686 6.724989,3.6427 16.532265,6.44478 9.807276,2.80208 23.257255,5.88436 15.41143,3.3625 27.74058,7.84582 12.60936,4.203122 21.2958,10.647903 8.96665,6.444782 13.44998,15.691642 4.76353,9.24686 4.76353,22.696839 0,14.290602 -5.60416,24.938502 -5.60415,10.367691 -15.41143,17.372889 -9.52707,6.7249888 -22.69684,10.0874835 -13.16977,3.0822867 -28.581202,3.0822867 -22.977047,0 -43.712431,-7.0051971 Q 24.938502,-12.329147 8.1260287,-26.059333 l 12.0489393,-21.2958 q 4.483326,4.763534 11.488523,9.527068 7.285405,4.763534 16.252057,8.686445 9.246861,3.642702 19.614552,6.164573 10.6479,2.241663 22.136423,2.241663 21.295797,0 33.064527,-7.565612 11.76874,-7.565613 11.76874,-22.696839 0,-8.406237 -3.92292,-14.010394 -3.6427,-5.884366 -10.9281,-10.087484 -7.28541,-4.203119 -18.21352,-7.285405 -10.647895,-3.362495 -24.378081,-6.72499 -15.131226,-3.642702 -26.61975,-7.84582 -11.488523,-4.203122 -19.334344,-10.087482 -7.565613,-5.88437 -11.488523,-14.2906 -3.92291,-8.40624 -3.92291,-20.17497 0,-14.2906 5.323949,-25.21871 5.32395,-10.92811 14.851018,-18.49372 9.527068,-7.56562 22.696839,-11.20832 13.169771,-3.92291 28.581204,-3.92291 20.174968,0 36.427028,6.16458 16.25205,6.16457 28.86141,16.53226 z"
         style=""
         id="path3764" /><path
         d="m 186.05804,0 v -198.9476 h 82.94154 q 13.16977,0 24.09787,5.60416 11.20832,5.32395 19.05414,14.57081 8.12603,8.96665 12.60936,20.45517 4.48332,11.20832 4.48332,22.97705 0,12.32915 -4.20312,23.81767 -4.20311,11.48852 -12.04894,20.455177 -7.56561,8.966652 -18.49372,14.290602 -10.6479,5.32395 -23.81767,5.32395 H 211.27675 V 0 Z m 25.21871,-93.869642 h 58.00303 q 7.84582,0 14.0104,-3.082286 6.44478,-3.362492 10.92811,-8.966652 4.48332,-5.88437 7.00519,-13.44998 2.52187,-7.56561 2.52187,-15.97185 0,-8.68644 -3.08228,-16.25206 -2.80208,-7.56561 -7.84582,-13.16977 -4.76354,-5.60415 -11.48853,-8.68644 -6.44478,-3.08229 -13.73018,-3.08229 h -56.32179 z"
         style=""
         id="path3766" /><path
         d="m 432.9212,1.4010394 q -21.01559,0 -38.38848,-8.4062365 -17.09268,-8.6864449 -29.42183,-22.6968389 -12.32915,-14.290602 -19.05414,-32.504115 -6.72499,-18.213512 -6.72499,-37.267648 0,-19.894761 7.0052,-38.108271 7.28541,-18.21351 19.89476,-32.22391 12.60936,-14.01039 29.70204,-22.13642 17.37289,-8.40624 37.54785,-8.40624 21.01559,0 38.10828,8.96665 17.09268,8.68645 29.42182,22.97705 12.32915,14.2906 19.05414,32.50412 6.72499,17.9333 6.72499,36.707228 0,19.89476 -7.28541,38.108273 -7.00519,18.213512 -19.61455,32.223907 -12.32914,13.730186 -29.70203,22.1364227 -17.09268,8.1260287 -37.26765,8.1260287 z M 364.83068,-99.473799 q 0,15.131225 4.76354,29.421828 5.04374,14.010394 14.01039,24.938501 8.96665,10.928108 21.57601,17.372889 12.60935,6.444782 28.02079,6.444782 15.97184,0 28.5812,-6.72499 12.60935,-7.005197 21.2958,-17.933304 8.96665,-11.208316 13.44998,-25.21871 4.76353,-14.010394 4.76353,-28.300996 0,-15.131231 -5.04374,-29.141621 -4.76353,-14.2906 -14.01039,-24.9385 -8.96666,-10.92811 -21.57601,-17.37289 -12.32915,-6.44478 -27.46037,-6.44478 -15.97185,0 -28.58121,6.72499 -12.60935,6.72499 -21.57601,17.65309 -8.68644,10.92811 -13.44997,24.93851 -4.76354,14.01039 -4.76354,28.581201 z"
         style=""
         id="path3768" /><path
         d="M 690.71245,-176.53097 H 622.06152 V 0 h -25.21871 v -176.53097 h -68.65093 v -22.41663 h 162.52057 z"
         style=""
         id="path3770" /><path
         d="m 710.88743,0 v -198.9476 h 25.21871 V -22.416631 H 847.06847 V 0 Z"
         style=""
         id="path3772" /><path
         d="m 866.1226,0 v -198.9476 h 25.21871 V 0 Z"
         style=""
         id="path3774" /><path
         d="m 1070.9546,-26.899957 q -26.3396,28.3009964 -60.5249,28.3009964 -19.8948,0 -36.98748,-8.6864444 -16.81247,-8.686444 -29.14162,-22.696839 -12.32914,-14.290602 -19.61455,-32.504115 -7.0052,-18.213512 -7.0052,-37.547861 0,-20.17496 7.0052,-38.10827 7.0052,-18.21351 19.33435,-31.9437 12.32914,-14.01039 29.42182,-22.13642 17.09268,-8.12603 36.98748,-8.12603 28.8614,0 47.3551,12.04894 18.7739,12.04894 28.5812,31.38328 l -19.3343,13.44998 q -8.9667,-17.37289 -23.8177,-25.77912 -14.851,-8.40624 -33.3448,-8.40624 -15.13118,0 -27.46032,6.72499 -12.32915,6.44478 -21.0156,17.37289 -8.68644,10.6479 -13.44997,24.9385 -4.76354,14.01039 -4.76354,29.141621 0,15.971849 5.32395,30.262451 5.32395,14.010395 14.57081,24.938502 9.24686,10.6479 21.85622,16.812473 12.60935,6.164574 27.46035,6.164574 32.5041,0 58.5635,-31.383284 v -27.460372 h -42.8718 v -19.054137 h 64.1676 V 0 h -21.2958 z"
         style=""
         id="path3776" /><path
         d="M 1282.2313,-198.9476 V 0 h -25.2187 V -90.507147 H 1147.4513 V 0 h -25.2187 v -198.9476 h 25.2187 v 86.02382 h 109.5613 v -86.02382 z"
         style=""
         id="path3778" /><path
         d="M 1464.9269,-176.53097 H 1396.276 V 0 h -25.2187 v -176.53097 h -68.6509 v -22.41663 h 162.5205 z"
         style=""
         id="path3780" /></g><g
       aria-label="PA"
       transform="matrix(1,0,0,-1,1507.2842,163.8281)"
       style="font-variant:normal;font-weight:bold;font-stretch:normal;font-size:280.20788574px;font-family:Raleway;-inkscape-font-specification:Raleway-Bold;writing-mode:lr-tb;fill:#009edb;fill-opacity:1;fill-rule:nonzero;stroke:none"
       id="text54"><path
         d="m 20.735384,0 v -198.9476 h 84.342576 q 13.73018,0 25.21871,5.88437 11.76873,5.60415 20.17496,15.13122 8.40624,9.24686 13.16978,21.2958 4.76353,11.76873 4.76353,23.81767 0,12.60936 -4.48333,24.6583 -4.48332,11.768727 -12.60935,21.015588 -8.12603,9.24686 -19.61455,14.851017 -11.48853,5.604158 -25.21871,5.604158 H 59.404072 V 0 Z m 38.668688,-100.59463 h 44.833258 q 10.6479,0 17.6531,-8.68645 7.28541,-8.68644 7.28541,-23.53746 0,-7.56561 -2.24167,-13.44998 -2.24166,-6.16457 -5.88436,-10.36769 -3.64271,-4.20312 -8.68645,-6.16457 -4.76353,-2.24166 -9.80727,-2.24166 H 59.404072 Z"
         style=""
         id="path3783" /><path
         d="m 230.8913,-198.9476 h 34.18536 L 340.73279,0 H 300.94327 L 282.44955,-49.596796 H 212.958 L 194.74448,0 h -39.78952 z m 44.55305,122.170639 -27.46037,-78.177999 -28.5812,78.177999 z"
         style=""
         id="path3785" /></g></g></svg>