<svg viewBox="0 0 294.93 41.6" xmlns="http://www.w3.org/2000/svg"><path d="m11.6 31.51v6.24a3.83 3.83 0 0 1 -3.8 3.85h-3.95a3.85 3.85 0 0 1 -3.85-3.85v-33.9a3.85 3.85 0 0 1 3.85-3.85h4a3.83 3.83 0 0 1 3.8 3.85v4.31h-3.85v-4.83h-3.95v34.94h4v-6.76z"/><path d="m22.2 38.27h5.67v3.33h-9.51v-41.6h9.51v3.33h-5.67v15.81h4.8v3.32h-4.8z"/><path d="m43.57 23.5-.21-23.5h3.64v41.6h-3l-5.78-26.21.26 26.21h-3.59v-41.6h3.59z"/><path d="m57 3.33h-3.81v-3.33h11.49v3.33h-3.84v38.27h-3.84z"/><path d="m70.92 0h7.8a3.83 3.83 0 0 1 3.8 3.85v14.87a3.85 3.85 0 0 1 -3.07 3.79l3.8 19.09h-3.85l-3.49-19h-1.14v19h-3.85zm3.85 19.24h4v-15.91h-4z"/><path d="m93.39 38.27h5.66v3.33h-9.51v-41.6h9.51v3.33h-5.66v15.81h4.83v3.32h-4.83z"/><path d="m119.8 0h7.75a3.85 3.85 0 0 1 3.85 3.85v33.9a3.85 3.85 0 0 1 -3.85 3.85h-7.75zm3.8 38.27h4v-34.94h-4z"/><path d="m141.85 31.67-1 9.93h-3.59l4.64-41.6h3.95l4.63 41.6h-3.85l-.93-9.93zm3.53-3.33-1.61-16.43-1.61 16.43z"/><path d="m156.72 0h3.84v41.6h-3.84z"/><path d="m172.47 38.27h5.46v3.33h-9.31v-41.6h3.85z"/><path d="m189.63 22.51v19.09h-3.84v-19.09l-4.99-22.51h3.84l3.23 16.75 3-16.75h3.84z"/><path d="m216.72 3.33h-3.84v-3.33h11.49v3.33h-3.85v38.27h-3.8z"/><path d="m230.87 0h3.85v41.6h-3.85z"/><path d="m250.06 33.49-4-18.1.26 26.21h-3.58v-41.6h3.58l5.1 23.5 4.93-23.5h3.59v41.6h-3.59l.21-26.21-4 18.1z"/><path d="m271.58 38.27h5.67v3.33h-9.52v-41.6h9.52v3.33h-5.67v15.81h4.84v3.32h-4.84z"/><path d="m283.59 3.85a3.83 3.83 0 0 1 3.8-3.85h3.74a3.83 3.83 0 0 1 3.8 3.85v5.87h-3.8v-6.39h-3.74v7.9a6.08 6.08 0 0 0 .94 3.23l5.3 9a7.39 7.39 0 0 1 1.3 4.47v9.83a3.83 3.83 0 0 1 -3.8 3.85h-3.95a3.85 3.85 0 0 1 -3.85-3.85v-6.25h3.85v6.76h3.95v-9.88a6.12 6.12 0 0 0 -.93-3.22l-5.3-9a7.24 7.24 0 0 1 -1.31-4.47z"/></svg>