<svg viewBox="0 0 430.79 164.7" xmlns="http://www.w3.org/2000/svg"><g fill="#d1c6c1"><path d="m274.58 24.88v11.05a5.77 5.77 0 0 1 -1.41 4.34 4.59 4.59 0 0 1 -3.43 1.22 4.64 4.64 0 0 1 -2.58-.59 6.36 6.36 0 0 1 -1.54-1.36l2.38-2.63a4 4 0 0 0 .58.9 1.21 1.21 0 0 0 .93.37 1.19 1.19 0 0 0 .88-.34 2.74 2.74 0 0 0 .48-1.93v-11z"/><path d="m294 26.87a8.65 8.65 0 0 1 0 12.23 8.69 8.69 0 0 1 -6.28 2.39 9 9 0 0 1 -6.34-2.39 8.28 8.28 0 0 1 -2.53-6 9.07 9.07 0 0 1 2.51-6.16 9.6 9.6 0 0 1 12.64 0m-9.86 2.49a5 5 0 0 0 -1.44 3.57 4.87 4.87 0 0 0 1.48 3.65 4.79 4.79 0 0 0 3.49 1.35 4.8 4.8 0 0 0 5-5 5.11 5.11 0 0 0 -1.41-3.65 5.19 5.19 0 0 0 -3.57-1.35 5 5 0 0 0 -3.55 1.39"/><path d="m314.54 34.5a6.88 6.88 0 0 1 -1.8 5.14 7.86 7.86 0 0 1 -10.13 0 6.9 6.9 0 0 1 -1.81-5.14v-9.62h3.75v9.52a3.82 3.82 0 0 0 .86 2.73 3 3 0 0 0 2.26.85 3 3 0 0 0 2.27-.85 3.85 3.85 0 0 0 .85-2.73v-9.52h3.75z"/><path d="m325.26 24.88a5.84 5.84 0 0 1 4.15 1.41 4.92 4.92 0 0 1 1.41 3.63 4.43 4.43 0 0 1 -1.27 3.31 5.06 5.06 0 0 1 -2.26 1.24l5 6.65h-4.59l-4.38-6.4v6.4h-3.75v-16.24zm-1.94 7.38h.85a3.1 3.1 0 0 0 2.24-.71 2.18 2.18 0 0 0 .59-1.55 2 2 0 0 0 -.76-1.66 3.68 3.68 0 0 0 -2.07-.51h-.87z"/><path d="m335.82 41.12v-16.24h3.26l8.82 10.47v-10.47h3.75v16.24h-3.26l-8.82-10.52v10.52z"/><path d="m366.22 38.05h-6.14l-1.24 3.07h-3.9l6.56-16.24h3.43l6.41 16.24h-3.9zm-1-2.87-2-5.46-2 5.46z"/><path d="m378.38 24.88v13.08h5.04v3.16h-8.79v-16.24z"/><path d="m387.08 24.88h3.75v16.25h-3.75z"/><path d="m404.31 28.85a4 4 0 0 0 -2.73-1.17 2 2 0 0 0 -1.58.56 1.42 1.42 0 0 0 -.42 1 1.12 1.12 0 0 0 .37.9 6.56 6.56 0 0 0 2 .93l1.22.46a6.57 6.57 0 0 1 2.22 1.24 4 4 0 0 1 1.19 3 5.78 5.78 0 0 1 -1.44 4 6.29 6.29 0 0 1 -4.6 1.66 6.87 6.87 0 0 1 -3.21-.68 10.48 10.48 0 0 1 -2.33-1.75l1.95-2.68a10 10 0 0 0 1.51 1.24 3.76 3.76 0 0 0 2 .59 2.62 2.62 0 0 0 1.71-.56 1.71 1.71 0 0 0 .58-1.32 1.43 1.43 0 0 0 -.56-1.17 8 8 0 0 0 -1.9-.9l-1.29-.43a5.51 5.51 0 0 1 -2.26-1.29 4 4 0 0 1 -1-2.83 5 5 0 0 1 1.41-3.65 5.21 5.21 0 0 1 4-1.49 7.88 7.88 0 0 1 4.85 1.61z"/><path d="m410.04 41.12 2.6-16.24h3.12l4.04 9.71 4.05-9.71h3.11l2.61 16.24h-3.75l-1.29-9.69-4.07 9.69h-1.32l-4.06-9.69-1.29 9.69z"/><path d="m268.1 60.18h3.75v16.25h-3.75z"/><path d="m276.95 76.42v-16.24h3.26l8.82 10.47v-10.47h3.75v16.24h-3.26l-8.82-10.52v10.52z"/><path d="m297.81 76.42v-16.24h3.26l8.82 10.47v-10.47h3.75v16.24h-3.27l-8.81-10.52v10.52z"/><path d="m333.06 62.17a8.65 8.65 0 0 1 0 12.23 8.69 8.69 0 0 1 -6.29 2.39 8.94 8.94 0 0 1 -6.33-2.39 8.28 8.28 0 0 1 -2.53-6 9.07 9.07 0 0 1 2.51-6.16 9.6 9.6 0 0 1 12.64 0m-9.87 2.49a5 5 0 0 0 -1.43 3.68 4.82 4.82 0 0 0 5 5 4.8 4.8 0 0 0 5-5 5.11 5.11 0 0 0 -1.41-3.65 5.19 5.19 0 0 0 -3.58-1.39 5 5 0 0 0 -3.56 1.39"/><path d="m341.4 60.18 4.11 10.4 4.12-10.4h4.04l-6.89 16.24h-2.53l-6.9-16.24z"/><path d="m364.79 73.35h-6.14l-1.25 3.07h-3.89l6.55-16.24h3.43l6.41 16.24h-3.9zm-1-2.87-2-5.46-2 5.46z"/><path d="m377.87 63.34v13.08h-3.75v-13.08h-3.53v-3.16h10.81v3.16z"/><path d="m384.91 60.18h3.75v16.25h-3.75z"/><path d="m408.15 62.17a8.63 8.63 0 0 1 0 12.23 8.67 8.67 0 0 1 -6.28 2.39 8.94 8.94 0 0 1 -6.33-2.39 8.29 8.29 0 0 1 -2.54-6 9.07 9.07 0 0 1 2.51-6.16 9.6 9.6 0 0 1 12.64 0m-9.86 2.49a5 5 0 0 0 -1.44 3.68 4.84 4.84 0 0 0 1.49 3.59 4.78 4.78 0 0 0 3.48 1.34 4.92 4.92 0 0 0 3.61-1.39 4.87 4.87 0 0 0 1.41-3.63 5.11 5.11 0 0 0 -1.41-3.65 5.23 5.23 0 0 0 -3.58-1.39 5 5 0 0 0 -3.56 1.39"/><path d="m414.96 76.42v-16.24h3.26l8.82 10.47v-10.47h3.75v16.24h-3.27l-8.81-10.52v10.52z"/><path d="m273.17 94.71a8.55 8.55 0 0 1 6.41 2.29 8.51 8.51 0 0 1 .12 11.57 8.77 8.77 0 0 1 -6.41 2.43h-5.29v-16.29zm-1.39 13.08h1a5.88 5.88 0 0 0 3.7-1.1 5.07 5.07 0 0 0 1.59-3.92 4.85 4.85 0 0 0 -1.34-3.51 5.37 5.37 0 0 0 -4-1.39h-1z"/><path d="m295.37 97.87h-5.43v3.15h5.16v3.16h-5.16v3.61h5.43v3.16h-9.18v-16.24h9.18z"/><path d="m299.12 110.95 2.61-16.24h3.12l4.04 9.72 4.04-9.72h3.12l2.61 16.24h-3.76l-1.28-9.69-4.07 9.69h-1.32l-4.07-9.69-1.29 9.69z"/><path d="m337.32 96.71a8.64 8.64 0 0 1 0 12.22 8.67 8.67 0 0 1 -6.28 2.39 9 9 0 0 1 -6.34-2.39 8.32 8.32 0 0 1 -2.53-6 9.07 9.07 0 0 1 2.51-6.16 9.58 9.58 0 0 1 12.64 0m-9.86 2.48a5 5 0 0 0 -1.44 3.68 4.84 4.84 0 0 0 1.49 3.65 4.75 4.75 0 0 0 3.48 1.34 4.81 4.81 0 0 0 5-5 5.12 5.12 0 0 0 -1.42-3.65 5.19 5.19 0 0 0 -3.57-1.47 5 5 0 0 0 -3.55 1.39"/><path d="m355.87 110.44a7.58 7.58 0 0 1 -3.58.88 8.72 8.72 0 0 1 -6.39-2.32 8.72 8.72 0 0 1 0-12.28 8.64 8.64 0 0 1 6.1-2.38 9.74 9.74 0 0 1 3.9.9v4.34a5.14 5.14 0 0 0 -3.8-1.73 4.57 4.57 0 0 0 -3.32 1.27 5.19 5.19 0 0 0 -1.53 3.75 4.74 4.74 0 0 0 4.92 4.94 5.15 5.15 0 0 0 3.73-1.68z"/><path d="m366 94.71a5.81 5.81 0 0 1 4.14 1.41 4.92 4.92 0 0 1 1.41 3.63 4.43 4.43 0 0 1 -1.27 3.31 4.92 4.92 0 0 1 -2.26 1.24l5 6.65h-4.58l-4.38-6.4v6.45h-3.75v-16.29zm-1.95 7.38h.85a3.06 3.06 0 0 0 2.24-.71 2.18 2.18 0 0 0 .61-1.58 2 2 0 0 0 -.75-1.66 3.7 3.7 0 0 0 -2.07-.51h-.88z"/><path d="m386.4 107.88h-6.14l-1.26 3.12h-3.9l6.55-16.24h3.44l6.4 16.24h-3.9zm-1-2.87-2-5.46-2 5.46z"/><path d="m406.06 110.44a7.58 7.58 0 0 1 -3.58.88 8.68 8.68 0 0 1 -6.38-2.32 8.48 8.48 0 0 1 6.06-14.62 9.71 9.71 0 0 1 3.9.9v4.34a5.14 5.14 0 0 0 -3.8-1.73 4.55 4.55 0 0 0 -3.26 1.23 5.2 5.2 0 0 0 -1.54 3.75 4.86 4.86 0 0 0 1.42 3.58 4.93 4.93 0 0 0 3.5 1.36 5.14 5.14 0 0 0 3.73-1.68z"/><path d="m414.57 103.38-5.83-8.67h4.44l3.26 5.04 3.26-5.04h4.44l-5.82 8.67v7.57h-3.75z"/></g><g fill="#414042"><path d="m59.06 23.27v18.67h-5.35v-18.67h-5.04v-4.51h15.43v4.51z"/><path d="m72.77 27.58h9.25v-8.82h5.35v23.18h-5.35v-9.84h-9.25v9.84h-5.35v-23.18h5.35z"/><path d="m106.31 23.27h-7.75v4.49h7.36v4.52h-7.36v5.14h7.75v4.52h-13.11v-23.18h13.11z"/><path d="m59.05 53.34v18.66h7.19v4.52h-12.55v-23.18z"/><path d="m82.76 57.85h-7.75v4.49h7.37v4.52h-7.37v5.14h7.75v4.52h-13.1v-23.18h13.1z"/><path d="m88.08 76.52v-23.18h4.65l12.58 14.94v-14.94h5.36v23.18h-4.66l-12.58-15.01v15.01z"/><path d="m129.38 57.85h-7.51v4.49h6.95v4.52h-6.95v9.66h-5.35v-23.18h12.86z"/><path d="m146.95 57.85h-7.75v4.49h7.37v4.52h-7.37v5.14h7.75v4.52h-13.1v-23.18h13.1z"/><path d="m163.85 59a5.65 5.65 0 0 0 -3.85-1.67 2.93 2.93 0 0 0 -2.26.8 2.11 2.11 0 0 0 -.59 1.46 1.65 1.65 0 0 0 .52 1.29 9.43 9.43 0 0 0 2.92 1.32l1.74.66a9.17 9.17 0 0 1 3.16 1.77 5.79 5.79 0 0 1 1.71 4.31 8.35 8.35 0 0 1 -2 5.74c-2.05 2.15-5 2.36-6.57 2.36a9.82 9.82 0 0 1 -4.59-1 14.78 14.78 0 0 1 -3.41-2.54l2.78-3.82a13.87 13.87 0 0 0 2.16 1.77 5.42 5.42 0 0 0 2.92.83 3.7 3.7 0 0 0 2.43-.8 2.39 2.39 0 0 0 .84-1.87 2.06 2.06 0 0 0 -.8-1.67 11.74 11.74 0 0 0 -2.71-1.29l-2.01-.65a7.82 7.82 0 0 1 -3.24-1.82 5.72 5.72 0 0 1 -1.39-4 7.12 7.12 0 0 1 2-5.21 7.45 7.45 0 0 1 5.73-2.12 11.16 11.16 0 0 1 6.88 2.29z"/><path d="m179.81 57.85v18.67h-5.35v-18.67h-5.04v-4.51h15.43v4.51z"/><path d="m53.69 87.92h5.35v23.18h-5.35z"/><path d="m64.87 111.1v-23.18h4.66l12.58 14.94v-14.94h5.35v23.18h-4.65l-12.58-15.02v15.02z"/><path d="m105 93.58a5.65 5.65 0 0 0 -3.89-1.67 2.93 2.93 0 0 0 -2.26.8 2.07 2.07 0 0 0 -.59 1.46 1.62 1.62 0 0 0 .52 1.29 9.43 9.43 0 0 0 2.92 1.32l1.74.66a9.17 9.17 0 0 1 3.16 1.77 5.77 5.77 0 0 1 1.7 4.31 8.3 8.3 0 0 1 -2 5.74c-2 2.15-5 2.36-6.56 2.36a9.82 9.82 0 0 1 -4.59-1 14.78 14.78 0 0 1 -3.41-2.54l2.78-3.82a13.87 13.87 0 0 0 2.16 1.77 5.42 5.42 0 0 0 2.92.83 3.71 3.71 0 0 0 2.43-.8 2.38 2.38 0 0 0 .83-1.87 2 2 0 0 0 -.8-1.67 11.55 11.55 0 0 0 -2.71-1.29l-1.91-.66a7.76 7.76 0 0 1 -3.23-1.84 5.67 5.67 0 0 1 -1.39-4 7.12 7.12 0 0 1 2-5.21 7.44 7.44 0 0 1 5.73-2.12 11.16 11.16 0 0 1 6.88 2.29z"/><path d="m120.98 92.44v18.66h-5.35v-18.66h-5.04v-4.52h15.43v4.52z"/><path d="m129.38 87.92h5.35v23.18h-5.35z"/><path d="m148.46 92.44v18.66h-5.36v-18.66h-5.03v-4.52h15.43v4.52z"/><path d="m176.41 101.65a9.8 9.8 0 0 1 -2.57 7.33c-2.22 2.29-4.79 2.64-7.23 2.64s-5-.35-7.23-2.64a9.84 9.84 0 0 1 -2.57-7.33v-13.73h5.35v13.59a5.46 5.46 0 0 0 1.22 3.89 4.89 4.89 0 0 0 6.46 0 5.46 5.46 0 0 0 1.22-3.89v-13.59h5.35z"/><path d="m190.14 92.44v18.66h-5.35v-18.66h-5.04v-4.52h15.43v4.52z"/><path d="m211.6 92.44h-7.75v4.48h7.36v4.52h-7.36v5.14h7.75v4.52h-13.1v-23.18h13.1z"/></g><g fill="#f95346"><path d="m230.35 136.6v-6.75h-195.5v-129.85h-6.75v136.6z"/><path d="m230.35 150.65v-6.74h-209.56v-125.15h-6.74v131.89z"/><path d="m230.35 164.7v-6.74h-223.61v-120.48h-6.74v127.22z"/></g><path d="m248.5 0h1.41v164.7h-1.41z" fill="#d1c6c1"/></svg>