<svg enable-background="new 0 0 230.4 164.7" viewBox="0 0 230.4 164.7" xmlns="http://www.w3.org/2000/svg"><g fill="#414042"><path d="m59.1 23.3v18.7h-5.4v-18.7h-5v-4.5h15.4v4.5z"/><path d="m72.8 27.6h9.2v-8.8h5.4v23.2h-5.4v-9.8h-9.2v9.8h-5.4v-23.2h5.4z"/><path d="m106.3 23.3h-7.8v4.5h7.4v4.5h-7.4v5.2h7.8v4.5h-13.1v-23.2h13.1z"/><path d="m59 53.3v18.7h7.2v4.5h-12.5v-23.2z"/><path d="m82.8 57.9h-7.8v4.5h7.4v4.5h-7.4v5.1h7.8v4.5h-13.1v-23.2h13.1z"/><path d="m88.1 76.5v-23.2h4.6l12.6 14.9v-14.9h5.4v23.2h-4.7l-12.6-15v15z"/><path d="m129.4 57.9h-7.5v4.5h7v4.5h-7v9.7h-5.4v-23.3h12.9z"/><path d="m147 57.9h-7.8v4.5h7.4v4.5h-7.4v5.1h7.8v4.5h-13.1v-23.2h13.1z"/><path d="m163.9 59c-1-1-2.4-1.6-3.9-1.7-.8-.1-1.7.2-2.3.8-.4.4-.6.9-.6 1.5 0 .5.2 1 .5 1.3.9.6 1.9 1 2.9 1.3l1.7.7c1.2.4 2.2 1 3.2 1.8 1.1 1.1 1.8 2.7 1.7 4.3.1 2.1-.7 4.1-2 5.7-2.1 2.2-5 2.4-6.6 2.4s-3.2-.3-4.6-1c-1.3-.7-2.4-1.5-3.4-2.5l2.8-3.8c.7.7 1.4 1.3 2.2 1.8.9.5 1.9.8 2.9.8.9 0 1.7-.3 2.4-.8.5-.5.8-1.2.8-1.9s-.3-1.3-.8-1.7c-.8-.6-1.8-1-2.7-1.3l-1.9-.7c-1.2-.3-2.3-1-3.2-1.8-1-1.1-1.5-2.5-1.4-4-.1-1.9.7-3.8 2-5.2 1.5-1.5 3.6-2.3 5.7-2.1 2.5 0 4.9.8 6.9 2.3z"/><path d="m179.8 57.9v18.7h-5.4v-18.7h-5v-4.5h15.4v4.5z"/><path d="m53.7 87.9h5.3v23.2h-5.4v-23.2z"/><path d="m64.9 111.1v-23.2h4.7l12.6 14.9v-14.9h5.4v23.2h-4.6l-12.6-15v15z"/><path d="m105 93.6c-1-1-2.4-1.6-3.9-1.7-.8-.1-1.7.2-2.3.8-.4.4-.6.9-.6 1.5 0 .5.2 1 .5 1.3.9.6 1.9 1 2.9 1.3l1.7.7c1.2.4 2.2 1 3.2 1.8 1.1 1.1 1.8 2.7 1.7 4.3.1 2.1-.7 4.1-2 5.7-2 2.2-5 2.4-6.6 2.4s-3.2-.3-4.6-1c-1.3-.7-2.4-1.5-3.4-2.5l2.8-3.8c.7.7 1.4 1.3 2.2 1.8.9.5 1.9.8 2.9.8.9 0 1.7-.3 2.4-.8.5-.5.8-1.2.8-1.9s-.3-1.3-.8-1.7c-.8-.5-1.8-1-2.7-1.3l-1.9-.7c-1.2-.3-2.3-1-3.2-1.8-1-1.1-1.5-2.5-1.4-4-.1-1.9.7-3.8 2-5.2 1.5-1.5 3.6-2.3 5.7-2.1 2.5 0 4.9.8 6.9 2.3z"/><path d="m121 92.4v18.7h-5.4v-18.7h-5v-4.5h15.4v4.5z"/><path d="m129.4 87.9h5.4v23.2h-5.4z"/><path d="m148.5 92.4v18.7h-5.4v-18.7h-5v-4.5h15.4v4.5z"/><path d="m176.4 101.6c.2 2.7-.7 5.3-2.6 7.3-2.2 2.3-4.8 2.6-7.2 2.6s-5-.4-7.2-2.6c-1.8-2-2.8-4.6-2.6-7.3v-13.7h5.4v13.6c-.1 1.4.3 2.8 1.2 3.9 1.9 1.6 4.6 1.6 6.5 0 .9-1.1 1.3-2.5 1.2-3.9v-13.6h5.4z"/><path d="m190.1 92.4v18.7h-5.4v-18.7h-5v-4.5h15.4v4.5z"/><path d="m211.6 92.4h-7.8v4.5h7.4v4.5h-7.4v5.1h7.8v4.5h-13.1v-23.1h13.1z"/></g><g fill="#f95346"><path d="m230.4 136.6v-6.8h-195.6v-129.8h-6.7v136.6z"/><path d="m230.4 150.7v-6.8h-209.6v-125.1h-6.7v131.9z"/><path d="m230.4 164.7v-6.7h-223.7v-120.5h-6.7v127.2z"/></g></svg>