<svg viewBox="0 0 556 286" xmlns="http://www.w3.org/2000/svg"><path d="m26.16 200.59v-177.59c0-2.53-1.9-4.12-4.74-4.12h-11.72v-7.88h82v7.91h-24.39a4.55 4.55 0 0 0 -4.75 4.09v181.7h38c38.93 0 54.75-23.43 62.35-68.68h4.75l-4.75 76.59h-153.21v-7.91h11.72c2.84 0 4.74-1.58 4.74-4.11"/><path d="m384.8 204.7h11.71c2.84 0 4.74-1.58 4.74-4.11v-177.59c0-2.54-1.9-4.12-4.74-4.12h-11.71v-7.88h84.2c52.55 0 81.66 20.89 81.66 63 0 50.64-33.23 64.25-79.44 64.25h-33.58v63c.34 2.22 2.23 3.49 4.76 3.49h24.37v7.91h-82v-7.95zm52.84-185.79v111.41h26.91c33.24 0 44.31-23.1 44.31-55.7 0-35.45-13-55.71-48.42-55.71z"/><path d="m214.6 204.7c-2.83 0-4.74-1.58-4.74-4.11v-131.17c-2.93-2.8-5.71-5.29-8.22-7.42v138.59c0 2.53-1.91 4.11-4.76 4.11h-11.71v7.91h50.65v-7.91z"/><path d="m315.37 11.51v7.92h21.22c2.84 0 4.73 1.58 4.73 4.11v119.66c3.23 2 6 2.1 8.23-.11v-119.55c0-2.53 1.91-4.11 4.76-4.11h11.69v-7.92z"/><path d="m349.56 142.62c-18.95 18.77-70.56-127.91-175.48-131.02v-.35h-39.31v7.38h11.39c10.66 1.43 37 6.54 56.62 23.31 14.31 12.65 31.68 30.41 51.6 55.37 55.51 69.55 94.44 123.05 95.18 124.2z" fill="#4c9e45"/><g fill="#4b9d45"><path d="m17 268.52v-39.93a1 1 0 0 0 -1.07-.93h-2.68v-1.78h18.43v1.78h-5.48a1 1 0 0 0 -1.07.93v40.86h8.54c8.76 0 12.32-5.28 14-15.45h1.06l-1.03 17.23h-34.45v-1.78h2.63a1 1 0 0 0 1.12-.93z"/><path d="m81.07 267.52c0 .86.43 1.28 1.21 1.28s2.2-2.06 2.71-4.41h1.78c-1.5 5.83-4.21 7.9-7.55 7.9s-5.22-1.99-5.62-5.29a12.51 12.51 0 0 1 -10.32 5.27c-6.41 0-10-3.13-10-7.76 0-3.13 1.36-5.34 4.77-7.19l15.44-3.7v-3.82c0-4.91-2.48-7.83-7.32-7.83a9 9 0 0 0 -4.13.92c-.65.36-.86.79-.29 1.43a4.21 4.21 0 0 1 1.25 3.13 3.74 3.74 0 0 1 -7.47-.43c0-4.62 7.25-6.75 12-6.75 9.32 0 13.52 5.19 13.52 12.95zm-7.55-3.85v-8.32c-10.38 3.06-12.59 4.84-12.59 9.61 0 1.49 1.06 4.13 4.84 4.13 3.06 0 7.54-3.09 7.75-5.42z"/><path d="m101.28 268.52a.94.94 0 0 0 1.07.93h3.56v1.78h-16.45v-1.78h3.21a1 1 0 0 0 1.07-.93v-24.42c0-.57-.43-.92-1.07-.92h-3.21v-1.78h3.35l8.47-1.13v5.83a16.12 16.12 0 0 1 12.38-5.77c6 0 9.4 3.85 9.4 12.24v15.95a.94.94 0 0 0 1.06.93h3.21v1.78h-16v-1.78h3a.94.94 0 0 0 1.06-.93v-15.81c0-5.26-1-9-4.7-9-3.34 0-6 1.35-9.46 4.77z"/><path d="m154.73 244.6c.56-.64.42-1.14-.29-1.49a10.21 10.21 0 0 0 -4.84-1.11c-4.55 0-9.54 3.49-9.54 13.67v.92c0 8.18 3.63 13.31 10.11 13.31 3.28 0 7.4-2 9.39-6.91l1.57.43a13.16 13.16 0 0 1 -12.74 8.9c-11 0-16.65-6.48-16.65-16.23 0-9.25 6.4-15.79 17.22-15.79 4.27 0 12 2.2 12 7.39a3.6 3.6 0 0 1 -3.63 3.42 3.47 3.47 0 0 1 -3.49-3.42 4.57 4.57 0 0 1 .89-3.09z"/><path d="m193.72 267.52c0 .86.43 1.28 1.22 1.28s2.2-2.06 2.7-4.41h1.78c-1.5 5.83-4.2 7.9-7.54 7.9s-5.2-2-5.63-5.27a12.5 12.5 0 0 1 -10.32 5.27c-6.4 0-10-3.13-10-7.76 0-3.13 1.35-5.34 4.77-7.19l15.44-3.7v-3.84c0-4.91-2.49-7.83-7.33-7.83a9 9 0 0 0 -4.13.92c-.64.36-.85.79-.28 1.43a4.21 4.21 0 0 1 1.21 3.13 3.75 3.75 0 0 1 -7.48-.43c0-4.62 7.26-6.75 12-6.75 9.33 0 13.52 5.19 13.52 12.95zm-7.54-3.85v-8.32c-10.39 3.06-12.6 4.84-12.6 9.61 0 1.49 1.07 4.13 4.84 4.13 3.06 0 7.58-3.09 7.76-5.42z"/><path d="m205 262.11c3.28 5.13 8.55 8.54 14.53 8.54 2.13 0 5.62-1 5.62-4.2 0-7.75-21.64-3.41-21.64-17.15 0-6.19 5.48-9 11-9a15.08 15.08 0 0 1 10.49 4.51l1.28-3.41h1.72v7.9h-1.4a14.58 14.58 0 0 0 -12-7.33c-3.14 0-5.7 1.35-5.7 4.34 0 7.61 21.35 4.41 21.35 16.73 0 7.26-5.55 9.25-11.24 9.25a18.28 18.28 0 0 1 -12.68-5.91l-1.33 4.85h-1.7v-9.12z"/><path d="m234.64 241.4c5.55 0 9.75-7.62 10-13h1.7v13h6.84v1.78h-6.84v23.92c0 1.2.57 2 1.5 2 1.49 0 2.92-2.35 3.56-4.7h1.7c-1.7 5.69-4.83 7.9-8 7.9-4.27 0-6.26-2.71-6.26-7.33v-21.79h-4.2z"/><path d="m265.74 255.64v1.56c0 9.68 5.12 12.67 9.11 12.67a12.41 12.41 0 0 0 11.31-7l1.64.5c-2.13 4.7-6.47 8.9-14.59 8.9-10.68 0-15.8-6.62-15.8-15.66s5.34-16.36 16.3-16.36c7.34 0 14.23 5.19 14.23 15.37zm.07-1.72h14.66c-.07-7.33-3.41-11.95-7.18-11.95-3.21.03-6.98 3.03-7.48 11.95z"/><path d="m292.93 241.4h3.34l7.76-1.07.57 4.48c1.92-3.05 4.77-4.54 7.18-4.54 3.07 0 7.84 1.7 7.84 6.18a3.91 3.91 0 0 1 -3.92 4.13 3.84 3.84 0 0 1 -4.13-3.77 4.18 4.18 0 0 1 1.71-3.42c.57-.5.36-.92-.21-1.14a5 5 0 0 0 -1.64-.28c-2.49 0-5.27 1.85-6.69 6.55v20a1 1 0 0 0 1.07.93h3.77v1.78h-16.65v-1.78h3.2a1 1 0 0 0 1.07-.93v-24.42c0-.57-.43-.92-1.07-.92h-3.2z"/></g><g fill="#010101"><path d="m346.23 224.89c14.95 0 22.13 9.75 22.13 23.77s-7.18 23.63-22.13 23.63-22.23-9.54-22.23-23.63 7.28-23.77 22.23-23.77zm-.35 45.48c6 0 13.16-4.42 13.16-21.78 0-17.72-7-21.78-13.16-21.78-6.41 0-12.6 4.13-12.6 22.06 0 17.01 6.19 21.5 12.6 21.5z"/><path d="m385.65 268.52a1 1 0 0 0 1.07.93h3.56v1.78h-16.44v-1.78h3.21a.94.94 0 0 0 1.06-.93v-24.42a.94.94 0 0 0 -1.06-.92h-3.21v-1.78h3.35l8.46-1.13v5.83a16.14 16.14 0 0 1 12.35-5.77c6 0 9.39 3.85 9.39 12.24v15.95a1 1 0 0 0 1.07.93h3.2v1.78h-15.9v-1.78h3a1 1 0 0 0 1.07-.93v-15.81c0-5.26-1-9-4.7-9-3.35 0-6.05 1.35-9.47 4.77z"/><path d="m415.26 224.68h3.34l8.47-1.15v45a1 1 0 0 0 1.07.93h3.77v1.78h-16.65v-1.78h3.2a1 1 0 0 0 1.07-.93v-41.15c0-.57-.43-.92-1.07-.92h-3.2z"/><path d="m436 241.4h3.34l8.54-1.07v28.19a1 1 0 0 0 1.07.93h3.78v1.78h-16.73v-1.78h3.2a1 1 0 0 0 1.07-.93v-24.42c0-.57-.43-.92-1.07-.92h-3.2zm8-17.23a4.42 4.42 0 1 1 -4.41 4.42 4.44 4.44 0 0 1 4.49-4.42z"/><path d="m468.42 268.52a1 1 0 0 0 1.07.93h3.56v1.78h-16.45v-1.78h3.21a.94.94 0 0 0 1.06-.93v-24.42c0-.57-.42-.92-1.06-.92h-3.21v-1.78h3.4l8.47-1.13v5.83a16.12 16.12 0 0 1 12.38-5.77c6 0 9.39 3.85 9.39 12.24v15.95c0 .57.43.93 1.08.93h3.2v1.78h-15.99v-1.78h3a.94.94 0 0 0 1.07-.93v-15.81c0-5.26-1-9-4.69-9-3.35 0-6.05 1.35-9.47 4.77z"/><path d="m507.2 255.64v1.56c0 9.68 5.13 12.67 9.11 12.67a12.43 12.43 0 0 0 11.32-7l1.63.5c-2.13 4.7-6.48 8.9-14.59 8.9-10.67 0-15.79-6.62-15.79-15.66s5.33-16.36 16.29-16.36c7.33 0 14.24 5.19 14.24 15.37zm.07-1.72h14.66c-.07-7.33-3.41-11.95-7.18-11.95-3.21.03-6.98 3.03-7.48 11.95z"/></g></svg>