<svg viewBox="0 0 930 426" xmlns="http://www.w3.org/2000/svg"><path d="m452.46 66h-353.6v-35.28a7.79 7.79 0 0 0 -11.53-7.14l-82.2 42.92a8.8 8.8 0 0 0 -4.61 7.68v224.15a16.92 16.92 0 0 0 16.91 16.92h247.29l134.44 96a7.88 7.88 0 0 0 4.9 1.74 7.47 7.47 0 0 0 4.33-1.38 7.63 7.63 0 0 0 2.69-8.82l-39.84-87.5h81.22a16.93 16.93 0 0 0 16.92-16.92v-215.45a16.92 16.92 0 0 0 -16.92-16.92z" fill="#76bc21"/><path d="m158.36 113.74h-44.8a14.92 14.92 0 0 0 -14.81 15v125.58a14.91 14.91 0 1 0 29.81 0v-35.63h27.19c37.22 0 62.22-21.29 62.22-53v-.4c.03-31.29-23.4-51.55-59.61-51.55zm-29.8 28.6h28.6c11.5 0 30.8 3.06 30.8 23.57v.41c0 14.56-12.41 24-31.61 24h-27.79z" fill="#fff"/><path d="m369.08 247.8-56.94-124.31c-3-7.22-8.9-11.36-16.3-11.36h-.84c-5.18 0-12.22 1.93-16.39 11.1l-57 124.68a16 16 0 0 0 -1.68 7.21 14.22 14.22 0 0 0 14.2 14.2 14.86 14.86 0 0 0 14-9.54l12.87-28.63h68.15l12.78 28.17c2.73 6.26 8.05 10 14.22 10a14.62 14.62 0 0 0 14.6-14.6 17.32 17.32 0 0 0 -1.67-6.92zm-95.62-45.05 21.58-48 21.57 48z" fill="#fff"/><g fill="#6d6e71"><path d="m505.82 132.2a7.53 7.53 0 0 1 7.36-7.55h42.11c29.84 0 49.48 15.86 49.48 41.92v.43c0 28.51-23.79 43.24-51.93 43.24h-32.11v40.76a7.46 7.46 0 1 1 -14.91 0zm47.58 64.39c21.91 0 36.26-11.7 36.26-29.08v-.38c0-18.88-14.16-28.7-35.5-28.7h-33.43v58.16z"/><path d="m612.54 208.49v-.38c0-27.57 21.53-51 51-51a50.17 50.17 0 0 1 50.8 50.61v.37a50.7 50.7 0 0 1 -51.18 51c-29.28.01-50.62-23.03-50.62-50.6zm86.87 0v-.38c0-21-15.67-38.14-36.26-38.14-21.15 0-35.69 17.18-35.69 37.77v.37c0 21 15.49 38 36.07 38 21.15-.04 35.88-17.04 35.88-37.62z"/><path d="m730.19 246.45a6.58 6.58 0 0 1 -2.65-5.29 6.33 6.33 0 0 1 6.42-6.23 5.82 5.82 0 0 1 3.59 1.13c10 6.8 20.4 10.39 31 10.39 11.71 0 20.21-6 20.21-15.49v-.37c0-9.82-11.52-13.6-24.36-17.19-15.3-4.34-32.29-9.63-32.29-27.57v-.38c0-16.8 14-27.95 33.23-27.95 10.39 0 21.72 3.21 31.16 8.31a7.07 7.07 0 0 1 3.59 6.05 6.33 6.33 0 0 1 -6.42 6.23 7.25 7.25 0 0 1 -3.21-.76c-8.31-4.72-17.19-7.55-25.5-7.55-11.52 0-18.88 6-18.88 14.16v.38c0 9.25 12.09 12.84 25.12 16.81 15.1 4.53 31.34 10.38 31.34 27.94v.38c0 18.51-15.29 29.27-34.74 29.27-12.87 0-27.04-4.72-37.61-12.27z"/><path d="m830.46 231v-59h-7.94a6.62 6.62 0 0 1 -6.42-6.42 6.5 6.5 0 0 1 6.42-6.42h7.94v-23a7.21 7.21 0 0 1 7.17-7.36 7.5 7.5 0 0 1 7.37 7.36v23h25.3a6.65 6.65 0 0 1 6.61 6.42 6.53 6.53 0 0 1 -6.61 6.42h-25.3v57c0 11.9 6.61 16.24 16.43 16.24 5.09 0 7.74-1.32 8.87-1.32a6.29 6.29 0 0 1 6.23 6.23 6.07 6.07 0 0 1 -4.15 5.67 36.75 36.75 0 0 1 -14.38 2.71c-15.65 0-27.54-7.74-27.54-27.53z"/><path d="m902.59 112.13a22.31 22.31 0 0 1 10.72 2.87 20 20 0 0 1 8.15 8.06 21.88 21.88 0 0 1 0 21.77 20.32 20.32 0 0 1 -8.06 8.07 21.93 21.93 0 0 1 -21.69 0 20.43 20.43 0 0 1 -8.08-8.07 21.78 21.78 0 0 1 .05-21.77 20 20 0 0 1 8.16-8.06 22.28 22.28 0 0 1 10.75-2.87zm0 3.61a18.57 18.57 0 0 0 -8.94 2.36 16.88 16.88 0 0 0 -6.8 6.73 18.08 18.08 0 0 0 0 18.14 17 17 0 0 0 6.74 6.73 18.18 18.18 0 0 0 18.09 0 17.08 17.08 0 0 0 6.73-6.73 18.24 18.24 0 0 0 0-18.14 16.69 16.69 0 0 0 -6.8-6.73 18.59 18.59 0 0 0 -9.02-2.36zm-9.59 30.26v-23.47h8.06a19.78 19.78 0 0 1 6 .65 5.84 5.84 0 0 1 2.95 2.27 6 6 0 0 1 1.1 3.44 6.25 6.25 0 0 1 -1.84 4.47 7.18 7.18 0 0 1 -4.87 2.14 6.52 6.52 0 0 1 2 1.24 26.88 26.88 0 0 1 3.46 4.66l2.86 4.59h-4.62l-2.08-3.7c-1.64-2.91-2.95-4.73-4-5.46a4.84 4.84 0 0 0 -3-.81h-2.22v10zm3.79-13.2h4.59c2.2 0 3.69-.33 4.49-1a3.18 3.18 0 0 0 1.2-2.59 3.14 3.14 0 0 0 -.58-1.87 3.43 3.43 0 0 0 -1.6-1.23 11.91 11.91 0 0 0 -3.8-.4h-4.3z"/></g></svg>