<svg enable-background="new 0 0 561.3 64.4" viewBox="0 0 561.3 64.4" xmlns="http://www.w3.org/2000/svg"><path d="m418.8 38.1c-1.1-1.1-2.6-1.7-4.2-1.5-1.5 0-2.9.5-4.1 1.5v.7c1-1.2 2.5-1.8 4.1-1.9 1.5-.1 3 .6 3.9 1.9z"/><path d="m37.2 7-2.6 1.8-.1 31-14.3 9.9s-2.2-2.1-3.5-1.6l-.1 4.4s-.2 2.9 3.4 2.6l-12.6 9.3v-18.2s-5.9 1.5-2.9 6.7c0 0-11.8-7.3 2.6-14.7v-11.9s-6 .1-2.7 3.8c0 0-4.5.5-3.9-5.7 0 0 .4-4.4 6.6-5v-12.2s-2.4-4.5-5.1.9c0 0-1-6.7 6.8-7 8.3-.3 7.8 8.9 7.8 8.9l9.6-8.6 8.2 7.1 2.6-1.8zm-10.8 4.2-4.6-4.6-5.2 4.4v27.5c4.1 1 9.7 6.3 9.7 6.3z"/><path d="m20 41v-40.7h-.3v40.7z"/><path d="m26.7 20.8c-.7 1.2-2.1 1.9-3.5 1.9-1.3-.1-2.6-.7-3.4-1.8l.1-.5c.8 1.2 2 1.9 3.4 2 1.4 0 2.6-.7 3.2-2z"/><path d="m26.5 26.5c-.9-.9-2.1-1.4-3.3-1.3-1.2 0-2.3.4-3.2 1.2l.1.4c.8-.9 1.9-1.5 3.2-1.5 1.2-.1 2.4.5 3.2 1.5z"/><path d="m46.9 7.1-6 5.7 5 5.4 6-5.3z"/><path d="m38.5 25.9 7.5-6.6 6 6.8 2.3-1.6.1.2s-2.8 1.9-2.8 3.9v13.4l3 3.8 2.1-1.6.1.2-7.5 6.4-5.5-6.2-2.3 1.9-.1-.3 1.5-1.3s1.2-.6 1.2-3.9v-12.5l-3.6-3.7-1.9 1.2z"/><path d="m68.7 7.9v12.3h4.3v4.6h-4.3v16.6l2.3 3.9 1.9-1.5.1.2-8.2 6.8-5.3-5.5-2.3 1.5-.2-.2 2.3-1.7s1.6-.5 1.7-3.7v-16.4h-2.8v-4.7h2.8v-2.7s-.1-2.9-2.1-2.5c-.1 0 6-5.8 9.8-7z"/><path d="m86.2 7.9v12.3h4.3v4.6h-4.3v16.6l2.4 3.8 1.9-1.5.1.3-8.2 6.8-5.3-5.5-2.3 1.5-.2-.3 2.3-1.7s1.6-.5 1.7-3.7v-16.3h-2.8v-4.7h2.7v-2.7s-.1-2.9-2.1-2.5c0 0 6.1-5.8 9.8-7z"/><path d="m113 25.3c-.9 1.6-2.1 2.9-3.6 3.9 1.7 1.1 3.4 2.3 4.9 3.7v10.9l-12.4 7c-.6-1-3.4-3.5-5.3-1.9s.2 3.9.2 3.9-4.6-1.9-4.4-6.5 5.5-8 5.5-8l-4.3-3.9v-8.7c4.4-1.6 8.5-4 12-7 1.1 1.5 2.8 2.4 4.7 2.5 2.9-.1 2.8-3.8 2.8-3.8 1.3 1.6.8 5.8-.1 7.9zm-8 1.5c-2.3-.3-3.7-3.8-3.7-3.8l.2 7.9 2.4 2.6 6.4-6.4c-1.8 0-3.6-.1-5.3-.3zm-.9 7.4-8.6 7.7c1.6-.5 3.3-.7 5-.7 2.1.2 5.3 2.9 6.2 5.4v-9.9c-.2-1.3-1.3-2.3-2.6-2.5z"/><path d="m128.4 23.1c1.7-1 5.2-4.6 5.2-4.6l8.3 7 2.4-2.1.1.4-2.1 2.1v17.3c-4.6 1.2-13.2 8.1-13.2 8.1l-8-7.7-3 2.6-.3-.3 2.9-2.8v-30.2c0-1.7-2.1-2.4-2.1-2.4 2.3-3 10-7 10-7zm.1 17.4 6 5.5v-17.5l-5.2-4.4-.8.7z"/><path d="m152.3 19.7-6.8 6.4.1.3s1.4-1.3 1.9-.7c.3.4 2.4 2.4 2.4 2.4v15.2l-3.2 3.1.2.3 2.5-2 5.9 6.4 7.9-5.2 4.6 4.9 8.6-6.2-.2-.3-2.2 1.7-2.9-3.3v-16.5l3.1-2.8-.3-.5s-2 2.5-3.4 1.1l-4.1-4.4-5.6 5.2 2.6 3v17.4l-2.4 1.6-3.4-4.6v-17.4z"/><path d="m183.2 19.2-8.2 7.9.2.4 1.2-1s.6-1 1.6-.1 2.6 2.5 2.6 2.5v14.4l-3.9 3.7.2.3 2.1-1.8 6.3 5.7s6.4-5.5 7.8-6.6l-.2-.3-2 1.5-2.9-2.6v-16.7s3.8 3.2 6.4 1.5 4.1-5.6 4.4-8.2c-.7 1.1-1.9 1.7-3.2 1.6-1.3.1-2.5-.7-3-1.9l-4.9 5.5z"/><path d="m222.6 24.1.3.2-2.8 2.7v18.1c0 1.6 1.3 2.5 1.5 3.8 0 1.2-.2 2.3-.6 3.4l-14 10.4c-.6-1.2-2.4-2.6-5.4-2.8-1.9-.1-5.2 1.4-5.2 1.4-.2-1.7 3.2-7.7 8.6-7.8 4.4-.1 8 3.9 8 3.9l1.8-1.7c.4-1.2-.2-4.1-1-4.5s-1.2-4-1.2-4c-1.3.4-5.7 4.3-5.7 4.3l-8-6.7-2.2 1.8-.2-.3 2.3-2.1v-17.2c4.8-1.9 9.1-4.7 12.7-8.4l8.2 7.8zm-15.7-.5v18.5l5.5 4.5v-17.2z"/><path d="m235.7 3.7s-9.4 6.4-9.8 8.4c0 0 1.9 0 1.9 1.3v30.5l-3.7 3.2.3.4 1.8-1.6 5.3 5.2s7.3-6 8.6-6.5l-.4-.4-1.9 1.3-2.3-2.2z"/><path d="m235.1 26.2 7.5-6.9 6 6.9 2.4-1.9.2.4-2.4 2.3v18.8s.3 4.8-2.4 8-6.8 4.7-11.3 4.6c0 0 4.1-2.6 4.8-4.6.8-2.2 1.2-4.5 1.2-6.8v-17.8l-3.7-3.6-2.2 1.9z"/><path d="m351.4 25c-.9 1.6-2.1 2.9-3.6 3.9 1.7 1.1 3.4 2.3 4.9 3.7v10.9l-12.4 7c-.6-1-3.5-3.5-5.3-1.9s.2 3.9.2 3.9-4.6-1.9-4.4-6.5 5.5-7.9 5.5-7.9l-4.3-3.9v-8.7c4.4-1.6 8.5-4 12-7 1.1 1.5 2.8 2.4 4.7 2.5 2.9-.1 2.8-3.8 2.8-3.8 1.4 1.6.9 5.7-.1 7.8zm-8 1.5c-2.3-.4-3.9-3.8-3.9-3.8v8l2.6 2.5 6.4-6.4c-1.6.1-3.4 0-5.1-.3zm-.9 7.4-8.7 7.6c1.7-.4 3.4-.6 5.1-.6 2.1.2 5.3 2.9 6.2 5.4v-9.8c-.1-1.4-1.2-2.4-2.6-2.6z"/><path d="m365.9 7.6v12.3h4.3v4.6h-4.3v16.6l2.3 3.6 1.9-1.5.2.4-8.1 6.8-5.2-5.4-2.4 1.5-.3-.4 2.4-1.7s1.6-.5 1.6-3.7v-16.2h-2.8v-4.7h2.7v-2.7s-.1-2.9-2.1-2.6c0 .1 6.1-5.7 9.8-6.9z"/><path d="m514.9 6.8v12.3h4.3v4.6h-4.3v16.6l2.3 3.8 1.9-1.5.2.3-8.2 6.9-5.2-5.4-2.3 1.5-.3-.4 2.3-1.7s1.6-.5 1.7-3.7v-16.4h-2.8v-4.7h2.7v-2.7s-.1-2.9-2.1-2.6c0 0 6.1-5.7 9.8-6.9z"/><path d="m532.3 7v12.3h4.3v4.7h-4.3v16.6l2.2 3.6 1.9-1.5.3.4-8.2 6.8-5.2-5.4-2.3 1.5-.3-.4 2.3-1.7s1.6-.5 1.7-3.7v-16.2h-2.8v-4.7h2.7v-2.7s-.1-2.9-2.1-2.5c0-.1 6.1-5.8 9.8-7.1z"/><path d="m305.3 6.8-2.6 1.8-.1 31-14.3 9.9s-2.1-2.1-3.5-1.6v4.4s-.2 2.9 3.4 2.6l-12.7 9.1v-18.1s-5.9 1.5-2.9 6.7c0 0-11.8-7.3 2.6-14.7v-11.9s-5.9.1-2.7 3.8c0 0-4.5.5-3.9-5.7 0 0 .4-4.4 6.6-5v-12.2s-2.4-4.5-5.1.9c0 0-1-6.7 6.8-7 8.3-.3 7.8 8.9 7.8 8.9l9.6-8.6 8.2 7.1 2.6-1.7zm-11 4.3-4.4-4.3-5.2 4.4v27c4.1 1 9.5 5.5 9.5 5.5z"/><path d="m288.1 40.8v-40.8h-.4v40.8z"/><path d="m294.8 20.5c-.8 1.1-2.1 1.7-3.5 1.7-1.3 0-2.5-.6-3.4-1.6v-.7c.8 1.2 2 1.9 3.4 2 1.4 0 2.6-.7 3.2-2z"/><path d="m294.6 26.2c-.8-1-2-1.6-3.3-1.6-1.2 0-2.4.6-3.2 1.5v.7c.7-1.1 1.9-1.8 3.2-1.9 1.3 0 2.5.7 3 1.9z"/><path d="m326.8 25.6c.4.3 1.1.4 1.5.1l1.6-1.1.2.4-2.2 1.9v17l-13.5 7.6-7.7-6.9-2 1.5-.2-.4 2.1-2.1v-17.5c4.7-1.8 9-4.2 13-7.2-.1 0 6.6 6 7.2 6.7zm-12.1-2.3v18.2l5.4 5.7v-18z"/><path d="m383.7 34.4v-7.5h-13.1v7.5z"/><path d="m423.7 0s-.2 3.3-2.1 4.1-5.2.9-8.3-2.1c0 0-7.7 7-14 9.4v27l8.8-6.3v-24.8s4.3 4.1 8.9 3.4 7.4-4.3 7.5-7.2-.7-3.5-.8-3.5z"/><path d="m410.7 46.5v-37.9h-.4v37.9z"/><path d="m401.3 7.7s-11.6 7.3-3.7 25.8c2.3 5.8 7.1 10.4 13.1 12.4 0 0 5.4 1.4 7.9-1v-16.9l-4.1-4.1-3.3 2.6-.2-1.2 9.5-7.5 6.7 6.1 2-1.7.2.4-1.9 1.9v16c-2.1 1.2-4.2 2.5-6.1 3.9-1.8 1.5-7 6-12.4 6.3 0 0-11.5 1-17.5-9.2s-3-18.7-2.4-20.7 3.7-8.8 12.2-13.1z"/><path d="m419.1 32.4c-1.1 1.2-2.7 1.8-4.3 1.7-1.6 0-3.1-.6-4.3-1.6l.2-.7c1.1 1.2 2.6 2 4.3 2 1.6.1 3.1-.6 4-2z"/><path d="m430.6 27.6s6.6-5.5 6.9-9.4c0 0 2.4 2.1 4.1 1.9s4-2.3 4-2.3l5.5 5.1 2.3-2 .1.4-2.2 2.2v17.1l3.6 3.7 2-2.1.3.2-6.9 8-5.5-5.5c-.6-.2-1.2-.1-1.6.3-.8.7-3.9 4.5-3.9 4.5s-4.8.1-6.8-2.8-2.1-7.7-.2-10.4 6.8-5.2 6.8-5.2c-2.2-2.1-5.3-3.5-8.5-3.7zm12.9 9.6v-8.8c-.8-1.9-2-3.5-3.5-4.8-1.3 2.1-3.2 3.6-5.5 4.4 0 0 6.6 1.3 9 9.2zm.7 6c.7-5.7-4.2-11.2-4.2-11.2-4.1 2.5-2.8 6.8-1.6 8.8s4.7 3.1 4.7 3.1z"/><path d="m459 28s5-8.9 5-9.5c0 0 4.7 2.3 7.3 2.1s7.3-.8 8.3-1.8c-.7 1.9-1.6 3.7-2.7 5.5-2.2 3.2-9.1 9.2-9.3 9.7s-3.5 3.8-5.2 7.1c2.2-1.8 5-2.7 7.8-2.5 2.9.4 5.6 1.5 8 3.2l1.5-2.1.2.2-5.9 10s-2.9-3.9-7.5-3.8-6.2 3.3-6.6 3.5 1-7.2 1.7-8.8c1.2-2.6 4.5-6.7 8.7-10.8l3.2-3.3s-3.5 2.1-6.1 1.6c-2.3-.6-4.6-1.3-6.9-2.2l-1.4 2.2z"/><path d="m476.6 28.9s-2.5 1.9-4.1 2-4.6-.4-5.8-.1-6.2 2.8-6.8 6.3c1-.6 2.1-.9 3.2-1 1.5.1 3.3.6 4.6.6 2-.1 3.9-.9 5.3-2.2 1.4-1.7 2.6-3.6 3.6-5.6z"/><path d="m502.5 28.9-11.8 9.3v1.5l6.1 5.2 6.4-5.5.4.5-12.9 10.5-7.6-6.9-1.8 1.8-.2-.2 1.8-1.9-.1-16.3c2.2-.8 13.1-8.4 13.1-8.4zm-12-5.8.1 14.2 5.5-4.1z"/><path d="m560.3 29.1-11.8 9.3v1.5l6.1 5.2 6.4-5.5.3.5-12.8 10.5-7.5-6.8-1.8 1.8-.3-.4 1.8-1.9-.2-16.3c2.2-.8 13.1-8.4 13.1-8.4zm-12-5.8.1 14.2 5.5-4.1z"/></svg>