<svg enable-background="new 0 0 417.25 297.98" viewBox="0 0 417.25 297.98" xmlns="http://www.w3.org/2000/svg"><path d="m338.1 246.5c-.66.44-1.49.66-2.49.66-.94 0-1.75-.21-2.43-.64s-1.24-.99-1.68-1.69c-.48-.74-.81-1.54-1.01-2.4s-.3-1.81-.3-2.87c0-1.32.13-2.52.4-3.6s.63-1.98 1.1-2.68c.49-.73 1.05-1.29 1.68-1.67.63-.39 1.32-.58 2.07-.58.65 0 1.22.1 1.71.31s.91.47 1.28.78c.34.31.62.66.84 1.03.23.38.39.73.49 1.05v10.85c-.45.53-1.01 1.01-1.66 1.45m8.47.56c-.38-.01-.79-.04-1.24-.08s-.79-.13-1.03-.28c-.33-.21-.57-.47-.74-.78s-.25-.68-.25-1.12v-24.99l-.28-.28-7.59.41v1.17c.69.05 1.33.13 1.93.23.6.11 1.07.28 1.42.52.31.23.56.56.73.99s.26.91.26 1.44v6.46c-.6-.34-1.32-.62-2.15-.84s-1.68-.33-2.54-.33c-1.15 0-2.28.25-3.39.75s-2.04 1.17-2.81 2.01c-.81.9-1.45 1.95-1.92 3.16-.46 1.2-.69 2.48-.69 3.82 0 1.47.22 2.81.65 4.02.43 1.22 1.02 2.26 1.76 3.12.73.85 1.58 1.51 2.56 1.98s2 .71 3.05.71c1.01 0 2-.23 2.96-.7.96-.46 1.76-1.06 2.41-1.79l.15.04v1.73l.28.26 6.49-.41v-1.22zm-35.18-9.85c.08-1.95.55-3.47 1.42-4.56s1.96-1.64 3.28-1.64c.79 0 1.44.18 1.94.54s.9.83 1.19 1.41c.26.54.45 1.21.57 2.01s.18 1.55.18 2.25h-8.58zm11.41 6.26c-.75 1.36-1.53 2.3-2.34 2.83-.81.52-1.77.78-2.89.78-1.09 0-2.03-.21-2.82-.63s-1.43-1-1.92-1.72c-.5-.75-.87-1.63-1.1-2.62s-.35-2.1-.35-3.32h12.28v-1.24c0-1.12-.14-2.15-.42-3.1s-.71-1.78-1.29-2.48c-.6-.74-1.39-1.32-2.35-1.75-.97-.43-2.13-.64-3.48-.64-1.32 0-2.5.27-3.56.82s-1.95 1.26-2.66 2.15c-.74.93-1.3 1.97-1.68 3.13s-.57 2.34-.57 3.54c0 1.34.18 2.61.54 3.82.36 1.2.9 2.26 1.63 3.16s1.65 1.62 2.77 2.14c1.12.53 2.43.79 3.92.79 1.69 0 3.19-.44 4.49-1.32s2.34-2.06 3.12-3.54zm-16.7-13.05c-.5-.51-1.14-.77-1.93-.77s-1.66.26-2.61.79-1.82 1.3-2.59 2.31h-.09v-2.61l-.26-.26-6.17.41v1.24c.38.03.73.07 1.05.14.33.07.61.18.85.33.33.22.58.53.76.9.18.38.27.76.27 1.15v11.44c0 .45-.09.82-.25 1.1-.17.28-.43.48-.78.59-.23.08-.49.13-.8.15s-.6.05-.89.08v1.24h9.78v-1.24c-.36-.03-.79-.07-1.29-.13s-.9-.16-1.21-.28c-.36-.14-.63-.34-.8-.62s-.25-.63-.25-1.07v-10.81c.55-.88 1.22-1.55 2.01-2.03s1.48-.71 2.07-.71c-.04.23-.08.45-.12.68s-.07.48-.07.75c0 .44.18.84.56 1.2.37.36.9.54 1.61.54.65 0 1.13-.25 1.45-.74.31-.5.47-1.06.47-1.7-.03-.86-.28-1.55-.77-2.07m-18.79-9.54c-.46-.48-1.04-.72-1.76-.72-.64 0-1.19.26-1.66.77s-.71 1.12-.71 1.81c0 .65.24 1.23.71 1.74s1.03.76 1.66.76c.69 0 1.27-.27 1.74-.8s.7-1.16.7-1.87c.01-.64-.22-1.2-.68-1.69m3.04 26.52c-.32-.03-.62-.07-.88-.14s-.53-.16-.8-.27c-.36-.14-.63-.35-.79-.64-.17-.29-.25-.65-.25-1.09v-15.12l-.26-.26-6.54.41v1.24c.38.03.79.09 1.24.2s.79.23 1.03.38c.33.22.58.5.76.83s.27.7.27 1.1v11.44c0 .45-.08.82-.25 1.1s-.43.48-.78.59c-.23.08-.49.13-.8.15s-.61.05-.89.08v1.24h8.95v-1.24zm-18.74-.2c-.65.37-1.33.55-2.03.55-.65 0-1.2-.1-1.65-.29s-.87-.45-1.26-.76c-.31-.26-.6-.58-.86-.94s-.44-.71-.55-1.05v-10.96c.48-.56 1.04-1.05 1.69-1.46s1.44-.61 2.37-.61c.96 0 1.79.23 2.48.68s1.25 1.04 1.67 1.77c.43.71.74 1.55.94 2.52s.3 1.91.3 2.84c0 1.27-.12 2.41-.36 3.44s-.61 1.93-1.11 2.71c-.44.67-.98 1.19-1.63 1.56m2.22-16.87c-.96-.49-2.01-.73-3.17-.73-.95 0-1.91.25-2.88.75s-1.77 1.13-2.42 1.88l-.15-.04v-2.09l-.26-.22-6.32.41v1.24c.38.03.76.08 1.17.16.4.08.71.2.94.35.3.21.54.5.73.85s.28.71.28 1.09v19.72c0 .43-.08.8-.23 1.11s-.41.53-.79.66c-.29.09-.61.15-.98.19-.36.04-.74.07-1.13.09v1.24h10.36v-1.24c-.36-.01-.83-.07-1.38-.18-.56-.11-.99-.22-1.29-.33-.36-.14-.63-.36-.81-.66-.17-.3-.26-.68-.26-1.13v-5.58h.15c.45.34 1.04.63 1.75.88s1.63.38 2.75.38c1.15 0 2.24-.23 3.27-.7 1.03-.46 1.96-1.13 2.8-1.99.8-.85 1.45-1.88 1.94-3.09s.73-2.55.73-4.01c0-1.49-.2-2.82-.61-3.98s-.98-2.18-1.72-3.06c-.68-.82-1.51-1.48-2.47-1.97m-19.91 8.07c-.73-.35-1.51-.66-2.34-.92-.84-.27-1.54-.52-2.12-.74-.57-.22-1.04-.45-1.42-.71-.39-.26-.68-.58-.87-.96s-.29-.85-.29-1.41c0-.73.29-1.36.88-1.88s1.4-.78 2.42-.78c1.25 0 2.32.42 3.19 1.25.87.84 1.44 1.92 1.7 3.26h1.3l-.28-5.96h-1.35l-.43.98c-.48-.26-1.09-.49-1.85-.68s-1.5-.28-2.23-.28c-1.89 0-3.4.53-4.53 1.58s-1.69 2.34-1.69 3.85c0 .87.17 1.62.53 2.26.35.64.8 1.18 1.35 1.62.51.41 1.13.77 1.85 1.08s1.38.55 1.96.72c.74.23 1.41.46 2.01.69s1.11.49 1.52.78c.4.29.71.62.91 1 .21.38.31.84.31 1.36 0 1.02-.33 1.81-.98 2.35-.65.55-1.58.82-2.78.82-.85 0-1.62-.19-2.3-.57s-1.27-.84-1.76-1.4c-.46-.53-.86-1.12-1.19-1.77s-.54-1.23-.64-1.72h-1.3l.19 6.45h1.41l.38-1.22c.39.33 1.04.68 1.95 1.07s1.9.58 2.98.58c2.04 0 3.71-.55 4.99-1.64 1.29-1.09 1.93-2.49 1.93-4.21 0-.85-.14-1.57-.41-2.16-.28-.59-.67-1.11-1.18-1.56-.48-.39-1.08-.78-1.82-1.13m-12.7 9c-.39-.03-.69-.06-.91-.11s-.48-.14-.78-.26c-.36-.15-.62-.36-.77-.63s-.23-.62-.23-1.06v-9.65c0-1.84-.43-3.32-1.29-4.43s-2.18-1.66-3.96-1.66c-.8 0-1.52.1-2.16.3s-1.19.45-1.65.75c-.4.26-.83.6-1.28 1.02s-.83.78-1.13 1.08h-.09v-2.61l-.26-.26-6.17.41v1.24c.38.03.73.07 1.05.14.33.07.61.18.85.33.32.22.58.52.76.87.18.36.27.75.27 1.17v11.44c0 .45-.08.82-.25 1.1s-.43.48-.78.59c-.23.08-.49.13-.8.15s-.6.05-.89.08v1.24h9.08v-1.24c-.33-.03-.64-.07-.95-.13s-.59-.16-.86-.28c-.35-.15-.61-.36-.79-.64-.18-.27-.26-.63-.26-1.05v-10.66c.11-.2.29-.47.54-.8s.58-.64.99-.93c.43-.3.92-.56 1.47-.76.55-.21 1.16-.31 1.83-.31.89 0 1.65.36 2.27 1.07s.93 1.73.93 3.04v9.53c0 .45-.08.82-.25 1.1s-.43.48-.78.59c-.22.08-.51.13-.86.15-.34.02-.66.05-.95.08v1.24h9.06zm-25.8-26.52c-.46-.48-1.04-.72-1.76-.72-.64 0-1.19.26-1.66.77s-.71 1.12-.71 1.81c0 .65.24 1.23.71 1.74s1.02.76 1.66.76c.69 0 1.27-.27 1.74-.8s.71-1.16.71-1.87c0-.64-.23-1.2-.69-1.69m3.04 26.52c-.32-.03-.62-.07-.88-.14s-.53-.16-.8-.27c-.36-.14-.63-.35-.79-.64-.17-.29-.25-.65-.25-1.09v-15.12l-.26-.26-6.54.41v1.24c.38.03.79.09 1.24.2s.8.23 1.03.38c.33.22.58.5.76.83s.27.7.27 1.1v11.44c0 .45-.09.82-.25 1.1-.17.28-.43.48-.78.59-.23.08-.49.13-.8.15s-.6.05-.89.08v1.24h8.95v-1.24zm-32.38-10.19c.08-1.95.55-3.47 1.42-4.56s1.96-1.64 3.28-1.64c.79 0 1.44.18 1.94.54s.9.83 1.18 1.41c.26.54.46 1.21.57 2.01.12.8.18 1.55.18 2.25h-8.57zm11.41 6.26c-.75 1.36-1.53 2.3-2.34 2.83-.81.52-1.77.78-2.89.78-1.09 0-2.03-.21-2.82-.63s-1.43-1-1.92-1.72c-.5-.75-.87-1.63-1.1-2.62s-.35-2.1-.35-3.32h12.28v-1.24c0-1.12-.14-2.15-.42-3.1s-.71-1.78-1.29-2.48c-.6-.74-1.39-1.32-2.35-1.75s-2.12-.64-3.48-.64c-1.32 0-2.5.27-3.56.82s-1.94 1.26-2.66 2.15c-.74.93-1.3 1.97-1.68 3.13s-.57 2.34-.57 3.54c0 1.34.18 2.61.54 3.82.36 1.2.9 2.26 1.63 3.16s1.65 1.62 2.77 2.14c1.12.53 2.43.79 3.92.79 1.69 0 3.19-.44 4.49-1.32s2.34-2.06 3.12-3.54zm-14.42-13.37h-7.09v1.2c.17.03.4.07.68.13.27.06.56.16.85.28.29.13.54.27.74.44.21.17.31.36.31.57 0 .3-.06.6-.17.89s-.23.61-.36.95c-.79 1.98-1.53 3.77-2.21 5.37s-1.25 2.94-1.7 4.02c-.59-1.4-1.35-3.25-2.29-5.54s-1.66-4.08-2.17-5.35c-.06-.2-.13-.38-.19-.54s-.09-.25-.09-.29c0-.25.28-.45.85-.59.56-.14 1.03-.22 1.41-.23v-1.32h-8.58v1.24c.56.09 1.13.29 1.68.61.56.32.96.77 1.21 1.34 1.08 2.54 2.12 5.03 3.12 7.45s2.1 5.11 3.29 8.06h1.47c.24-.73.5-1.48.78-2.27s.55-1.47.8-2.05c.85-2 1.67-3.92 2.46-5.74s1.55-3.58 2.29-5.25c.36-.78.8-1.32 1.31-1.63s1.04-.51 1.61-.61v-1.14zm-22.87-9.22c-.46-.48-1.04-.72-1.76-.72-.64 0-1.19.26-1.66.77s-.71 1.12-.71 1.81c0 .65.23 1.23.71 1.74s1.02.76 1.66.76c.69 0 1.27-.27 1.74-.8s.71-1.16.71-1.87c-.01-.64-.23-1.2-.69-1.69m3.03 26.52c-.32-.03-.62-.07-.88-.14s-.53-.16-.8-.27c-.36-.14-.63-.35-.79-.64-.17-.29-.25-.65-.25-1.09v-15.12l-.26-.26-6.54.41v1.24c.38.03.79.09 1.24.2s.8.23 1.03.38c.33.22.58.5.76.83s.27.7.27 1.1v11.44c0 .45-.08.82-.25 1.1s-.43.48-.78.59c-.23.08-.49.13-.8.15s-.6.05-.89.08v1.24h8.95v-1.24zm-11.65-6.69c-.26.73-.74 1.68-1.42 2.85s-1.28 2.05-1.8 2.62c-.18.2-.45.37-.82.5s-.77.24-1.21.31c-.45.08-.93.13-1.43.15-.5.03-.98.04-1.45.04-1.03 0-1.83-.03-2.4-.1s-1-.22-1.29-.44c-.3-.25-.49-.6-.57-1.06s-.12-1.1-.12-1.93v-17.92c0-.41.08-.8.24-1.17.16-.36.45-.62.87-.77.25-.09.65-.19 1.21-.3s1.01-.18 1.36-.19v-1.34h-11.25v1.34c.34.03.77.11 1.29.25.52.15.92.29 1.21.44.43.2.71.46.86.79.14.33.22.7.22 1.13v19.1c0 .49-.08.89-.25 1.2s-.44.55-.82.71c-.23.1-.62.18-1.19.24s-1.01.11-1.31.13v1.33h20.85l.56-7.93h-1.34z" fill="#6d6f71"/><path d="m188.48 117.07c0 .69-.09 1.54-.28 2.54s-.53 2.44-1.03 4.33l-22.38 75.89c-.32 1.07-.72 1.93-1.23 2.59-.5.66-1.27 1.17-2.3 1.55-1.04.38-2.51.63-4.42.75-1.91.13-4.4.19-7.48.19-3.07 0-5.58-.08-7.52-.23-1.95-.16-3.47-.42-4.56-.8-1.1-.38-1.9-.89-2.4-1.55-.5-.65-.88-1.49-1.13-2.49l-14.11-50.97-.19-.85-.19.85-12.98 50.97c-.25 1.07-.61 1.93-1.08 2.59s-1.27 1.17-2.4 1.55-2.66.63-4.61.75c-1.95.13-4.46.19-7.53.19-3.13 0-5.66-.08-7.57-.23-1.91-.16-3.42-.42-4.51-.8-1.1-.38-1.9-.89-2.4-1.55-.5-.65-.88-1.49-1.13-2.49l-22.19-75.89c-.56-1.82-.93-3.24-1.08-4.28-.16-1.03-.24-1.89-.24-2.59 0-.63.18-1.17.52-1.64s.97-.85 1.88-1.13 2.13-.48 3.67-.61c1.53-.13 3.46-.19 5.78-.19 2.51 0 4.54.06 6.11.19s2.79.35 3.67.66 1.49.74 1.83 1.27.61 1.18.8 1.93l16.65 61.6.19 1.13.19-1.13 15.61-61.6c.19-.75.49-1.39.89-1.93.41-.53 1.02-.96 1.83-1.27s1.96-.53 3.43-.66c1.48-.13 3.37-.19 5.69-.19s4.2.08 5.64.24 2.59.38 3.43.66c.85.28 1.44.66 1.79 1.13.34.47.61 1.02.8 1.64l16.74 62.07.28 1.04.19-1.13 15.98-61.6c.13-.75.38-1.39.75-1.93.38-.53 1-.96 1.88-1.27s2.07-.53 3.57-.66 3.42-.19 5.74-.19 4.22.06 5.69.19c1.48.13 2.64.33 3.48.61.85.28 1.43.66 1.74 1.13.34.44.5.99.5 1.62"/><path d="m208.44 81.61c-5.84-3.2-9-9.49-8.89-16.19-2.75 1.83-5.16 4.36-6.9 7.54-5.27 9.61-2.47 21.27 6.25 26.05s20.06.86 25.32-8.75c1.74-3.17 2.58-6.57 2.64-9.87-5.57 3.71-12.58 4.42-18.42 1.22" fill="#a81e2d"/><path d="m225.46 201.14c0 .63-.19 1.17-.56 1.64-.38.47-1.02.87-1.93 1.18s-2.12.55-3.62.71c-1.5.15-3.42.23-5.73.23-2.32 0-4.23-.08-5.74-.23-1.5-.16-2.71-.39-3.62-.71-.91-.31-1.55-.71-1.93-1.18s-.56-1.02-.56-1.64v-83.7c0-.62.19-1.17.56-1.65.38-.47 1.02-.88 1.93-1.22s2.12-.61 3.62-.8 3.41-.28 5.74-.28c2.32 0 4.23.1 5.73.28 1.5.19 2.71.46 3.62.8.91.35 1.55.75 1.93 1.22s.56 1.02.56 1.65z"/><path d="m297.34 185.86c-.19-.66-.46-1.1-.8-1.32-.35-.22-.71-.33-1.08-.33-.44 0-.93.11-1.46.33s-1.19.47-1.97.75-1.68.53-2.68.75-2.13.33-3.38.33c-3.7 0-6.27-1.14-7.71-3.43s-2.16-5.72-2.16-10.3v-39.4h13.69c1.03-.13 1.84-.83 2.41-2.17.63-1.48.95-3.95.95-7.41 0-1.83-.08-3.37-.24-4.63s-.39-2.25-.71-2.97c-.31-.73-.71-1.24-1.18-1.56-.41-.27-.89-.41-1.42-.44h-13.5v-18.72c0-.63-.19-1.19-.56-1.69-.38-.5-1-.92-1.88-1.27-.88-.34-2.08-.6-3.62-.75-1.54-.16-3.47-.23-5.79-.23-2.26 0-4.15.08-5.69.23-1.54.16-2.76.41-3.67.75-.91.35-1.54.77-1.88 1.27-.35.5-.52 1.07-.52 1.69v18.71h-9.97c-.63 0-1.18.16-1.65.47s-.86.83-1.17 1.55c-.32.72-.55 1.71-.71 2.96-.16 1.26-.24 2.79-.24 4.61 0 3.45.31 5.91.94 7.38.62 1.47 1.53 2.21 2.73 2.21h10.06v42.98c0 5.14.53 9.59 1.6 13.35 1.06 3.76 2.73 6.88 4.99 9.36s5.11 4.31 8.56 5.5 7.52 1.79 12.22 1.79c1.75 0 3.5-.09 5.22-.28s3.32-.46 4.79-.8c1.47-.35 2.76-.75 3.86-1.22 1.09-.47 1.93-1 2.49-1.6.56-.59 1.02-1.63 1.36-3.1.35-1.47.52-3.59.52-6.35 0-1.76-.08-3.2-.24-4.33-.16-1.12-.33-2.01-.51-2.67"/><path d="m365.52 80.72c-.13-1.22-.31-2.22-.56-3.01s-.61-1.38-1.08-1.79-1.31-.84-2.54-1.32c-1.22-.47-2.95-.91-5.17-1.32-2.23-.41-4.53-.61-6.91-.61-5.14 0-9.56.72-13.26 2.16s-6.75 3.59-9.16 6.44c-2.42 2.85-4.2 6.43-5.36 10.72-1.17 4.29-1.74 9.3-1.74 15v7.05h-14.84c-.53.04-1.01.17-1.42.44-.47.32-.86.83-1.18 1.56-.31.73-.55 1.72-.71 2.97-.16 1.26-.24 2.8-.24 4.63 0 3.47.31 5.93.94 7.41.57 1.34 1.38 2.04 2.41 2.17h15.02v67.9c0 .63.17 1.17.52 1.65.34.47.97.86 1.88 1.18.91.31 2.13.55 3.67.71s3.43.23 5.69.23c2.32 0 4.25-.08 5.78-.23 1.54-.16 2.75-.39 3.62-.71.87-.31 1.5-.71 1.88-1.18s.57-1.02.57-1.65v-67.9h15.42c1.13 0 2.02-.74 2.68-2.21s.99-3.93.99-7.38c0-1.82-.08-3.35-.23-4.61-.16-1.25-.41-2.24-.75-2.96s-.75-1.24-1.22-1.55-.99-.47-1.55-.47h-15.33v-7.71c0-2.7.2-4.97.61-6.82s1-3.36 1.79-4.52c.78-1.16 1.8-2 3.06-2.54 1.25-.53 2.76-.8 4.52-.8 1.38 0 2.71.14 4 .42s2.48.63 3.57 1.04c1.1.41 1.86.61 2.3.61.38 0 .71-.11.99-.33s.55-.63.8-1.22c.25-.6.44-1.44.56-2.54s.19-2.56.19-4.37c-.03-1.8-.09-3.32-.21-4.54"/><path d="m235.11 67.35c-4.95 9.02-15.59 12.7-23.77 8.21-8.18-4.48-10.81-15.43-5.86-24.45 4.94-9.02 15.59-12.7 23.77-8.22 8.18 4.5 10.8 15.44 5.86 24.46"/><path d="m353.24 218.95c2.98 0 5.34 2.3 5.34 5.25 0 2.94-2.37 5.28-5.38 5.28s-5.41-2.34-5.41-5.28 2.4-5.25 5.41-5.25zm-.06 1.06c-2.27 0-4.03 1.89-4.03 4.19 0 2.34 1.76 4.19 4.1 4.19 2.27.03 4-1.86 4-4.16 0-2.34-1.73-4.22-4.03-4.22zm-.8 6.91h-1.22v-5.25c.48-.06 1.15-.16 2.02-.16.99 0 1.44.16 1.79.42.32.22.54.61.54 1.12 0 .64-.48 1.06-1.09 1.25v.06c.51.16.77.58.93 1.28.16.8.29 1.09.38 1.28h-1.28c-.16-.19-.26-.64-.42-1.28-.1-.54-.42-.8-1.09-.8h-.58v2.08zm.03-2.94h.58c.67 0 1.21-.22 1.21-.77 0-.48-.35-.8-1.12-.8-.32 0-.54.03-.67.06z" fill="#6d6f71"/></svg>