<svg xmlns="http://www.w3.org/2000/svg" viewBox="0 0 720 240"><g fill="#231f20"><path d="M697.3 207.84c0-1.62-1-2.36-3.22-2.36h-1v4.8h1c2.26 0 3.22-.76 3.22-2.44m2.74 0c0 2.78-1.64 4-5.42 4h-1.52V215c0 .48.1.6.38.6h1.1v1.58h-5.84v-1.58h1c.28 0 .38-.12.38-.6v-8.92c0-.5-.1-.6-.38-.6h-1v-1.58h5.9c3.68 0 5.4 1.28 5.4 3.94m11.9 7.74a15.88 15.88 0 0 0 .76-4.85 15.71 15.71 0 1 0-1.38 6.45h-4.12v-1.58h.86c.36 0 .5-.12.34-.58l-.9-2.34h-4.4l-.84 2.34c-.14.46 0 .58.34.58h.8v1.58h-4.62v-1.58h.78c.42 0 .52-.12.7-.62l4.16-11.14h3l4.1 11.14c.12.38.25.54.44.6m-6.6-9.26l-1.74 4.9h3.48z" class="B"/><path d="M670.37 209.16v12.34c0 .62-.13.77-.5.77h-1.4v2H676v-2h-1.42c-.36 0-.48-.15-.48-.77v-12.34h2c1.08 0 1.3.18 1.62.92l.13 1.52h1.72v-4.37H665v4.37h1.72l.13-1.52c.28-.74.54-.92 1.6-.92zm-12.06 7.43v4.9c0 .62-.13.77-.5.77h-1.26v2h7.36v-2h-1.3c-.36 0-.5-.15-.5-.77V210c0-.64.13-.77.5-.77h1.3v-2h-7.36v2h1.26c.36 0 .5.13.5.77v4.66h-6.6V210c0-.64.13-.77.5-.77h1.26v-2h-7.35v2h1.28c.36 0 .5.13.5.77v11.5c0 .62-.13.77-.5.77h-1.28v2h7.35v-2h-1.26c-.36 0-.5-.15-.5-.77v-4.9zm-15.94 5.5l.85 2.2h1.52v-8.46h-7v2h3.58v.64a3.18 3.18 0 0 1-3.5 3.44c-3 0-4.48-1.74-4.48-5.9v-.64c0-3.86 1.7-5.84 4.94-5.84a5.73 5.73 0 0 1 3.47 1v3h2.88v-5a12.33 12.33 0 0 0-6.66-1.64c-5.56 0-8.64 3.16-8.64 8.9s2.93 8.85 7.76 8.85c2.5 0 4.27-.9 5.2-2.55M621 224.3h7.38v-2h-1.28c-.36 0-.5-.15-.5-.77V210c0-.64.13-.77.5-.77h1.28v-2H621v2h1.3c.36 0 .5.13.5.77v11.5c0 .62-.13.77-.5.77H621zm-14.16 0h13.26v-5.52h-2l-.48 2.64c-.24.78-.52.85-1.6.85h-3.6V210c0-.64.13-.77.5-.77h1.4v-2h-7.5v2h1.28c.36 0 .5.13.5.77v11.5c0 .62-.13.77-.5.77h-1.28zm-10.3-15.14v12.34c0 .62-.13.77-.5.77h-1.4v2h7.5v-2h-1.42c-.36 0-.5-.15-.5-.77v-12.34h2c1.08 0 1.32.18 1.62.92l.13 1.52h1.73v-4.37h-14.58v4.37h1.72l.13-1.52c.28-.74.54-.92 1.6-.92zm-14.7 13.14c-2.94 0-4.66-2.2-4.66-6.15v-.72c0-4 1.78-6.2 4.7-6.2s4.6 2.2 4.6 6.2v.72c0 4-1.75 6.15-4.65 6.15m-.06 2.34c5.25 0 8.62-3.5 8.62-8.85s-3.27-8.9-8.46-8.9-8.74 3.54-8.74 8.9 3.3 8.85 8.58 8.85m-18.38-9.18v-6.17h1.26c2.88 0 4.14 1 4.14 3s-1.24 3.14-4.14 3.14zm0 2h2c4.86 0 7-1.57 7-5.14s-2.2-5.07-6.94-5.07h-7.6v2h1.3c.36 0 .5.13.5.77v11.48c0 .62-.13.77-.5.77h-1.3v2h7.5v-2h-1.4c-.36 0-.5-.15-.5-.77zm-13.4 7.18c4.37 0 6.7-2.14 6.7-5.53 0-3.2-2.32-4.4-5.35-5.1-2.3-.52-3.93-.88-3.93-2.5 0-1.44 1.18-2.46 3-2.46a7 7 0 0 1 3.22.72v2h2.52v-3.57a12 12 0 0 0-5.76-1.31c-4.22 0-6.56 2.16-6.56 5.47 0 3.1 2.26 4.25 5.22 4.9 2.57.57 4.06 1.06 4.06 2.76 0 1.44-1.2 2.44-3.1 2.44a8.09 8.09 0 0 1-3.52-.75v-2.2h-2.67v3.83a14.68 14.68 0 0 0 6.17 1.29"/></g><path d="M372.88 50.7h-6.94v18.36h-6.63V50.7h-7v-5.78h20.54zm19.96 18.37h-6.46V59a2.6 2.6 0 0 0-.6-1.92 2 2 0 0 0-1.48-.6 1.79 1.79 0 0 0-.73.19 3.83 3.83 0 0 0-.85.51 4.32 4.32 0 0 0-.8.8 4.37 4.37 0 0 0-.61 1v10h-6.46V44.25h6.46v9.6a6.19 6.19 0 0 1 2.48-2.23 7.59 7.59 0 0 1 3.44-.76 6 6 0 0 1 3 .64 4.58 4.58 0 0 1 1.7 1.62 5.88 5.88 0 0 1 .75 2.09 14.59 14.59 0 0 1 .17 2.11zM396 49.7v-5.44h6.47v5.44zm0 19.38V51.2h6.47v17.88zm17.07.32a14.07 14.07 0 0 1-4.59-.76 10.43 10.43 0 0 1-3.81-2.23l2.2-3.88a17.05 17.05 0 0 0 3.21 1.74 7.74 7.74 0 0 0 2.84.61c.9 0 1.36-.28 1.36-.85a1 1 0 0 0-.53-.82 9.35 9.35 0 0 0-2.05-.78 29.93 29.93 0 0 1-3.18-1.07 9.29 9.29 0 0 1-2.08-1.14 3.69 3.69 0 0 1-1.14-1.36 4.36 4.36 0 0 1-.31-1.77 5.87 5.87 0 0 1 .55-2.51 6.19 6.19 0 0 1 1.51-2 6.88 6.88 0 0 1 2.31-1.31 9.26 9.26 0 0 1 3-.46 13.59 13.59 0 0 1 3.75.51 9.49 9.49 0 0 1 3.59 2.08l-2.45 3.87a17.25 17.25 0 0 0-2.79-1.54 5.47 5.47 0 0 0-2.1-.46 1.84 1.84 0 0 0-1 .22.75.75 0 0 0-.37.69 1 1 0 0 0 .54.84 9.73 9.73 0 0 0 2.15.73 25 25 0 0 1 3.26 1.07A8.73 8.73 0 0 1 419 60a3.8 3.8 0 0 1 1.13 1.5 5 5 0 0 1 .34 1.92 5.75 5.75 0 0 1-.51 2.48 5.15 5.15 0 0 1-1.48 1.87 6.46 6.46 0 0 1-2.3 1.23 10.7 10.7 0 0 1-3.11.41zm24.38-12.2v11.86h-6.63V44.93H436l9.7 12.28V44.93h6.63v24.14H447zm27.05 12.2a11.17 11.17 0 0 1-4.18-.73 9 9 0 0 1-3.08-2 8.64 8.64 0 0 1-1.88-2.89 9.25 9.25 0 0 1-.65-3.43 10.74 10.74 0 0 1 .63-3.68 8.48 8.48 0 0 1 1.87-3 9.11 9.11 0 0 1 3.06-2.06 12.12 12.12 0 0 1 8.45 0 9.21 9.21 0 0 1 3.08 2 8.56 8.56 0 0 1 1.87 3 9.93 9.93 0 0 1 .63 3.52 9.33 9.33 0 0 1-.06 1c0 .35-.07.66-.1.93H461.6a2.54 2.54 0 0 0 1.05 2.06 3.71 3.71 0 0 0 2.08.63 4.33 4.33 0 0 0 2-.48A2.44 2.44 0 0 0 468 63l5.47 1.56a8.52 8.52 0 0 1-3.35 3.5 10.58 10.58 0 0 1-5.61 1.35zm2.86-11.18a3.32 3.32 0 0 0-.95-2 3.09 3.09 0 0 0-4 0 3.32 3.32 0 0 0-1 2zm30.4-7.02h6.08l-7.3 17.88h-5.27l-2.4-6.8-2.4 6.8h-5.28l-7.3-17.88h6.1l4.32 12 1.12-3.84-3.2-8.16h5.14l1.53 5.23 1.53-5.23h5.13l-3.2 8.16 1.12 3.84zm14.3 18.2a14.16 14.16 0 0 1-4.59-.76 10.47 10.47 0 0 1-3.8-2.23l2.2-3.88a17.05 17.05 0 0 0 3.21 1.74 7.74 7.74 0 0 0 2.84.61c.9 0 1.36-.28 1.36-.85a1 1 0 0 0-.53-.82 9.5 9.5 0 0 0-2.06-.78 29.93 29.93 0 0 1-3.18-1.07 9 9 0 0 1-2.07-1.14 3.69 3.69 0 0 1-1.14-1.36 4.2 4.2 0 0 1-.33-1.77 5.73 5.73 0 0 1 .55-2.51 6.05 6.05 0 0 1 1.51-2 6.69 6.69 0 0 1 2.31-1.31 9.24 9.24 0 0 1 2.94-.46 13.61 13.61 0 0 1 3.76.51 9.57 9.57 0 0 1 3.59 2.08l-2.45 3.87a17.25 17.25 0 0 0-2.79-1.54 5.52 5.52 0 0 0-2.11-.46 1.83 1.83 0 0 0-.95.22.75.75 0 0 0-.37.69 1 1 0 0 0 .54.84 9.59 9.59 0 0 0 2.14.73 25.67 25.67 0 0 1 3.27 1.07 8.46 8.46 0 0 1 2.11 1.17 3.93 3.93 0 0 1 1.14 1.5 5 5 0 0 1 .34 1.92 5.75 5.75 0 0 1-.51 2.48 5.15 5.15 0 0 1-1.48 1.87A6.55 6.55 0 0 1 515.2 69a10.72 10.72 0 0 1-3.12.41zm16.42-12.6a12 12 0 0 1 3.26-8.2 13 13 0 0 1 15.15-2.36 9.43 9.43 0 0 1 3.82 3.82l-5.06 3.6a4.31 4.31 0 0 0-.9-1.46 4.7 4.7 0 0 0-1.24-.92 5.29 5.29 0 0 0-1.42-.48 7.63 7.63 0 0 0-1.41-.13 5 5 0 0 0-4.16 2 6.45 6.45 0 0 0-1 2 8.45 8.45 0 0 0-.32 2.26 7.85 7.85 0 0 0 .37 2.42 6.25 6.25 0 0 0 1.09 2 5.47 5.47 0 0 0 1.75 1.41 5.08 5.08 0 0 0 2.33.52 6.71 6.71 0 0 0 1.39-.15 5 5 0 0 0 1.38-.51 4.58 4.58 0 0 0 1.19-.92 4.17 4.17 0 0 0 .84-1.37l5.4 3.23a6.91 6.91 0 0 1-1.65 2.38 10.2 10.2 0 0 1-2.51 1.76 13.15 13.15 0 0 1-3 1.09 13.89 13.89 0 0 1-3.15.38 11.11 11.11 0 0 1-4.91-1.08 12.6 12.6 0 0 1-3.84-2.83 12.88 12.88 0 0 1-2.5-4 12.27 12.27 0 0 1-.9-4.47zm29.66 12.6a7 7 0 0 1-2.49-.44 6 6 0 0 1-2-1.21 5.3 5.3 0 0 1-1.31-1.82 5.41 5.41 0 0 1-.48-2.27 5.31 5.31 0 0 1 .58-2.49 5.91 5.91 0 0 1 1.6-1.93 7.18 7.18 0 0 1 2.45-1.25 10.16 10.16 0 0 1 3.11-.45 8.25 8.25 0 0 1 3.6.69v-.55a2.29 2.29 0 0 0-.73-1.87 3.65 3.65 0 0 0-2.36-.61 7.81 7.81 0 0 0-2.82.49 13.43 13.43 0 0 0-2.72 1.45l-1.87-4a14.58 14.58 0 0 1 8-2.27q4.3 0 6.6 1.9a7 7 0 0 1 2.31 5.71v3.47a2.14 2.14 0 0 0 .28 1.28 1.29 1.29 0 0 0 .95.42v5.44c-.52.12-1 .2-1.48.26a12 12 0 0 1-1.24.08 4.59 4.59 0 0 1-2.64-.63 2.91 2.91 0 0 1-1.17-1.85l-.14-.65a8.18 8.18 0 0 1-2.75 2.33 7.14 7.14 0 0 1-3.28.77zm1.93-4.62a4 4 0 0 0 1.2-.19 4.44 4.44 0 0 0 1.08-.49 2.49 2.49 0 0 0 .61-.6 1.07 1.07 0 0 0 .24-.66V61.5a9.55 9.55 0 0 0-1.26-.34 6.27 6.27 0 0 0-1.22-.13 3.26 3.26 0 0 0-2 .57 1.77 1.77 0 0 0-.78 1.47 1.48 1.48 0 0 0 .59 1.22 2.33 2.33 0 0 0 1.54.48zm31.15 4.3h-6.46V59a2.6 2.6 0 0 0-.6-1.92 1.86 1.86 0 0 0-1.37-.6 2.89 2.89 0 0 0-1.74.72 4.24 4.24 0 0 0-1.36 1.8v10h-6.46V51.2h5.82v2.65a5.94 5.94 0 0 1 2.67-2.23 9.91 9.91 0 0 1 4.06-.76 5.55 5.55 0 0 1 2.91.66 4.59 4.59 0 0 1 1.63 1.65 6.09 6.09 0 0 1 .73 2.11 14 14 0 0 1 .17 2zm3.43-15.4l.9-4.46h-1.77v-5.44h6.7v5.6l-1.43 4.3zM616.1 68.1a20.67 20.67 0 0 1-2.91 1 12.45 12.45 0 0 1-3 .4 7.85 7.85 0 0 1-2.08-.28 4.46 4.46 0 0 1-1.72-.88 4.25 4.25 0 0 1-1.15-1.6 6.08 6.08 0 0 1-.43-2.45v-8.23h-2.2V51.2h2.2v-5.6h6.46v5.6h3.5v4.86h-3.5V62a1.67 1.67 0 0 0 .38 1.24 1.45 1.45 0 0 0 1 .35 4.64 4.64 0 0 0 1.09-.15 7.68 7.68 0 0 0 1.22-.42zm16.42-23.17h6.1l2.1 7.45 2.15-7.45h6.08l-4 11.53 1.74 5 5.2-16.56h7.2l-9.45 24.14h-5.5l-3.44-8.63-3.4 8.63h-5.5l-9.46-24.14h7.18l5.23 16.56 1.67-5zm30.94 24.47A7 7 0 0 1 661 69a6.14 6.14 0 0 1-2-1.21 5.64 5.64 0 0 1-1.21-6.58 6 6 0 0 1 1.6-1.93 7.18 7.18 0 0 1 2.42-1.28 10.2 10.2 0 0 1 3.11-.45 8.27 8.27 0 0 1 3.61.69v-.55a2.32 2.32 0 0 0-.73-1.87 3.68 3.68 0 0 0-2.37-.61 7.81 7.81 0 0 0-2.82.49 13.7 13.7 0 0 0-2.72 1.45l-1.87-4a14.64 14.64 0 0 1 8.06-2.27c2.86 0 5 .63 6.6 1.9a7 7 0 0 1 2.32 5.68v3.47a2.23 2.23 0 0 0 .27 1.28 1.31 1.31 0 0 0 1 .42v5.44a14.92 14.92 0 0 1-1.48.26 11.64 11.64 0 0 1-1.24.08 4.58 4.58 0 0 1-2.63-.63 3 3 0 0 1-1.18-1.85l-.13-.65a8.21 8.21 0 0 1-2.76 2.33 7.11 7.11 0 0 1-3.39.8zm1.94-4.62a3.89 3.89 0 0 0 1.19-.19 4.35 4.35 0 0 0 1.09-.49 2.68 2.68 0 0 0 .61-.6 1.07 1.07 0 0 0 .24-.66V61.5a10.47 10.47 0 0 0-1.26-.34 6.27 6.27 0 0 0-1.22-.13 3.29 3.29 0 0 0-2 .57 1.77 1.77 0 0 0-.78 1.47 1.49 1.49 0 0 0 .6 1.22 2.32 2.32 0 0 0 1.53.48zm13.16-15.08v-5.44H685v5.44zm0 19.38V51.2H685v17.88z"/><path d="M700.83 68.1a20.67 20.67 0 0 1-2.91 1 12.39 12.39 0 0 1-3 .4 7.72 7.72 0 0 1-2.07-.28 4.46 4.46 0 0 1-1.72-.88 4.27 4.27 0 0 1-1.16-1.6 6.26 6.26 0 0 1-.42-2.45v-8.23h-2.25V51.2h2.2v-5.6h6.5v5.6h3.5v4.86H696V62a1.67 1.67 0 0 0 .37 1.24 1.45 1.45 0 0 0 1 .35 4.64 4.64 0 0 0 1.09-.15 7 7 0 0 0 1.22-.42zm1.9.97v-6.25H708v6.25zM426.1 114V98.62h5.47a8.21 8.21 0 0 1 3.26.61 6.67 6.67 0 0 1 3.76 4.09 9.65 9.65 0 0 1-.05 6.16 7 7 0 0 1-1.53 2.42 6.49 6.49 0 0 1-2.36 1.56 8.31 8.31 0 0 1-3.1.56zm10.5-7.72a6.91 6.91 0 0 0-.34-2.23 4.63 4.63 0 0 0-2.57-2.89 5.27 5.27 0 0 0-2.12-.41h-3v11.1h3a5.19 5.19 0 0 0 2.15-.42 4.45 4.45 0 0 0 1.59-1.17 5.21 5.21 0 0 0 1-1.77 7.16 7.16 0 0 0 .29-2.19zm9.8 7.95a6 6 0 0 1-2.42-.47 5.85 5.85 0 0 1-1.83-1.28 5.52 5.52 0 0 1-1.16-1.88 6.06 6.06 0 0 1-.41-2.24 6.15 6.15 0 0 1 .41-2.25 5.51 5.51 0 0 1 1.18-1.87A5.73 5.73 0 0 1 444 103a5.85 5.85 0 0 1 2.4-.48 5.8 5.8 0 0 1 4.24 1.76 5.66 5.66 0 0 1 1.18 1.87 6.36 6.36 0 0 1 .41 2.25 6.27 6.27 0 0 1-.41 2.24 5.71 5.71 0 0 1-1.18 1.88 5.74 5.74 0 0 1-4.24 1.75zm-3.4-5.85a4.15 4.15 0 0 0 .26 1.52 3.78 3.78 0 0 0 .71 1.2 3.27 3.27 0 0 0 1.08.8 3.1 3.1 0 0 0 2.66 0 3.27 3.27 0 0 0 1.08-.81 3.94 3.94 0 0 0 .71-1.21 4.54 4.54 0 0 0 0-3 3.77 3.77 0 0 0-.71-1.22 3.44 3.44 0 0 0-1.08-.82 3.12 3.12 0 0 0-1.33-.29 3 3 0 0 0-1.31.3 3.63 3.63 0 0 0-1.08.83 4.1 4.1 0 0 0-.72 1.22 4.21 4.21 0 0 0-.27 1.48zm21.53 5.62h-2.38v-6.36a4.17 4.17 0 0 0-.51-2.33 1.73 1.73 0 0 0-1.51-.72 3 3 0 0 0-1 .19 3.5 3.5 0 0 0-1 .56 4.09 4.09 0 0 0-.82.84 3.88 3.88 0 0 0-.55 1.07V114h-2.4v-11.32h2.17V105a4.72 4.72 0 0 1 1.89-1.81 5.68 5.68 0 0 1 2.73-.66 3.41 3.41 0 0 1 1.67.37 2.77 2.77 0 0 1 1 1 4.51 4.51 0 0 1 .53 1.47 10.06 10.06 0 0 1 .15 1.77zm5.8.23a4.24 4.24 0 0 1-1.53-.27 3.64 3.64 0 0 1-1.21-.75 3.33 3.33 0 0 1-.8-1.12 3.37 3.37 0 0 1-.3-1.41 3 3 0 0 1 .35-1.45 3.32 3.32 0 0 1 1-1.13 4.63 4.63 0 0 1 1.51-.74 7 7 0 0 1 1.95-.26 9.28 9.28 0 0 1 1.58.14 8.47 8.47 0 0 1 1.41.38v-.78a2.61 2.61 0 0 0-.72-2 2.8 2.8 0 0 0-2.06-.71 5.07 5.07 0 0 0-1.79.34 8.94 8.94 0 0 0-1.81 1l-.73-1.52a8 8 0 0 1 4.55-1.48 5.17 5.17 0 0 1 3.64 1.2 4.38 4.38 0 0 1 1.3 3.42v4.1q0 .75.63.78v2a5.57 5.57 0 0 1-.6.08 3.87 3.87 0 0 1-.48 0 1.56 1.56 0 0 1-1.08-.35 1.45 1.45 0 0 1-.46-.89l-.07-.72a4.94 4.94 0 0 1-1.87 1.53 5.47 5.47 0 0 1-2.41.61zm.65-1.75a4.28 4.28 0 0 0 1.64-.32 2.87 2.87 0 0 0 1.2-.87 1.1 1.1 0 0 0 .46-.83V109a7.37 7.37 0 0 0-2.63-.5 3.63 3.63 0 0 0-2.09.55 1.7 1.7 0 0 0-.81 1.46 1.83 1.83 0 0 0 .63 1.42 2.25 2.25 0 0 0 1.63.55zm14.8.95a10.16 10.16 0 0 1-1.26.49 5.28 5.28 0 0 1-1.71.27 3.62 3.62 0 0 1-1.06-.15 2.39 2.39 0 0 1-.88-.46 2 2 0 0 1-.6-.79 3 3 0 0 1-.21-1.18v-7.1h-1.5v-1.84H480V99h2.38v3.73h2.47v1.84h-2.47v6.33a1.19 1.19 0 0 0 .38.88 1.27 1.27 0 0 0 .83.27 2.81 2.81 0 0 0 1-.17l.67-.28zm6.5.8a6 6 0 0 1-2.4-.46 5.69 5.69 0 0 1-1.86-1.27 5.79 5.79 0 0 1-1.19-1.87 6 6 0 0 1-.42-2.25 6.22 6.22 0 0 1 .42-2.27 5.84 5.84 0 0 1 1.19-1.88 5.56 5.56 0 0 1 1.86-1.28 6.07 6.07 0 0 1 2.42-.47 5.81 5.81 0 0 1 2.4.48 5.6 5.6 0 0 1 1.83 1.27 5.42 5.42 0 0 1 1.16 1.84 6.08 6.08 0 0 1 .4 2.2 3.78 3.78 0 0 1 0 .49v.38h-9.1a4.06 4.06 0 0 0 .36 1.36 3.72 3.72 0 0 0 .76 1.06 3.49 3.49 0 0 0 1.06.68 3.35 3.35 0 0 0 1.25.24 3.73 3.73 0 0 0 .94-.12 3.45 3.45 0 0 0 .86-.35 2.83 2.83 0 0 0 1.17-1.27l2 .6a4.74 4.74 0 0 1-1.94 2.09 6.07 6.07 0 0 1-3.18.81zm3.45-6.74a3.59 3.59 0 0 0-.36-1.32 3.15 3.15 0 0 0-.75-1 3.28 3.28 0 0 0-1.06-.66 3.43 3.43 0 0 0-1.28-.24 3.38 3.38 0 0 0-1.27.24 3.58 3.58 0 0 0-1.05.66 3.1 3.1 0 0 0-.73 1 3.79 3.79 0 0 0-.35 1.32zm19.84 6.5h-2.4v-6.36a4.17 4.17 0 0 0-.51-2.33 1.72 1.72 0 0 0-1.5-.72 2.9 2.9 0 0 0-1 .19 3.55 3.55 0 0 0-1 .56 4.31 4.31 0 0 0-.81.84 3.9 3.9 0 0 0-.56 1.07V114h-2.38v-11.32h2.17V105a4.69 4.69 0 0 1 1.88-1.81 5.75 5.75 0 0 1 2.74-.66 3.4 3.4 0 0 1 1.66.37 2.7 2.7 0 0 1 1 1 4.52 4.52 0 0 1 .54 1.47 10.06 10.06 0 0 1 .15 1.77zm7.87.23a6 6 0 0 1-2.42-.47 5.63 5.63 0 0 1-1.83-1.28 5.52 5.52 0 0 1-1.17-1.88 6.06 6.06 0 0 1-.42-2.24 6.15 6.15 0 0 1 .42-2.25 5.51 5.51 0 0 1 1.18-1.87A5.73 5.73 0 0 1 521 103a5.85 5.85 0 0 1 2.4-.48 5.8 5.8 0 0 1 4.24 1.76 5.66 5.66 0 0 1 1.18 1.87 6.36 6.36 0 0 1 .41 2.25 6.27 6.27 0 0 1-.41 2.24 5.71 5.71 0 0 1-1.18 1.88 5.74 5.74 0 0 1-4.24 1.75zm-3.42-5.85a4.37 4.37 0 0 0 .26 1.52 4 4 0 0 0 .72 1.2 3.23 3.23 0 0 0 1.07.8 3.06 3.06 0 0 0 1.34.3 3 3 0 0 0 1.33-.3 3.13 3.13 0 0 0 1.07-.81 3.78 3.78 0 0 0 .72-1.21 4.54 4.54 0 0 0 0-3 3.62 3.62 0 0 0-.72-1.22 3.29 3.29 0 0 0-1.07-.82 3.15 3.15 0 0 0-1.33-.29 3 3 0 0 0-1.32.3 3.47 3.47 0 0 0-1.07.83 4.1 4.1 0 0 0-.72 1.22 4 4 0 0 0-.28 1.48zm25.1-5.7h2.27L542.6 114h-2l-2.1-5.27-2.08 5.27h-2l-4.8-11.34h2.28l3.66 9 1.65-4.2-2-4.8h2l1.3 3.56 1.28-3.56h2l-2 4.8 1.65 4.2zm11.64 11.55a4.24 4.24 0 0 1-1.53-.27 3.64 3.64 0 0 1-1.21-.75 3.36 3.36 0 0 1-1.1-2.53 3 3 0 0 1 .35-1.45 3.32 3.32 0 0 1 1-1.13 4.63 4.63 0 0 1 1.51-.74 7 7 0 0 1 1.94-.26 9.31 9.31 0 0 1 1.59.14 8.47 8.47 0 0 1 1.41.38v-.78a2.61 2.61 0 0 0-.72-2 2.81 2.81 0 0 0-2.06-.71 5.07 5.07 0 0 0-1.79.34 8.94 8.94 0 0 0-1.81 1l-.74-1.52a8 8 0 0 1 4.56-1.48 5.17 5.17 0 0 1 3.64 1.2 4.38 4.38 0 0 1 1.3 3.42v4.1q0 .75.63.78v2a5.57 5.57 0 0 1-.6.08 4 4 0 0 1-.48 0 1.54 1.54 0 0 1-1.08-.35 1.45 1.45 0 0 1-.46-.89l-.07-.72a5 5 0 0 1-1.88 1.53 5.39 5.39 0 0 1-2.4.61zm.65-1.75a4.32 4.32 0 0 0 1.64-.32 2.87 2.87 0 0 0 1.2-.87 1.13 1.13 0 0 0 .46-.83V109a7.37 7.37 0 0 0-2.63-.5 3.63 3.63 0 0 0-2.06.5 1.7 1.7 0 0 0-.81 1.46 1.83 1.83 0 0 0 .63 1.42 2.23 2.23 0 0 0 1.57.6zm18.73 1.52h-2.38v-6.36a4.17 4.17 0 0 0-.51-2.33 1.74 1.74 0 0 0-1.51-.72 2.94 2.94 0 0 0-1 .19 3.7 3.7 0 0 0-1 .56 4.31 4.31 0 0 0-.81.84 3.88 3.88 0 0 0-.55 1.07V114H566v-11.32h2.17V105a4.65 4.65 0 0 1 1.89-1.81 5.68 5.68 0 0 1 2.73-.66 3.41 3.41 0 0 1 1.67.37 2.77 2.77 0 0 1 1 1 4.51 4.51 0 0 1 .53 1.47 10.06 10.06 0 0 1 .15 1.77zm7.38.23a4.87 4.87 0 0 1-2.12-.46 5.41 5.41 0 0 1-1.69-1.27 5.91 5.91 0 0 1-1.12-1.88 6.44 6.44 0 0 1-.4-2.31 6.63 6.63 0 0 1 .38-2.24 5.92 5.92 0 0 1 1.06-1.85 5.06 5.06 0 0 1 1.61-1.27 4.66 4.66 0 0 1 4.43.19 5 5 0 0 1 1.63 1.68V98.2h2.38v13a1 1 0 0 0 .14.58.71.71 0 0 0 .51.2v2c-.24 0-.44.07-.6.08h-.38a1.82 1.82 0 0 1-1.17-.37 1.31 1.31 0 0 1-.5-1v-.84a4.57 4.57 0 0 1-1.71 1.67 4.87 4.87 0 0 1-2.46.72zm.6-2a3.16 3.16 0 0 0 1-.18 3.37 3.37 0 0 0 1-.47 3.67 3.67 0 0 0 .75-.72 2.58 2.58 0 0 0 .45-.89v-3a3.66 3.66 0 0 0-.56-1 3.87 3.87 0 0 0-1.77-1.28 3.37 3.37 0 0 0-1-.17 2.63 2.63 0 0 0-1.31.33 3.3 3.3 0 0 0-1 .86 4.64 4.64 0 0 0-.68 1.24 4.35 4.35 0 0 0-.25 1.43 4 4 0 0 0 .27 1.47 3.79 3.79 0 0 0 .75 1.22 3.52 3.52 0 0 0 1.1.82 3 3 0 0 0 1.25.31zm13.75 4.45c.2 0 .43.08.64.1a3.62 3.62 0 0 0 .51 0 1 1 0 0 0 .48-.12 1.45 1.45 0 0 0 .43-.43 4.36 4.36 0 0 0 .44-.85l.53-1.42-4.66-11.34h2.45l3.5 9.23 3.12-9.23h2.26l-5.14 14a3.4 3.4 0 0 1-3.4 2.3h-.55a4.79 4.79 0 0 1-.62-.14zm16.15-2.45a6 6 0 0 1-2.42-.47 5.85 5.85 0 0 1-1.83-1.28 5.52 5.52 0 0 1-1.17-1.88 6.06 6.06 0 0 1-.41-2.24 6.15 6.15 0 0 1 .41-2.25 5.51 5.51 0 0 1 1.18-1.87 5.73 5.73 0 0 1 1.84-1.28 5.92 5.92 0 0 1 6.64 1.28 5.66 5.66 0 0 1 1.18 1.87 6.36 6.36 0 0 1 .41 2.25 6.27 6.27 0 0 1-.41 2.24 5.71 5.71 0 0 1-1.18 1.88 5.7 5.7 0 0 1-4.24 1.75zm-3.38-5.85a4.15 4.15 0 0 0 .26 1.52 3.78 3.78 0 0 0 .71 1.2 3.27 3.27 0 0 0 1.08.8 3.1 3.1 0 0 0 2.66 0 3.27 3.27 0 0 0 1.08-.81 3.94 3.94 0 0 0 .71-1.21 4.54 4.54 0 0 0 0-3 3.77 3.77 0 0 0-.71-1.22 3.44 3.44 0 0 0-1.08-.82 3.12 3.12 0 0 0-1.33-.29 3 3 0 0 0-1.31.3 3.63 3.63 0 0 0-1.08.83 4.1 4.1 0 0 0-.72 1.22 4.21 4.21 0 0 0-.25 1.48z"/><path d="M625.47 114.23a3.18 3.18 0 0 1-2.69-1.16 5.49 5.49 0 0 1-.91-3.45v-6.94h2.38v6.46c0 2 .72 3.06 2.17 3.06a3.34 3.34 0 0 0 1.93-.63 4 4 0 0 0 1.41-1.82v-7.07h2.38v8.52a.88.88 0 0 0 .15.58.67.67 0 0 0 .5.2v2c-.24 0-.44.07-.6.08h-.46a1.71 1.71 0 0 1-1.1-.36 1.16 1.16 0 0 1-.48-.92v-1.13a5.07 5.07 0 0 1-2 1.87 5.59 5.59 0 0 1-2.68.71zm16.08-9.5a5.35 5.35 0 0 0-2.46.64 3.38 3.38 0 0 0-1.53 1.7V114h-2.38v-11.32h2.2v2.53a5.16 5.16 0 0 1 1.53-1.87 3.67 3.67 0 0 1 2-.77h.6zM359 139.45c-.3.14-.73.3-1.26.5a5.37 5.37 0 0 1-1.71.27 3.74 3.74 0 0 1-1.07-.15 2.59 2.59 0 0 1-.87-.46 2 2 0 0 1-.6-.79 3 3 0 0 1-.22-1.18v-7.1h-1.5v-1.84h1.5V125h2.4v3.73h2.47v1.84h-2.43v6.33a1.17 1.17 0 0 0 .38.88 1.27 1.27 0 0 0 .83.27 2.64 2.64 0 0 0 1-.18l.67-.28zm4.7.8a4.24 4.24 0 0 1-1.53-.27 3.59 3.59 0 0 1-2-1.88 3.44 3.44 0 0 1-.29-1.4 3.09 3.09 0 0 1 .35-1.46 3.37 3.37 0 0 1 1-1.12 4.78 4.78 0 0 1 1.52-.74 7 7 0 0 1 1.94-.26 9.19 9.19 0 0 1 1.58.14 7.39 7.39 0 0 1 1.41.38v-.78a2.61 2.61 0 0 0-.71-2 2.81 2.81 0 0 0-2.06-.71 4.86 4.86 0 0 0-1.79.34 8.62 8.62 0 0 0-1.81 1l-.74-1.52a8.07 8.07 0 0 1 4.56-1.47 5.21 5.21 0 0 1 3.64 1.19 4.42 4.42 0 0 1 1.3 3.43v4.1q0 .75.63.78v2a4 4 0 0 1-.6.09h-.5a1.53 1.53 0 0 1-1.07-.34 1.55 1.55 0 0 1-.47-.89l-.06-.72a5 5 0 0 1-1.88 1.53 5.53 5.53 0 0 1-2.43.58zm.65-1.75a4.23 4.23 0 0 0 1.63-.32 2.78 2.78 0 0 0 1.21-.88 1.09 1.09 0 0 0 .45-.82V135a7.17 7.17 0 0 0-1.29-.37 7.68 7.68 0 0 0-1.33-.13 3.63 3.63 0 0 0-2.09.56 1.69 1.69 0 0 0-.81 1.46 1.84 1.84 0 0 0 .62 1.42 2.32 2.32 0 0 0 1.61.56zm9.82-9.8l2.78 3.88.2.36.2-.36 2.76-3.88h2.5l-4.14 5.68 4.18 5.65h-2.5l-2.8-3.86-.2-.34-.2.34-2.8 3.86h-2.5l4.18-5.65-4.14-5.68zm9.43 6.48V133h6.48v2.15zm13.85 5.07a4.87 4.87 0 0 1-2.12-.46 5.57 5.57 0 0 1-1.69-1.27 5.91 5.91 0 0 1-1.12-1.88 6.44 6.44 0 0 1-.4-2.31 6.63 6.63 0 0 1 .38-2.24 6.09 6.09 0 0 1 1.06-1.86 5.18 5.18 0 0 1 1.61-1.26 4.66 4.66 0 0 1 4.43.19 4.85 4.85 0 0 1 1.63 1.68v-6.63h2.38v13a1 1 0 0 0 .14.58.71.71 0 0 0 .51.2v2a4.51 4.51 0 0 1-.59.09h-.38a1.76 1.76 0 0 1-1.17-.37 1.27 1.27 0 0 1-.5-1l-.05-.85a4.5 4.5 0 0 1-1.71 1.67 4.77 4.77 0 0 1-2.41.72zm.6-2a3.15 3.15 0 0 0 1-.17 3.63 3.63 0 0 0 1.7-1.19 2.67 2.67 0 0 0 .45-.89v-3a3.52 3.52 0 0 0-.56-1 4 4 0 0 0-.81-.78 3.66 3.66 0 0 0-1-.5 3.37 3.37 0 0 0-1-.17 2.8 2.8 0 0 0-1.32.32 3.57 3.57 0 0 0-1 .87 4.49 4.49 0 0 0-.68 1.24 4.35 4.35 0 0 0-.25 1.43 4 4 0 0 0 .27 1.47 3.9 3.9 0 0 0 .75 1.22 3.68 3.68 0 0 0 1.1.82 3 3 0 0 0 1.31.29zm13.75 2a6 6 0 0 1-4.27-1.73 5.79 5.79 0 0 1-1.19-1.87 6.08 6.08 0 0 1-.42-2.25 6.18 6.18 0 0 1 .42-2.27 5.84 5.84 0 0 1 1.19-1.88 5.52 5.52 0 0 1 1.86-1.28 6.09 6.09 0 0 1 2.43-.47 5.76 5.76 0 0 1 2.39.48 5.46 5.46 0 0 1 1.83 1.27 5.19 5.19 0 0 1 1.16 1.84 6.05 6.05 0 0 1 .41 2.2 3.91 3.91 0 0 1 0 .49v.38h-9.08a3.89 3.89 0 0 0 .35 1.36 3.54 3.54 0 0 0 .76 1 3.3 3.3 0 0 0 2.31.93 3.73 3.73 0 0 0 .94-.12 3.3 3.3 0 0 0 .86-.35 3.4 3.4 0 0 0 .7-.55 2.55 2.55 0 0 0 .47-.72l2 .6a4.74 4.74 0 0 1-1.94 2.09 6 6 0 0 1-3.18.86zm3.44-6.74a3.79 3.79 0 0 0-.35-1.32 3.47 3.47 0 0 0-.75-1 3.1 3.1 0 0 0-1.07-.66 3.41 3.41 0 0 0-1.27-.24 3.34 3.34 0 0 0-1.27.24 3.15 3.15 0 0 0-1.06.66 3.25 3.25 0 0 0-.73 1 3.79 3.79 0 0 0-.35 1.32zm8.92 6.74a4.87 4.87 0 0 1-2.12-.46 5.57 5.57 0 0 1-1.69-1.27 5.91 5.91 0 0 1-1.12-1.88 6.44 6.44 0 0 1-.4-2.31 6.63 6.63 0 0 1 .38-2.24 6.09 6.09 0 0 1 1.06-1.86 5.18 5.18 0 0 1 1.61-1.26 4.66 4.66 0 0 1 4.43.19 4.85 4.85 0 0 1 1.63 1.68v-6.63h2.38v13a1 1 0 0 0 .14.58.71.71 0 0 0 .51.2v2a4.51 4.51 0 0 1-.59.09H430a1.76 1.76 0 0 1-1.17-.37 1.27 1.27 0 0 1-.5-1l-.05-.85a4.5 4.5 0 0 1-1.71 1.67 4.77 4.77 0 0 1-2.41.72zm.6-2a3.15 3.15 0 0 0 1-.17 3.63 3.63 0 0 0 1.7-1.19 2.67 2.67 0 0 0 .45-.89v-3a3.52 3.52 0 0 0-.56-1 4 4 0 0 0-.81-.78 3.66 3.66 0 0 0-1-.5 3.37 3.37 0 0 0-1-.17 2.8 2.8 0 0 0-1.32.32 3.57 3.57 0 0 0-1 .87 4.49 4.49 0 0 0-.68 1.24 4.35 4.35 0 0 0-.25 1.43 4 4 0 0 0 .27 1.47 3.9 3.9 0 0 0 .75 1.22 3.68 3.68 0 0 0 1.1.82 3 3 0 0 0 1.35.29zm12.1 2a3.22 3.22 0 0 1-2.69-1.16 5.5 5.5 0 0 1-.91-3.46v-6.93h2.38v6.46c0 2 .73 3.05 2.17 3.05a3.34 3.34 0 0 0 1.93-.63 3.92 3.92 0 0 0 1.41-1.82v-7.06h2.4v8.52a.88.88 0 0 0 .14.58.67.67 0 0 0 .51.2v2a4.74 4.74 0 0 1-.61.09h-.46a1.76 1.76 0 0 1-1.1-.35 1.17 1.17 0 0 1-.48-.93v-1.12a5.07 5.07 0 0 1-2 1.87 5.56 5.56 0 0 1-2.68.69zm8.97-5.9a6.08 6.08 0 0 1 .42-2.25 5.45 5.45 0 0 1 1.18-1.87 5.62 5.62 0 0 1 1.85-1.26 6.09 6.09 0 0 1 2.43-.47 5.72 5.72 0 0 1 3 .77 4.87 4.87 0 0 1 1.9 2l-2.32.74a3 3 0 0 0-2.64-1.52 3.16 3.16 0 0 0-1.34.28 3.2 3.2 0 0 0-1.07.79 4 4 0 0 0-.72 1.2 4.48 4.48 0 0 0-.26 1.54 4.24 4.24 0 0 0 .27 1.53 4.2 4.2 0 0 0 .74 1.23 3.34 3.34 0 0 0 1.09.81 2.92 2.92 0 0 0 1.31.29 3.19 3.19 0 0 0 .86-.12 2.9 2.9 0 0 0 1.42-.83 1.82 1.82 0 0 0 .41-.61l2.34.7a4.68 4.68 0 0 1-1.89 2.09 5.85 5.85 0 0 1-3.12.81 5.93 5.93 0 0 1-2.41-.48 5.41 5.41 0 0 1-1.85-1.29 5.79 5.79 0 0 1-1.19-1.87 5.9 5.9 0 0 1-.41-2.21zm19.18 5.1a12.05 12.05 0 0 1-1.26.49 5.28 5.28 0 0 1-1.71.27 3.62 3.62 0 0 1-1.06-.15 2.54 2.54 0 0 1-.88-.46 2.18 2.18 0 0 1-.6-.79 3 3 0 0 1-.21-1.18v-7.1h-1.5v-1.84h1.5V125h2.38v3.73h2.47v1.84h-2.47v6.33a1.21 1.21 0 0 0 .38.88 1.27 1.27 0 0 0 .83.27 2.6 2.6 0 0 0 1-.18 6.89 6.89 0 0 0 .67-.28zm1.64-12.62v-2.62H469v2.62zm0 13.2V128.7H469V140zm11.36.22a4.62 4.62 0 0 1-2.36-.62A4.45 4.45 0 0 1 474 138v2h-2.1v-15.8h2.4v6.63a5.28 5.28 0 0 1 1.68-1.71 4.37 4.37 0 0 1 2.37-.63 4.32 4.32 0 0 1 2.06.49 5.15 5.15 0 0 1 1.6 1.3 5.77 5.77 0 0 1 1 1.88 7.07 7.07 0 0 1 .36 2.25 6.36 6.36 0 0 1-.41 2.28 5.9 5.9 0 0 1-1.13 1.85 5.18 5.18 0 0 1-1.7 1.25 5 5 0 0 1-2.11.45zm-.63-2a3.22 3.22 0 0 0 1.43-.31 3.7 3.7 0 0 0 1.12-.84 3.62 3.62 0 0 0 .72-1.2 3.87 3.87 0 0 0 .26-1.44 4.23 4.23 0 0 0-.25-1.46 3.93 3.93 0 0 0-.69-1.24 3.68 3.68 0 0 0-1.06-.86 3.06 3.06 0 0 0-3.32.39 4.77 4.77 0 0 0-1.31 1.74v3a2.39 2.39 0 0 0 .45.9 3.62 3.62 0 0 0 .76.7 3.39 3.39 0 0 0 .93.47 3.06 3.06 0 0 0 .96.11zm8.15-14.05h2.4v12.55a1.41 1.41 0 0 0 .32 1 1.16 1.16 0 0 0 .91.35 2 2 0 0 0 .55-.08 5.27 5.27 0 0 0 .6-.2l.35 1.87a5.87 5.87 0 0 1-1.24.38 7 7 0 0 1-1.28.14 2.67 2.67 0 0 1-1.92-.67 2.59 2.59 0 0 1-.68-1.91zm11.64 16.05a6 6 0 0 1-2.4-.46 5.56 5.56 0 0 1-3.05-3.14 6.08 6.08 0 0 1-.42-2.25 6.18 6.18 0 0 1 .42-2.27 5.84 5.84 0 0 1 1.19-1.88 5.42 5.42 0 0 1 1.86-1.28 6.07 6.07 0 0 1 2.42-.47 5.81 5.81 0 0 1 2.4.48 5.56 5.56 0 0 1 1.83 1.27 5.33 5.33 0 0 1 1.16 1.84 6 6 0 0 1 .4 2.2v.87h-9.1a4.13 4.13 0 0 0 .36 1.36 3.54 3.54 0 0 0 .76 1 3.24 3.24 0 0 0 1.06.69 3.35 3.35 0 0 0 1.25.24 3.73 3.73 0 0 0 .94-.12 3.45 3.45 0 0 0 .86-.35 3.09 3.09 0 0 0 .69-.55 2.83 2.83 0 0 0 .48-.72l2 .6a4.74 4.74 0 0 1-1.94 2.09 6.07 6.07 0 0 1-3.18.86zm3.45-6.74a3.59 3.59 0 0 0-.36-1.32 3.15 3.15 0 0 0-.75-1 3 3 0 0 0-1.06-.66 3.43 3.43 0 0 0-1.28-.24 3.38 3.38 0 0 0-1.27.24 3.21 3.21 0 0 0-1.05.66 3.1 3.1 0 0 0-.73 1 3.79 3.79 0 0 0-.35 1.32z"/><path d="M514.77 140.14a4.76 4.76 0 0 1-2.11-.46 5.06 5.06 0 0 1-1.63-1.27 6.13 6.13 0 0 1-1.07-1.84 6.47 6.47 0 0 1-.38-2.19 6.64 6.64 0 0 1 .39-2.29 6.06 6.06 0 0 1 1.09-1.87 5.16 5.16 0 0 1 1.66-1.25 4.82 4.82 0 0 1 2.13-.47 4.45 4.45 0 0 1 2.4.65 5.48 5.48 0 0 1 1.7 1.69v-2.14h2.1v11a5.1 5.1 0 0 1-.45 2.19 4.76 4.76 0 0 1-1.27 1.61 5.5 5.5 0 0 1-1.92 1 8 8 0 0 1-2.38.35 6.8 6.8 0 0 1-3.14-.64 6 6 0 0 1-2.09-1.79l1.35-1.26a4.15 4.15 0 0 0 1.68 1.39 5.12 5.12 0 0 0 2.2.48 4.86 4.86 0 0 0 1.39-.2 3.2 3.2 0 0 0 1.16-.6 3.05 3.05 0 0 0 .8-1 3.62 3.62 0 0 0 .29-1.5V138a4.17 4.17 0 0 1-1.67 1.61 4.64 4.64 0 0 1-2.23.53zm.78-1.93a3.08 3.08 0 0 0 1-.18 3.57 3.57 0 0 0 .92-.5 3.83 3.83 0 0 0 .73-.72 2.62 2.62 0 0 0 .43-.85v-3a4.37 4.37 0 0 0-.56-1 4.48 4.48 0 0 0-.8-.77 3.9 3.9 0 0 0-.94-.51 3 3 0 0 0-2.39.15 3.38 3.38 0 0 0-1.06.89 4.42 4.42 0 0 0-.91 2.68 3.91 3.91 0 0 0 .27 1.46 3.69 3.69 0 0 0 .75 1.2 3.61 3.61 0 0 0 1.12.81 3.26 3.26 0 0 0 1.44.34zm8.37-11.38v-2.62h2.38v2.62zm0 13.2V128.7h2.38V140zm5.88-.03v-9.2h-1.52V129h1.52v-.46a5.12 5.12 0 0 1 1-3.31 3.21 3.21 0 0 1 2.64-1.22 5.31 5.31 0 0 1 1.37.18 7.12 7.12 0 0 1 1.28.51l-.52 1.78a3.18 3.18 0 0 0-.77-.32 3 3 0 0 0-.86-.13 1.49 1.49 0 0 0-1.29.63 3.08 3.08 0 0 0-.44 1.82v.52h2.9v1.84h-2.9V140zm13.4-.55a12.05 12.05 0 0 1-1.26.49 5.28 5.28 0 0 1-1.71.27 3.62 3.62 0 0 1-1.06-.15 2.54 2.54 0 0 1-.88-.46 2.18 2.18 0 0 1-.6-.79 3 3 0 0 1-.21-1.18v-7.1H536v-1.84h1.5V125h2.38v3.73h2.47v1.84h-2.47v6.33a1.21 1.21 0 0 0 .38.88 1.27 1.27 0 0 0 .83.27 2.6 2.6 0 0 0 1-.18 6.89 6.89 0 0 0 .67-.28zm20.54-10.75H566l-4.75 11.3h-2l-2.1-5.26-2.1 5.26h-2l-4.8-11.33h2.28l3.67 9 1.64-4.2-2-4.8h2l1.3 3.55 1.28-3.55h1.95l-1.95 4.8 1.65 4.2zm3.86-1.87v-2.62h2.4v2.62zm0 13.2V128.7h2.4V140zm5.27-15.83h2.38v12.55a1.41 1.41 0 0 0 .33 1 1.16 1.16 0 0 0 .91.35 2 2 0 0 0 .51-.11 5.27 5.27 0 0 0 .6-.2l.35 1.87a5.87 5.87 0 0 1-1.24.38 7 7 0 0 1-1.28.14 2.67 2.67 0 0 1-1.92-.67 2.59 2.59 0 0 1-.68-1.91zm6.53 0h2.4v12.55a1.41 1.41 0 0 0 .33 1 1.13 1.13 0 0 0 .91.35 2 2 0 0 0 .55-.08 5.27 5.27 0 0 0 .6-.2l.34 1.87a5.77 5.77 0 0 1-1.23.38 7.11 7.11 0 0 1-1.28.14 2.64 2.64 0 0 1-1.92-.67 2.56 2.56 0 0 1-.69-1.91zm17.3 16.05a4.59 4.59 0 0 1-2.36-.62 4.45 4.45 0 0 1-1.65-1.66V140h-2.1v-15.8h2.4v6.63a5.28 5.28 0 0 1 1.68-1.71 4.37 4.37 0 0 1 2.37-.63 4.32 4.32 0 0 1 2.06.49 5 5 0 0 1 1.59 1.3 5.61 5.61 0 0 1 1 1.88 7.07 7.07 0 0 1 .36 2.25 6.36 6.36 0 0 1-.41 2.28 6.09 6.09 0 0 1-1.13 1.85 5.18 5.18 0 0 1-1.7 1.25 5 5 0 0 1-2.12.45zm-.63-2a3.25 3.25 0 0 0 1.43-.31 3.7 3.7 0 0 0 1.12-.84 3.62 3.62 0 0 0 .72-1.2 4.08 4.08 0 0 0 .26-1.44 4.23 4.23 0 0 0-.25-1.46 3.93 3.93 0 0 0-.69-1.24 3.68 3.68 0 0 0-1.06-.86 3.06 3.06 0 0 0-3.32.39A4.77 4.77 0 0 0 593 133v3a2.39 2.39 0 0 0 .45.9 3.62 3.62 0 0 0 .76.7 3.39 3.39 0 0 0 .93.47 3.06 3.06 0 0 0 .93.14zm13.27 2a6 6 0 0 1-2.41-.46 5.64 5.64 0 0 1-3-3.14 6.08 6.08 0 0 1-.42-2.25 6.18 6.18 0 0 1 .42-2.27 5.86 5.86 0 0 1 1.2-1.88 5.38 5.38 0 0 1 1.85-1.28 6.09 6.09 0 0 1 2.43-.47 5.76 5.76 0 0 1 2.39.48 5.46 5.46 0 0 1 1.83 1.27 5.35 5.35 0 0 1 1.17 1.84 6.26 6.26 0 0 1 .4 2.2 3.91 3.91 0 0 1 0 .49 3.43 3.43 0 0 1 0 .38H606a3.89 3.89 0 0 0 .35 1.36 3.54 3.54 0 0 0 .76 1 3.34 3.34 0 0 0 2.31.93 3.87 3.87 0 0 0 1-.12 3.3 3.3 0 0 0 1.55-.9 2.55 2.55 0 0 0 .47-.72l2 .6a4.74 4.74 0 0 1-1.94 2.09 6 6 0 0 1-3.16.86zm3.44-6.74a3.79 3.79 0 0 0-.35-1.32 3.47 3.47 0 0 0-.75-1 3.15 3.15 0 0 0-1.06-.66 3.5 3.5 0 0 0-1.28-.24 3.34 3.34 0 0 0-1.27.24 3 3 0 0 0-1.05.66 3.12 3.12 0 0 0-.74 1 4 4 0 0 0-.35 1.32zm21.36-6.25h-4.92V140h-3v-12.74h-4.93v-2.62h12.82zm1.9 12.74v-15.36h6.8a4.48 4.48 0 0 1 2 .44 5.15 5.15 0 0 1 1.55 1.18 5.42 5.42 0 0 1 1 1.64 4.93 4.93 0 0 1 .37 1.86 5.13 5.13 0 0 1-.75 2.72 4.34 4.34 0 0 1-2 1.77l3.5 5.78h-3.36l-3.17-5.16h-3V140zm3-7.78h3.75a1.6 1.6 0 0 0 .77-.19 2 2 0 0 0 .62-.54 2.56 2.56 0 0 0 .41-.79 3.08 3.08 0 0 0 .15-1 2.91 2.91 0 0 0-.17-1 2.8 2.8 0 0 0-.47-.79 2.09 2.09 0 0 0-.67-.52 1.82 1.82 0 0 0-.77-.19H639zm11.4 7.78v-15.36h3V140zm6.2 0v-15.36h6.53a4.44 4.44 0 0 1 2 .44 5 5 0 0 1 1.55 1.18 5.65 5.65 0 0 1 1 1.64 4.93 4.93 0 0 1 .37 1.86 5.32 5.32 0 0 1-.35 1.89 5.2 5.2 0 0 1-1 1.64 4.81 4.81 0 0 1-1.52 1.15 4.39 4.39 0 0 1-2 .43h-3.64V140zm3-7.78h3.46a1.71 1.71 0 0 0 1.38-.67 2.78 2.78 0 0 0 .55-1.82 2.89 2.89 0 0 0-.17-1 2.53 2.53 0 0 0-.46-.79 1.68 1.68 0 0 0-.66-.49 1.91 1.91 0 0 0-.77-.17h-3.33zm10.5 7.78v-15.36h3v12.77H681v2.6zm23.35-2.6v2.6h-10.7v-15.36h10.5v2.62h-7.5V131h6.5v2.43h-6.5v4zm2.34 2.6v-15.36h5.6a8.27 8.27 0 0 1 3.3.61 6.56 6.56 0 0 1 2.37 1.65 6.76 6.76 0 0 1 1.44 2.43 9.46 9.46 0 0 1 .47 3 8.82 8.82 0 0 1-.53 3.17 6.62 6.62 0 0 1-1.53 2.43 6.88 6.88 0 0 1-2.39 1.56 8.43 8.43 0 0 1-3.13.55zm10.14-7.68a6.61 6.61 0 0 0-.3-2 4.75 4.75 0 0 0-.89-1.61 4.1 4.1 0 0 0-1.44-1 5 5 0 0 0-1.94-.37h-2.6v10.15h2.6a4.7 4.7 0 0 0 2-.39 4.14 4.14 0 0 0 1.43-1.07 5.06 5.06 0 0 0 .88-1.62 6.51 6.51 0 0 0 .26-2.09zm5.1 7.68v-2.77h2V140z"/></svg>
