<svg xmlns="http://www.w3.org/2000/svg" xmlns:xlink="http://www.w3.org/1999/xlink" width="686.635" height="204.611"><path d="M351.542 17.32h-6.936v18.362h-6.63V17.32h-6.97v-5.78h20.538zM371.5 35.683h-6.46V25.618a2.63 2.63 0 0 0-.596-1.92 2.01 2.01 0 0 0-1.478-.595c-.254.012-.503.076-.73.187-.302.136-.588.307-.85.5-.623.485-1.1 1.123-1.4 1.853v10.03h-6.46V10.86h6.46v9.588c.6-.953 1.47-1.723 2.482-2.227a7.59 7.59 0 0 1 3.434-.765 5.98 5.98 0 0 1 2.992.646 4.58 4.58 0 0 1 1.7 1.615 5.7 5.7 0 0 1 .748 2.09c.1.697.166 1.402.17 2.108zm3.13-19.383v-5.44h6.46v5.44zm0 19.38V17.797h6.46v17.885zm17.1.343c-1.562 0-3.113-.258-4.6-.765a10.4 10.4 0 0 1-3.808-2.228l2.2-3.876a17 17 0 0 0 3.213 1.734 7.79 7.79 0 0 0 2.84.612q1.36 0 1.36-.85a.97.97 0 0 0-.526-.816c-.65-.345-1.342-.607-2.058-.782a30.37 30.37 0 0 1-3.18-1.07 9.16 9.16 0 0 1-2.074-1.139 3.62 3.62 0 0 1-1.14-1.36c-.238-.558-.354-1.16-.34-1.768a5.84 5.84 0 0 1 .544-2.517c.36-.767.875-1.45 1.514-2.006a6.79 6.79 0 0 1 2.311-1.309 9.04 9.04 0 0 1 2.941-.459c1.27-.006 2.535.166 3.758.5 1.333.422 2.557 1.13 3.587 2.074l-2.448 3.876a17.48 17.48 0 0 0-2.788-1.547 5.59 5.59 0 0 0-2.108-.459 1.86 1.86 0 0 0-.952.22.75.75 0 0 0-.374.697c.01.358.22.68.544.834a9.38 9.38 0 0 0 2.143.731 24.49 24.49 0 0 1 3.264 1.071 8.55 8.55 0 0 1 2.126 1.224 3.84 3.84 0 0 1 1.14 1.496 5.06 5.06 0 0 1 .34 1.921 5.94 5.94 0 0 1-.5 2.482c-.343.73-.85 1.37-1.48 1.87a6.72 6.72 0 0 1-2.346 1.19 10.95 10.95 0 0 1-3.111.408zm24.38-12.207v11.867h-6.63V11.54h5.168l9.692 12.275V11.54h6.63v24.142h-5.27zm27.067 12.207c-1.428.024-2.847-.224-4.182-.73-1.153-.44-2.2-1.12-3.077-2-.82-.825-1.462-1.808-1.888-2.9a9.26 9.26 0 0 1-.646-3.434 10.66 10.66 0 0 1 .63-3.672 8.48 8.48 0 0 1 1.87-3.026 9.04 9.04 0 0 1 3.06-2.057 12.05 12.05 0 0 1 8.45 0 9.15 9.15 0 0 1 3.077 2.04 8.43 8.43 0 0 1 1.87 2.959 10 10 0 0 1 .63 3.52q0 .5-.05 1.037l-.12.935h-12.547c-.004.816.4 1.583 1.054 2.057a3.69 3.69 0 0 0 2.074.63 4.33 4.33 0 0 0 1.989-.476c.572-.262 1.018-.738 1.24-1.326l5.475 1.564a8.62 8.62 0 0 1-3.35 3.502 10.61 10.61 0 0 1-5.559 1.36zm2.856-11.187a3.32 3.32 0 0 0-.952-2.04c-1.15-.997-2.86-.997-4.012 0-.546.548-.882 1.27-.952 2.04zm30.4-7.04h6.087l-7.3 17.885h-5.27l-2.414-6.8-2.414 6.8h-5.27l-7.3-17.885h6.086l4.318 12.003 1.122-3.842-3.196-8.16h5.135l1.53 5.236 1.53-5.236h5.134l-3.196 8.16 1.122 3.842zm14.316 18.226c-1.562 0-3.113-.258-4.6-.765a10.4 10.4 0 0 1-3.808-2.228l2.2-3.876a17 17 0 0 0 3.213 1.734 7.79 7.79 0 0 0 2.84.612q1.36 0 1.36-.85a.97.97 0 0 0-.526-.816c-.65-.345-1.342-.607-2.058-.782a30.37 30.37 0 0 1-3.18-1.07 9.16 9.16 0 0 1-2.074-1.139 3.62 3.62 0 0 1-1.14-1.36c-.238-.558-.354-1.16-.34-1.768a5.84 5.84 0 0 1 .544-2.517c.36-.767.875-1.45 1.514-2.006a6.79 6.79 0 0 1 2.312-1.309 9.04 9.04 0 0 1 2.941-.459c1.27-.006 2.535.166 3.758.5 1.333.422 2.557 1.13 3.587 2.074l-2.448 3.876a17.48 17.48 0 0 0-2.788-1.547 5.59 5.59 0 0 0-2.108-.459 1.86 1.86 0 0 0-.952.22.75.75 0 0 0-.374.697.95.95 0 0 0 .544.833 9.38 9.38 0 0 0 2.143.731 24.49 24.49 0 0 1 3.264 1.071 8.55 8.55 0 0 1 2.126 1.224 3.84 3.84 0 0 1 1.14 1.496 5.06 5.06 0 0 1 .34 1.921 5.94 5.94 0 0 1-.5 2.482c-.343.73-.85 1.37-1.48 1.87a6.72 6.72 0 0 1-2.346 1.19 10.95 10.95 0 0 1-3.111.408zm16.422-12.615c.012-3.046 1.18-5.975 3.265-8.195 1.102-1.16 2.418-2.095 3.876-2.754a13.42 13.42 0 0 1 11.271.391c1.622.873 2.952 2.203 3.825 3.825l-5.066 3.604a4.27 4.27 0 0 0-.9-1.462 4.58 4.58 0 0 0-1.241-.918 5.33 5.33 0 0 0-1.41-.476 7.77 7.77 0 0 0-1.41-.136 4.95 4.95 0 0 0-4.166 2.024 6.3 6.3 0 0 0-.986 2.04c-.212.735-.32 1.496-.323 2.26a7.77 7.77 0 0 0 .374 2.414 6.29 6.29 0 0 0 1.088 2.04c.476.6 1.073 1.07 1.75 1.4.724.36 1.522.54 2.33.527a6.66 6.66 0 0 0 1.394-.153c.48-.104.945-.275 1.377-.5.444-.24.846-.55 1.2-.918.367-.4.65-.867.833-1.377l5.406 3.23c-.375.9-.937 1.713-1.65 2.38-.747.7-1.595 1.306-2.516 1.768a13.35 13.35 0 0 1-3.026 1.088 13.94 13.94 0 0 1-3.146.374 11.18 11.18 0 0 1-4.913-1.071 12.46 12.46 0 0 1-3.843-2.839 12.94 12.94 0 0 1-2.499-4.013 12.33 12.33 0 0 1-.883-4.556zm29.65 12.615a6.87 6.87 0 0 1-2.482-.442 6.12 6.12 0 0 1-1.988-1.207c-1.148-1.052-1.796-2.54-1.785-4.097-.01-.862.187-1.714.577-2.482a5.96 5.96 0 0 1 1.6-1.938 7.38 7.38 0 0 1 2.431-1.258 10.41 10.41 0 0 1 3.11-.442 8.54 8.54 0 0 1 3.605.68v-.544c.055-.702-.214-1.4-.73-1.87a3.68 3.68 0 0 0-2.363-.612 7.85 7.85 0 0 0-2.822.493 13.9 13.9 0 0 0-2.72 1.445l-1.87-4.012c2.405-1.532 5.207-2.325 8.06-2.278 2.354-.153 4.687.52 6.597 1.904 1.616 1.442 2.47 3.552 2.313 5.712v3.468a2.19 2.19 0 0 0 .271 1.275 1.3 1.3 0 0 0 .952.425v5.44q-.782.17-1.48.255a10.73 10.73 0 0 1-1.24.085c-.922.06-1.84-.16-2.636-.63-.616-.443-1.036-1.107-1.173-1.853l-.136-.646a8.23 8.23 0 0 1-2.755 2.329 7.23 7.23 0 0 1-3.332.799zm1.938-4.624a4.19 4.19 0 0 0 1.2-.187 4.37 4.37 0 0 0 1.088-.493c.233-.166.44-.366.6-.595a1.1 1.1 0 0 0 .238-.663v-1.326c-.4-.143-.83-.256-1.258-.34-.403-.085-.813-.13-1.225-.136a3.23 3.23 0 0 0-1.972.578 1.75 1.75 0 0 0-.782 1.462 1.5 1.5 0 0 0 .595 1.224c.434.33.97.498 1.514.476zm31.146 4.284h-6.46V25.618a2.63 2.63 0 0 0-.596-1.92 1.89 1.89 0 0 0-1.377-.595 2.88 2.88 0 0 0-1.733.714c-.613.476-1.083 1.1-1.36 1.836v10.03h-6.46V17.797h5.814v2.652c.652-1 1.58-1.763 2.67-2.227a9.92 9.92 0 0 1 4.063-.765 5.5 5.5 0 0 1 2.907.663c.675.402 1.237.97 1.633 1.65.372.65.62 1.366.73 2.108a13.73 13.73 0 0 1 .17 2.04zm3.434-15.403l.885-4.454h-1.77v-5.44h6.698v5.6l-1.428 4.284zm21.422 14.417a19.82 19.82 0 0 1-2.907.969 12.41 12.41 0 0 1-3.043.391 7.77 7.77 0 0 1-2.074-.272 4.52 4.52 0 0 1-1.717-.884c-.507-.433-.903-.98-1.156-1.598a6.18 6.18 0 0 1-.425-2.448V22.66h-2.2v-4.862h2.2v-5.6h6.46v5.6h3.502v4.862h-3.503v5.916a1.67 1.67 0 0 0 .374 1.24 1.42 1.42 0 0 0 1.02.357 4.55 4.55 0 0 0 1.088-.154 7.47 7.47 0 0 0 1.225-.425zm16.424-23.157h6.086l2.108 7.447 2.143-7.447h6.086l-3.978 11.527 1.733 5.032 5.203-16.56h7.208L628.32 35.68h-5.5l-3.435-8.637-3.4 8.637h-5.508l-9.453-24.14h7.175l5.236 16.56 1.666-5.032zm30.942 24.483a6.87 6.87 0 0 1-2.482-.442 6.12 6.12 0 0 1-1.988-1.207c-1.148-1.052-1.796-2.54-1.785-4.097-.01-.862.187-1.714.577-2.482a5.96 5.96 0 0 1 1.6-1.938 7.38 7.38 0 0 1 2.431-1.258 10.41 10.41 0 0 1 3.11-.442 8.54 8.54 0 0 1 3.605.68v-.544c.055-.702-.214-1.4-.73-1.87a3.68 3.68 0 0 0-2.363-.612 7.85 7.85 0 0 0-2.822.493 13.9 13.9 0 0 0-2.72 1.445l-1.87-4.012c2.405-1.532 5.207-2.325 8.06-2.278 2.354-.153 4.687.52 6.597 1.904 1.616 1.442 2.47 3.552 2.313 5.712v3.468a2.19 2.19 0 0 0 .271 1.275 1.3 1.3 0 0 0 .952.425v5.44q-.782.17-1.48.255a10.73 10.73 0 0 1-1.24.085c-.922.06-1.84-.16-2.636-.63-.616-.443-1.036-1.107-1.173-1.853l-.136-.646a8.23 8.23 0 0 1-2.755 2.329 7.23 7.23 0 0 1-3.332.799zm1.938-4.624a4.19 4.19 0 0 0 1.2-.187c.383-.114.75-.28 1.088-.493.233-.166.44-.366.6-.595a1.1 1.1 0 0 0 .238-.663v-1.326a9.22 9.22 0 0 0-1.258-.34c-.403-.085-.813-.13-1.225-.136a3.23 3.23 0 0 0-1.972.578 1.75 1.75 0 0 0-.782 1.462 1.5 1.5 0 0 0 .595 1.224c.434.33.97.498 1.514.476zm13.16-15.1v-5.44h6.46v5.44zm0 19.38V17.797h6.46v17.885z"/><path d="M679.494 34.697a20.23 20.23 0 0 1-2.907.97 12.41 12.41 0 0 1-3.043.391 7.77 7.77 0 0 1-2.074-.272 4.52 4.52 0 0 1-1.717-.884c-.507-.433-.903-.98-1.156-1.598a6.18 6.18 0 0 1-.425-2.448V22.66h-2.2v-4.862h2.2v-5.6h6.46v5.6h3.503v4.862h-3.503v5.916a1.67 1.67 0 0 0 .374 1.24 1.42 1.42 0 0 0 1.02.357 4.55 4.55 0 0 0 1.088-.153 7.47 7.47 0 0 0 1.225-.425zm1.904.986v-6.256h5.236v6.256zm-279.67 40.945V61.235h5.593c1.132-.024 2.256.183 3.306.607a6.65 6.65 0 0 1 3.806 4.087c.322.96.483 1.968.477 2.98a9.04 9.04 0 0 1-.53 3.176 6.78 6.78 0 0 1-1.528 2.428c-.68.682-1.497 1.214-2.395 1.56a8.46 8.46 0 0 1-3.133.553zm10.168-7.718a6.55 6.55 0 0 0-.304-2.038c-.184-.6-.487-1.135-.9-1.604a3.97 3.97 0 0 0-1.441-1.04 4.89 4.89 0 0 0-1.94-.37h-2.602v10.146h2.6a4.68 4.68 0 0 0 1.962-.39c.55-.246 1.04-.613 1.43-1.073a4.77 4.77 0 0 0 .878-1.615 6.48 6.48 0 0 0 .304-2.016zm10.32 7.935a6.24 6.24 0 0 1-2.493-.477 5.48 5.48 0 0 1-1.876-1.3c-.513-.542-.914-1.18-1.182-1.875a6.12 6.12 0 0 1-.411-2.233 6.21 6.21 0 0 1 .41-2.255 5.7 5.7 0 0 1 1.182-1.875c.53-.554 1.17-.993 1.876-1.3a6.24 6.24 0 0 1 2.493-.477 6.16 6.16 0 0 1 2.482.477c.703.3 1.337.738 1.864 1.3a5.7 5.7 0 0 1 1.182 1.875 6.19 6.19 0 0 1 .412 2.255 6.14 6.14 0 0 1-.412 2.233 5.78 5.78 0 0 1-1.171 1.876 5.48 5.48 0 0 1-1.864 1.29 6.24 6.24 0 0 1-2.493.477zm-2.97-5.876a3.97 3.97 0 0 0 .228 1.377 3.33 3.33 0 0 0 .63 1.073 2.78 2.78 0 0 0 .943.705 2.88 2.88 0 0 0 2.342 0 2.81 2.81 0 0 0 .942-.705 3.33 3.33 0 0 0 .629-1.084 4.03 4.03 0 0 0 .228-1.387 3.97 3.97 0 0 0-.228-1.366c-.14-.398-.353-.766-.63-1.084a2.78 2.78 0 0 0-.942-.705 2.77 2.77 0 0 0-1.171-.249 2.67 2.67 0 0 0-1.171.26 2.95 2.95 0 0 0-.943.716 3.35 3.35 0 0 0-.63 1.084 3.99 3.99 0 0 0-.228 1.365zm21.42 5.66h-2.905v-6.374c.055-.7-.112-1.397-.477-1.995a1.57 1.57 0 0 0-1.322-.628 2.61 2.61 0 0 0-.9.173c-.308.12-.597.283-.856.488-.274.216-.518.468-.726.748a2.9 2.9 0 0 0-.478.954v6.634h-2.905v-11.36h2.624v2.103a4.3 4.3 0 0 1 1.82-1.691c.835-.414 1.757-.622 2.7-.607a3.42 3.42 0 0 1 1.734.39c.43.243.8.594 1.04 1.02.254.443.427.927.5 1.43a9.4 9.4 0 0 1 .141 1.626zm5.636.217c-.525.004-1.047-.088-1.54-.27-.458-.17-.878-.427-1.236-.76a3.53 3.53 0 0 1-.812-1.138 3.41 3.41 0 0 1-.293-1.43c-.004-.517.118-1.027.357-1.485a3.39 3.39 0 0 1 .998-1.16 4.95 4.95 0 0 1 1.528-.748 6.63 6.63 0 0 1 1.95-.27 8.4 8.4 0 0 1 1.485.13c.442.075.875.198 1.3.37v-.65a2.28 2.28 0 0 0-.64-1.735c-.53-.44-1.2-.658-1.897-.607-.607 0-1.2.1-1.777.325a8.25 8.25 0 0 0-1.778.954l-.9-1.843a8.39 8.39 0 0 1 4.727-1.453c1.374-.086 2.73.343 3.805 1.203a4.41 4.41 0 0 1 1.355 3.48v3.534a1.02 1.02 0 0 0 .162.65.71.71 0 0 0 .531.217v2.472c-.42.093-.85.144-1.28.152a1.94 1.94 0 0 1-1.268-.369 1.59 1.59 0 0 1-.553-.976l-.064-.63a5.04 5.04 0 0 1-1.843 1.518 5.29 5.29 0 0 1-2.32.52zm.824-2.125a3.79 3.79 0 0 0 1.398-.26 2.54 2.54 0 0 0 1.029-.694c.283-.182.46-.488.478-.824v-1.3a7.23 7.23 0 0 0-1.128-.315 6.06 6.06 0 0 0-1.171-.119 3.11 3.11 0 0 0-1.843.509 1.53 1.53 0 0 0-.715 1.29 1.55 1.55 0 0 0 .563 1.225 2.04 2.04 0 0 0 1.388.488zm15.242 1.323a12.9 12.9 0 0 1-1.431.52 6.01 6.01 0 0 1-1.777.26 4.13 4.13 0 0 1-1.139-.152 2.5 2.5 0 0 1-.933-.488 2.37 2.37 0 0 1-.639-.867 3.12 3.12 0 0 1-.239-1.29V67.5h-1.496v-2.234h1.496V61.58h2.905v3.686h2.385V67.5h-2.385v5.55a1.03 1.03 0 0 0 .314.856 1.2 1.2 0 0 0 .769.249 2.67 2.67 0 0 0 .89-.152q.432-.15.693-.26zm6.504.802a6.3 6.3 0 0 1-2.472-.466 5.58 5.58 0 0 1-3.09-3.133 5.93 5.93 0 0 1-.423-2.233 6.33 6.33 0 0 1 .411-2.288 5.59 5.59 0 0 1 1.193-1.886 5.84 5.84 0 0 1 1.897-1.3c.794-.328 1.646-.5 2.504-.477a6.16 6.16 0 0 1 2.482.477c.7.298 1.335.733 1.865 1.28a5.45 5.45 0 0 1 1.17 1.865c.267.707.403 1.456.4 2.2l-.01.542a2.28 2.28 0 0 1-.054.434h-8.78a3.41 3.41 0 0 0 .325 1.192c.33.672.903 1.192 1.604 1.453.347.13.714.196 1.084.195a3.35 3.35 0 0 0 1.637-.423c.47-.237.844-.632 1.052-1.117l2.493.694A5.07 5.07 0 0 1 472.153 76a6.22 6.22 0 0 1-3.285.834zm2.948-6.85a3.03 3.03 0 0 0-.942-2.05c-1.138-1.047-2.9-1.042-4.022.01a2.99 2.99 0 0 0-.64.89 3.09 3.09 0 0 0-.292 1.15zm20.532 6.633h-2.905v-6.374c.055-.698-.112-1.397-.476-1.995a1.57 1.57 0 0 0-1.322-.629 2.61 2.61 0 0 0-.9.173c-.308.12-.597.283-.856.488-.274.216-.518.468-.726.748a2.9 2.9 0 0 0-.478.954v6.634h-2.905v-11.36h2.624v2.103c.427-.73 1.06-1.318 1.82-1.7.835-.414 1.757-.622 2.7-.607a3.42 3.42 0 0 1 1.734.39c.43.243.8.594 1.04 1.02a4.28 4.28 0 0 1 .51 1.431 9.41 9.41 0 0 1 .141 1.626zm7.784.217a6.24 6.24 0 0 1-2.493-.477 5.48 5.48 0 0 1-1.876-1.3c-.513-.542-.914-1.18-1.182-1.875a6.11 6.11 0 0 1-.41-2.233 6.19 6.19 0 0 1 .411-2.255 5.7 5.7 0 0 1 1.182-1.875c.53-.554 1.17-.993 1.876-1.3a6.24 6.24 0 0 1 2.493-.477 6.16 6.16 0 0 1 2.482.477c.703.3 1.337.738 1.864 1.3a5.7 5.7 0 0 1 1.182 1.875 6.19 6.19 0 0 1 .412 2.255 6.14 6.14 0 0 1-.412 2.233 5.78 5.78 0 0 1-1.171 1.876c-.525.555-1.16.995-1.864 1.3a6.24 6.24 0 0 1-2.493.477zm-2.97-5.876a3.97 3.97 0 0 0 .227 1.377 3.38 3.38 0 0 0 .629 1.073 2.78 2.78 0 0 0 .943.705 2.88 2.88 0 0 0 2.342 0 2.81 2.81 0 0 0 .942-.705 3.33 3.33 0 0 0 .629-1.085 4.07 4.07 0 0 0 .228-1.387c.005-.465-.072-.928-.228-1.366-.14-.398-.353-.766-.63-1.084a2.82 2.82 0 0 0-.942-.705 2.77 2.77 0 0 0-1.171-.249 2.67 2.67 0 0 0-1.171.26 2.95 2.95 0 0 0-.943.716 3.35 3.35 0 0 0-.629 1.084c-.155.438-.232.9-.227 1.365zm24.542-5.702h2.753l-4.748 11.36h-2.385l-1.95-4.986-1.93 4.986h-2.385l-4.726-11.36h2.732l3.382 8.63 1.388-3.685-1.995-4.92h2.342l1.192 3.5 1.214-3.5h2.342l-1.973 4.92 1.366 3.686zm12.574 11.578a4.22 4.22 0 0 1-1.528-.271 3.68 3.68 0 0 1-1.214-.748 3.49 3.49 0 0 1-.803-1.127c-.197-.444-.296-.924-.292-1.4-.007-.506.112-1.005.347-1.453a3.37 3.37 0 0 1 .986-1.127 4.79 4.79 0 0 1 1.518-.737 6.8 6.8 0 0 1 1.94-.26c.53 0 1.06.047 1.583.14a8.03 8.03 0 0 1 1.409.379v-.78c.043-.725-.216-1.435-.716-1.962-.564-.502-1.307-.756-2.06-.705a4.98 4.98 0 0 0-1.79.336 8.72 8.72 0 0 0-1.8.965l-.737-1.518a8.04 8.04 0 0 1 4.553-1.474c1.322-.08 2.625.345 3.643 1.192a4.41 4.41 0 0 1 1.3 3.426v4.09q0 .76.63.78v2.038q-.347.065-.597.087l-.487.02c-.4.025-.773-.1-1.073-.347-.254-.233-.42-.548-.467-.9l-.064-.715a5.05 5.05 0 0 1-1.876 1.528 5.49 5.49 0 0 1-2.394.53zm.65-1.756a4.29 4.29 0 0 0 1.637-.314 2.82 2.82 0 0 0 1.204-.878 1.1 1.1 0 0 0 .455-.824v-1.496c-.418-.162-.85-.286-1.3-.368a7.11 7.11 0 0 0-1.334-.13 3.65 3.65 0 0 0-2.092.553c-.5.3-.818.867-.812 1.463-.01.543.22 1.062.628 1.42a2.29 2.29 0 0 0 1.605.574zm18.733 1.54h-2.386v-6.353a4.15 4.15 0 0 0-.509-2.331c-.343-.486-.913-.76-1.507-.726a2.95 2.95 0 0 0-1.04.195 3.68 3.68 0 0 0-.976.553c-.308.244-.582.528-.813.846-.24.327-.425.7-.553 1.073v6.743h-2.385V65.3h2.168v2.276a4.61 4.61 0 0 1 1.887-1.811 5.7 5.7 0 0 1 2.731-.661 3.36 3.36 0 0 1 1.67.369 2.76 2.76 0 0 1 1.03 1.008 4.42 4.42 0 0 1 .531 1.474 9.97 9.97 0 0 1 .152 1.767zm7.392.217a4.86 4.86 0 0 1-2.125-.466 5.3 5.3 0 0 1-1.69-1.268 5.87 5.87 0 0 1-1.117-1.876 6.84 6.84 0 0 1-.02-4.553c.24-.677.6-1.305 1.062-1.854.445-.526 1-.957 1.605-1.268a4.68 4.68 0 0 1 4.434.195 4.83 4.83 0 0 1 1.626 1.681V60.8h2.385v13a.94.94 0 0 0 .14.585.68.68 0 0 0 .51.195v2.038q-.37.065-.596.087l-.38.022a1.8 1.8 0 0 1-1.171-.369 1.3 1.3 0 0 1-.498-.954l-.044-.845a4.52 4.52 0 0 1-1.713 1.669c-.736.408-1.565.617-2.407.607zm.586-2.038a3.27 3.27 0 0 0 1.04-.173 3.69 3.69 0 0 0 .954-.477 3.35 3.35 0 0 0 .748-.715 2.58 2.58 0 0 0 .444-.889v-2.97a3.55 3.55 0 0 0-.553-.997 3.91 3.91 0 0 0-.814-.78 3.7 3.7 0 0 0-.965-.499 3.18 3.18 0 0 0-1.029-.173 2.69 2.69 0 0 0-1.312.325c-.398.217-.748.512-1.03.867a4.27 4.27 0 0 0-.683 1.236 4.21 4.21 0 0 0-.249 1.431c-.003.504.088 1.004.27 1.475a3.81 3.81 0 0 0 .748 1.214c.3.34.68.62 1.095.824a2.99 2.99 0 0 0 1.334.303zm13.745 4.488q.325.065.64.108a3.81 3.81 0 0 0 .5.043.96.96 0 0 0 .487-.119c.17-.1.313-.254.423-.423a4.36 4.36 0 0 0 .444-.856q.23-.553.53-1.42l-4.66-11.34h2.45l3.512 9.236 3.122-9.236h2.255l-5.14 13.962c-.496 1.44-1.884 2.376-3.403 2.298a4.76 4.76 0 0 1-.542-.032 3.46 3.46 0 0 1-.629-.141zm16.174-2.45c-.83.013-1.654-.15-2.417-.477a5.55 5.55 0 0 1-3.003-3.154 6.31 6.31 0 0 1 0-4.488 5.55 5.55 0 0 1 1.182-1.875 5.77 5.77 0 0 1 1.843-1.279c1.534-.636 3.258-.636 4.792 0a5.78 5.78 0 0 1 1.843 1.279c.516.54.917 1.177 1.182 1.875a6.31 6.31 0 0 1 0 4.488 5.56 5.56 0 0 1-1.182 1.875c-.525.543-1.15.977-1.843 1.28a5.84 5.84 0 0 1-2.397.477zm-3.382-5.854a4.28 4.28 0 0 0 .261 1.518 3.74 3.74 0 0 0 .715 1.203c.3.337.665.6 1.073.802.846.4 1.82.4 2.667 0a3.28 3.28 0 0 0 1.073-.813 3.89 3.89 0 0 0 .715-1.214 4.51 4.51 0 0 0 0-3.024 3.87 3.87 0 0 0-.715-1.225 3.28 3.28 0 0 0-1.073-.813 3.08 3.08 0 0 0-1.334-.293c-.455-.002-.904.102-1.312.304a3.44 3.44 0 0 0-1.073.824 4.06 4.06 0 0 0-.726 1.225 4.14 4.14 0 0 0-.272 1.506z"/><path d="M603.007 76.845a3.21 3.21 0 0 1-2.688-1.16 5.53 5.53 0 0 1-.911-3.458V65.3h2.385v6.46q0 3.056 2.168 3.057a3.34 3.34 0 0 0 1.93-.628 4.09 4.09 0 0 0 1.41-1.82V65.3h2.386v8.52a.93.93 0 0 0 .14.585.68.68 0 0 0 .51.195v2.038q-.37.065-.607.087l-.455.022a1.72 1.72 0 0 1-1.106-.358 1.18 1.18 0 0 1-.476-.92l-.043-1.127c-.474.794-1.157 1.442-1.974 1.875a5.63 5.63 0 0 1-2.667.64zm16.087-9.495c-.86.012-1.704.232-2.46.64a3.37 3.37 0 0 0-1.529 1.702v6.938h-2.385V65.3h2.212v2.537a5.17 5.17 0 0 1 1.528-1.875c.584-.453 1.3-.72 2.027-.77h.357a1.3 1.3 0 0 1 .249.022zm-197.908 34.7a10.88 10.88 0 0 1-1.258.487c-.552.184-1.13.275-1.713.272-.36.002-.718-.05-1.062-.152a2.6 2.6 0 0 1-.878-.455c-.26-.2-.465-.483-.596-.8a2.9 2.9 0 0 1-.217-1.182v-7.1h-1.496v-1.843h1.496v-3.73h2.385v3.73h2.472v1.843h-2.472v6.33a1.18 1.18 0 0 0 .379.878 1.29 1.29 0 0 0 .835.27c.326.001.65-.057.954-.173q.456-.174.672-.282zm4.66.802a4.22 4.22 0 0 1-1.528-.272c-.45-.167-.862-.42-1.214-.747-.34-.32-.613-.702-.803-1.128-.197-.444-.296-.924-.292-1.4-.007-.505.112-1.004.347-1.452a3.39 3.39 0 0 1 .986-1.128 4.81 4.81 0 0 1 1.518-.737 6.8 6.8 0 0 1 1.94-.26c.53 0 1.06.047 1.583.14a8.03 8.03 0 0 1 1.409.38v-.78c.043-.725-.216-1.435-.716-1.962a2.81 2.81 0 0 0-2.06-.704 4.98 4.98 0 0 0-1.789.336 9.09 9.09 0 0 0-1.81.965l-.737-1.518a8.04 8.04 0 0 1 4.553-1.475 5.19 5.19 0 0 1 3.643 1.192 4.41 4.41 0 0 1 1.3 3.426v4.098q0 .76.63.78v2.038q-.347.064-.597.087l-.487.022c-.4.025-.773-.1-1.073-.347a1.48 1.48 0 0 1-.467-.89l-.064-.716a5.03 5.03 0 0 1-1.876 1.528 5.5 5.5 0 0 1-2.395.532zm.65-1.756a4.28 4.28 0 0 0 1.637-.314 2.83 2.83 0 0 0 1.204-.878c.267-.193.434-.495.455-.824v-1.496c-.418-.162-.85-.286-1.3-.368a7.1 7.1 0 0 0-1.334-.13 3.64 3.64 0 0 0-2.092.553 1.7 1.7 0 0 0-.812 1.463c-.01.543.22 1.062.628 1.42a2.28 2.28 0 0 0 1.605.575zm9.82-9.8l2.775 3.88.194.368.195-.368 2.754-3.88h2.493l-4.14 5.68 4.184 5.658h-2.494l-2.797-3.86-.195-.347-.194.347-2.797 3.86h-2.493l4.184-5.658-4.14-5.68zm9.432 6.484v-2.147h6.482V97.8zm13.853 5.072c-.734.007-1.46-.152-2.125-.466a5.43 5.43 0 0 1-1.7-1.27 5.87 5.87 0 0 1-1.117-1.875 6.85 6.85 0 0 1-.022-4.554 5.96 5.96 0 0 1 1.063-1.854c.445-.526 1-.957 1.605-1.27a4.68 4.68 0 0 1 4.434.195c.672.418 1.23.996 1.626 1.68v-6.635h2.385v13a.94.94 0 0 0 .141.585.68.68 0 0 0 .51.195v2.038q-.37.064-.596.087l-.38.022c-.42.018-.836-.113-1.17-.368a1.3 1.3 0 0 1-.498-.954l-.044-.846a4.52 4.52 0 0 1-1.713 1.669c-.736.408-1.565.618-2.407.607zm.586-2.038a3.28 3.28 0 0 0 1.04-.173c.34-.112.66-.273.954-.477a3.34 3.34 0 0 0 .748-.716 2.58 2.58 0 0 0 .444-.889V95.6a3.56 3.56 0 0 0-.553-.998 3.97 3.97 0 0 0-.813-.78 3.68 3.68 0 0 0-.965-.498c-.33-.115-.68-.173-1.03-.174a2.69 2.69 0 0 0-1.311.325 3.37 3.37 0 0 0-1.03.867c-.294.37-.525.8-.683 1.235a4.21 4.21 0 0 0-.249 1.432 4.01 4.01 0 0 0 .271 1.474 3.85 3.85 0 0 0 .748 1.215 3.66 3.66 0 0 0 1.095.823c.415.204.872.308 1.334.304zm13.745 2.038a6.05 6.05 0 0 1-2.406-.466 5.59 5.59 0 0 1-1.854-1.269c-.515-.538-.92-1.17-1.192-1.864a6.05 6.05 0 0 1-.423-2.255c-.003-.775.14-1.544.423-2.266.272-.7.677-1.34 1.192-1.887a5.53 5.53 0 0 1 1.854-1.279 6.09 6.09 0 0 1 2.428-.466 5.84 5.84 0 0 1 2.395.477 5.87 5.87 0 0 1 1.832 1.268c.507.53.9 1.157 1.16 1.843a6.12 6.12 0 0 1 .401 2.201l-.02.487-.044.38h-9.084c.034.473.155.936.357 1.365a3.59 3.59 0 0 0 .759 1.052 3.33 3.33 0 0 0 2.31.922c.318 0 .634-.04.942-.12a3.31 3.31 0 0 0 .856-.348 3.03 3.03 0 0 0 .694-.553c.198-.2.36-.452.477-.715l2.038.585a4.73 4.73 0 0 1-1.94 2.092 6.01 6.01 0 0 1-3.155.813zm3.447-6.742a3.85 3.85 0 0 0-.358-1.323 3.42 3.42 0 0 0-.748-1.029 3.34 3.34 0 0 0-1.063-.661 3.47 3.47 0 0 0-1.279-.239 3.4 3.4 0 0 0-2.32.9 3.26 3.26 0 0 0-.736 1.029 3.97 3.97 0 0 0-.348 1.323zm8.932 6.742c-.734.007-1.46-.152-2.125-.466-.643-.305-1.218-.736-1.7-1.27a5.87 5.87 0 0 1-1.117-1.875 6.85 6.85 0 0 1-.022-4.554 5.97 5.97 0 0 1 1.063-1.854 5.15 5.15 0 0 1 1.605-1.269 4.68 4.68 0 0 1 4.434.195 4.83 4.83 0 0 1 1.626 1.681v-6.635h2.385v13a.94.94 0 0 0 .141.585.68.68 0 0 0 .51.195v2.038q-.37.064-.596.087l-.38.022c-.42.018-.836-.113-1.17-.368a1.3 1.3 0 0 1-.498-.954l-.044-.846a4.52 4.52 0 0 1-1.713 1.669c-.736.4-1.565.618-2.407.607zm.586-2.038a3.28 3.28 0 0 0 1.04-.173c.34-.112.66-.273.954-.478a3.34 3.34 0 0 0 .748-.716 2.58 2.58 0 0 0 .444-.889V95.6a3.56 3.56 0 0 0-.553-.998 3.97 3.97 0 0 0-.813-.78 3.68 3.68 0 0 0-.965-.498c-.33-.115-.68-.173-1.03-.174a2.69 2.69 0 0 0-1.311.325 3.37 3.37 0 0 0-1.03.867c-.294.37-.525.8-.683 1.235a4.21 4.21 0 0 0-.249 1.432 4.01 4.01 0 0 0 .27 1.474 3.85 3.85 0 0 0 .748 1.215 3.66 3.66 0 0 0 1.095.823 2.98 2.98 0 0 0 1.334.304zm12.097 2.038a3.21 3.21 0 0 1-2.688-1.16 5.53 5.53 0 0 1-.911-3.458v-6.937h2.385v6.46q0 3.057 2.168 3.057a3.33 3.33 0 0 0 1.93-.629 4.02 4.02 0 0 0 1.409-1.821v-7.067h2.386v8.52a.93.93 0 0 0 .14.585c.135.134.32.205.5.195v2.038q-.37.064-.607.087l-.455.022a1.74 1.74 0 0 1-1.106-.357 1.19 1.19 0 0 1-.477-.922l-.043-1.127a5.06 5.06 0 0 1-1.974 1.875 5.64 5.64 0 0 1-2.667.64zm8.976-5.898a6.21 6.21 0 0 1 .412-2.255 5.53 5.53 0 0 1 3.035-3.133 6.1 6.1 0 0 1 2.43-.466c1.06-.03 2.107.238 3.024.77a4.89 4.89 0 0 1 1.897 2.049l-2.32.737a2.98 2.98 0 0 0-1.105-1.116 3.02 3.02 0 0 0-1.54-.401 3.16 3.16 0 0 0-1.333.282 3.21 3.21 0 0 0-1.073.79c-.3.353-.554.76-.715 1.203-.18.493-.267 1.014-.26 1.54-.005.522.087 1.04.272 1.53.168.45.418.865.736 1.225.303.34.672.617 1.085.813a3.02 3.02 0 0 0 1.312.293c.293 0 .585-.04.867-.12a3.1 3.1 0 0 0 1.42-.835 1.86 1.86 0 0 0 .4-.606l2.34.693a4.64 4.64 0 0 1-1.886 2.092c-.944.56-2.026.84-3.122.814a5.92 5.92 0 0 1-2.406-.477 5.66 5.66 0 0 1-1.855-1.29 5.85 5.85 0 0 1-1.192-1.876c-.284-.718-.427-1.483-.423-2.255zm19.166 5.096a10.88 10.88 0 0 1-1.258.487c-.552.184-1.13.275-1.713.272a3.62 3.62 0 0 1-1.062-.152 2.6 2.6 0 0 1-.878-.455c-.26-.2-.465-.483-.596-.8a2.9 2.9 0 0 1-.217-1.182v-7.1h-1.496v-1.843h1.496v-3.73h2.385v3.73h2.472v1.843h-2.47v6.33a1.18 1.18 0 0 0 .379.878 1.29 1.29 0 0 0 .835.27c.326.001.65-.057.954-.173q.455-.174.672-.282z"/><use xlink:href="#B"/><path d="M540.146 102.862c-1.65.02-3.182-.85-4-2.276v2.06h-2.104V86.818h2.385v6.635a5.23 5.23 0 0 1 1.68-1.713c1.36-.786 3.025-.838 4.434-.14.615.32 1.157.763 1.594 1.3.45.562.796 1.2 1.02 1.886a7.06 7.06 0 0 1 .358 2.244 6.23 6.23 0 0 1-.412 2.276 6.04 6.04 0 0 1-1.128 1.853c-.476.527-1.055.952-1.7 1.247-.663.305-1.385.46-2.114.455zm-.63-2.038c.495.006.984-.102 1.43-.315.424-.202.804-.486 1.117-.835s.56-.76.726-1.203a3.99 3.99 0 0 0 .26-1.442 4.34 4.34 0 0 0-.25-1.464c-.156-.45-.4-.868-.694-1.235a3.48 3.48 0 0 0-1.063-.856c-.418-.218-.883-.33-1.355-.325a2.97 2.97 0 0 0-1.962.716c-.566.47-1.015 1.063-1.312 1.734v2.992a2.36 2.36 0 0 0 .456.9 3.67 3.67 0 0 0 .759.704 3.5 3.5 0 0 0 .932.467 3.04 3.04 0 0 0 .954.162zm8.152-14.006h2.386v12.554a1.41 1.41 0 0 0 .325.986 1.16 1.16 0 0 0 .9.357 2.08 2.08 0 0 0 .553-.087 6.11 6.11 0 0 0 .597-.195l.347 1.865a5.52 5.52 0 0 1-1.236.379c-.42.088-.85.135-1.278.142a2.62 2.62 0 0 1-1.919-.673 2.56 2.56 0 0 1-.684-1.907zm11.642 16.044c-.825.01-1.644-.148-2.406-.466a5.57 5.57 0 0 1-1.855-1.27c-.515-.538-.92-1.17-1.192-1.864-.283-.718-.427-1.483-.423-2.255-.003-.775.14-1.544.423-2.266.272-.7.677-1.34 1.192-1.887a5.53 5.53 0 0 1 1.854-1.28 6.09 6.09 0 0 1 2.428-.466 5.84 5.84 0 0 1 2.395.477 5.87 5.87 0 0 1 1.832 1.268c.507.53.9 1.157 1.16 1.843a6.12 6.12 0 0 1 .401 2.201l-.02.487-.044.38h-9.084c.034.473.155.936.357 1.365a3.59 3.59 0 0 0 .759 1.052 3.33 3.33 0 0 0 2.31.922c.318 0 .634-.04.942-.12a3.31 3.31 0 0 0 .856-.348 3.03 3.03 0 0 0 .694-.553c.198-.2.36-.452.477-.715l2.038.585a4.72 4.72 0 0 1-1.941 2.092 6.01 6.01 0 0 1-3.155.813zm3.447-6.742a3.87 3.87 0 0 0-.357-1.323c-.183-.387-.436-.736-.748-1.03a3.34 3.34 0 0 0-1.062-.661 3.47 3.47 0 0 0-1.279-.239 3.4 3.4 0 0 0-2.32.9 3.26 3.26 0 0 0-.736 1.029 3.95 3.95 0 0 0-.348 1.323zm14.158 6.634a4.73 4.73 0 0 1-2.103-.466c-.628-.304-1.185-.736-1.637-1.27a5.97 5.97 0 0 1-1.062-1.843c-.254-.702-.382-1.443-.38-2.2-.005-.78.127-1.554.4-2.288a5.62 5.62 0 0 1 1.085-1.864 5.18 5.18 0 0 1 1.658-1.258 4.85 4.85 0 0 1 2.136-.466 4.39 4.39 0 0 1 2.396.65c.685.432 1.266 1 1.702 1.7v-2.146h2.102v11.014a5.02 5.02 0 0 1-.455 2.189 4.59 4.59 0 0 1-1.27 1.615 5.71 5.71 0 0 1-1.919 1.009 7.95 7.95 0 0 1-2.385.347 6.84 6.84 0 0 1-3.133-.64 5.92 5.92 0 0 1-2.092-1.79l1.344-1.257a4.23 4.23 0 0 0 1.68 1.388 5.18 5.18 0 0 0 2.2.477 4.92 4.92 0 0 0 1.398-.195 3.25 3.25 0 0 0 1.16-.606c.34-.283.6-.64.8-1.04a3.52 3.52 0 0 0 .293-1.496v-1.734a4.15 4.15 0 0 1-1.669 1.605 4.7 4.7 0 0 1-2.233.564zm.78-1.93a2.93 2.93 0 0 0 1.04-.185c.653-.24 1.224-.66 1.648-1.214a2.6 2.6 0 0 0 .434-.856V95.6c-.14-.354-.33-.686-.563-.986a3.97 3.97 0 0 0-.792-.771 3.85 3.85 0 0 0-.942-.509 2.95 2.95 0 0 0-2.395.151 3.35 3.35 0 0 0-1.052.89 4.21 4.21 0 0 0-.672 1.248 4.37 4.37 0 0 0-.239 1.431 3.94 3.94 0 0 0 .272 1.464 3.76 3.76 0 0 0 .748 1.192 3.65 3.65 0 0 0 1.116.813 3.21 3.21 0 0 0 1.399.303z"/><use xlink:href="#B" x="57.28"/><path d="M591.96 102.645V93.43h-1.518v-1.844h1.518v-.455a5.15 5.15 0 0 1 .976-3.316c.637-.804 1.62-1.255 2.646-1.215a5.13 5.13 0 0 1 1.366.185c.446.123.873.293 1.278.5l-.52 1.777a3.3 3.3 0 0 0-.771-.325 3.03 3.03 0 0 0-.856-.13 1.48 1.48 0 0 0-1.289.629c-.33.547-.486 1.183-.445 1.82v.52h2.905v1.843h-2.905v9.214zm13.378-.585a10.88 10.88 0 0 1-1.258.487c-.552.184-1.13.275-1.713.272a3.62 3.62 0 0 1-1.062-.152 2.6 2.6 0 0 1-.878-.455c-.26-.2-.465-.483-.596-.8a2.9 2.9 0 0 1-.217-1.182v-7.1h-1.496v-1.843h1.496v-3.73H602v3.73h2.472v1.843H602v6.33a1.18 1.18 0 0 0 .379.878 1.29 1.29 0 0 0 .835.27c.326.001.65-.057.954-.173q.455-.174.672-.282zM355.82 128.077a10.88 10.88 0 0 1-1.258.487c-.552.184-1.13.275-1.713.272-.36.002-.718-.05-1.062-.152a2.6 2.6 0 0 1-.878-.455c-.26-.2-.465-.483-.596-.8a2.9 2.9 0 0 1-.217-1.182v-7.1H348.6v-1.843h1.496v-3.73h2.385v3.73h2.472v1.843h-2.472v6.33c-.004.333.134.652.38.878a1.29 1.29 0 0 0 .835.27c.326.001.65-.057.954-.173q.456-.174.672-.282zm6.46.8a5.9 5.9 0 0 1-2.417-.477 5.55 5.55 0 0 1-3.003-3.155c-.55-1.445-.55-3.042 0-4.487.264-.698.666-1.336 1.182-1.876.525-.543 1.15-.977 1.843-1.28 2.262-1 4.907-.5 6.635 1.28a5.57 5.57 0 0 1 1.182 1.876c.55 1.445.55 3.042 0 4.487a5.57 5.57 0 0 1-1.182 1.876 5.75 5.75 0 0 1-4.239 1.756zm-3.382-5.853a4.31 4.31 0 0 0 .26 1.517 3.74 3.74 0 0 0 .715 1.203 3.33 3.33 0 0 0 1.073.802 3.18 3.18 0 0 0 2.667 0 3.37 3.37 0 0 0 1.073-.812c.3-.358.552-.77.715-1.214a4.51 4.51 0 0 0 0-3.024c-.16-.45-.403-.865-.715-1.226a3.25 3.25 0 0 0-1.073-.812 3.06 3.06 0 0 0-1.334-.293 2.94 2.94 0 0 0-1.311.304 3.42 3.42 0 0 0-1.073.823 4.08 4.08 0 0 0-.726 1.226 4.14 4.14 0 0 0-.271 1.507zM385 116.9a2.97 2.97 0 0 0-.628-.5 6.36 6.36 0 0 0-.965-.51 7.15 7.15 0 0 0-1.215-.39 6 6 0 0 0-1.355-.152 3.69 3.69 0 0 0-2.266.564c-.482.37-.753.953-.727 1.56a1.71 1.71 0 0 0 .227.922 1.95 1.95 0 0 0 .705.628 5.47 5.47 0 0 0 1.192.477q.715.207 1.67.444c.716.17 1.422.38 2.114.63a6.01 6.01 0 0 1 1.594.846 3.43 3.43 0 0 1 1.008 1.225 3.97 3.97 0 0 1 .357 1.767c.02.698-.134 1.4-.444 2.017a3.79 3.79 0 0 1-1.214 1.377 5.35 5.35 0 0 1-1.789.78 9.2 9.2 0 0 1-2.189.249c-1.152.003-2.297-.176-3.393-.53a9.7 9.7 0 0 1-2.96-1.55l1.105-2.08a5.22 5.22 0 0 0 .814.629 7.58 7.58 0 0 0 1.235.64 10.8 10.8 0 0 0 1.53.498 7.01 7.01 0 0 0 1.713.206 4.08 4.08 0 0 0 2.21-.5c.5-.312.8-.877.78-1.474a1.65 1.65 0 0 0-.292-.975 2.51 2.51 0 0 0-.835-.684 7.33 7.33 0 0 0-1.322-.53q-.78-.24-1.778-.5a18.34 18.34 0 0 1-2.006-.64 5.01 5.01 0 0 1-1.42-.814 3.18 3.18 0 0 1-.856-1.116 3.72 3.72 0 0 1-.292-1.55 4.46 4.46 0 0 1 .434-2.006 4.3 4.3 0 0 1 1.182-1.475 5.19 5.19 0 0 1 1.767-.9 8.11 8.11 0 0 1 2.212-.304c.983-.01 1.96.16 2.883.5a9.57 9.57 0 0 1 2.32 1.235zm10.277 11.988a4.44 4.44 0 0 1-2.406-.65c-.68-.42-1.247-1-1.648-1.7v6.743h-2.385v-15.957h2.103v2.038a4.93 4.93 0 0 1 1.68-1.626 4.51 4.51 0 0 1 2.331-.607 4.83 4.83 0 0 1 2.147.477 5.45 5.45 0 0 1 1.69 1.28 5.92 5.92 0 0 1 1.116 1.865 6.26 6.26 0 0 1 .401 2.232 6.93 6.93 0 0 1-.37 2.3 5.75 5.75 0 0 1-1.04 1.864 5.07 5.07 0 0 1-1.594 1.258 4.43 4.43 0 0 1-2.028.465zm-.78-2.038c.478.007.95-.105 1.376-.325a3.43 3.43 0 0 0 1.063-.867 3.96 3.96 0 0 0 .684-1.235 4.36 4.36 0 0 0 .238-1.432c.003-.504-.1-1.004-.27-1.474a3.97 3.97 0 0 0-.736-1.215 3.43 3.43 0 0 0-1.117-.823 3.3 3.3 0 0 0-1.41-.304 2.89 2.89 0 0 0-.954.174c-.33.115-.645.275-.932.477a3.77 3.77 0 0 0-.76.705 2.38 2.38 0 0 0-.456.878v2.97c.145.348.335.676.564.976a4.11 4.11 0 0 0 .769.78 3.76 3.76 0 0 0 .92.52c.324.13.67.196 1.02.196zm13.05 2.038a5.9 5.9 0 0 1-2.417-.477 5.55 5.55 0 0 1-3.003-3.155c-.55-1.445-.55-3.042 0-4.487.264-.698.666-1.336 1.182-1.876.525-.543 1.15-.977 1.843-1.28 2.262-1 4.907-.5 6.635 1.28a5.57 5.57 0 0 1 1.182 1.876c.55 1.445.55 3.042 0 4.487a5.57 5.57 0 0 1-1.182 1.876 5.75 5.75 0 0 1-4.239 1.756zm-3.382-5.853a4.28 4.28 0 0 0 .261 1.518 3.74 3.74 0 0 0 .715 1.203 3.33 3.33 0 0 0 1.073.802 3.18 3.18 0 0 0 2.667 0 3.37 3.37 0 0 0 1.073-.812c.3-.358.552-.77.715-1.214a4.51 4.51 0 0 0 0-3.024c-.16-.45-.403-.865-.715-1.226a3.25 3.25 0 0 0-1.073-.812c-.417-.196-.873-.297-1.334-.293a2.94 2.94 0 0 0-1.312.304 3.42 3.42 0 0 0-1.073.823 4.08 4.08 0 0 0-.726 1.226 4.14 4.14 0 0 0-.272 1.507zm17.497 5.052a10.88 10.88 0 0 1-1.258.487c-.552.184-1.13.275-1.713.272a3.62 3.62 0 0 1-1.062-.152 2.6 2.6 0 0 1-.878-.455c-.26-.2-.465-.483-.596-.8a2.9 2.9 0 0 1-.217-1.182v-7.1h-1.496v-1.843h1.497v-3.73h2.385v3.73h2.472v1.843h-2.472v6.33a1.18 1.18 0 0 0 .379.878 1.29 1.29 0 0 0 .835.27c.326.001.65-.057.954-.173q.456-.174.672-.282zm1.667-15.242h2.386v12.554a1.41 1.41 0 0 0 .325.986 1.16 1.16 0 0 0 .9.357 2.08 2.08 0 0 0 .553-.087 6.12 6.12 0 0 0 .597-.195l.347 1.865a5.56 5.56 0 0 1-1.236.38c-.42.088-.85.135-1.278.142a2.62 2.62 0 0 1-1.919-.673c-.48-.514-.728-1.205-.683-1.907z"/><use xlink:href="#B" x="-98.948" y="26.018"/><path d="M439.57 128.77a4.73 4.73 0 0 1-2.103-.466c-.628-.304-1.185-.736-1.637-1.27a5.97 5.97 0 0 1-1.063-1.843c-.254-.702-.382-1.443-.38-2.2-.005-.78.127-1.554.4-2.288a5.62 5.62 0 0 1 1.085-1.864 5.18 5.18 0 0 1 1.658-1.258 4.85 4.85 0 0 1 2.136-.466 4.39 4.39 0 0 1 2.395.65c.685.432 1.266 1 1.702 1.7v-2.147h2.103v11.014a5.02 5.02 0 0 1-.455 2.189 4.62 4.62 0 0 1-1.269 1.615 5.71 5.71 0 0 1-1.919 1.009 7.95 7.95 0 0 1-2.385.347 6.84 6.84 0 0 1-3.133-.64 5.92 5.92 0 0 1-2.092-1.79l1.344-1.257a4.23 4.23 0 0 0 1.68 1.388 5.18 5.18 0 0 0 2.2.477 4.92 4.92 0 0 0 1.398-.195 3.25 3.25 0 0 0 1.16-.606c.34-.283.6-.64.8-1.04a3.52 3.52 0 0 0 .293-1.496V126.6a4.15 4.15 0 0 1-1.669 1.605 4.7 4.7 0 0 1-2.233.564zm.78-1.93a2.93 2.93 0 0 0 1.04-.185 3.66 3.66 0 0 0 1.647-1.214c.196-.256.343-.547.434-.857v-2.97a4.04 4.04 0 0 0-.564-.986 3.97 3.97 0 0 0-.792-.771c-.3-.213-.606-.384-.942-.5a2.95 2.95 0 0 0-2.395.151 3.38 3.38 0 0 0-1.052.889 4.22 4.22 0 0 0-.672 1.247 4.37 4.37 0 0 0-.239 1.431c-.003.5.1.998.27 1.464a3.75 3.75 0 0 0 .748 1.192 3.65 3.65 0 0 0 1.116.813 3.21 3.21 0 0 0 1.399.305zm18.538 1.822h-2.386v-6.353a3.89 3.89 0 0 0-.553-2.309 1.86 1.86 0 0 0-1.593-.748 2.71 2.71 0 0 0-.998.195c-.34.135-.66.32-.942.553-.302.244-.568.53-.792.846a3.6 3.6 0 0 0-.52 1.072v6.743h-2.385v-15.827h2.385v6.765a4.68 4.68 0 0 1 1.768-1.82 4.76 4.76 0 0 1 2.438-.65 3.58 3.58 0 0 1 1.746.38 3.06 3.06 0 0 1 1.095 1.008 4.06 4.06 0 0 1 .574 1.464c.1.582.166 1.174.163 1.767zm8.975-.585a10.88 10.88 0 0 1-1.258.487c-.552.184-1.13.275-1.713.272a3.62 3.62 0 0 1-1.062-.152 2.6 2.6 0 0 1-.878-.455c-.26-.2-.465-.483-.596-.8a2.9 2.9 0 0 1-.217-1.182v-7.1h-1.496v-1.843h1.496v-3.73h2.385v3.73h2.472v1.843h-2.472v6.33a1.18 1.18 0 0 0 .379.878 1.29 1.29 0 0 0 .835.27c.326.001.65-.057.954-.173q.456-.174.672-.282zm7.307.585v-15.394h6.46a4.28 4.28 0 0 1 1.919.434 4.96 4.96 0 0 1 1.507 1.14 5.37 5.37 0 0 1 .986 1.605c.235.582.356 1.204.357 1.832.002.64-.112 1.275-.336 1.875a5.25 5.25 0 0 1-.943 1.605c-.406.47-.904.854-1.463 1.127-.6.287-1.24.43-1.897.423h-4.162v5.355zm2.43-7.502h4a2.03 2.03 0 0 0 .943-.217 2.16 2.16 0 0 0 .726-.606 3.05 3.05 0 0 0 .478-.911c.12-.37.177-.76.173-1.15a3.3 3.3 0 0 0-.195-1.17 2.74 2.74 0 0 0-.542-.899 2.48 2.48 0 0 0-.791-.586 2.17 2.17 0 0 0-.92-.206h-3.88zm14.63-7.892h2.125l6.07 15.394h-2.56l-1.626-4.185h-5.94l-1.605 4.185h-2.58zm3.534 9.4l-2.472-6.613-2.558 6.613zm24.5-5.345h2.276l-4.77 11.34h-1.973l-2.104-5.27-2.102 5.27h-1.972l-4.792-11.34h2.276l3.664 9.04 1.648-4.206-1.974-4.814h1.95l1.3 3.556 1.28-3.556h1.95l-1.95 4.814 1.648 4.206z"/><use xlink:href="#B" x="-4.661" y="26.018"/><use xlink:href="#C"/><use xlink:href="#C" x="6.525"/><path d="M553.22 128.878c-1.65.02-3.182-.85-4-2.276v2.06h-2.103v-15.828h2.385v6.635a5.23 5.23 0 0 1 1.68-1.713c1.36-.786 3.025-.838 4.434-.14.615.32 1.157.763 1.594 1.3a5.95 5.95 0 0 1 1.018 1.886 7.06 7.06 0 0 1 .358 2.244 6.23 6.23 0 0 1-.412 2.276 6.04 6.04 0 0 1-1.128 1.853c-.476.527-1.055.952-1.7 1.247-.663.305-1.385.46-2.114.455zm-.63-2.038c.495.006.984-.102 1.43-.315.424-.202.804-.486 1.117-.835a3.81 3.81 0 0 0 .726-1.203 3.99 3.99 0 0 0 .26-1.44 4.34 4.34 0 0 0-.25-1.464c-.156-.45-.4-.868-.694-1.235a3.48 3.48 0 0 0-1.062-.856c-.418-.218-.883-.33-1.355-.325a2.97 2.97 0 0 0-1.962.716c-.566.47-1.015 1.063-1.312 1.734v3a2.36 2.36 0 0 0 .456.9 3.63 3.63 0 0 0 .76.704 3.57 3.57 0 0 0 .932.467 3.08 3.08 0 0 0 .954.163zm13.268 2.038a6.05 6.05 0 0 1-2.406-.466 5.59 5.59 0 0 1-1.854-1.269c-.515-.538-.92-1.17-1.192-1.864a6.05 6.05 0 0 1-.423-2.255c-.003-.775.14-1.544.423-2.266.272-.7.677-1.34 1.192-1.887a5.53 5.53 0 0 1 1.854-1.279 6.09 6.09 0 0 1 2.428-.466 5.84 5.84 0 0 1 2.395.477 5.87 5.87 0 0 1 1.832 1.268c.507.53.9 1.157 1.16 1.843a6.12 6.12 0 0 1 .401 2.201l-.02.487-.044.38h-9.083c.034.473.156.936.358 1.365a3.59 3.59 0 0 0 .759 1.052 3.33 3.33 0 0 0 2.31.922c.318 0 .634-.04.942-.12a3.31 3.31 0 0 0 .856-.348 3.03 3.03 0 0 0 .694-.553c.198-.2.36-.452.476-.715l2.038.585a4.73 4.73 0 0 1-1.94 2.092c-.957.556-2.05.838-3.156.813zm3.447-6.742a3.85 3.85 0 0 0-.357-1.323 3.42 3.42 0 0 0-.748-1.029 3.34 3.34 0 0 0-1.062-.661 3.47 3.47 0 0 0-1.279-.239 3.4 3.4 0 0 0-2.32.9 3.26 3.26 0 0 0-.736 1.029 3.95 3.95 0 0 0-.348 1.323zm21.355-6.244h-4.922v12.77h-2.97v-12.77h-4.92v-2.624h12.813zm1.908 12.77v-15.394h6.808a4.39 4.39 0 0 1 1.962.444 5.1 5.1 0 0 1 1.551 1.171 5.53 5.53 0 0 1 1.02 1.648 4.97 4.97 0 0 1 .368 1.853 5.13 5.13 0 0 1-.748 2.72c-.468.8-1.18 1.4-2.026 1.767l3.512 5.8h-3.36l-3.144-5.16h-2.948v5.16zm2.992-7.783h3.75a1.59 1.59 0 0 0 .771-.195 1.99 1.99 0 0 0 .617-.53 2.64 2.64 0 0 0 .412-.791 3.05 3.05 0 0 0 .15-.976 2.78 2.78 0 0 0-.173-.998 2.61 2.61 0 0 0-.466-.79 2.12 2.12 0 0 0-.673-.521c-.24-.12-.502-.182-.77-.184h-3.62zm11.425 7.783v-15.394h2.992v15.394zm6.202 0v-15.394h6.525a4.38 4.38 0 0 1 1.963.444 5.1 5.1 0 0 1 1.55 1.171 5.52 5.52 0 0 1 1.019 1.648 4.95 4.95 0 0 1 .369 1.853 5.34 5.34 0 0 1-.347 1.896 5.26 5.26 0 0 1-.976 1.637c-.423.482-.94.872-1.52 1.15a4.39 4.39 0 0 1-1.951.434h-3.642v5.16zm2.992-7.783h3.47a1.71 1.71 0 0 0 1.377-.672c.392-.523.588-1.168.553-1.82a3.02 3.02 0 0 0-.174-1.052 2.52 2.52 0 0 0-.455-.79 1.83 1.83 0 0 0-.66-.488 1.94 1.94 0 0 0-.769-.162h-3.34zm10.514 7.783v-15.394h2.992v12.77h7.848v2.623zm23.35-2.622v2.623h-10.688V113.27h10.493v2.624h-7.5v3.707h6.482v2.428h-6.482v4.012zm2.342 2.622v-15.394h5.594a8.37 8.37 0 0 1 3.306.607 6.65 6.65 0 0 1 3.806 4.087 9.2 9.2 0 0 1 .477 2.98 9.05 9.05 0 0 1-.53 3.177 6.78 6.78 0 0 1-1.528 2.428 6.91 6.91 0 0 1-2.395 1.562c-1 .38-2.063.568-3.133.553zm10.168-7.72a6.55 6.55 0 0 0-.304-2.037c-.184-.6-.486-1.136-.9-1.604a3.95 3.95 0 0 0-1.44-1.04c-.615-.254-1.275-.38-1.94-.368h-2.602v10.146h2.602a4.69 4.69 0 0 0 1.962-.391 4.02 4.02 0 0 0 1.431-1.073 4.76 4.76 0 0 0 .878-1.615c.207-.652.3-1.333.304-2.017zm5.072 7.72v-2.775h1.974v2.775z"/><rect x="377" y="149.611" width="265" height="45" rx="12" fill="#ff6c36"/><path d="M391.195 164.1l4.2 8.208 4.272-8.208h3.576l-6.192 11.088v5.952h-3.288v-6l-6.168-11.04zm25.752 14.136v2.905h-11.832v-17.04h11.617v2.904h-8.305v4.103h7.176v2.688h-7.176v4.44zm12.385-9.672c-.2-.17-.395-.323-.612-.456a7.46 7.46 0 0 0-1.08-.563 9.44 9.44 0 0 0-1.38-.469 6.07 6.07 0 0 0-1.512-.19 3.39 3.39 0 0 0-2.04.504c-.446.33-.698.86-.673 1.416-.012.3.076.62.252.876a2.17 2.17 0 0 0 .732.612 6.16 6.16 0 0 0 1.213.48q.73.217 1.7.456 1.248.337 2.268.72a6.19 6.19 0 0 1 1.729.96c.463.373.836.845 1.092 1.38.274.623.405 1.3.385 1.98a4.93 4.93 0 0 1-.517 2.34c-.328.63-.806 1.17-1.392 1.572-.613.413-1.297.7-2.017.876-.782.187-1.584.28-2.388.276a12.83 12.83 0 0 1-3.792-.576 11.7 11.7 0 0 1-3.36-1.632l1.465-2.856a4.58 4.58 0 0 0 .779.564c.43.26.874.492 1.332.695.55.246 1.12.442 1.704.588a7.69 7.69 0 0 0 1.92.24q2.735 0 2.735-1.752c.01-.34-.1-.67-.3-.935a2.64 2.64 0 0 0-.888-.672 8.51 8.51 0 0 0-1.393-.528q-.816-.24-1.824-.528c-.724-.192-1.434-.437-2.123-.73a5.59 5.59 0 0 1-1.5-.936c-.4-.344-.697-.77-.9-1.248-.212-.538-.314-1.113-.3-1.7a5.31 5.31 0 0 1 .48-2.305 4.66 4.66 0 0 1 1.332-1.68c.6-.46 1.262-.806 1.98-1.02a8.17 8.17 0 0 1 2.424-.349 9.41 9.41 0 0 1 3.312.564 12.39 12.39 0 0 1 2.64 1.332zm4.535 15.346l.648-2.856h-1.008v-3.36h2.783v3.36l-.983 2.856zm23.433-16.905h-5.447v14.136h-3.288v-14.136h-5.448v-2.904H457.3zm2.102 14.135V164.1h7.535a4.84 4.84 0 0 1 2.173.492c.65.318 1.232.758 1.716 1.296a6.14 6.14 0 0 1 1.128 1.824c.266.65.405 1.348.408 2.052a5.67 5.67 0 0 1-.828 3.012 4.75 4.75 0 0 1-2.244 1.956l3.888 6.408h-3.72l-3.48-5.712h-3.264v5.712zm3.312-8.616h4.152c.298.001.6-.073.852-.216a2.17 2.17 0 0 0 .685-.588 2.95 2.95 0 0 0 .456-.876 3.42 3.42 0 0 0 .168-1.08 3.06 3.06 0 0 0-.192-1.104 2.9 2.9 0 0 0-.516-.876 2.36 2.36 0 0 0-.744-.575 1.94 1.94 0 0 0-.853-.204h-4.008zm12.648 8.616V164.1h3.312v17.04zm6.865 0V164.1h7.223c.752-.007 1.496.16 2.172.492a5.61 5.61 0 0 1 1.716 1.296 6.1 6.1 0 0 1 1.128 1.824c.267.65.405 1.348.408 2.052.001.717-.13 1.43-.384 2.1a5.83 5.83 0 0 1-1.08 1.813 5.28 5.28 0 0 1-1.68 1.27 4.86 4.86 0 0 1-2.16.481h-4.032v5.712zm3.3-8.616h3.84c.597.006 1.162-.27 1.524-.744.435-.58.652-1.293.612-2.016.006-.396-.06-.8-.192-1.164-.114-.32-.285-.617-.504-.876-.2-.234-.45-.42-.733-.54a2.14 2.14 0 0 0-.852-.18h-3.696zm11.64 8.616V164.1h3.312v14.136h8.688v2.904zm25.847-2.904v2.905h-11.832v-17.04h11.615v2.904h-8.304v4.103h7.176v2.688h-7.176v4.44zm22.248 2.904v-11.28l-4.392 8.4h-1.8l-4.393-8.4v11.28h-3.3V164.1h3.552l5.04 9.696 5.088-9.696h3.528v17.04zm8.784-17.04l4.2 8.208 4.27-8.208h3.576l-6.192 11.088v5.952h-3.288v-6l-6.168-11.04zm30.696 15.12a6.51 6.51 0 0 1-4.752 2.04 7.52 7.52 0 0 1-3.156-.672 7.99 7.99 0 0 1-2.568-1.849 8.81 8.81 0 0 1-1.728-2.77c-.43-1.097-.647-2.266-.637-3.444-.01-2.237.845-4.392 2.4-6.012a8.39 8.39 0 0 1 2.628-1.848 7.88 7.88 0 0 1 3.288-.684 7.99 7.99 0 0 1 4.116 1.008 6.52 6.52 0 0 1 2.579 2.712l-2.472 1.824c-.4-.812-1.03-1.5-1.8-1.943-.77-.446-1.643-.68-2.532-.673a4.34 4.34 0 0 0-1.98.456c-.596.3-1.12.727-1.536 1.248a5.89 5.89 0 0 0-.983 1.824 6.78 6.78 0 0 0-.349 2.184c-.006.765.124 1.524.385 2.243.237.664.595 1.28 1.056 1.813a4.95 4.95 0 0 0 1.596 1.212 4.57 4.57 0 0 0 2.004.444 5.81 5.81 0 0 0 4.465-2.328v-1.2h-3.433v-2.424h6.168v8.76h-2.735zm5.567 1.92V164.1h3.3v17.04zm6.865 0V164.1h11.447v2.904h-8.136v4.392h6.77v2.7h-6.77v7.056zm26.518-14.135h-5.447v14.136h-3.288v-14.136h-5.448v-2.904h14.184zm2.424 7.727v-10.8h3.216v10.8zm0 6.408v-3.624h3.216v3.624z" fill="#fff"/><defs ><path id="B" d="M528.784 89.442v-2.624h2.385v2.624zm0 13.203v-11.34h2.385v11.34z"/><path id="C" d="M529.392 112.835h2.386v12.554a1.41 1.41 0 0 0 .325.986c.236.247.57.377.9.357.187-.004.373-.033.553-.087a6.11 6.11 0 0 0 .597-.195l.347 1.865a5.52 5.52 0 0 1-1.236.379 6.71 6.71 0 0 1-1.278.142 2.62 2.62 0 0 1-1.919-.673c-.48-.514-.728-1.205-.684-1.907z"/></defs></svg>
